<svg height="1em" style="flex:none;line-height:1" viewBox="0 0 24 24" width="1em" xmlns="http://www.w3.org/2000/svg"><title>Bright Data</title><g fill="#9FC0FF" transform="translate(0,9) scale(0.134)"><path d="M134.073 0C132.042 3.92378 139.136 9.62486 140.797 11.2772C141.946 9.39975 142.997 8.22548 143.95 7.75403C142.371 10.858 144.094 13.6804 144.52 16.4965C145.379 22.4167 142.082 27.7739 136.36 29.0444C132.211 29.8892 128.206 29.4699 125.342 26.0842C122.478 22.8425 122.052 19.0375 123.625 15.0887C124.628 12.6918 125.342 10.4386 123.913 7.76008L123.907 7.75403C125.768 8.4612 126.627 9.58761 127.486 11.1396C128.914 10.2948 129.629 9.02444 129.917 7.61643C130.205 6.20208 130.494 4.79368 130.92 3.38558C131.497 1.97131 132.355 0.844826 134.073 0Z" fill="#9FC0FF"/><path fill-rule="evenodd" clip-rule="evenodd" d="M23.5122 44.1976C24.2904 43.4268 25.2695 42.5558 26.4369 41.879C27.5102 41.1082 28.7782 40.4311 30.046 39.8483C31.4143 39.2718 32.7763 38.783 34.3391 38.4007C35.9019 38.0122 37.559 37.8241 39.3165 37.8241C42.4359 37.8241 45.3671 38.3066 48.0973 39.372C50.8276 40.4373 53.269 42.0795 55.3151 44.2979C57.3612 46.6166 59.0247 49.5117 60.2925 53.184C61.4662 56.8563 62.1443 61.1994 62.1443 66.5136C62.1442 71.0507 61.4602 75.2057 60.0982 79.1663C58.7299 83.1269 56.6834 86.4107 54.0473 89.3059C51.4112 92.2011 48.1913 94.4257 44.4882 96.0675C40.6846 97.7094 36.4918 98.5806 31.7091 98.5806C28.3951 98.5806 25.3698 98.3866 22.5391 98.0983C19.8088 97.81 17.367 97.4211 15.3209 96.9385C13.2749 96.456 11.6117 96.0677 10.3439 95.5852C9.07618 95.1027 8.10334 94.8142 7.70785 94.5197V29.8468L0 28.5932V22.6023L23.5122 19.6129V44.1976ZM32.776 47.187C30.6295 47.187 28.7779 47.5755 27.2151 48.3463C25.6523 49.1171 24.3842 49.9881 23.5055 50.9531V89.1991C23.9951 89.9699 24.874 90.6467 26.236 91.0353C27.6042 91.5178 29.2612 91.7122 31.0186 91.7122C33.3597 91.7122 35.4062 91.1294 37.0695 89.876C38.8269 88.6227 40.1888 86.9807 41.3625 84.8563C42.5299 82.7319 43.3144 80.219 43.8982 77.4178C44.4819 74.6166 44.7768 71.527 44.7769 68.3372C44.7769 65.1474 44.5825 62.0578 44.093 59.3569C43.6034 56.7499 42.9254 54.525 41.8521 52.6951C40.8793 50.859 39.6115 49.5054 38.0487 48.5403C36.6804 47.6693 34.8287 47.187 32.7826 47.187H32.776Z" fill="#9FC0FF"/><path d="M88.7515 52.0771H88.9458C89.3343 51.0014 90.1112 49.6361 91.1826 47.9753C92.254 46.3146 93.6136 44.6601 95.1737 43.0938C96.7338 41.5336 98.5823 40.1685 100.625 39.0927C102.667 38.017 104.905 37.432 107.342 37.432C108.413 37.432 109.19 37.4316 109.773 37.5323C110.356 37.6329 110.845 37.7275 111.233 37.8281V55.688C110.844 55.3924 109.873 55.1031 108.313 54.8075C106.753 54.5118 104.811 54.317 102.668 54.317C101.502 54.317 100.237 54.4172 99.0648 54.5116C97.8994 54.6122 96.7276 54.8074 95.6561 55.0968C94.5848 55.2918 93.7078 55.5877 92.837 55.877C91.9599 56.1726 91.377 56.4619 90.8883 56.7576V89.5464L103.639 90.817V97.5484H67.9178V90.622L75.0544 89.628V50.0076L67.3665 48.183V39.9481L88.8453 37.1613L88.7515 52.0771Z" fill="#9FC0FF"/><path d="M143.93 89.5469L151.444 90.623V97.5484H120.111V90.623L127.72 89.6477V49.4839L120.705 47.7984V40.0927L143.93 37.1613V89.5469Z" fill="#9FC0FF"/><path fill-rule="evenodd" clip-rule="evenodd" d="M219.333 48.9541H208.809C209.212 50.0556 209.514 51.2506 209.722 52.4516C209.924 53.6526 210.025 55.0527 210.025 56.4466C210.025 59.6452 209.319 62.5456 208.002 65.1406C206.686 67.7418 204.765 70.0382 202.341 72.0358C199.91 73.9337 196.981 75.4333 193.643 76.5348C190.205 77.6362 186.564 78.134 182.414 78.1341L182.42 78.1154C179.485 78.1154 176.758 77.9164 174.327 77.5181C173.723 78.1156 173.213 78.8189 172.81 79.6154C172.407 80.412 172.205 81.3143 172.205 82.4158C172.205 83.6168 172.406 84.6126 172.91 85.4153C173.414 86.1123 174.126 86.7161 175.134 87.1144C176.148 87.5126 177.357 87.8111 178.975 87.9168C180.594 88.0226 182.414 88.1159 184.536 88.1159H195.161C202.851 88.1159 208.513 89.4168 212.361 91.9123C216.102 94.5135 218.022 98.7077 218.023 104.508C218.023 108.005 217.109 111.303 215.189 114.203C213.368 117.103 210.837 119.499 207.6 121.603C204.463 123.6 200.722 125.199 196.572 126.301C192.421 127.402 188.076 128 183.522 128H183.421C178.364 128 174.113 127.602 170.574 126.7C167.034 125.797 164.099 124.602 161.775 123.102C159.451 121.603 157.833 119.704 156.718 117.607C155.603 115.51 155.1 113.108 155.1 110.612C155.1 109.013 155.402 107.513 156.013 106.014C156.618 104.613 157.43 103.313 158.437 102.118C159.451 100.917 160.56 99.9215 161.977 99.0191C163.293 98.1168 164.71 97.4197 166.127 96.9219C164.106 95.8204 162.487 94.5257 161.372 92.9264C160.258 91.3271 159.754 89.4291 159.754 87.2324C159.754 84.5316 160.459 82.335 161.876 80.437C163.293 78.6385 165.113 76.9395 167.337 75.5393C163.696 73.94 161.064 71.6436 159.345 68.6441C157.625 65.6446 156.712 62.1469 156.712 58.1517C156.712 54.9532 157.417 52.1529 158.834 49.558C160.251 46.9567 162.273 44.7597 164.704 42.9612C167.236 41.1628 170.063 39.7625 173.401 38.7606C176.739 37.7587 180.279 37.2611 184.026 37.2611H184.127C193.026 37.2611 199.608 38.9596 203.953 42.3574C204.457 41.76 205.169 41.1563 205.975 40.559C206.781 39.9616 207.795 39.3582 208.91 38.8604C210.024 38.3625 211.24 37.958 212.55 37.6593C213.866 37.3606 215.283 37.1613 216.801 37.1613H219.333V48.9541ZM173.314 98.9068C172.608 99.7095 171.896 100.706 171.291 101.907C170.687 103.108 170.379 104.906 170.379 107.003C170.379 109.399 170.681 111.403 171.291 113.003C171.896 114.602 172.91 116.002 174.126 116.997C175.341 117.999 176.96 118.796 178.78 119.195C180.6 119.692 182.723 119.891 185.154 119.891H185.254C187.377 119.891 189.506 119.692 191.628 119.195C193.65 118.697 195.577 117.993 197.189 116.997C198.807 115.996 200.124 114.701 201.031 113.202C202.045 111.702 202.549 109.903 202.549 107.906C202.549 106.406 202.347 105.006 202.045 103.91C201.743 102.809 201.132 101.913 200.225 101.21C199.312 100.513 198.203 100.008 196.685 99.7097C195.167 99.411 193.246 99.2117 190.916 99.2117H179.687V99.2056C179.661 99.2056 175.229 99.2046 173.314 98.9068ZM183.132 44.2308C179.794 44.2309 177.369 45.3323 175.845 47.4294C174.327 49.5266 173.521 52.6258 173.521 56.9259C173.521 59.023 173.723 60.9209 174.025 62.626C174.327 64.3249 174.938 65.8249 175.644 67.1255C176.456 68.3266 177.464 69.3225 178.78 70.0257C180.096 70.7227 181.715 71.127 183.737 71.127V71.121C185.557 71.121 187.075 70.7224 188.29 70.0191C189.506 69.3222 190.412 68.3204 191.124 67.1195C191.829 65.9184 192.239 64.4186 192.541 62.7198C192.843 61.0209 192.944 59.2223 192.944 57.4239C192.944 52.825 192.239 49.4268 190.721 47.3296C189.203 45.2326 186.778 44.2308 183.233 44.2308H183.132Z" fill="#9FC0FF"/><path d="M246.799 45.7616C247.674 44.8951 248.241 44.8326 249.702 43.8725C251.162 42.9123 252.623 42.0456 254.373 41.2787C256.123 40.5119 258.075 39.8387 260.115 39.2651C262.161 38.785 264.396 38.498 266.638 38.498C269.949 38.498 272.77 38.9781 274.91 39.8448C277.051 40.7114 278.801 42.1518 280.167 44.0721C281.534 45.9924 282.308 48.3928 282.894 51.2732C283.378 54.1537 283.674 57.608 283.674 61.5484V89.5867L290.877 90.6401V97.4546H262.161V90.8271L267.903 89.6739V61.4425C267.903 59.1357 267.809 57.1217 267.513 55.3947C267.317 53.6676 266.833 52.3208 266.146 51.1673C265.466 50.014 264.591 49.2472 263.421 48.7671C262.25 48.2871 260.694 48 258.843 48C257.773 48 256.703 48.0936 255.532 48.3866C254.361 48.6734 253.29 48.9605 252.321 49.2535C251.251 49.6401 250.274 50.0204 249.399 50.5005C248.524 50.9805 247.743 51.4605 247.063 51.9405V89.6799L254.071 90.7339V97.5484H224.864V97.4546H224.871V90.6401L231.198 89.5867V29.7258L223.51 28.4788V22.5247L246.799 19.6129V45.7616Z" fill="#9FC0FF"/><path d="M314.943 39.7747L314.95 39.7812H330.008V48.4304H314.95V76.502C314.95 79.1936 314.949 81.3111 315.043 82.941C315.138 84.5771 315.333 85.7262 315.628 86.5005C315.917 87.2686 316.502 87.8494 317.181 88.0368C317.859 88.2241 318.834 88.4239 319.996 88.4239H320.091C320.87 88.4239 321.744 88.3303 322.711 88.2303C323.585 88.1367 324.459 87.9431 325.332 87.7495C326.206 87.5559 326.985 87.3622 327.758 87.1749C328.537 86.9813 329.116 86.7876 329.606 86.6003H329.706L332.132 92.558C331.064 93.3261 329.895 94.0946 328.343 94.8689C326.79 95.6371 325.232 96.3114 323.39 96.9859C321.542 97.6604 319.701 98.1412 317.658 98.5222C315.616 98.9031 313.673 99.0968 311.637 99.0968H311.543C309.306 99.0968 307.364 98.8096 305.811 98.2288C304.259 97.6543 302.895 96.7859 301.927 95.6305C300.959 94.4752 300.274 93.1326 299.79 91.4027C299.306 89.6729 299.111 87.8432 299.111 85.6326V48.3306H291.921V42.56C292.11 42.4975 295.14 42.1789 296.34 41.6981C297.584 41.1298 298.747 40.2306 299.828 38.9879C300.883 37.5328 301.82 35.8343 302.587 33.7671L305.912 24.7742H314.748L314.943 39.7747Z" fill="#9FC0FF"/><path fill-rule="evenodd" clip-rule="evenodd" d="M404.34 92.3779H410.45L410.469 97.1652C409.012 97.5527 407.367 97.9405 405.428 98.4218C403.49 98.903 401.451 99.0967 399.318 99.0967C398.443 99.0967 397.573 99.0031 396.892 98.9031C396.21 98.8093 395.629 98.5154 395.147 98.1279C394.666 97.7404 394.278 97.1592 394.084 96.4843C393.89 95.8093 393.696 94.8403 393.696 93.6778V91.453C392.821 92.4217 391.758 93.2903 390.594 94.259C389.431 95.2277 388.168 95.9966 386.717 96.6778C385.26 97.3528 383.709 97.934 381.964 98.4152C380.313 98.7027 378.475 98.9969 376.436 98.9969L376.43 99.0029C373.422 99.0029 370.513 98.4218 367.705 97.2655C364.891 96.103 362.471 94.2715 360.432 91.9465C358.3 89.5278 356.649 86.5341 355.392 82.953C354.129 79.378 353.547 75.1217 353.547 70.1904C353.547 65.6467 354.229 61.4906 355.586 57.6219C356.943 53.7532 358.981 50.3717 361.502 47.4717C364.122 44.5717 367.224 42.3468 370.908 40.703C374.591 39.0593 378.762 38.2842 383.415 38.2842C385.066 38.2842 386.617 38.3777 388.262 38.5715C389.813 38.7652 391.363 38.9594 392.821 39.2469V27.9717L382.74 26.453V21.6219L404.359 19.0967L404.34 92.3779ZM382.827 44.0029C380.501 44.003 378.368 44.3903 376.43 45.259C374.391 46.1277 372.646 47.484 371.095 49.4152C369.544 51.3464 368.381 53.8654 367.506 56.9591C366.63 60.0528 366.148 63.8216 366.048 68.2716C365.954 72.234 366.342 75.7154 367.117 78.6153C367.893 81.5153 368.963 83.8341 370.314 85.7716C371.671 87.609 373.321 89.0591 375.16 89.9278C377.005 90.7028 379.037 91.1844 381.17 91.1844L381.176 91.1718C382.533 91.1718 383.796 90.9779 385.054 90.6904C386.217 90.303 387.38 89.9156 388.349 89.4344C389.318 88.9531 390.194 88.3715 390.97 87.7902C391.745 87.209 392.42 86.6278 392.908 86.0528V47.1904C392.714 46.803 392.227 46.4156 391.645 46.0281C390.97 45.6406 390.288 45.2531 389.318 44.9656C388.449 44.6781 387.38 44.384 386.317 44.2902C385.247 44.0965 384.084 44.0029 382.827 44.0029Z" fill="#9FC0FF"/><path fill-rule="evenodd" clip-rule="evenodd" d="M441.562 38.1935C445.169 38.1935 448.188 38.5825 450.721 39.2605C453.159 40.0389 455.206 41.2004 456.767 42.7509C458.327 44.4018 459.4 46.4358 460.082 49.0533C460.765 51.671 461.055 54.7721 461.055 58.5574V92.2983H467.391V97.2449C466.709 97.4395 465.932 97.6339 465.054 97.8285C464.176 98.0231 463.203 98.2176 462.23 98.4122C461.258 98.6068 460.184 98.8014 459.211 98.8956C458.238 98.9897 457.164 99.0906 456.286 99.0906C455.313 99.0906 454.53 99.0905 453.753 98.9964C453.071 98.9022 452.484 98.7076 451.997 98.3185C451.511 97.9293 451.22 97.4458 451.025 96.6738C450.829 95.9958 450.734 95.0225 450.734 93.767V91.8275C450.248 92.2167 449.565 92.7942 448.593 93.6667C447.62 94.4451 446.35 95.3175 444.891 96.0896C443.432 96.868 441.771 97.6404 439.825 98.2242C437.974 98.808 435.928 99.0967 433.78 99.0967C431.443 99.0967 429.2 98.8079 427.053 98.1299C424.911 97.452 423.054 96.4854 421.399 95.2237C419.744 93.8678 418.475 92.2168 417.502 90.0826C416.529 87.9482 416.232 85.5248 416.232 82.6184L416.213 82.6058C416.213 80.1828 416.7 77.9542 417.578 76.0145C418.456 74.0749 419.719 72.4302 421.38 70.8734C423.035 69.4171 424.886 68.1555 427.034 67.0947C429.175 66.0275 431.519 65.2552 434.051 64.571C436.584 63.893 439.219 63.4099 441.948 63.1148C444.676 62.8261 447.405 62.6311 450.039 62.5307V59.819C450.039 57.3959 449.843 55.3557 449.553 53.7111C449.161 52.0602 448.58 50.7042 447.796 49.637C446.919 48.57 445.845 47.7979 444.386 47.4087C443.021 46.9253 441.17 46.7308 439.023 46.7308C437.172 46.7308 435.321 46.9254 433.471 47.2141C431.62 47.6033 429.864 47.9924 428.108 48.4757C426.453 48.9591 424.892 49.5428 423.427 50.0261C421.968 50.6099 420.793 51.0937 419.82 51.577H419.726L417.388 46.6304C418.071 46.0467 419.144 45.2743 420.799 44.3013C422.454 43.3346 424.406 42.4623 426.649 41.4893C428.891 40.6168 431.329 39.8381 433.862 39.1602C436.49 38.4823 439.029 38.1935 441.562 38.1935ZM450.033 68.3563C445.94 68.3563 442.529 68.7454 439.705 69.4233C436.976 70.1012 434.734 71.0682 433.079 72.2358C431.424 73.3971 430.256 74.7594 429.573 76.3099C428.891 77.8604 428.499 79.411 428.499 81.0619C428.499 82.9011 428.79 84.5522 429.276 85.8139C429.762 87.0755 430.445 88.1425 431.323 89.015C432.201 89.7934 433.275 90.4717 434.443 90.7605C435.808 91.1497 437.078 91.3442 438.442 91.3442L438.435 91.3316C439.117 91.3316 439.996 91.2373 440.968 91.0427C441.941 90.8481 443.015 90.5596 444.089 90.2645C445.163 89.8753 446.23 89.4857 447.209 89.0024C448.283 88.5191 449.161 87.9353 450.033 87.3578V68.3563Z" fill="#9FC0FF"/><path d="M487.826 39.4389H503.936V46.8835H487.826V77.5307C487.826 80.5284 487.827 82.9454 487.921 84.6879C488.021 86.4304 488.21 87.6861 488.6 88.4606C488.989 89.235 489.574 89.8159 490.353 90.0095C491.133 90.203 492.201 90.2968 493.559 90.2968H493.659C494.633 90.2968 495.149 90.2032 496.218 90.1032C497.286 90.0095 498.354 89.8157 499.329 89.6158C500.397 89.4222 501.271 89.2288 502.151 89.0352C503.024 88.8416 503.71 88.6476 504.194 88.3603H504.288L506.035 93.388C505.256 93.9688 504.093 94.6437 502.635 95.3245C501.177 95.999 499.618 96.5799 497.965 97.1607C496.312 97.7415 495.117 98.1288 493.269 98.516C491.422 98.9032 489.769 99.0967 488.116 99.0967H488.021C486.173 99.0967 484.615 98.9032 483.157 98.516C481.698 98.1288 480.529 97.4539 479.461 96.4858C478.487 95.5177 477.707 94.2625 477.129 92.7136C476.645 90.9711 476.349 89.0413 476.349 86.8179V46.8895H468.958V42.3305C470.265 42.3805 471.453 42.1494 472.647 41.6622C473.892 41.0876 475.061 40.1758 476.142 38.9268C477.198 37.4591 478.141 35.7412 478.914 33.6551L482.182 24.7741H487.826V39.4389Z" fill="#9FC0FF"/><path fill-rule="evenodd" clip-rule="evenodd" d="M538.173 38.1935C541.78 38.1935 544.799 38.5825 547.332 39.2605C549.77 40.0389 551.817 41.2004 553.377 42.7509C554.938 44.4018 556.011 46.4358 556.693 49.0533C557.375 51.671 557.666 54.7721 557.666 58.5574V92.2983H564.002V97.2449C563.32 97.4395 562.543 97.6339 561.665 97.8285C560.787 98.0231 559.814 98.2176 558.841 98.4122C557.869 98.6068 556.794 98.8014 555.822 98.8956C554.849 98.9897 553.775 99.0906 552.897 99.0906C551.924 99.0906 551.141 99.0905 550.364 98.9964C549.682 98.9022 549.094 98.7076 548.608 98.3185C548.122 97.9293 547.831 97.4458 547.636 96.6738C547.44 95.9958 547.345 95.0225 547.345 93.767V91.8275C546.858 92.2167 546.176 92.7942 545.203 93.6667C544.231 94.4451 542.961 95.3175 541.502 96.0896C540.043 96.868 538.381 97.6404 536.436 98.2242C534.585 98.808 532.539 99.0967 530.391 99.0967C528.054 99.0967 525.811 98.8079 523.663 98.1299C521.522 97.452 519.665 96.4854 518.01 95.2237C516.355 93.8678 515.086 92.2168 514.113 90.0826C513.14 87.9482 512.843 85.5248 512.843 82.6184L512.824 82.6058C512.824 80.1828 513.31 77.9542 514.188 76.0145C515.066 74.0749 516.33 72.4302 517.991 70.8734C519.646 69.4171 521.497 68.1555 523.644 67.0947C525.786 66.0275 528.129 65.2552 530.662 64.571C533.195 63.893 535.83 63.4099 538.558 63.1148C541.287 62.8261 544.016 62.6311 546.65 62.5307V59.819C546.65 57.3959 546.454 55.3557 546.164 53.7111C545.772 52.0602 545.191 50.7042 544.407 49.637C543.529 48.57 542.456 47.7979 540.997 47.4087C539.632 46.9253 537.781 46.7308 535.634 46.7308C533.783 46.7308 531.932 46.9254 530.081 47.2141C528.231 47.6033 526.475 47.9924 524.718 48.4757C523.064 48.9591 521.503 49.5428 520.038 50.0261C518.579 50.6099 517.404 51.0937 516.431 51.577H516.336L513.999 46.6304C514.681 46.0467 515.755 45.2743 517.41 44.3013C519.065 43.3346 521.017 42.4623 523.259 41.4893C525.502 40.6168 527.94 39.8381 530.473 39.1602C533.101 38.4823 535.64 38.1935 538.173 38.1935ZM546.644 68.3563C542.55 68.3563 539.139 68.7454 536.316 69.4233C533.587 70.1012 531.345 71.0682 529.69 72.2358C528.035 73.3971 526.866 74.7594 526.184 76.3099C525.502 77.8604 525.11 79.411 525.11 81.0619C525.11 82.9011 525.4 84.5522 525.887 85.8139C526.373 87.0755 527.056 88.1425 527.933 89.015C528.811 89.7934 529.885 90.4717 531.054 90.7605C532.418 91.1497 533.688 91.3442 535.053 91.3442L535.046 91.3316C535.728 91.3316 536.606 91.2373 537.579 91.0427C538.552 90.8481 539.626 90.5596 540.7 90.2645C541.774 89.8753 542.841 89.4857 543.82 89.0024C544.894 88.5191 545.772 87.9353 546.644 87.3578V68.3563Z" fill="#9FC0FF"/></g></svg>