<svg height="1em" style="flex:none;line-height:1" viewBox="0 0 24 24" width="1em" xmlns="http://www.w3.org/2000/svg"><title>Cambricon</title><g transform="scale(0.1875)"><path fill="#FAFCFE" d="M 98.00 20.00 L 97.70 18.16 L 34.00 18.00 L 32.00 20.00 L 32.00 104.00 L 41.00 111.00 L 44.00 111.00 L 43.16 28.39 L 92.00 28.00 C 95.50 26.91 97.99 23.71 98.00 20.00 Z"/><path fill="#FAFCFE" d="M 72.00 101.00 L 48.00 101.00 L 47.77 112.17 L 61.00 113.00 L 98.36 112.78 L 93.23 101.94 L 72.00 101.00 Z"/><path fill="#338AFD" d="M 48.00 101.00 L 45.00 101.00 L 45.03 30.59 C 60.74 31.87 76.52 30.88 92.00 28.00 L 43.16 28.39 L 44.00 111.00 L 41.00 111.00 C 47.24 113.62 54.29 115.13 61.00 113.00 L 47.77 112.17 L 48.00 101.00 Z"/><path fill="#338AFD" d="M 32.00 104.00 L 32.00 20.00 C 30.13 47.97 30.20 76.03 32.00 104.00 Z"/><path fill="#338AFD" d="M 34.00 18.00 L 97.70 18.16 L 98.00 20.00 L 99.00 17.00 C 77.34 15.32 55.61 16.23 34.00 18.00 Z"/><path fill="#338AFD" d="M 48.00 101.00 L 72.00 101.00 C 64.07 99.53 55.93 99.58 48.00 101.00 Z"/></g></svg>