<svg height="1em" style="flex:none;line-height:1" viewBox="0 0 24 24" width="1em" xmlns="http://www.w3.org/2000/svg"><title>Discord</title><defs></defs><g transform="translate(0,0) scale(0.192)"><g transform="translate(-4,-3)"><path d="M124 62c0 32.584-26.863 59-60 59S4 94.584 4 62 30.863 3 64 3s60 26.416 60 59zm0 0" fill="#5865f2"/><path d="M90.09 39.658a62.11 62.11 0 0 0-15.508-4.79 44.503 44.503 0 0 0-1.988 4.056c-5.782-.856-11.508-.856-17.184 0a42.73 42.73 0 0 0-2.012-4.056 61.774 61.774 0 0 0-15.515 4.801C28.07 54.254 25.41 68.474 26.738 82.491c6.508 4.778 12.817 7.682 19.02 9.583a46.254 46.254 0 0 0 4.07-6.595 40.517 40.517 0 0 1-6.414-3.07c.539-.39 1.066-.802 1.574-1.224 12.367 5.688 25.805 5.688 38.024 0 .515.422 1.039.833 1.574 1.225a40.648 40.648 0 0 1-6.426 3.073 46.369 46.369 0 0 0 4.07 6.599c6.207-1.901 12.524-4.805 19.032-9.591 1.558-16.248-2.668-30.338-11.172-42.833zM51.515 73.871c-3.714 0-6.757-3.407-6.757-7.56 0-4.148 2.98-7.563 6.757-7.563 3.778 0 6.82 3.408 6.758 7.564.004 4.152-2.98 7.56-6.758 7.56zm24.97 0c-3.712 0-6.759-3.407-6.759-7.56 0-4.148 2.98-7.563 6.758-7.563s6.824 3.408 6.758 7.564c0 4.152-2.98 7.56-6.758 7.56zm0 0" fill="#fff"/></g></g></svg>