<svg height="1em" style="flex:none;line-height:1" viewBox="0 0 24 24" width="1em" xmlns="http://www.w3.org/2000/svg"><title>Doubao Chat</title><g transform="scale(0.03333)"><path fill="#c4e3fd" opacity="1.00" d=" M 365.00 40.00 C 371.46 35.98 415.50 50.19 416.00 58.00 C 421.40 57.81 427.47 67.59 431.00 67.00 C 445.75 68.54 453.85 59.47 469.56 68.52 L 487.00 84.00 L 487.00 85.00 L 503.38 92.58 L 507.00 96.00 L 522.00 107.00 C 527.87 110.28 532.70 115.14 536.00 121.00 L 537.00 124.00 C 540.61 125.91 543.92 128.85 545.00 133.00 L 548.00 135.00 L 556.21 147.76 L 564.09 169.83 L 573.06 214.90 C 584.62 247.70 586.42 282.88 581.00 317.00 L 580.00 317.00 L 573.00 337.00 L 572.00 339.00 L 568.00 349.00 L 570.00 349.00 L 576.00 353.00 C 590.24 359.22 599.87 372.52 602.20 387.72 C 604.53 402.92 598.48 418.01 587.00 428.00 C 571.34 438.46 553.14 445.41 534.00 445.00 L 534.00 446.00 L 534.00 451.00 L 528.00 486.00 L 529.13 523.00 C 529.29 525.35 531.07 534.77 528.00 535.00 L 523.00 537.00 C 504.77 539.94 486.23 539.55 468.00 537.00 L 453.00 536.00 L 422.00 533.00 L 414.00 532.00 C 407.49 532.77 410.09 540.74 410.29 546.00 L 414.26 572.54 L 420.35 587.58 C 422.18 590.09 424.87 591.42 428.00 591.00 C 430.91 594.92 435.91 597.75 441.00 596.00 L 442.00 593.00 C 453.94 593.01 465.67 595.45 477.00 599.00 C 489.68 598.72 502.33 600.95 514.00 606.00 C 521.37 607.71 528.17 611.21 534.00 616.00 C 540.71 619.26 546.48 624.34 550.00 631.00 L 564.00 654.00 L 565.00 655.00 C 595.78 634.05 623.34 608.59 645.74 578.76 L 663.77 553.70 L 679.79 525.67 L 695.77 489.79 L 707.42 455.37 L 718.14 398.18 C 720.64 384.99 722.21 371.40 720.00 358.00 L 719.54 323.50 C 716.69 316.27 714.61 308.52 715.42 300.63 C 712.15 278.98 706.53 257.75 698.83 237.26 L 682.86 200.24 L 666.28 170.75 L 647.12 142.87 L 624.81 116.19 L 608.49 99.49 L 580.60 75.41 L 559.59 60.42 L 526.38 40.49 L 489.79 24.23 L 455.37 12.58 L 398.18 1.86 L 396.50 0.46 L 323.50 0.46 C 318.48 3.13 312.78 4.95 306.99 4.05 L 291.75 6.69 C 268.40 10.62 245.73 17.69 224.06 27.16 C 139.77 61.53 71.04 126.10 32.79 208.91 L 12.56 264.74 L 4.11 305.08 C 5.07 311.49 3.18 317.81 0.46 323.50 L 0.08 393.92 L 2.84 402.15 C 6.80 439.05 16.61 475.10 32.27 508.76 L 56.48 553.54 L 75.48 580.54 L 102.20 611.80 L 133.99 640.00 L 165.00 662.00 L 166.00 660.00 C 168.94 653.62 173.87 648.39 180.00 645.00 L 185.00 641.00 C 196.46 632.09 209.85 626.09 224.00 623.00 C 232.10 617.62 241.31 614.08 251.00 613.00 C 256.21 608.28 262.82 605.03 270.00 605.00 L 271.00 607.00 L 274.00 607.00 C 274.29 602.46 276.91 602.99 280.55 601.53 L 290.57 592.57 L 300.57 577.57 C 307.31 560.18 310.39 541.62 310.00 523.00 L 295.00 523.00 C 285.63 524.46 276.07 523.71 267.00 521.00 L 244.00 519.00 L 234.00 519.00 L 234.00 531.00 C 219.47 529.59 205.04 527.09 191.00 523.00 L 170.00 519.00 L 167.00 519.00 C 156.81 518.93 146.87 516.03 138.11 510.86 L 135.19 501.81 L 127.21 363.00 L 130.87 300.98 L 136.58 265.59 L 150.22 217.16 L 163.14 183.16 C 175.09 154.38 192.36 128.23 213.00 105.00 L 215.00 103.00 C 219.10 97.18 224.15 92.07 230.00 88.00 C 232.55 83.54 237.34 81.28 242.00 80.00 C 244.86 75.29 249.60 72.05 255.00 71.00 C 255.58 66.46 278.86 55.62 283.60 53.44 L 310.00 44.00 C 313.46 41.04 317.97 38.81 322.73 39.69 L 343.00 37.04 L 362.73 37.23 L 365.00 40.00 Z" /><path fill="#4c3530" opacity="1.00" d=" M 320.00 97.00 C 323.52 97.40 321.78 101.92 321.29 104.11 L 326.73 102.92 L 325.00 106.00 L 328.00 108.00 L 329.00 105.00 L 333.36 105.73 L 334.48 108.82 C 333.84 111.39 334.86 113.93 337.89 114.26 L 342.89 113.19 L 357.54 116.28 C 360.71 116.27 363.55 118.43 364.20 121.59 C 364.86 124.75 363.29 128.01 360.28 129.31 L 327.78 149.80 L 287.82 183.80 L 250.96 223.91 C 250.38 231.17 244.08 236.45 236.93 236.22 C 236.10 224.00 239.41 212.00 245.37 201.43 L 247.33 192.57 L 252.76 184.88 C 253.32 178.73 256.12 173.03 260.48 168.69 C 260.63 163.79 262.60 158.88 266.76 155.95 L 271.60 145.75 L 271.00 137.00 L 274.00 136.00 L 270.00 126.00 L 272.00 124.00 C 270.59 121.66 268.31 122.51 268.00 119.00 C 271.58 118.76 270.35 116.18 269.91 113.46 L 274.00 112.00 L 274.00 116.00 C 276.97 115.86 276.03 112.40 276.15 110.01 L 282.97 108.63 L 285.17 110.04 L 286.62 105.63 C 292.11 106.74 297.44 103.80 300.00 99.00 C 301.14 98.57 305.25 102.93 308.00 103.00 L 306.00 101.00 L 310.26 99.12 C 313.69 98.21 317.78 101.18 320.00 97.00 Z M 204.48 309.36 C 204.54 311.86 205.81 316.64 203.00 318.00 L 205.48 330.69 C 203.54 334.85 203.80 339.73 206.29 343.62 L 202.04 346.19 C 203.05 347.87 203.05 347.90 205.00 348.00 L 200.07 357.55 L 195.00 337.00 L 200.66 335.41 C 197.41 326.56 199.68 317.03 204.48 309.36 Z M 215.15 440.47 L 219.81 452.37 L 225.35 509.96 L 223.00 518.00 C 216.73 514.01 212.25 507.52 211.51 499.99 L 210.33 475.21 C 208.79 463.39 210.72 451.46 215.15 440.47 Z M 416.00 58.00 C 415.50 50.19 371.46 35.98 365.00 40.00 C 346.58 38.28 327.96 39.40 310.00 44.00 L 283.60 53.44 C 278.86 55.62 255.58 66.46 255.00 71.00 C 256.22 73.80 251.54 75.16 250.41 77.43 L 251.00 82.00 L 248.00 83.00 C 255.41 84.41 263.68 84.12 270.03 79.28 L 274.85 81.24 L 234.36 112.33 L 209.98 141.87 L 203.57 153.45 L 198.10 167.96 L 181.94 242.47 C 179.43 246.59 178.73 251.45 179.03 256.16 L 175.00 269.00 C 178.22 270.12 172.14 284.25 170.00 285.00 C 171.94 288.96 170.48 294.52 170.41 299.01 L 165.04 331.78 L 161.51 333.72 L 163.27 338.50 L 161.35 359.82 C 162.89 364.20 162.30 369.01 160.00 373.00 C 163.32 372.46 161.23 380.32 159.00 380.00 C 161.40 381.63 162.00 407.24 163.36 411.81 C 166.29 421.62 164.05 430.74 165.87 440.44 L 163.41 452.89 C 163.55 463.35 162.37 473.71 162.37 484.07 L 163.50 499.86 C 166.61 504.07 167.40 509.56 165.57 514.47 L 170.00 519.00 L 191.00 523.00 C 188.23 519.57 183.92 517.09 179.30 518.05 L 183.73 514.50 C 192.26 512.94 201.08 514.28 208.70 518.43 L 222.53 525.31 C 229.02 524.51 227.74 511.67 233.00 513.00 C 229.12 489.88 226.68 466.48 227.00 443.00 L 232.00 446.00 C 228.61 442.55 227.24 437.77 227.21 433.07 L 231.42 419.37 C 233.08 412.02 231.47 403.11 230.49 395.65 L 232.09 358.03 L 235.64 333.47 C 236.67 328.15 237.87 329.56 242.00 328.00 L 239.00 327.00 L 235.94 327.90 L 231.65 348.72 L 225.15 428.17 L 224.00 429.00 L 221.99 415.03 C 221.76 400.83 219.88 386.40 218.96 372.46 L 220.73 361.26 L 217.82 357.03 L 221.10 350.92 L 220.20 319.23 L 223.06 316.53 L 222.00 313.00 C 224.07 312.15 231.62 287.88 230.00 286.00 L 244.25 252.08 L 263.77 222.80 L 295.72 188.77 L 334.60 156.61 L 353.28 146.51 C 359.24 143.88 363.98 141.09 369.55 137.64 C 379.58 135.43 388.91 130.52 396.00 123.00 C 392.92 117.90 398.37 107.32 395.97 101.90 L 399.00 97.00 L 396.00 96.00 L 394.82 100.84 L 390.00 96.00 L 393.00 92.00 C 391.30 89.32 388.99 91.05 387.00 92.00 C 386.79 84.37 375.55 79.37 369.12 80.02 C 368.06 78.12 366.26 76.76 364.18 76.18 C 362.09 75.61 359.87 75.92 358.00 77.00 L 355.82 73.78 C 349.74 75.62 343.26 74.34 338.02 70.92 L 311.55 74.35 L 310.61 72.78 L 315.32 72.24 L 313.87 68.28 L 317.00 66.00 L 311.00 65.00 L 311.00 67.00 L 294.25 67.88 L 289.69 70.68 L 274.00 73.00 L 272.00 75.00 L 271.00 70.00 L 266.00 72.00 C 267.58 61.61 299.85 55.36 299.00 51.00 C 306.06 51.75 303.63 49.94 308.88 49.01 L 327.26 48.10 L 325.95 44.49 L 331.00 43.00 C 335.93 44.84 341.35 44.33 346.00 42.00 C 348.31 46.82 351.29 41.73 354.00 41.00 C 354.89 43.54 360.08 45.38 362.00 43.00 L 363.75 45.40 C 365.81 44.93 371.11 43.05 372.00 47.00 C 375.77 47.44 396.73 53.97 398.00 52.00 C 400.63 55.83 405.52 57.71 410.00 56.00 C 411.13 59.24 413.21 58.27 416.00 58.00 Z" /><path fill="#252221" opacity="1.00" d=" M 448.00 603.00 L 448.00 604.00 L 448.00 607.00 L 449.00 615.00 L 441.61 627.68 L 428.15 638.13 L 411.14 645.16 C 366.26 657.54 317.79 649.78 280.00 622.00 L 278.00 624.00 L 266.44 616.50 L 266.00 614.00 L 270.00 613.00 L 270.00 609.00 L 271.00 607.00 L 270.00 605.00 C 262.82 605.03 256.21 608.28 251.00 613.00 L 249.02 616.01 L 209.28 633.21 L 194.75 642.75 L 174.75 662.78 L 168.00 664.00 L 187.79 676.30 L 229.39 695.66 L 266.26 707.77 L 321.03 717.88 L 323.51 719.50 L 396.49 719.50 C 402.07 716.37 408.53 714.58 414.99 715.76 L 441.02 711.11 C 461.16 707.44 480.61 700.81 499.07 692.02 L 514.17 685.15 C 531.14 677.61 546.95 667.81 562.00 657.00 L 541.09 628.91 L 524.08 615.90 L 513.02 610.95 L 464.96 599.94 C 459.10 598.02 452.92 599.69 448.00 603.00 Z" /><path fill="#412c28" opacity="1.00" d=" M 430.00 112.00 C 432.08 112.80 433.20 114.86 433.48 116.93 C 433.77 119.00 432.56 120.84 431.00 122.00 L 430.00 112.00 Z M 431.00 67.00 C 427.47 67.59 421.40 57.81 416.00 58.00 C 413.21 58.27 411.13 59.24 410.00 56.00 C 405.52 57.71 400.63 55.83 398.00 52.00 C 396.73 53.97 375.77 47.44 372.00 47.00 C 371.11 43.05 365.81 44.93 363.75 45.40 L 362.00 43.00 C 360.08 45.38 354.89 43.54 354.00 41.00 C 351.29 41.73 348.31 46.82 346.00 42.00 C 341.35 44.33 335.93 44.84 331.00 43.00 L 325.95 44.49 L 327.26 48.10 L 308.88 49.01 C 303.63 49.94 306.06 51.75 299.00 51.00 C 299.85 55.36 267.58 61.61 266.00 72.00 L 271.00 70.00 L 272.00 75.00 L 274.00 73.00 L 289.69 70.68 L 294.25 67.88 L 311.00 67.00 L 311.00 65.00 L 317.00 66.00 L 313.87 68.28 L 315.32 72.24 L 310.61 72.78 L 311.55 74.35 L 338.02 70.92 C 343.26 74.34 349.74 75.62 355.82 73.78 L 358.00 77.00 C 359.87 75.92 362.09 75.61 364.18 76.18 C 366.26 76.76 368.06 78.12 369.12 80.02 C 375.55 79.37 386.79 84.37 387.00 92.00 C 388.99 91.05 391.30 89.32 393.00 92.00 L 390.00 96.00 L 394.82 100.84 L 396.00 96.00 L 399.00 97.00 L 395.97 101.90 C 398.37 107.32 392.92 117.90 396.00 123.00 C 388.91 130.52 379.58 135.43 369.55 137.64 C 363.98 141.09 359.24 143.88 353.28 146.51 L 334.60 156.61 L 295.72 188.77 L 263.77 222.80 L 244.25 252.08 L 230.00 286.00 C 231.62 287.88 224.07 312.15 222.00 313.00 L 223.06 316.53 L 220.20 319.23 L 221.10 350.92 L 217.82 357.03 L 220.73 361.26 L 218.96 372.46 C 219.88 386.40 221.76 400.83 221.99 415.03 L 224.00 429.00 L 225.15 428.17 L 231.65 348.72 L 235.94 327.90 L 239.00 327.00 L 238.00 323.00 L 242.00 321.00 L 239.00 321.00 C 240.14 309.16 242.64 297.42 247.41 286.46 C 249.85 282.99 259.50 279.95 260.00 278.00 L 248.85 279.53 C 250.04 273.66 259.86 251.89 265.00 250.00 L 258.73 264.08 C 258.53 269.60 268.12 265.83 271.00 266.00 L 271.00 265.00 L 263.51 264.54 C 274.92 239.45 293.91 218.78 317.00 204.00 L 330.00 197.00 C 349.02 182.17 371.57 172.93 395.00 168.00 C 395.92 162.38 420.45 166.51 425.97 163.02 C 427.93 150.72 436.07 140.80 446.00 134.00 C 444.88 132.03 449.35 108.14 450.78 105.03 L 457.23 96.30 C 462.42 98.61 473.35 95.39 473.00 104.00 C 477.69 103.51 479.81 104.37 483.00 108.00 L 482.00 112.00 C 484.95 112.40 487.82 113.92 489.18 116.73 C 490.54 119.54 490.84 122.94 489.17 125.75 L 492.00 128.00 L 487.28 138.14 L 478.33 138.40 L 482.00 141.00 L 480.00 143.00 C 481.99 143.85 485.54 145.51 485.00 148.00 C 486.97 147.68 489.26 147.55 490.97 148.91 C 492.68 150.28 494.41 152.05 494.57 154.43 C 504.85 162.88 512.73 174.22 515.54 187.42 L 513.00 192.00 L 515.00 194.00 L 508.99 197.29 L 506.35 209.25 C 504.70 211.04 501.06 212.05 500.00 209.00 C 495.76 208.34 485.85 199.14 484.00 201.00 L 486.00 203.00 L 485.74 204.89 L 502.00 220.00 L 524.00 243.00 C 539.63 262.52 550.99 285.04 558.00 309.00 L 560.00 315.00 L 566.38 324.32 C 570.21 319.24 572.54 312.79 571.08 306.33 L 573.55 303.57 C 572.16 299.86 573.19 295.73 576.00 293.00 C 572.50 292.98 575.91 273.73 573.75 269.85 C 576.59 266.14 575.93 263.94 576.42 259.42 L 566.00 212.00 C 562.70 209.02 559.97 205.19 559.39 200.64 L 548.03 180.76 L 547.11 170.23 C 548.14 167.04 549.80 166.83 549.94 162.97 L 544.38 142.57 L 532.00 122.00 L 497.46 96.65 L 466.52 86.72 L 462.68 83.32 C 457.31 85.61 451.28 85.28 446.00 83.00 C 443.96 83.71 441.75 83.28 439.98 82.14 C 438.20 81.01 437.20 79.05 437.00 77.00 C 434.22 76.10 432.11 71.56 432.00 69.00 L 431.00 67.00 Z" /><path fill="#fbc7bb" opacity="1.00" d=" M 408.26 398.38 C 411.66 400.51 413.80 404.40 413.15 408.49 C 416.47 414.24 417.51 420.97 416.45 427.49 C 403.44 433.42 387.97 432.36 376.50 423.37 C 372.04 414.50 401.01 417.70 404.93 412.95 L 408.26 398.38 Z M 410.00 441.00 C 412.48 440.55 414.02 441.85 415.00 444.00 C 417.04 443.41 429.46 451.91 433.40 453.47 L 431.40 457.27 C 422.41 456.05 414.10 451.74 408.00 445.00 L 410.00 441.00 Z M 403.53 492.91 L 400.00 496.00 L 401.00 499.00 L 396.65 501.12 C 401.01 511.48 387.48 508.05 387.00 514.00 L 374.12 512.41 C 363.52 510.34 354.70 503.60 348.62 494.94 L 350.09 490.54 C 347.67 488.26 346.16 486.77 346.96 483.14 C 349.33 481.23 352.29 479.59 355.52 480.10 C 358.75 480.61 362.16 481.83 364.07 484.75 L 403.53 492.91 Z M 486.00 203.00 L 483.00 203.00 C 483.18 210.20 491.61 212.91 492.00 219.00 L 490.00 217.00 C 484.05 218.12 477.57 216.23 474.00 211.00 C 472.34 213.98 471.98 218.10 474.79 220.71 L 471.02 224.48 L 474.33 227.13 L 465.04 240.01 L 453.26 250.32 L 437.29 268.29 C 427.71 274.35 400.48 298.92 402.19 310.70 L 398.03 308.03 L 393.00 310.00 L 400.00 312.00 L 395.90 317.69 L 397.25 320.68 L 395.00 328.00 L 398.00 329.00 L 395.40 333.33 L 397.39 338.85 C 400.86 341.99 399.86 344.54 401.24 348.76 L 407.85 368.23 L 400.37 411.35 C 395.90 412.76 391.04 412.64 386.74 410.66 L 389.00 405.00 L 382.46 402.61 C 379.94 403.39 370.10 420.17 369.92 423.06 L 373.00 432.00 L 398.44 439.52 L 399.00 442.00 C 394.34 444.29 389.09 445.85 383.82 444.85 L 366.61 451.62 L 353.00 454.00 L 360.00 455.00 L 375.50 450.37 C 385.64 446.78 396.59 446.55 407.00 449.00 L 423.00 460.00 L 436.00 460.00 C 437.46 463.01 429.28 465.23 427.00 465.00 L 424.00 466.00 C 424.95 468.71 424.44 471.62 423.20 474.10 C 421.95 476.59 419.57 478.19 417.00 479.00 C 403.92 486.32 388.03 488.21 374.00 482.00 C 371.34 483.41 365.98 479.94 364.00 478.00 C 359.31 475.50 355.78 470.96 355.41 465.51 L 369.41 466.50 C 371.14 466.16 372.58 466.13 372.00 464.00 L 367.00 462.00 C 358.68 461.76 350.76 458.73 344.00 454.00 L 346.00 453.00 L 333.67 447.09 L 337.00 440.00 L 335.00 438.00 L 337.97 434.41 L 326.52 428.42 L 326.00 421.00 C 327.83 420.60 328.32 419.91 328.00 418.00 L 324.00 419.00 C 327.68 417.36 330.12 413.41 329.07 409.30 L 333.90 404.55 L 337.00 395.00 L 332.70 391.36 C 329.45 387.70 329.47 382.24 332.57 378.51 L 341.76 370.76 L 345.81 364.76 C 350.18 365.81 352.92 365.12 353.00 360.00 L 364.55 363.57 C 379.71 354.23 387.63 337.17 387.21 319.77 L 382.51 308.49 L 377.19 306.03 L 368.94 296.06 L 357.02 288.28 C 357.84 286.24 359.16 280.45 356.00 280.00 C 354.49 281.22 356.61 287.32 353.00 286.00 L 353.00 287.00 L 352.00 289.00 C 350.49 292.56 335.76 289.22 331.67 289.61 L 329.71 295.63 C 330.78 303.08 334.32 310.00 340.00 315.00 L 343.00 314.00 C 341.73 315.86 343.61 317.03 341.00 318.00 L 341.30 325.45 L 345.00 325.00 L 344.00 328.00 C 345.98 327.90 349.19 325.96 350.00 329.00 L 348.00 331.00 C 351.23 331.29 354.03 333.22 355.64 335.99 C 357.25 338.76 357.30 342.12 356.00 345.00 L 351.00 349.00 L 351.00 356.00 L 351.00 359.00 C 345.51 358.15 340.43 361.71 338.98 366.97 L 330.00 374.00 C 326.79 378.58 321.77 381.90 316.00 382.00 L 315.00 380.00 L 309.00 381.00 C 308.52 383.39 304.31 387.26 302.00 386.00 L 304.58 391.33 C 293.92 396.56 285.72 405.85 282.24 417.26 C 280.52 422.50 281.17 428.15 283.64 433.01 L 298.27 449.73 L 302.62 461.20 L 328.66 493.33 L 347.30 508.83 L 363.60 516.72 L 377.13 520.01 L 394.73 519.85 L 412.77 511.75 C 425.24 504.26 436.03 494.27 444.32 482.31 L 455.09 472.90 L 453.78 469.24 C 463.96 461.83 472.78 452.49 478.46 441.14 L 476.74 434.53 C 477.36 427.37 473.22 419.79 465.47 418.52 L 461.49 411.54 C 458.95 407.07 462.15 403.61 458.66 399.83 L 464.73 395.11 C 460.19 395.10 457.29 391.06 457.00 387.00 L 454.00 381.00 C 448.75 381.40 448.33 376.11 444.00 376.00 L 434.00 367.00 C 433.19 368.76 431.76 368.29 430.24 367.69 C 426.99 367.50 423.79 365.92 422.21 362.91 C 420.64 359.90 420.35 356.21 422.18 353.19 L 420.82 346.90 L 427.31 327.31 C 431.51 324.90 434.40 320.84 435.77 316.26 L 443.36 311.24 L 447.19 313.70 C 447.13 307.02 449.14 300.47 453.00 295.00 L 453.00 293.00 C 452.06 286.37 455.82 279.22 463.00 278.00 C 463.17 269.13 477.98 271.50 483.81 270.76 L 492.36 265.48 C 499.57 267.69 507.13 265.94 513.52 262.46 L 519.97 250.76 C 522.02 244.04 501.99 229.07 502.00 220.00 L 485.74 204.89 L 486.00 203.00 Z" /><path fill="#fdd7cd" opacity="1.00" d=" M 436.00 170.00 L 432.00 170.00 L 404.26 178.20 L 379.20 190.06 L 366.29 199.28 L 351.46 213.40 L 344.23 223.12 C 337.24 233.58 337.16 246.78 342.00 258.00 L 341.00 261.00 C 347.12 263.65 351.71 268.81 354.00 275.00 L 356.00 280.00 C 359.16 280.45 357.84 286.24 357.02 288.28 L 368.94 296.06 L 377.19 306.03 L 382.51 308.49 L 387.21 319.77 C 387.63 337.17 379.71 354.23 364.55 363.57 L 353.00 360.00 C 352.92 365.12 350.18 365.81 345.81 364.76 L 341.76 370.76 L 332.57 378.51 C 329.47 382.24 329.45 387.70 332.70 391.36 L 337.00 395.00 L 333.90 404.55 L 329.07 409.30 C 330.12 413.41 327.68 417.36 324.00 419.00 L 328.00 418.00 C 328.32 419.91 327.83 420.60 326.00 421.00 L 326.52 428.42 L 337.97 434.41 L 335.00 438.00 L 337.00 440.00 L 333.67 447.09 L 346.00 453.00 L 353.00 454.00 L 366.61 451.62 L 383.82 444.85 C 389.09 445.85 394.34 444.29 399.00 442.00 L 398.44 439.52 L 373.00 432.00 L 369.92 423.06 C 370.10 420.17 379.94 403.39 382.46 402.61 L 389.00 405.00 L 386.74 410.66 C 391.04 412.64 395.90 412.76 400.37 411.35 L 407.85 368.23 L 401.24 348.76 C 399.86 344.54 400.86 341.99 397.39 338.85 L 395.40 333.33 L 398.00 329.00 L 395.00 328.00 L 397.25 320.68 L 395.90 317.69 L 400.00 312.00 L 393.00 310.00 L 398.03 308.03 L 402.19 310.70 C 400.48 298.92 427.71 274.35 437.29 268.29 L 453.26 250.32 L 465.04 240.01 L 474.33 227.13 L 471.02 224.48 L 474.79 220.71 C 471.98 218.10 472.34 213.98 474.00 211.00 C 477.57 216.23 484.05 218.12 490.00 217.00 L 492.00 219.00 C 491.61 212.91 483.18 210.20 483.00 203.00 L 436.00 170.00 Z" /><path fill="#f0b7aa" opacity="1.00" d=" M 292.00 381.00 L 286.00 381.00 L 288.20 386.85 L 277.00 395.00 L 278.00 398.00 C 267.69 409.92 265.91 427.50 275.25 440.68 C 292.95 473.23 319.31 500.22 351.35 518.80 L 369.10 525.31 L 391.60 525.71 L 405.51 521.52 L 437.58 504.63 L 480.00 475.13 L 495.43 458.50 C 504.07 456.07 511.05 441.04 522.00 437.00 L 522.00 433.00 C 524.87 432.86 526.09 432.97 527.00 430.00 L 524.19 426.64 L 527.95 426.64 C 540.57 414.80 546.16 397.72 545.37 380.79 L 548.54 370.34 L 546.00 370.00 L 547.00 346.00 L 541.00 347.00 L 527.00 352.00 L 524.00 364.00 L 524.00 365.00 L 530.00 357.00 L 534.13 356.70 C 537.62 366.77 535.52 377.78 529.26 386.23 L 515.96 391.42 C 514.19 387.44 516.03 384.42 515.00 382.00 C 512.97 386.47 508.48 388.89 504.00 390.00 L 506.00 388.00 L 493.00 390.00 C 481.60 396.57 467.12 395.75 457.00 387.00 C 457.29 391.06 460.19 395.10 464.73 395.11 L 458.66 399.83 C 462.15 403.61 458.95 407.07 461.49 411.54 L 465.47 418.52 C 473.22 419.79 477.36 427.37 476.74 434.53 L 478.46 441.14 C 472.78 452.49 463.96 461.83 453.78 469.24 L 455.09 472.90 L 444.32 482.31 C 436.03 494.27 425.24 504.26 412.77 511.75 L 394.73 519.85 L 377.13 520.01 L 363.60 516.72 L 347.30 508.83 L 328.66 493.33 L 302.62 461.20 L 298.27 449.73 L 283.64 433.01 C 281.17 428.15 280.52 422.50 282.24 417.26 C 285.72 405.85 293.92 396.56 304.58 391.33 L 302.00 386.00 C 304.31 387.26 308.52 383.39 309.00 381.00 L 292.00 381.00 Z" /><path fill="#e4a597" opacity="1.00" d=" M 558.00 309.00 C 550.99 285.04 539.63 262.52 524.00 243.00 L 523.62 245.93 L 536.35 268.69 C 537.71 272.36 535.00 282.63 537.00 283.00 C 533.20 289.21 519.49 275.64 514.00 279.00 C 526.89 283.58 537.91 291.96 547.00 302.00 L 548.66 305.24 C 542.86 306.67 536.31 305.53 532.19 300.78 L 514.94 294.94 L 492.00 292.09 L 455.00 296.00 C 462.95 299.43 472.26 300.27 480.24 296.09 L 496.87 295.85 L 516.73 299.19 L 529.48 303.37 C 539.05 306.62 543.29 316.74 542.00 326.00 L 545.28 331.14 C 544.88 334.02 543.44 336.83 540.78 338.30 C 538.12 339.77 534.88 340.30 532.00 339.00 L 533.00 341.00 C 537.38 341.08 538.58 344.69 541.00 347.00 L 547.00 346.00 L 546.00 370.00 L 548.54 370.34 L 545.37 380.79 C 546.16 397.72 540.57 414.80 527.95 426.64 L 524.19 426.64 L 527.00 430.00 C 526.09 432.97 524.87 432.86 522.00 433.00 L 522.00 437.00 C 511.05 441.04 504.07 456.07 495.43 458.50 L 480.00 475.13 L 437.58 504.63 L 405.51 521.52 L 391.60 525.71 L 369.10 525.31 L 351.35 518.80 C 319.31 500.22 292.95 473.23 275.25 440.68 C 265.91 427.50 267.69 409.92 278.00 398.00 L 277.00 395.00 L 288.20 386.85 L 286.00 381.00 L 292.00 381.00 L 282.00 377.00 L 271.00 373.00 L 263.00 367.00 L 261.00 368.00 C 264.51 370.08 268.41 380.11 268.58 384.02 L 263.14 394.15 L 258.98 413.06 L 260.57 428.10 L 273.88 459.97 C 277.87 463.33 280.92 467.83 281.89 473.05 L 308.76 500.92 C 303.07 500.32 302.54 499.55 303.00 505.00 L 305.00 507.00 L 310.00 511.00 L 313.85 511.03 L 337.29 521.71 L 365.79 531.24 L 385.14 533.44 L 414.00 530.00 L 422.00 527.00 L 435.00 520.00 L 434.00 518.00 L 465.03 498.96 L 510.01 462.98 L 515.22 456.08 L 518.00 456.00 C 517.78 451.07 520.56 451.40 523.11 448.11 C 523.48 442.51 527.83 438.33 533.00 437.00 L 531.00 445.00 L 534.00 445.00 C 553.14 445.41 571.34 438.46 587.00 428.00 L 586.01 427.40 C 575.60 433.68 563.26 435.17 551.45 433.52 C 547.54 427.58 545.74 419.93 548.87 413.10 C 551.54 402.36 557.13 392.66 564.44 384.44 C 569.88 377.90 572.25 369.53 572.42 361.18 C 578.51 355.97 574.47 357.65 576.00 353.00 L 570.00 349.00 L 565.35 365.34 C 564.90 369.37 562.22 372.63 558.82 374.55 C 555.63 375.27 556.38 369.66 556.43 370.80 L 560.59 372.46 L 562.00 365.00 L 559.61 362.91 L 560.00 342.00 L 558.00 309.00 Z" /><path fill="#5b403b" opacity="1.00" d=" M 320.00 97.00 C 317.78 101.18 313.69 98.21 310.26 99.12 L 306.00 101.00 L 308.00 103.00 C 305.25 102.93 301.14 98.57 300.00 99.00 C 297.44 103.80 292.11 106.74 286.62 105.63 L 285.17 110.04 L 282.97 108.63 L 276.15 110.01 C 276.03 112.40 276.97 115.86 274.00 116.00 L 274.00 112.00 L 269.91 113.46 C 270.35 116.18 271.58 118.76 268.00 119.00 C 268.31 122.51 270.59 121.66 272.00 124.00 L 270.00 126.00 L 274.00 136.00 L 271.00 137.00 L 271.60 145.75 L 266.76 155.95 C 262.60 158.88 260.63 163.79 260.48 168.69 C 256.12 173.03 253.32 178.73 252.76 184.88 L 247.33 192.57 L 245.37 201.43 C 239.41 212.00 236.10 224.00 236.93 236.22 C 244.08 236.45 250.38 231.17 250.96 223.91 L 287.82 183.80 L 327.78 149.80 L 360.28 129.31 C 363.29 128.01 364.86 124.75 364.20 121.59 C 363.55 118.43 360.71 116.27 357.54 116.28 L 342.89 113.19 L 337.89 114.26 C 334.86 113.93 333.84 111.39 334.48 108.82 L 333.36 105.73 L 329.00 105.00 L 328.00 108.00 L 325.00 106.00 L 326.73 102.92 L 321.29 104.11 C 321.78 101.92 323.52 97.40 320.00 97.00 Z" /><path fill="#5b403b" opacity="1.00" d=" M 170.00 519.00 L 165.57 514.47 C 167.40 509.56 166.61 504.07 163.50 499.86 L 162.37 484.07 C 162.37 473.71 163.55 463.35 163.41 452.89 L 165.87 440.44 C 164.05 430.74 166.29 421.62 163.36 411.81 C 162.00 407.24 161.40 381.63 159.00 380.00 C 161.23 380.32 163.32 372.46 160.00 373.00 C 162.30 369.01 162.89 364.20 161.35 359.82 L 163.27 338.50 L 161.51 333.72 L 165.04 331.78 L 170.41 299.01 C 170.48 294.52 171.94 288.96 170.00 285.00 C 172.14 284.25 178.22 270.12 175.00 269.00 L 179.03 256.16 C 178.73 251.45 179.43 246.59 181.94 242.47 L 198.10 167.96 L 203.57 153.45 L 209.98 141.87 L 234.36 112.33 L 274.85 81.24 L 270.03 79.28 C 263.68 84.12 255.41 84.41 248.00 83.00 L 251.00 82.00 L 250.41 77.43 C 251.54 75.16 256.22 73.80 255.00 71.00 C 249.60 72.05 244.86 75.29 242.00 80.00 C 237.73 83.09 236.31 88.44 236.90 93.38 L 255.00 90.00 C 250.71 95.96 245.56 101.62 238.67 104.70 L 220.57 122.54 L 203.38 146.24 L 191.18 171.16 L 160.06 260.60 L 157.22 273.98 C 157.17 288.15 154.65 302.23 149.44 315.42 L 145.08 361.07 L 146.50 388.00 C 145.48 393.33 145.67 398.90 147.68 404.01 C 146.78 413.45 147.70 422.98 150.41 432.07 L 153.37 510.67 L 162.00 517.00 L 167.00 519.00 L 170.00 519.00 Z" /><path fill="#d48572" opacity="1.00" d=" M 414.00 530.00 L 385.14 533.44 L 365.79 531.24 L 337.29 521.71 L 313.85 511.03 L 310.00 511.00 L 310.00 523.00 C 310.39 541.62 307.31 560.18 300.57 577.57 L 290.57 592.57 L 280.55 601.53 C 276.91 602.99 274.29 602.46 274.00 607.00 L 271.00 607.00 L 270.00 609.00 L 276.92 610.97 L 287.53 604.78 L 299.16 592.14 L 311.27 575.27 C 314.71 564.18 323.77 556.25 334.13 551.93 L 346.11 552.02 L 375.20 564.19 L 380.41 564.80 L 404.74 578.20 L 413.88 591.12 C 420.04 596.99 425.74 604.09 435.06 603.80 C 437.27 597.48 436.91 600.70 441.00 598.00 L 441.00 596.00 C 435.91 597.75 430.91 594.92 428.00 591.00 C 424.87 591.42 422.18 590.09 420.35 587.58 L 414.26 572.54 L 410.29 546.00 C 410.09 540.74 407.49 532.77 414.00 532.00 L 414.00 530.00 Z" /><path fill="#4c3530" opacity="1.00" d=" M 455.00 172.00 L 442.11 167.29 C 437.32 162.84 435.66 155.74 438.72 149.77 C 443.92 145.95 450.39 144.01 456.85 144.96 L 471.47 153.54 L 484.70 165.21 C 484.34 167.66 483.21 170.17 480.84 171.35 C 478.47 172.52 475.57 173.01 473.10 171.65 L 470.10 172.92 C 465.79 169.10 459.69 169.70 455.00 172.00 Z M 395.00 168.00 L 401.00 167.00 C 411.57 164.82 422.43 165.06 433.00 167.00 C 435.22 167.52 435.85 167.71 436.00 170.00 L 483.00 203.00 L 486.00 203.00 L 484.00 201.00 C 485.85 199.14 495.76 208.34 500.00 209.00 C 501.06 212.05 504.70 211.04 506.35 209.25 L 508.99 197.29 L 515.00 194.00 L 513.00 192.00 L 515.54 187.42 C 512.73 174.22 504.85 162.88 494.57 154.43 C 494.41 152.05 492.68 150.28 490.97 148.91 C 489.26 147.55 486.97 147.68 485.00 148.00 C 485.54 145.51 481.99 143.85 480.00 143.00 L 482.00 141.00 L 478.33 138.40 L 487.28 138.14 L 492.00 128.00 L 489.17 125.75 C 490.84 122.94 490.54 119.54 489.18 116.73 C 487.82 113.92 484.95 112.40 482.00 112.00 L 483.00 108.00 C 479.81 104.37 477.69 103.51 473.00 104.00 C 473.35 95.39 462.42 98.61 457.23 96.30 L 450.78 105.03 C 449.35 108.14 444.88 132.03 446.00 134.00 C 436.07 140.80 427.93 150.72 425.97 163.02 C 420.45 166.51 395.92 162.38 395.00 168.00 Z" /><path fill="#f0b7aa" opacity="1.00" d=" M 454.00 295.00 L 453.00 295.00 C 449.14 300.47 447.13 307.02 447.19 313.70 L 443.36 311.24 L 435.77 316.26 C 434.40 320.84 431.51 324.90 427.31 327.31 L 420.82 346.90 L 422.18 353.19 C 420.35 356.21 420.64 359.90 422.21 362.91 C 423.79 365.92 426.99 367.50 430.24 367.69 C 431.76 368.29 433.19 368.76 434.00 367.00 L 444.00 376.00 L 439.37 366.79 L 449.00 345.00 C 450.99 340.79 454.54 337.46 459.00 336.00 L 463.00 333.00 L 467.00 330.00 L 467.00 327.00 L 461.00 329.00 C 462.39 319.55 506.95 324.20 509.00 316.00 L 511.00 318.00 L 514.00 317.00 C 515.28 320.52 516.49 322.03 520.00 322.76 C 519.14 326.55 520.20 331.03 524.00 333.00 C 523.27 334.96 529.93 339.19 532.00 339.00 C 534.88 340.30 538.12 339.77 540.78 338.30 C 543.44 336.83 544.88 334.02 545.28 331.14 L 542.00 326.00 C 543.29 316.74 539.05 306.62 529.48 303.37 L 516.73 299.19 L 496.87 295.85 L 480.24 296.09 C 472.26 300.27 462.95 299.43 455.00 296.00 L 454.00 295.00 Z" /><path fill="#adb3ba" opacity="1.00" d=" M 151.00 515.00 C 147.51 514.66 144.06 513.23 141.84 510.37 C 139.61 507.52 138.25 503.92 138.81 500.23 L 132.07 358.00 L 135.46 315.69 L 140.55 289.59 C 154.78 235.15 175.31 182.55 202.00 133.00 L 200.76 129.14 C 201.30 122.04 213.61 108.57 213.00 105.00 C 192.36 128.23 175.09 154.38 163.14 183.16 L 150.22 217.16 L 136.58 265.59 L 130.87 300.98 L 127.21 363.00 L 135.19 501.81 L 138.11 510.86 C 146.87 516.03 156.81 518.93 167.00 519.00 L 162.00 517.00 L 151.00 515.00 Z" /><path fill="#e4a597" opacity="1.00" d=" M 448.00 603.00 L 441.00 598.00 C 436.91 600.70 437.27 597.48 435.06 603.80 C 425.74 604.09 420.04 596.99 413.88 591.12 L 404.74 578.20 L 380.41 564.80 L 375.20 564.19 L 346.11 552.02 L 334.13 551.93 C 323.77 556.25 314.71 564.18 311.27 575.27 L 299.16 592.14 L 287.53 604.78 L 276.92 610.97 L 270.00 609.00 L 270.00 613.00 L 274.00 615.00 L 282.76 614.81 C 286.39 610.63 291.70 608.38 297.19 608.43 C 307.60 604.26 316.76 597.50 323.96 588.92 L 337.30 580.23 L 349.25 576.14 C 365.59 578.60 381.57 584.72 393.82 596.23 L 413.47 603.65 L 428.16 612.20 C 433.08 611.25 437.88 608.68 440.30 604.02 L 448.00 604.00 L 448.00 603.00 Z" /><path fill="#252221" opacity="1.00" d=" M 534.00 451.00 L 534.00 446.00 L 530.23 445.97 L 512.18 467.13 L 492.99 484.95 L 463.72 504.68 L 435.00 520.00 L 422.00 527.00 L 423.00 529.00 C 430.71 527.26 444.40 521.54 450.46 527.90 C 451.21 525.75 451.28 524.11 454.00 524.00 L 455.31 527.87 L 476.85 529.83 L 488.70 525.97 L 491.00 527.00 C 492.21 523.47 498.28 525.24 501.17 526.44 L 511.93 534.03 C 514.74 535.85 518.62 533.24 519.00 537.00 L 523.00 537.00 L 528.00 535.00 L 527.00 532.00 C 523.64 532.02 519.04 517.34 518.58 514.06 L 517.51 494.01 L 520.13 480.40 C 524.93 474.40 520.58 464.45 525.08 458.08 L 534.00 451.00 Z" /><path fill="#705956" opacity="1.00" d=" M 162.00 517.00 L 153.37 510.67 L 150.41 432.07 C 147.70 422.98 146.78 413.45 147.68 404.01 C 145.67 398.90 145.48 393.33 146.50 388.00 L 145.08 361.07 L 149.44 315.42 C 154.65 302.23 157.17 288.15 157.22 273.98 L 160.06 260.60 L 191.18 171.16 L 203.38 146.24 L 220.57 122.54 L 238.67 104.70 C 245.56 101.62 250.71 95.96 255.00 90.00 L 236.90 93.38 C 236.31 88.44 237.73 83.09 242.00 80.00 C 237.34 81.28 232.55 83.54 230.00 88.00 L 224.00 95.00 C 225.06 97.74 219.10 102.01 223.65 105.39 C 226.38 107.42 229.24 104.15 232.00 104.00 C 230.00 109.41 226.83 114.65 221.66 117.66 L 205.93 136.88 L 193.33 158.33 L 164.40 229.24 L 151.36 268.24 L 142.57 305.45 L 138.91 337.00 L 137.73 375.00 L 143.78 478.84 C 140.84 491.44 144.14 504.36 151.00 515.00 L 162.00 517.00 Z" /><path fill="#fdd7cd" opacity="1.00" d=" M 280.00 622.00 C 317.79 649.78 366.26 657.54 411.14 645.16 L 428.15 638.13 L 441.61 627.68 L 449.00 615.00 L 446.98 612.15 L 439.28 615.86 L 437.00 613.00 L 425.00 618.00 L 407.24 625.97 L 380.12 631.58 L 322.33 627.53 L 295.63 622.18 L 279.00 616.00 C 277.54 615.19 276.07 614.26 275.00 616.00 L 280.00 622.00 Z" /><path fill="#f0b7aa" opacity="1.00" d=" M 448.00 607.00 L 448.00 604.00 L 440.30 604.02 C 437.88 608.68 433.08 611.25 428.16 612.20 L 413.47 603.65 L 393.82 596.23 C 381.57 584.72 365.59 578.60 349.25 576.14 L 337.30 580.23 L 323.96 588.92 C 316.76 597.50 307.60 604.26 297.19 608.43 C 291.70 608.38 286.39 610.63 282.76 614.81 L 274.00 615.00 L 275.00 616.00 C 276.07 614.26 277.54 615.19 279.00 616.00 L 291.90 618.97 L 315.01 615.12 C 328.58 606.00 344.55 601.37 360.80 600.81 L 365.55 604.45 C 372.12 604.72 378.37 607.25 383.34 611.53 L 410.63 619.53 L 414.00 618.00 C 417.24 619.78 421.76 620.86 425.00 618.00 L 440.93 607.89 L 445.00 610.00 L 444.00 606.00 L 448.00 607.00 Z" /><path fill="#130c0c" opacity="1.00" d=" M 282.33 342.06 C 285.09 340.91 288.25 342.22 289.39 344.97 C 290.53 347.72 289.23 350.88 286.48 352.02 C 283.72 353.17 280.56 351.86 279.42 349.11 C 278.28 346.36 279.58 343.20 282.33 342.06 Z M 297.00 310.00 L 278.00 310.00 L 257.00 316.00 L 252.00 318.00 L 244.00 321.00 L 242.00 321.00 L 238.00 323.00 L 239.00 327.00 L 242.00 328.00 L 249.00 331.00 L 250.00 332.00 C 252.85 332.88 252.44 341.33 253.00 344.00 C 256.97 343.32 257.50 337.01 259.73 333.86 L 268.00 325.89 C 272.53 322.25 278.46 321.52 284.00 322.00 L 286.00 323.00 C 273.47 329.77 267.30 344.27 271.00 358.00 C 272.27 365.37 275.66 372.57 282.00 377.00 L 292.00 381.00 L 309.00 381.00 L 315.00 380.00 L 321.00 376.00 L 326.00 368.00 L 323.00 368.00 L 313.00 375.00 C 309.08 377.36 304.41 377.87 300.00 377.00 C 294.51 377.75 288.91 375.99 285.00 372.00 L 282.00 371.00 C 278.09 366.57 275.13 361.09 275.00 355.00 C 279.77 357.43 283.90 361.51 285.00 367.00 C 290.03 369.24 295.60 369.75 301.00 369.00 C 306.30 367.86 311.69 365.61 315.00 361.00 L 316.00 356.00 L 315.00 350.00 C 310.60 352.80 291.86 344.05 294.91 336.80 C 297.00 330.48 302.62 326.17 309.07 325.13 C 311.77 325.13 322.78 330.36 323.00 328.00 C 319.90 316.85 302.98 320.86 297.00 314.00 C 309.80 312.23 321.61 319.35 328.00 330.00 L 331.00 330.00 C 335.01 325.81 323.47 322.51 324.00 318.00 C 317.31 313.83 309.86 310.94 302.00 310.00 L 297.00 310.00 Z" /><path fill="#8b878a" opacity="1.00" d=" M 151.00 515.00 C 144.14 504.36 140.84 491.44 143.78 478.84 L 137.73 375.00 L 138.91 337.00 L 142.57 305.45 L 151.36 268.24 L 164.40 229.24 L 193.33 158.33 L 205.93 136.88 L 221.66 117.66 C 226.83 114.65 230.00 109.41 232.00 104.00 C 229.24 104.15 226.38 107.42 223.65 105.39 C 219.10 102.01 225.06 97.74 224.00 95.00 L 215.00 103.00 L 213.00 105.00 C 213.61 108.57 201.30 122.04 200.76 129.14 L 202.00 133.00 C 175.31 182.55 154.78 235.15 140.55 289.59 L 135.46 315.69 L 132.07 358.00 L 138.81 500.23 C 138.25 503.92 139.61 507.52 141.84 510.37 C 144.06 513.23 147.51 514.66 151.00 515.00 Z" /><path fill="#fbc7bb" opacity="1.00" d=" M 425.00 618.00 C 421.76 620.86 417.24 619.78 414.00 618.00 L 410.63 619.53 L 383.34 611.53 C 378.37 607.25 372.12 604.72 365.55 604.45 L 360.80 600.81 C 344.55 601.37 328.58 606.00 315.01 615.12 L 291.90 618.97 L 279.00 616.00 L 295.63 622.18 L 322.33 627.53 L 380.12 631.58 L 407.24 625.97 L 425.00 618.00 Z" /><path fill="#412c28" opacity="1.00" d=" M 234.76 474.44 C 243.84 476.79 251.79 482.30 257.16 490.00 L 261.42 490.58 L 263.98 495.09 L 274.56 502.27 L 275.00 504.00 L 278.00 503.00 C 279.10 506.79 274.78 508.22 272.12 509.91 L 269.00 509.00 C 264.33 510.85 258.71 511.22 254.38 508.02 C 248.51 508.39 242.72 506.24 238.63 501.98 C 234.53 497.71 232.43 491.88 233.03 485.97 L 234.76 474.44 Z M 237.00 451.00 L 232.00 446.00 L 227.00 443.00 C 226.68 466.48 229.12 489.88 233.00 513.00 C 227.74 511.67 229.02 524.51 222.53 525.31 L 208.70 518.43 C 201.08 514.28 192.26 512.94 183.73 514.50 L 179.30 518.05 C 183.92 517.09 188.23 519.57 191.00 523.00 C 205.04 527.09 219.47 529.59 234.00 531.00 L 234.00 519.00 C 230.46 512.40 240.67 516.64 241.87 516.55 C 246.40 514.34 251.67 513.61 256.52 515.36 L 285.95 514.87 C 288.53 515.99 291.36 514.70 292.62 512.34 C 293.87 509.98 292.86 507.20 290.72 505.83 L 293.00 501.00 L 273.00 485.00 C 261.81 477.05 251.50 467.84 243.00 457.00 L 237.00 451.00 Z" /><path fill="#d48572" opacity="1.00" d=" M 260.00 362.00 C 255.20 357.36 252.11 350.86 253.00 344.00 L 250.00 341.00 C 241.62 347.24 254.28 370.60 251.48 379.89 L 249.54 412.97 L 256.03 452.58 C 255.03 455.73 255.63 459.66 252.00 461.00 C 254.84 467.34 259.01 473.22 265.01 476.99 L 273.00 485.00 L 293.00 501.00 L 303.00 505.00 C 302.54 499.55 303.07 500.32 308.76 500.92 L 281.89 473.05 C 280.92 467.83 277.87 463.33 273.88 459.97 L 260.57 428.10 L 258.98 413.06 L 263.14 394.15 L 268.58 384.02 C 268.41 380.11 264.51 370.08 261.00 368.00 L 263.00 367.00 L 260.00 362.00 Z" /><path fill="#f0b7aa" opacity="1.00" d=" M 585.44 370.85 L 593.13 373.87 C 597.83 380.84 599.52 389.34 598.19 397.59 L 594.80 414.57 L 584.88 422.93 L 570.91 427.03 C 567.02 427.44 568.79 422.51 566.00 422.00 C 563.62 417.04 564.03 411.31 566.48 406.50 C 568.27 400.89 571.57 395.89 575.98 391.99 L 585.44 370.85 Z M 587.00 428.00 C 598.48 418.01 604.53 402.92 602.20 387.72 C 599.87 372.52 590.24 359.22 576.00 353.00 C 574.47 357.65 578.51 355.97 572.42 361.18 C 572.25 369.53 569.88 377.90 564.44 384.44 C 557.13 392.66 551.54 402.36 548.87 413.10 C 545.74 419.93 547.54 427.58 551.45 433.52 C 563.26 435.17 575.60 433.68 586.01 427.40 L 587.00 428.00 Z" /><path fill="#130c0c" opacity="1.00" d=" M 483.00 329.00 C 483.10 331.73 479.90 331.20 477.96 331.31 L 464.00 337.00 C 464.22 333.75 467.39 333.59 469.92 332.18 L 483.00 329.00 Z M 495.00 333.00 C 496.47 330.66 499.27 331.34 501.69 331.22 L 500.00 328.00 L 503.00 325.00 C 490.78 322.63 478.11 324.36 467.00 330.00 L 463.00 333.00 C 463.09 345.05 470.21 333.77 473.55 340.31 L 472.00 356.00 C 472.92 357.86 472.92 360.01 472.18 361.92 C 471.44 363.83 469.88 365.26 468.00 366.00 L 464.59 369.72 L 469.00 378.00 L 471.00 381.00 C 479.54 383.62 489.03 380.65 494.00 373.00 L 497.00 367.00 L 497.00 361.00 L 496.88 351.58 L 503.00 357.00 L 505.00 355.00 L 498.00 339.00 L 491.00 334.00 C 491.28 331.98 493.47 332.44 495.00 333.00 Z" /><path fill="#af5e4f" opacity="1.00" d=" M 253.00 344.00 C 252.44 341.33 252.85 332.88 250.00 332.00 C 239.17 329.76 240.84 351.78 240.15 358.15 C 238.05 381.82 239.42 405.66 243.97 428.97 C 243.76 436.14 237.77 437.88 237.12 445.51 L 243.00 457.00 C 251.50 467.84 261.81 477.05 273.00 485.00 L 265.01 476.99 C 259.01 473.22 254.84 467.34 252.00 461.00 C 255.63 459.66 255.03 455.73 256.03 452.58 L 249.54 412.97 L 251.48 379.89 C 254.28 370.60 241.62 347.24 250.00 341.00 L 253.00 344.00 Z" /><path fill="#f0b7aa" opacity="1.00" d=" M 351.00 349.00 L 356.00 345.00 C 357.30 342.12 357.25 338.76 355.64 335.99 C 354.03 333.22 351.23 331.29 348.00 331.00 L 350.00 329.00 C 349.19 325.96 345.98 327.90 344.00 328.00 L 345.00 325.00 L 341.30 325.45 L 341.00 318.00 C 343.61 317.03 341.73 315.86 343.00 314.00 L 340.00 315.00 C 334.32 310.00 330.78 303.08 329.71 295.63 L 331.67 289.61 C 335.76 289.22 350.49 292.56 352.00 289.00 L 315.00 282.09 C 309.48 281.46 303.87 283.78 300.86 288.60 L 303.75 301.81 C 302.44 306.75 301.17 303.95 302.00 310.00 C 309.86 310.94 317.31 313.83 324.00 318.00 C 331.56 322.10 338.25 327.77 343.00 335.00 L 348.00 344.00 L 351.00 349.00 Z" /><path fill="#fbc7bb" opacity="1.00" d=" M 585.44 370.85 L 575.98 391.99 C 571.57 395.89 568.27 400.89 566.48 406.50 C 564.03 411.31 563.62 417.04 566.00 422.00 C 568.79 422.51 567.02 427.44 570.91 427.03 L 584.88 422.93 L 594.80 414.57 L 598.19 397.59 C 599.52 389.34 597.83 380.84 593.13 373.87 L 585.44 370.85 Z" /><path fill="#fdd7cd" opacity="1.00" d=" M 403.53 492.91 L 364.07 484.75 C 362.16 481.83 358.75 480.61 355.52 480.10 C 352.29 479.59 349.33 481.23 346.96 483.14 C 346.16 486.77 347.67 488.26 350.09 490.54 L 348.62 494.94 C 354.70 503.60 363.52 510.34 374.12 512.41 L 387.00 514.00 C 387.48 508.05 401.01 511.48 396.65 501.12 L 401.00 499.00 L 400.00 496.00 L 403.53 492.91 Z" /><path fill="#f0b7aa" opacity="1.00" d=" M 524.00 243.00 L 502.00 220.00 C 501.99 229.07 522.02 244.04 519.97 250.76 L 513.52 262.46 C 507.13 265.94 499.57 267.69 492.36 265.48 L 483.81 270.76 C 477.98 271.50 463.17 269.13 463.00 278.00 L 464.00 278.00 L 473.00 275.00 C 481.83 272.21 491.41 272.39 500.00 276.00 L 504.00 277.00 L 514.00 279.00 C 519.49 275.64 533.20 289.21 537.00 283.00 C 535.00 282.63 537.71 272.36 536.35 268.69 L 523.62 245.93 L 524.00 243.00 Z" /><path fill="#fbc7bb" opacity="1.00" d=" M 432.00 170.00 L 429.00 169.00 L 398.86 176.82 L 370.30 190.29 L 345.73 209.73 L 333.37 224.35 L 325.56 238.79 L 324.26 254.01 C 322.55 255.51 322.18 257.98 323.25 259.95 C 324.31 261.92 326.61 262.82 328.73 262.23 L 330.00 264.00 C 338.90 265.20 347.36 268.87 354.00 275.00 C 351.71 268.81 347.12 263.65 341.00 261.00 L 342.00 258.00 C 337.16 246.78 337.24 233.58 344.23 223.12 L 351.46 213.40 L 366.29 199.28 L 379.20 190.06 L 404.26 178.20 L 432.00 170.00 Z" /><path fill="#af5e4f" opacity="1.00" d=" M 433.00 167.00 L 401.00 167.00 L 395.00 168.00 C 371.57 172.93 349.02 182.17 330.00 197.00 L 322.00 204.00 L 307.31 217.42 L 287.34 245.34 L 282.47 258.85 L 284.00 262.00 L 300.00 262.00 L 290.40 260.59 C 294.66 247.47 301.19 234.94 311.26 225.27 L 331.19 204.19 L 352.32 189.26 L 380.88 175.75 C 395.74 169.42 412.00 167.44 428.00 169.00 L 429.00 169.00 L 432.00 170.00 L 436.00 170.00 C 435.85 167.71 435.22 167.52 433.00 167.00 Z" /><path fill="#d48572" opacity="1.00" d=" M 353.00 454.00 L 346.00 453.00 L 344.00 454.00 C 350.76 458.73 358.68 461.76 367.00 462.00 L 366.00 459.00 C 384.11 457.95 402.21 459.72 420.00 463.00 L 417.64 464.91 L 397.00 465.00 L 411.69 467.57 L 405.69 472.50 C 392.41 471.04 379.02 472.19 366.00 475.00 C 367.28 478.38 369.93 481.82 374.00 482.00 C 388.03 488.21 403.92 486.32 417.00 479.00 L 419.00 475.00 L 412.51 467.62 L 427.00 465.00 C 429.28 465.23 437.46 463.01 436.00 460.00 L 423.00 460.00 L 410.34 458.58 C 404.14 455.54 397.04 454.26 390.23 456.04 L 368.00 456.00 L 360.00 455.00 L 353.00 454.00 Z" /><path fill="#5b403b" opacity="1.00" d=" M 455.00 172.00 C 459.69 169.70 465.79 169.10 470.10 172.92 L 473.10 171.65 C 475.57 173.01 478.47 172.52 480.84 171.35 C 483.21 170.17 484.34 167.66 484.70 165.21 L 471.47 153.54 L 456.85 144.96 C 450.39 144.01 443.92 145.95 438.72 149.77 C 435.66 155.74 437.32 162.84 442.11 167.29 L 455.00 172.00 Z" /><path fill="#252221" opacity="1.00" d=" M 234.76 474.44 L 233.03 485.97 C 232.43 491.88 234.53 497.71 238.63 501.98 C 242.72 506.24 248.51 508.39 254.38 508.02 C 258.71 511.22 264.33 510.85 269.00 509.00 L 272.12 509.91 C 274.78 508.22 279.10 506.79 278.00 503.00 L 275.00 504.00 L 274.56 502.27 L 263.98 495.09 L 261.42 490.58 L 257.16 490.00 C 251.79 482.30 243.84 476.79 234.76 474.44 Z" /><path fill="#252221" opacity="1.00" d=" M 326.00 368.00 C 331.30 360.57 333.65 351.11 330.96 342.14 C 330.33 339.69 325.90 331.38 328.00 330.00 C 321.61 319.35 309.80 312.23 297.00 314.00 C 302.98 320.86 319.90 316.85 323.00 328.00 C 322.78 330.36 311.77 325.13 309.07 325.13 C 302.62 326.17 297.00 330.48 294.91 336.80 C 291.86 344.05 310.60 352.80 315.00 350.00 L 316.00 356.00 L 317.00 356.00 L 318.42 340.74 L 321.10 338.03 C 328.89 344.56 329.88 355.95 324.00 364.00 L 323.00 368.00 L 326.00 368.00 Z" /><path fill="#d48572" opacity="1.00" d=" M 421.00 169.00 L 428.00 169.00 C 412.00 167.44 395.74 169.42 380.88 175.75 L 352.32 189.26 L 331.19 204.19 L 311.26 225.27 C 301.19 234.94 294.66 247.47 290.40 260.59 L 300.00 262.00 L 304.00 263.00 L 313.00 263.00 L 313.00 261.00 L 300.28 260.24 C 313.76 222.24 343.39 191.83 381.76 178.71 L 401.76 171.63 L 421.00 169.00 Z" /><path fill="#f0b7aa" opacity="1.00" d=" M 428.00 169.00 L 421.00 169.00 C 406.11 170.84 391.82 175.74 378.53 182.58 L 364.64 190.62 L 339.32 209.33 C 323.29 221.89 314.58 241.08 313.00 261.00 L 313.00 263.00 L 319.00 264.00 L 330.00 264.00 L 328.73 262.23 C 326.61 262.82 324.31 261.92 323.25 259.95 C 322.18 257.98 322.55 255.51 324.26 254.01 L 325.56 238.79 L 333.37 224.35 L 345.73 209.73 L 370.30 190.29 L 398.86 176.82 L 429.00 169.00 L 428.00 169.00 Z" /><path fill="#412c28" opacity="1.00" d=" M 519.00 537.00 C 518.62 533.24 514.74 535.85 511.93 534.03 L 501.17 526.44 C 498.28 525.24 492.21 523.47 491.00 527.00 L 488.70 525.97 L 476.85 529.83 L 455.31 527.87 L 454.00 524.00 C 451.28 524.11 451.21 525.75 450.46 527.90 C 444.40 521.54 430.71 527.26 423.00 529.00 L 422.00 527.00 L 414.00 530.00 L 414.00 532.00 L 422.00 533.00 C 432.37 530.88 443.27 531.55 453.00 536.00 L 468.00 537.00 L 519.00 537.00 Z" /><path fill="#5b403b" opacity="1.00" d=" M 215.15 440.47 C 210.72 451.46 208.79 463.39 210.33 475.21 L 211.51 499.99 C 212.25 507.52 216.73 514.01 223.00 518.00 L 225.35 509.96 L 219.81 452.37 L 215.15 440.47 Z" /><path fill="#e4a597" opacity="1.00" d=" M 313.00 261.00 C 314.58 241.08 323.29 221.89 339.32 209.33 L 364.64 190.62 L 378.53 182.58 C 391.82 175.74 406.11 170.84 421.00 169.00 L 401.76 171.63 L 381.76 178.71 C 343.39 191.83 313.76 222.24 300.28 260.24 L 313.00 261.00 Z" /><path fill="#5b403b" opacity="1.00" d=" M 249.00 331.00 L 242.00 328.00 C 237.87 329.56 236.67 328.15 235.64 333.47 L 232.09 358.03 L 230.49 395.65 C 231.47 403.11 233.08 412.02 231.42 419.37 L 227.21 433.07 C 227.24 437.77 228.61 442.55 232.00 446.00 L 237.00 451.00 L 230.00 436.00 L 232.88 432.88 C 236.20 431.37 238.67 428.45 239.58 424.92 C 240.49 421.39 239.77 417.64 237.60 414.71 L 238.41 409.15 L 236.15 395.15 C 237.28 384.42 235.16 338.25 241.38 332.39 L 249.00 331.00 Z" /><path fill="#5b403b" opacity="1.00" d=" M 500.00 276.00 L 473.00 275.00 L 464.00 278.00 C 463.97 285.31 452.97 286.93 453.00 293.00 L 453.00 295.00 L 454.00 295.00 L 470.00 292.00 C 479.03 289.08 488.64 288.35 498.00 290.00 L 523.00 294.00 C 522.37 288.67 502.71 289.12 502.00 284.00 L 493.00 285.00 L 496.00 281.00 C 493.52 280.93 491.91 280.46 491.00 278.00 C 494.46 278.00 501.68 280.08 504.00 277.00 L 500.00 276.00 Z" /><path fill="#adb3ba" opacity="1.00" d=" M 507.31 368.95 L 510.00 372.00 C 510.65 377.49 507.00 382.29 502.00 384.00 C 502.17 381.36 503.36 380.17 506.00 380.00 L 507.31 368.95 Z M 498.00 339.00 L 505.00 355.00 L 505.00 362.00 L 505.00 368.00 C 503.49 376.36 499.81 384.52 493.00 390.00 L 506.00 388.00 L 518.00 376.00 L 524.00 365.00 L 524.00 364.00 L 519.97 362.75 C 520.03 356.31 517.76 350.15 514.00 345.00 C 512.08 345.74 498.40 336.43 498.00 339.00 Z" /><path fill="#412c28" opacity="1.00" d=" M 528.00 486.00 L 534.00 451.00 L 525.08 458.08 C 520.58 464.45 524.93 474.40 520.13 480.40 L 517.51 494.01 L 518.58 514.06 C 519.04 517.34 523.64 532.02 527.00 532.00 L 528.00 486.00 Z" /><path fill="#e4a597" opacity="1.00" d=" M 328.00 280.00 L 322.00 279.00 C 308.85 280.40 291.15 275.02 287.65 292.70 C 285.58 296.49 285.38 300.94 286.61 305.00 C 288.33 309.56 296.27 306.05 297.00 310.00 L 302.00 310.00 C 301.17 303.95 302.44 306.75 303.75 301.81 L 300.86 288.60 C 303.87 283.78 309.48 281.46 315.00 282.09 L 352.00 289.00 L 353.00 287.00 L 351.00 287.68 L 328.00 280.00 Z" /><path fill="#f0b7aa" opacity="1.00" d=" M 534.00 446.00 L 534.00 445.00 L 531.00 445.00 L 533.00 437.00 C 527.83 438.33 523.48 442.51 523.11 448.11 C 520.56 451.40 517.78 451.07 518.00 456.00 L 515.22 456.08 L 510.01 462.98 L 465.03 498.96 L 434.00 518.00 L 435.00 520.00 L 463.72 504.68 L 492.99 484.95 L 512.18 467.13 L 530.23 445.97 L 534.00 446.00 Z" /><path fill="#412c28" opacity="1.00" d=" M 477.00 599.00 C 465.67 595.45 453.94 593.01 442.00 593.00 L 441.00 596.00 L 441.00 598.00 L 448.00 603.00 C 452.92 599.69 459.10 598.02 464.96 599.94 L 513.02 610.95 L 524.08 615.90 L 541.09 628.91 L 562.00 657.00 L 565.00 655.00 L 564.00 654.00 L 561.49 653.64 L 548.00 631.00 L 534.00 616.00 C 528.17 611.21 521.37 607.71 514.00 606.00 L 506.37 606.47 L 492.00 602.65 C 486.72 603.11 481.55 601.56 477.00 599.00 Z" /><path fill="#af5e4f" opacity="1.00" d=" M 281.00 276.00 L 278.00 276.00 L 277.00 277.00 C 272.33 279.45 268.23 283.01 265.73 287.73 L 254.00 316.00 L 257.00 316.00 L 278.00 310.00 L 276.00 308.00 C 271.11 295.93 277.55 282.99 288.62 277.53 L 312.00 277.00 L 312.00 276.00 L 311.00 276.00 L 281.00 276.00 Z" /><path fill="#4c3530" opacity="1.00" d=" M 572.00 223.00 C 572.37 218.39 569.46 214.52 566.00 212.00 L 576.42 259.42 C 575.93 263.94 576.59 266.14 573.75 269.85 C 575.91 273.73 572.50 292.98 576.00 293.00 C 573.19 295.73 572.16 299.86 573.55 303.57 L 571.08 306.33 C 572.54 312.79 570.21 319.24 566.38 324.32 L 560.00 315.00 L 561.98 330.82 L 564.00 332.00 L 566.19 325.96 C 566.17 330.94 568.28 335.69 572.00 339.00 L 573.00 337.00 L 572.18 335.66 L 577.68 308.72 C 579.77 289.57 580.80 270.24 579.00 251.00 L 572.00 223.00 Z" /><path fill="#705956" opacity="1.00" d=" M 250.00 332.00 L 249.00 331.00 L 241.38 332.39 C 235.16 338.25 237.28 384.42 236.15 395.15 L 238.41 409.15 L 237.60 414.71 C 239.77 417.64 240.49 421.39 239.58 424.92 C 238.67 428.45 236.20 431.37 232.88 432.88 L 230.00 436.00 L 237.00 451.00 L 243.00 457.00 L 237.12 445.51 C 237.77 437.88 243.76 436.14 243.97 428.97 C 239.42 405.66 238.05 381.82 240.15 358.15 C 240.84 351.78 239.17 329.76 250.00 332.00 Z" /><path fill="#f0b7aa" opacity="1.00" d=" M 408.26 398.38 L 404.93 412.95 C 401.01 417.70 372.04 414.50 376.50 423.37 C 387.97 432.36 403.44 433.42 416.45 427.49 C 417.51 420.97 416.47 414.24 413.15 408.49 C 413.80 404.40 411.66 400.51 408.26 398.38 Z M 407.89 422.79 L 405.84 426.53 L 389.61 425.26 C 386.72 424.23 386.43 422.22 385.40 419.51 L 400.86 417.28 L 407.89 422.79 Z" /><path fill="#252221" opacity="1.00" d=" M 524.00 333.00 C 517.40 333.14 510.06 322.26 503.00 325.00 L 500.00 328.00 L 501.69 331.22 C 499.27 331.34 496.47 330.66 495.00 333.00 C 502.87 333.89 509.66 338.53 514.00 345.00 C 517.76 350.15 520.03 356.31 519.97 362.75 L 524.00 364.00 L 527.00 352.00 L 528.00 347.00 L 525.00 345.00 L 526.00 342.00 C 528.14 342.66 531.74 343.05 533.00 341.00 L 532.00 339.00 C 529.93 339.19 523.27 334.96 524.00 333.00 Z" /><path fill="#d48572" opacity="1.00" d=" M 315.00 277.00 L 312.00 277.00 L 288.62 277.53 C 277.55 282.99 271.11 295.93 276.00 308.00 L 278.00 310.00 L 297.00 310.00 C 296.27 306.05 288.33 309.56 286.61 305.00 C 285.38 300.94 285.58 296.49 287.65 292.70 C 291.15 275.02 308.85 280.40 322.00 279.00 L 315.00 277.00 Z" /><path fill="#4c3530" opacity="1.00" d=" M 514.00 279.00 L 504.00 277.00 C 501.68 280.08 494.46 278.00 491.00 278.00 C 491.91 280.46 493.52 280.93 496.00 281.00 L 493.00 285.00 L 502.00 284.00 C 502.71 289.12 522.37 288.67 523.00 294.00 C 530.83 295.93 538.12 299.54 544.65 304.24 L 547.00 302.00 C 537.91 291.96 526.89 283.58 514.00 279.00 Z" /><path fill="#5b403b" opacity="1.00" d=" M 484.00 85.00 C 480.89 86.32 460.08 78.49 466.00 72.00 C 460.49 66.26 451.76 65.96 445.36 70.15 C 448.22 71.17 449.95 74.10 449.41 77.10 C 448.87 80.10 446.27 82.32 443.20 82.29 C 440.13 82.26 437.49 80.05 437.00 77.00 C 437.20 79.05 438.20 81.01 439.98 82.14 C 441.75 83.28 443.96 83.71 446.00 83.00 C 457.84 80.05 470.79 80.20 481.77 86.39 L 505.84 99.27 C 509.85 104.62 515.74 108.04 522.00 110.00 L 508.02 98.87 L 507.00 96.00 L 503.38 92.58 L 487.00 85.00 L 484.00 85.00 Z" /><path fill="#c4e3fd" opacity="1.00" d=" M 331.00 330.00 L 328.00 330.00 C 325.90 331.38 330.33 339.69 330.96 342.14 C 333.65 351.11 331.30 360.57 326.00 368.00 L 321.00 376.00 L 330.00 374.00 L 338.98 366.97 C 340.43 361.71 345.51 358.15 351.00 359.00 L 348.00 358.00 L 348.00 356.00 L 346.00 349.00 L 343.00 348.00 L 343.00 359.00 L 336.88 347.67 L 332.00 333.00 L 331.00 330.00 Z" /><path fill="#4c3530" opacity="1.00" d=" M 461.00 364.00 C 459.61 362.03 459.68 359.49 460.66 357.39 C 461.64 355.30 463.80 354.18 466.00 354.00 C 465.30 349.20 461.70 353.52 459.23 352.97 L 455.24 350.66 L 450.00 356.00 C 447.12 355.92 446.70 366.33 449.00 367.00 L 449.00 361.00 C 448.30 365.89 450.92 370.51 455.11 372.89 L 466.00 388.00 C 470.96 390.70 476.77 390.64 482.00 389.00 L 470.22 385.81 C 477.89 384.41 494.48 384.28 494.00 373.00 C 489.03 380.65 479.54 383.62 471.00 381.00 C 462.85 379.22 456.74 372.23 456.50 363.79 L 461.00 364.00 Z" /><path fill="#fbc7bb" opacity="1.00" d=" M 515.00 382.00 C 516.03 384.42 514.19 387.44 515.96 391.42 L 529.26 386.23 C 535.52 377.78 537.62 366.77 534.13 356.70 L 530.00 357.00 L 524.00 365.00 L 518.00 376.00 L 515.00 382.00 Z" /><path fill="#adb3ba" opacity="1.00" d=" M 581.00 317.00 C 586.42 282.88 584.62 247.70 573.06 214.90 L 564.09 169.83 L 556.21 147.76 L 548.00 135.00 L 553.00 147.00 L 560.59 164.29 L 565.60 198.37 C 570.22 205.76 571.82 214.45 572.00 223.00 L 579.00 251.00 L 580.00 252.00 C 583.11 268.82 583.74 285.99 582.00 303.00 L 581.00 317.00 Z" /><path fill="#4c3530" opacity="1.00" d=" M 303.00 505.00 L 293.00 501.00 L 290.72 505.83 C 292.86 507.20 293.87 509.98 292.62 512.34 C 291.36 514.70 288.53 515.99 285.95 514.87 L 256.52 515.36 C 251.67 513.61 246.40 514.34 241.87 516.55 C 240.67 516.64 230.46 512.40 234.00 519.00 L 244.00 519.00 L 289.10 518.86 C 292.02 519.83 295.05 518.84 297.45 517.21 C 299.86 515.58 300.84 512.73 301.00 510.00 L 307.00 512.00 L 305.00 507.00 L 303.00 505.00 Z" /><path fill="#8b878a" opacity="1.00" d=" M 271.00 358.00 C 267.30 344.27 273.47 329.77 286.00 323.00 L 284.00 322.00 L 272.83 328.77 L 262.37 343.68 C 257.67 348.50 257.85 355.99 262.00 361.00 L 260.00 362.00 L 263.00 367.00 L 271.00 373.00 C 267.33 368.53 266.17 362.50 268.00 357.00 L 271.00 358.00 Z" /><path fill="#5b403b" opacity="1.00" d=" M 330.00 264.00 L 319.00 264.00 L 320.00 266.00 L 315.37 266.50 L 353.00 286.00 C 356.61 287.32 354.49 281.22 356.00 280.00 L 354.00 275.00 C 347.36 268.87 338.90 265.20 330.00 264.00 Z" /><path fill="#5b403b" opacity="1.00" d=" M 322.00 204.00 L 330.00 197.00 L 317.00 204.00 L 291.27 228.27 C 279.51 236.67 273.07 250.10 271.00 264.00 L 274.00 265.00 L 277.00 265.00 L 279.00 263.00 L 277.00 261.00 C 283.60 243.83 293.57 227.78 308.12 216.12 L 322.00 204.00 Z" /><path fill="#5b403b" opacity="1.00" d=" M 278.00 276.00 L 272.00 275.00 L 264.00 277.00 L 264.00 278.00 L 252.60 288.60 L 247.51 300.46 C 246.77 307.68 240.93 313.00 241.00 320.00 L 244.00 321.00 L 252.00 318.00 L 249.00 317.00 C 254.46 309.17 257.87 300.04 258.48 290.48 L 265.78 281.78 L 277.00 277.00 L 278.00 276.00 Z" /><path fill="#e4a597" opacity="1.00" d=" M 397.00 465.00 L 387.00 465.00 L 391.00 467.00 C 386.80 470.94 361.14 464.39 360.11 471.11 L 364.00 478.00 C 365.98 479.94 371.34 483.41 374.00 482.00 C 369.93 481.82 367.28 478.38 366.00 475.00 C 379.02 472.19 392.41 471.04 405.69 472.50 L 411.69 467.57 L 397.00 465.00 Z" /><path fill="#4c3530" opacity="1.00" d=" M 537.00 124.00 L 536.00 126.00 C 536.17 124.05 533.96 121.59 532.00 122.00 L 544.38 142.57 L 549.94 162.97 C 549.80 166.83 548.14 167.04 547.11 170.23 L 548.03 180.76 L 559.39 200.64 C 559.97 205.19 562.70 209.02 566.00 212.00 L 565.00 205.00 L 561.00 200.00 C 553.35 190.42 550.41 177.82 553.43 165.87 L 547.00 141.00 C 545.09 138.09 545.03 136.37 545.00 133.00 C 543.92 128.85 540.61 125.91 537.00 124.00 Z" /><path fill="#412c28" opacity="1.00" d=" M 168.00 664.00 L 174.75 662.78 L 194.75 642.75 L 209.28 633.21 L 249.02 616.01 L 251.00 613.00 C 241.31 614.08 232.10 617.62 224.00 623.00 L 198.53 636.55 L 188.09 645.04 C 182.58 652.64 175.03 658.35 167.00 663.00 L 168.00 664.00 Z" /><path fill="#e4a597" opacity="1.00" d=" M 503.00 325.00 C 510.06 322.26 517.40 333.14 524.00 333.00 C 520.20 331.03 519.14 326.55 520.00 322.76 C 516.49 322.03 515.28 320.52 514.00 317.00 L 511.00 318.00 L 509.00 316.00 C 506.95 324.20 462.39 319.55 461.00 329.00 L 467.00 327.00 L 467.00 330.00 C 478.11 324.36 490.78 322.63 503.00 325.00 Z" /><path fill="#705956" opacity="1.00" d=" M 260.00 362.00 L 262.00 361.00 C 257.85 355.99 257.67 348.50 262.37 343.68 L 272.83 328.77 L 284.00 322.00 C 278.46 321.52 272.53 322.25 268.00 325.89 L 259.73 333.86 C 257.50 337.01 256.97 343.32 253.00 344.00 C 252.11 350.86 255.20 357.36 260.00 362.00 Z" /><path fill="#e4a597" opacity="1.00" d=" M 423.00 460.00 L 407.00 449.00 L 388.38 450.37 C 384.46 450.31 371.31 454.21 368.00 456.00 L 390.23 456.04 C 397.04 454.26 404.14 455.54 410.34 458.58 L 423.00 460.00 Z" /><path fill="#4c3530" opacity="1.00" d=" M 446.00 83.00 C 451.28 85.28 457.31 85.61 462.68 83.32 L 466.52 86.72 L 497.46 96.65 L 532.00 122.00 C 530.09 117.10 527.03 112.30 522.00 110.00 C 515.74 108.04 509.85 104.62 505.84 99.27 L 481.77 86.39 C 470.79 80.20 457.84 80.05 446.00 83.00 Z" /><path fill="#412c28" opacity="1.00" d=" M 204.48 309.36 C 199.68 317.03 197.41 326.56 200.66 335.41 L 195.00 337.00 L 200.07 357.55 L 205.00 348.00 C 203.05 347.90 203.05 347.87 202.04 346.19 L 206.29 343.62 C 203.80 339.73 203.54 334.85 205.48 330.69 L 203.00 318.00 C 205.81 316.64 204.54 311.86 204.48 309.36 Z" /><path fill="#4c3530" opacity="1.00" d=" M 313.00 263.00 L 304.00 263.00 L 305.00 264.00 L 302.43 268.24 C 313.13 269.62 323.47 273.03 332.85 278.36 L 328.00 280.00 L 351.00 287.68 L 353.00 287.00 L 353.00 286.00 L 315.37 266.50 L 320.00 266.00 L 319.00 264.00 L 313.00 263.00 Z" /><path fill="#d48572" opacity="1.00" d=" M 523.00 294.00 L 498.00 290.00 L 470.00 292.00 L 454.00 295.00 L 455.00 296.00 L 492.00 292.09 L 514.94 294.94 L 532.19 300.78 C 536.31 305.53 542.86 306.67 548.66 305.24 L 547.00 302.00 L 544.65 304.24 C 538.12 299.54 530.83 295.93 523.00 294.00 Z" /><path fill="#412c28" opacity="1.00" d=" M 572.00 339.00 C 568.28 335.69 566.17 330.94 566.19 325.96 L 564.00 332.00 C 562.66 334.16 561.30 333.58 562.00 337.00 L 560.00 337.00 L 560.00 342.00 L 559.61 362.91 L 562.00 365.00 C 565.09 360.23 567.98 354.92 568.00 349.00 L 572.00 339.00 Z" /><path fill="#5b403b" opacity="1.00" d=" M 310.00 511.00 L 305.00 507.00 L 307.00 512.00 L 301.00 510.00 C 300.84 512.73 299.86 515.58 297.45 517.21 C 295.05 518.84 292.02 519.83 289.10 518.86 L 244.00 519.00 L 267.00 521.00 L 295.00 523.00 L 310.00 523.00 L 310.00 511.00 Z" /><path fill="#252221" opacity="1.00" d=" M 493.00 390.00 C 499.81 384.52 503.49 376.36 505.00 368.00 L 502.00 371.00 C 498.94 380.15 491.10 386.57 482.00 389.00 C 476.77 390.64 470.96 390.70 466.00 388.00 L 454.00 380.00 L 454.00 381.00 L 457.00 387.00 C 467.12 395.75 481.60 396.57 493.00 390.00 Z" /><path fill="#af5e4f" opacity="1.00" d=" M 367.00 462.00 L 372.00 464.00 L 387.00 465.00 L 397.00 465.00 L 417.64 464.91 L 420.00 463.00 C 402.21 459.72 384.11 457.95 366.00 459.00 L 367.00 462.00 Z" /><path fill="#705956" opacity="1.00" d=" M 439.00 69.00 L 432.00 69.00 C 432.11 71.56 434.22 76.10 437.00 77.00 C 437.49 80.05 440.13 82.26 443.20 82.29 C 446.27 82.32 448.87 80.10 449.41 77.10 C 449.95 74.10 448.22 71.17 445.36 70.15 C 451.76 65.96 460.49 66.26 466.00 72.00 C 460.08 78.49 480.89 86.32 484.00 85.00 L 473.31 78.60 C 469.49 70.03 460.45 65.04 451.16 66.38 L 439.00 69.00 Z" /><path fill="#4c3530" opacity="1.00" d=" M 167.00 663.00 C 175.03 658.35 182.58 652.64 188.09 645.04 L 198.53 636.55 L 224.00 623.00 C 209.85 626.09 196.46 632.09 185.00 641.00 C 181.91 647.53 177.03 653.04 171.00 657.00 L 166.00 660.00 L 165.00 662.00 L 167.00 663.00 Z" /><path fill="#412c28" opacity="1.00" d=" M 300.00 262.00 L 284.00 262.00 L 280.00 263.00 L 291.00 264.00 C 283.98 274.52 314.43 269.95 314.00 275.00 L 315.00 276.00 L 315.00 277.00 L 322.00 279.00 L 328.00 280.00 L 332.85 278.36 C 323.47 273.03 313.13 269.62 302.43 268.24 L 305.00 264.00 L 304.00 263.00 L 300.00 262.00 Z" /><path fill="#c4e3fd" opacity="1.00" d=" M 451.00 346.00 L 449.00 345.00 L 439.37 366.79 L 444.00 376.00 C 448.33 376.11 448.75 381.40 454.00 381.00 L 454.00 380.00 C 450.31 376.76 448.31 371.92 449.00 367.00 C 446.70 366.33 447.12 355.92 450.00 356.00 L 452.00 348.00 L 451.00 346.00 Z" /><path fill="#4c3530" opacity="1.00" d=" M 264.00 278.00 L 260.00 278.00 C 259.50 279.95 249.85 282.99 247.41 286.46 C 242.64 297.42 240.14 309.16 239.00 321.00 L 242.00 321.00 L 244.00 321.00 L 241.00 320.00 C 240.93 313.00 246.77 307.68 247.51 300.46 L 252.60 288.60 L 264.00 278.00 Z" /><path fill="#4c3530" opacity="1.00" d=" M 274.00 265.00 L 271.00 264.00 C 273.07 250.10 279.51 236.67 291.27 228.27 L 317.00 204.00 C 293.91 218.78 274.92 239.45 263.51 264.54 L 271.00 265.00 L 274.00 265.00 Z" /><path fill="#130c0c" opacity="1.00" d=" M 274.00 265.00 L 271.00 265.00 L 271.00 266.00 L 254.48 270.41 L 250.76 277.35 L 264.00 277.00 L 272.00 275.00 L 278.00 273.00 L 275.00 272.00 C 277.95 270.38 279.21 268.05 280.00 265.00 L 277.00 265.00 L 274.00 265.00 Z" /><path fill="#705956" opacity="1.00" d=" M 284.00 262.00 L 282.47 258.85 L 287.34 245.34 L 307.31 217.42 L 322.00 204.00 L 308.12 216.12 C 293.57 227.78 283.60 243.83 277.00 261.00 L 279.00 263.00 L 280.00 263.00 L 284.00 262.00 Z" /><path fill="#5b403b" opacity="1.00" d=" M 313.00 375.00 C 312.28 373.50 321.68 366.93 320.41 357.68 L 315.00 361.00 C 311.69 365.61 306.30 367.86 301.00 369.00 L 301.00 371.00 L 296.00 373.00 L 300.00 377.00 C 304.41 377.87 309.08 377.36 313.00 375.00 Z" /><path fill="#705956" opacity="1.00" d=" M 257.00 316.00 L 254.00 316.00 L 265.73 287.73 C 268.23 283.01 272.33 279.45 277.00 277.00 L 265.78 281.78 L 258.48 290.48 C 257.87 300.04 254.46 309.17 249.00 317.00 L 252.00 318.00 L 257.00 316.00 Z" /><path fill="#252221" opacity="1.00" d=" M 472.00 356.00 L 473.55 340.31 C 470.21 333.77 463.09 345.05 463.00 333.00 L 459.00 336.00 C 464.16 339.86 450.04 343.57 451.00 346.00 L 452.00 348.00 L 454.00 350.00 C 454.69 347.21 456.90 345.11 459.63 344.35 C 462.36 343.60 465.23 344.49 467.19 346.48 C 469.15 348.46 469.76 351.36 469.00 354.00 C 468.96 355.73 470.47 356.65 472.00 356.00 Z" /><path fill="#252221" opacity="1.00" d=" M 280.00 263.00 L 279.00 263.00 L 277.00 265.00 L 280.00 265.00 C 279.21 268.05 277.95 270.38 275.00 272.00 L 278.00 273.00 L 272.00 275.00 L 278.00 276.00 L 281.00 276.00 C 291.12 273.45 301.72 272.80 312.00 275.00 L 314.00 275.00 C 314.43 269.95 283.98 274.52 291.00 264.00 L 280.00 263.00 Z" /><path fill="#8b878a" opacity="1.00" d=" M 572.00 223.00 C 571.82 214.45 570.22 205.76 565.60 198.37 L 560.59 164.29 L 553.00 147.00 L 558.98 165.86 L 559.45 186.31 L 565.00 205.00 L 566.00 212.00 C 569.46 214.52 572.37 218.39 572.00 223.00 Z" /><path fill="#705956" opacity="1.00" d=" M 548.00 135.00 L 545.00 133.00 C 545.03 136.37 545.09 138.09 547.00 141.00 L 552.54 153.39 L 555.86 168.01 C 553.78 178.93 555.35 190.33 561.00 200.00 L 565.00 205.00 L 559.45 186.31 L 558.98 165.86 L 553.00 147.00 L 548.00 135.00 Z" /><path fill="#5b403b" opacity="1.00" d=" M 502.00 371.00 C 500.98 369.28 502.71 363.95 500.00 364.00 L 497.00 367.00 L 494.00 373.00 C 494.48 384.28 477.89 384.41 470.22 385.81 L 482.00 389.00 C 491.10 386.57 498.94 380.15 502.00 371.00 Z" /><path fill="#5b403b" opacity="1.00" d=" M 580.00 252.00 L 579.00 251.00 C 580.80 270.24 579.77 289.57 577.68 308.72 L 572.18 335.66 L 573.00 337.00 L 580.00 317.00 L 580.00 259.00 L 580.00 252.00 Z" /><path fill="#adb3ba" opacity="1.00" d=" M 310.00 44.00 C 327.96 39.40 346.58 38.28 365.00 40.00 L 362.73 37.23 L 343.00 37.04 L 322.73 39.69 C 317.97 38.81 313.46 41.04 310.00 44.00 Z" /><path fill="#e4a597" opacity="1.00" d=" M 407.89 422.79 L 400.86 417.28 L 385.40 419.51 C 386.43 422.22 386.72 424.23 389.61 425.26 L 405.84 426.53 L 407.89 422.79 Z" /><path fill="#fdd7cd" opacity="1.00" d=" M 410.00 441.00 L 408.00 445.00 C 414.10 451.74 422.41 456.05 431.40 457.27 L 433.40 453.47 C 429.46 451.91 417.04 443.41 415.00 444.00 C 414.02 441.85 412.48 440.55 410.00 441.00 Z" /><path fill="#f0b7aa" opacity="1.00" d=" M 368.00 456.00 C 371.31 454.21 384.46 450.31 388.38 450.37 L 407.00 449.00 C 396.59 446.55 385.64 446.78 375.50 450.37 L 360.00 455.00 L 368.00 456.00 Z" /><path fill="#5b403b" opacity="1.00" d=" M 561.00 200.00 C 555.35 190.33 553.78 178.93 555.86 168.01 L 552.54 153.39 L 547.00 141.00 L 553.43 165.87 C 550.41 177.82 553.35 190.42 561.00 200.00 Z" /><path fill="#adb3ba" opacity="1.00" d=" M 340.00 337.00 L 332.00 333.00 L 336.88 347.67 L 343.00 359.00 L 343.00 348.00 L 346.00 349.00 L 345.00 346.00 L 340.00 337.00 Z" /><path fill="#412c28" opacity="1.00" d=" M 317.00 356.00 L 324.42 353.68 C 327.49 354.99 323.48 361.78 324.00 364.00 C 329.88 355.95 328.89 344.56 321.10 338.03 L 318.42 340.74 L 317.00 356.00 Z" /><path fill="#f0b7aa" opacity="1.00" d=" M 387.00 465.00 L 372.00 464.00 C 372.58 466.13 371.14 466.16 369.41 466.50 L 355.41 465.51 C 355.78 470.96 359.31 475.50 364.00 478.00 L 360.11 471.11 C 361.14 464.39 386.80 470.94 391.00 467.00 L 387.00 465.00 Z" /><path fill="#252221" opacity="1.00" d=" M 264.00 277.00 L 250.76 277.35 L 254.48 270.41 L 271.00 266.00 C 268.12 265.83 258.53 269.60 258.73 264.08 L 265.00 250.00 C 259.86 251.89 250.04 273.66 248.85 279.53 L 260.00 278.00 L 264.00 278.00 L 264.00 277.00 Z" /><path fill="#adb3ba" opacity="1.00" d=" M 519.00 537.00 L 468.00 537.00 C 486.23 539.55 504.77 539.94 523.00 537.00 L 519.00 537.00 Z" /><path fill="#fdd7cd" opacity="1.00" d=" M 469.00 354.00 L 466.00 354.00 C 463.80 354.18 461.64 355.30 460.66 357.39 C 459.68 359.49 459.61 362.03 461.00 364.00 L 463.00 366.00 L 468.00 366.00 C 469.88 365.26 471.44 363.83 472.18 361.92 C 472.92 360.01 472.92 357.86 472.00 356.00 C 470.47 356.65 468.96 355.73 469.00 354.00 Z" /><path fill="#252221" opacity="1.00" d=" M 343.00 335.00 C 338.25 327.77 331.56 322.10 324.00 318.00 C 323.47 322.51 335.01 325.81 331.00 330.00 L 332.00 333.00 L 340.00 337.00 C 340.88 334.36 340.91 336.29 343.00 335.00 Z" /><path fill="#412c28" opacity="1.00" d=" M 469.00 354.00 C 469.76 351.36 469.15 348.46 467.19 346.48 C 465.23 344.49 462.36 343.60 459.63 344.35 C 456.90 345.11 454.69 347.21 454.00 350.00 L 452.00 348.00 L 450.00 356.00 L 455.24 350.66 L 459.23 352.97 C 461.70 353.52 465.30 349.20 466.00 354.00 L 469.00 354.00 Z" /><path fill="#4c3530" opacity="1.00" d=" M 317.00 356.00 L 316.00 356.00 L 315.00 361.00 L 320.41 357.68 C 321.68 366.93 312.28 373.50 313.00 375.00 L 323.00 368.00 L 324.00 364.00 C 323.48 361.78 327.49 354.99 324.42 353.68 L 317.00 356.00 Z" /><path fill="#4c3530" opacity="1.00" d=" M 514.00 606.00 C 502.33 600.95 489.68 598.72 477.00 599.00 C 481.55 601.56 486.72 603.11 492.00 602.65 L 506.37 606.47 L 514.00 606.00 Z" /><path fill="#adb3ba" opacity="1.00" d=" M 487.00 84.00 L 469.56 68.52 C 453.85 59.47 445.75 68.54 431.00 67.00 L 432.00 69.00 L 439.00 69.00 L 451.08 65.15 C 470.33 64.38 480.37 85.16 487.00 84.00 Z" /><path fill="#adb3ba" opacity="1.00" d=" M 282.00 377.00 C 275.66 372.57 272.27 365.37 271.00 358.00 L 268.00 357.00 C 266.17 362.50 267.33 368.53 271.00 373.00 L 282.00 377.00 Z" /><path fill="#e4a597" opacity="1.00" d=" M 417.00 479.00 C 419.57 478.19 421.95 476.59 423.20 474.10 C 424.44 471.62 424.95 468.71 424.00 466.00 L 427.00 465.00 L 412.51 467.62 L 419.00 475.00 L 417.00 479.00 Z" /><path fill="#8b878a" opacity="1.00" d=" M 514.00 345.00 C 509.66 338.53 502.87 333.89 495.00 333.00 C 493.47 332.44 491.28 331.98 491.00 334.00 L 498.00 339.00 C 498.40 336.43 512.08 345.74 514.00 345.00 Z" /><path fill="#fbc7bb" opacity="1.00" d=" M 449.00 615.00 L 448.00 607.00 L 444.00 606.00 L 445.00 610.00 L 440.93 607.89 L 425.00 618.00 L 437.00 613.00 L 439.28 615.86 L 446.98 612.15 L 449.00 615.00 Z" /><path fill="#8b878a" opacity="1.00" d=" M 439.00 69.00 L 451.16 66.38 C 460.45 65.04 469.49 70.03 473.31 78.60 L 484.00 85.00 L 487.00 85.00 L 487.00 84.00 C 480.37 85.16 470.33 64.38 451.08 65.15 L 439.00 69.00 Z" /><path fill="#412c28" opacity="1.00" d=" M 541.00 347.00 C 538.58 344.69 537.38 341.08 533.00 341.00 C 531.74 343.05 528.14 342.66 526.00 342.00 L 525.00 345.00 L 528.00 347.00 L 527.00 352.00 L 541.00 347.00 Z" /><path fill="#adb3ba" opacity="1.00" d=" M 528.00 535.00 C 531.07 534.77 529.29 525.35 529.13 523.00 L 528.00 486.00 L 527.00 532.00 L 528.00 535.00 Z" /><path fill="#fdd7cd" opacity="1.00" d=" M 282.33 342.06 C 279.58 343.20 278.28 346.36 279.42 349.11 C 280.56 351.86 283.72 353.17 286.48 352.02 C 289.23 350.88 290.53 347.72 289.39 344.97 C 288.25 342.22 285.09 340.91 282.33 342.06 Z" /><path fill="#705956" opacity="1.00" d=" M 522.00 107.00 L 507.00 96.00 L 508.02 98.87 L 522.00 110.00 C 527.03 112.30 530.09 117.10 532.00 122.00 C 533.96 121.59 536.17 124.05 536.00 126.00 L 537.00 124.00 L 536.00 121.00 L 522.00 107.00 Z" /><path fill="#412c28" opacity="1.00" d=" M 449.00 367.00 C 448.31 371.92 450.31 376.76 454.00 380.00 L 466.00 388.00 L 455.11 372.89 C 450.92 370.51 448.30 365.89 449.00 361.00 L 449.00 367.00 Z" /><path fill="#4c3530" opacity="1.00" d=" M 550.00 631.00 L 548.00 631.00 L 561.49 653.64 L 564.00 654.00 L 550.00 631.00 Z" /><path fill="#d48572" opacity="1.00" d=" M 560.00 315.00 L 558.00 309.00 L 560.00 342.00 L 560.00 337.00 L 562.00 337.00 C 561.30 333.58 562.66 334.16 564.00 332.00 L 561.98 330.82 L 560.00 315.00 Z" /><path fill="#d48572" opacity="1.00" d=" M 570.00 349.00 L 568.00 349.00 C 567.98 354.92 565.09 360.23 562.00 365.00 L 560.59 372.46 L 556.43 370.80 C 556.38 369.66 555.63 375.27 558.82 374.55 C 562.22 372.63 564.90 369.37 565.35 365.34 L 570.00 349.00 Z" /><path fill="#4c3530" opacity="1.00" d=" M 422.00 533.00 L 453.00 536.00 C 443.27 531.55 432.37 530.88 422.00 533.00 Z" /><path fill="#705956" opacity="1.00" d=" M 582.00 303.00 C 583.13 288.30 581.86 273.57 580.00 259.00 L 580.00 317.00 L 581.00 317.00 L 582.00 303.00 Z" /><path fill="#412c28" opacity="1.00" d=" M 463.00 366.00 L 461.00 364.00 L 456.50 363.79 C 456.74 372.23 462.85 379.22 471.00 381.00 L 469.00 378.00 L 460.00 366.00 L 463.00 366.00 Z" /><path fill="#705956" opacity="1.00" d=" M 464.00 278.00 L 463.00 278.00 C 455.82 279.22 452.06 286.37 453.00 293.00 C 452.97 286.93 463.97 285.31 464.00 278.00 Z" /><path fill="#130c0c" opacity="1.00" d=" M 274.00 615.00 L 270.00 613.00 L 266.00 614.00 L 266.44 616.50 L 278.00 624.00 L 280.00 622.00 L 275.00 616.00 L 274.00 615.00 Z" /><path fill="#412c28" opacity="1.00" d=" M 301.00 369.00 C 295.60 369.75 290.03 369.24 285.00 367.00 L 281.00 364.00 C 278.56 365.72 281.92 368.92 282.00 371.00 L 285.00 372.00 L 284.14 367.96 C 288.35 372.60 295.33 374.41 301.00 371.00 L 301.00 369.00 Z" /><path fill="#4c3530" opacity="1.00" d=" M 300.00 377.00 L 296.00 373.00 L 301.00 371.00 C 295.33 374.41 288.35 372.60 284.14 367.96 L 285.00 372.00 C 288.91 375.99 294.51 377.75 300.00 377.00 Z" /><path fill="#412c28" opacity="1.00" d=" M 311.00 276.00 L 312.00 275.00 C 301.72 272.80 291.12 273.45 281.00 276.00 L 311.00 276.00 Z" /><path fill="#412c28" opacity="1.00" d=" M 505.00 362.00 C 502.94 360.75 500.71 356.60 498.00 358.00 L 497.00 361.00 L 497.00 367.00 L 500.00 364.00 C 502.71 363.95 500.98 369.28 502.00 371.00 L 505.00 368.00 L 505.00 362.00 Z" /><path fill="#5b403b" opacity="1.00" d=" M 550.00 631.00 C 546.48 624.34 540.71 619.26 534.00 616.00 L 548.00 631.00 L 550.00 631.00 Z" /><path fill="#e4a597" opacity="1.00" d=" M 473.00 275.00 L 500.00 276.00 C 491.41 272.39 481.83 272.21 473.00 275.00 Z" /><path fill="#252221" opacity="1.00" d=" M 282.00 371.00 C 281.92 368.92 278.56 365.72 281.00 364.00 L 285.00 367.00 C 283.90 361.51 279.77 357.43 275.00 355.00 C 275.13 361.09 278.09 366.57 282.00 371.00 Z" /><path fill="#8b878a" opacity="1.00" d=" M 582.00 303.00 C 583.74 285.99 583.11 268.82 580.00 252.00 L 580.00 259.00 C 581.86 273.57 583.13 288.30 582.00 303.00 Z" /><path fill="#252221" opacity="1.00" d=" M 483.00 329.00 L 469.92 332.18 C 467.39 333.59 464.22 333.75 464.00 337.00 L 477.96 331.31 C 479.90 331.20 483.10 331.73 483.00 329.00 Z" /><path fill="#fdd7cd" opacity="1.00" d=" M 315.00 380.00 L 316.00 382.00 C 321.77 381.90 326.79 378.58 330.00 374.00 L 321.00 376.00 L 315.00 380.00 Z" /><path fill="#705956" opacity="1.00" d=" M 171.00 657.00 L 180.00 645.00 C 173.87 648.39 168.94 653.62 166.00 660.00 L 171.00 657.00 Z" /><path fill="#adb3ba" opacity="1.00" d=" M 295.00 523.00 L 267.00 521.00 C 276.07 523.71 285.63 524.46 295.00 523.00 Z" /><path fill="#130c0c" opacity="1.00" d=" M 348.00 344.00 L 343.00 335.00 C 340.91 336.29 340.88 334.36 340.00 337.00 L 345.00 346.00 L 348.00 344.00 Z" /><path fill="#252221" opacity="1.00" d=" M 505.00 362.00 L 505.00 355.00 L 503.00 357.00 L 496.88 351.58 L 497.00 361.00 L 498.00 358.00 C 500.71 356.60 502.94 360.75 505.00 362.00 Z" /><path fill="#252221" opacity="1.00" d=" M 468.00 366.00 L 463.00 366.00 L 460.00 366.00 L 469.00 378.00 L 464.59 369.72 L 468.00 366.00 Z" /><path fill="#c4e3fd" opacity="1.00" d=" M 507.31 368.95 L 506.00 380.00 C 503.36 380.17 502.17 381.36 502.00 384.00 C 507.00 382.29 510.65 377.49 510.00 372.00 L 507.31 368.95 Z" /><path fill="#5b403b" opacity="1.00" d=" M 171.00 657.00 C 177.03 653.04 181.91 647.53 185.00 641.00 L 180.00 645.00 L 171.00 657.00 Z" /><path fill="#130c0c" opacity="1.00" d=" M 451.00 346.00 C 450.04 343.57 464.16 339.86 459.00 336.00 C 454.54 337.46 450.99 340.79 449.00 345.00 L 451.00 346.00 Z" /><path fill="#252221" opacity="1.00" d=" M 351.00 349.00 L 348.00 344.00 L 345.00 346.00 L 346.00 349.00 L 348.00 356.00 L 350.00 356.00 L 351.00 356.00 L 351.00 349.00 Z" /><path fill="#8b878a" opacity="1.00" d=" M 536.00 121.00 C 532.70 115.14 527.87 110.28 522.00 107.00 L 536.00 121.00 Z" /><path fill="#5b403b" opacity="1.00" d=" M 401.00 167.00 L 433.00 167.00 C 422.43 165.06 411.57 164.82 401.00 167.00 Z" /><path fill="#adb3ba" opacity="1.00" d=" M 224.00 95.00 L 230.00 88.00 C 224.15 92.07 219.10 97.18 215.00 103.00 L 224.00 95.00 Z" /><path fill="#af5e4f" opacity="1.00" d=" M 470.00 292.00 L 498.00 290.00 C 488.64 288.35 479.03 289.08 470.00 292.00 Z" /><path fill="#e4a597" opacity="1.00" d=" M 515.00 382.00 L 518.00 376.00 L 506.00 388.00 L 504.00 390.00 C 508.48 388.89 512.97 386.47 515.00 382.00 Z" /><path fill="#252221" opacity="1.00" d=" M 430.00 112.00 L 431.00 122.00 C 432.56 120.84 433.77 119.00 433.48 116.93 C 433.20 114.86 432.08 112.80 430.00 112.00 Z" /><path fill="#4c3530" opacity="1.00" d=" M 351.00 356.00 L 350.00 356.00 C 350.44 357.88 349.70 358.00 348.00 358.00 L 351.00 359.00 L 351.00 356.00 Z" /><path fill="#4c3530" opacity="1.00" d=" M 314.00 275.00 L 312.00 275.00 L 311.00 276.00 L 312.00 276.00 L 315.00 276.00 L 314.00 275.00 Z" /><path fill="#412c28" opacity="1.00" d=" M 350.00 356.00 L 348.00 356.00 L 348.00 358.00 C 349.70 358.00 350.44 357.88 350.00 356.00 Z" /><path fill="#705956" opacity="1.00" d=" M 315.00 276.00 L 312.00 276.00 L 312.00 277.00 L 315.00 277.00 L 315.00 276.00 Z" /></g></svg>