<svg height="1em" style="flex:none;line-height:1" viewBox="0 0 24 24" width="1em" xmlns="http://www.w3.org/2000/svg"><title>Huawei Ascend</title><g transform="scale(0.1875)">
<path fill="#D9231D" d="M 106.42 4.57 C 78.75 32.19 51.09 59.93 25.96 89.94 L 9.00 110.04 C 8.23 111.68 7.85 113.64 8.66 115.38 C 9.47 117.12 10.81 118.74 12.77 119.26 C 16.24 121.97 19.31 120.85 22.65 118.64 L 66.10 73.10 L 85.47 57.43 L 112.30 42.28 L 112.29 9.75 C 112.02 6.51 110.05 3.62 106.42 4.57 Z"/>
<path fill="#D9231D" d="M 106.45 64.64 L 91.62 67.60 L 76.72 75.80 C 76.56 75.99 76.35 76.15 76.23 76.37 C 75.72 77.27 100.61 113.24 107.30 110.36 L 111.15 107.16 L 111.95 65.05 L 106.45 64.64 Z"/></g></svg>