<svg height="1em" style="flex:none;line-height:1" viewBox="0 0 24 24" width="1em" xmlns="http://www.w3.org/2000/svg"><title>MeiGen</title><g transform="scale(0.0234375)"><path fill="#4B27F9" d="M 780.00 660.00 L 766.00 644.00 L 765.00 646.00 L 762.00 645.00 L 762.00 647.00 C 759.26 646.59 755.33 643.10 755.00 648.00 L 750.64 646.64 L 750.64 649.40 L 738.00 658.80 C 737.40 662.53 737.43 664.88 733.00 665.00 L 734.00 668.00 L 721.00 677.00 L 722.00 680.00 L 717.75 680.00 C 716.65 684.15 713.71 687.53 709.85 689.34 L 708.00 695.00 L 705.00 694.00 L 700.00 702.00 L 697.00 701.00 L 694.31 707.70 L 691.00 707.00 C 690.77 710.37 688.82 709.69 686.45 708.80 L 682.00 718.00 L 680.00 716.00 L 681.17 719.84 L 673.78 723.02 L 675.38 727.41 L 669.56 725.70 L 671.03 730.36 L 664.57 732.85 L 667.00 736.00 L 664.00 735.00 C 663.56 737.27 660.51 737.09 658.60 737.51 L 663.00 739.00 C 655.44 742.44 649.72 748.72 646.00 756.00 C 644.35 755.52 637.31 758.40 637.00 760.00 L 635.00 758.00 C 630.68 760.11 628.22 764.48 627.55 769.04 L 623.00 769.00 C 622.77 772.36 620.25 771.86 617.47 772.18 L 617.00 776.00 C 613.30 775.73 609.53 778.04 609.00 782.00 L 620.21 797.76 L 771.93 985.07 C 791.36 1007.14 819.01 1019.61 848.00 1022.00 L 909.00 1023.00 L 912.00 1023.00 L 929.00 1023.00 L 947.51 1020.87 L 966.03 1015.09 L 982.83 1005.87 L 996.16 994.16 L 1005.69 982.66 L 1015.20 966.10 L 1020.77 949.62 L 1023.97 928.97 L 1022.85 907.50 L 997.60 795.57 C 992.10 762.18 983.40 729.45 974.00 697.00 L 974.00 702.08 L 970.00 703.00 L 964.00 709.00 L 961.00 706.00 L 962.00 711.00 L 959.00 712.00 L 958.00 709.00 L 958.00 711.00 C 952.08 711.40 956.47 719.49 943.68 716.95 L 944.91 721.14 L 934.16 723.98 L 931.44 729.89 L 926.00 731.00 L 927.00 728.00 L 924.00 729.00 L 925.73 732.60 L 922.87 734.49 L 917.00 734.00 L 915.00 732.00 L 912.12 733.68 L 911.67 736.83 L 907.00 734.00 C 906.76 737.49 903.14 738.81 900.00 739.00 L 896.24 745.80 C 889.17 744.68 886.20 752.02 880.00 750.00 C 877.51 753.42 872.85 755.86 868.57 753.61 L 864.00 751.00 L 864.00 753.00 C 860.74 754.93 856.88 753.90 854.00 752.00 L 847.00 754.00 L 845.00 752.00 L 843.44 755.33 L 780.39 663.33 L 780.00 660.00 Z"/><path fill="#FA267C" d="M 352.00 654.00 L 350.00 652.00 L 347.00 652.00 L 347.00 650.00 L 344.00 651.00 C 341.94 648.28 338.67 646.18 335.04 646.83 L 328.86 641.47 C 324.86 642.27 320.86 640.77 318.00 638.00 L 320.00 636.00 L 318.00 633.00 L 317.00 636.00 L 312.15 632.09 L 308.00 635.00 L 336.38 584.69 L 330.08 584.69 L 328.00 587.00 L 324.09 586.92 L 317.81 583.71 C 316.81 585.63 314.65 586.37 312.68 586.55 C 310.71 586.73 309.10 585.41 308.00 584.00 L 303.68 587.26 L 302.00 585.00 L 302.00 587.00 C 296.51 587.00 288.41 585.43 284.00 588.00 L 282.00 586.00 L 268.00 589.00 L 270.00 587.00 C 268.04 587.04 266.34 586.72 267.00 589.00 L 263.00 587.00 L 263.00 589.00 L 258.70 586.42 L 253.00 586.00 L 251.00 588.00 L 248.00 588.00 L 246.00 586.00 C 241.59 588.51 236.01 587.79 232.45 584.14 L 230.41 587.65 L 228.00 585.00 L 223.80 586.30 C 223.15 583.80 222.54 578.97 219.00 580.00 L 217.70 574.53 C 216.85 576.16 216.29 578.96 214.00 578.00 L 216.00 576.00 L 211.52 574.54 L 195.00 559.00 L 196.00 556.00 C 194.50 556.44 192.99 557.16 193.00 555.00 L 195.00 553.00 L 190.60 551.53 C 191.85 546.11 185.17 540.80 186.00 539.00 L 189.00 539.00 L 186.00 538.00 L 188.00 536.00 L 184.26 535.68 L 185.00 529.00 L 183.00 527.00 L 185.00 524.00 L 182.00 523.00 L 181.00 488.00 L 179.00 486.00 C 181.72 483.61 183.68 479.71 182.00 476.00 L 180.00 474.00 C 179.92 470.01 182.12 466.51 185.00 464.00 L 182.00 463.00 L 185.00 460.00 L 183.00 458.00 L 185.00 458.00 C 184.69 455.01 184.69 456.17 186.00 454.00 C 184.01 452.77 182.75 446.34 186.00 446.00 C 184.61 444.62 183.93 444.04 185.00 442.00 L 188.00 443.00 L 188.00 431.00 L 192.00 428.00 L 190.00 426.00 L 192.01 407.14 L 194.00 407.00 L 192.00 405.00 L 195.00 403.00 L 193.00 401.00 C 196.59 399.27 191.46 390.49 197.00 393.00 C 195.75 384.79 198.37 376.67 203.00 370.00 C 200.94 365.45 205.22 364.03 204.00 360.00 L 207.00 359.00 L 205.00 357.00 L 209.00 352.00 C 208.04 349.22 207.16 347.73 209.00 345.00 L 212.00 346.00 C 210.10 340.37 213.35 334.83 218.00 332.00 C 217.22 329.84 214.56 328.24 218.00 328.00 C 217.30 320.84 219.19 313.51 224.00 308.00 C 222.31 306.85 228.51 291.28 231.00 291.00 C 230.30 288.65 230.84 289.50 232.00 288.00 L 230.00 285.00 C 233.51 283.92 235.00 276.92 238.00 278.00 L 238.16 270.62 L 240.53 269.29 L 238.74 266.62 C 243.84 263.55 244.07 253.56 247.00 255.00 C 245.22 252.83 246.94 252.52 248.00 251.00 C 245.49 250.81 247.98 249.10 247.39 247.68 C 249.09 238.91 253.56 231.00 259.68 224.58 L 263.04 213.30 L 265.00 212.00 C 262.98 205.40 276.06 191.66 279.25 185.25 L 281.17 178.31 L 285.85 175.74 C 283.91 166.69 294.59 159.94 293.00 154.00 C 296.56 151.35 307.43 128.34 309.74 122.74 L 312.45 113.53 L 315.00 113.00 C 314.20 107.03 315.49 109.14 317.00 105.00 L 321.00 104.00 C 319.13 102.81 321.29 102.21 322.00 101.00 C 318.79 99.87 321.12 98.31 320.00 96.00 C 321.84 98.06 325.54 92.40 327.00 91.00 L 325.00 89.00 L 328.61 85.10 C 327.89 81.07 329.20 76.96 332.00 74.00 C 329.59 73.68 329.87 72.20 329.29 70.22 L 334.00 69.00 L 330.73 68.64 L 333.00 66.00 L 332.00 63.00 L 334.22 64.60 C 334.05 63.08 332.46 57.33 335.00 58.00 L 334.00 55.00 C 335.74 54.11 336.89 50.98 339.00 53.00 C 337.47 50.98 337.75 48.17 339.51 46.40 C 341.27 44.63 344.04 44.53 346.00 46.00 C 345.16 43.78 347.34 44.15 349.00 44.00 L 334.52 25.46 L 322.14 14.80 L 303.66 5.26 L 285.80 0.89 L 264.64 1.17 L 246.53 6.39 L 231.29 15.23 L 216.94 27.94 L 206.08 43.19 L 197.26 62.39 L 47.00 709.00 L 47.56 722.54 C 53.53 719.43 60.42 718.44 67.00 720.00 L 64.00 722.00 L 81.00 721.00 C 81.62 724.24 84.75 721.26 86.00 723.00 L 85.00 726.00 L 88.00 728.00 C 90.71 725.30 95.21 724.82 98.10 727.66 L 102.00 728.00 L 104.00 726.00 L 107.00 727.00 L 106.00 724.00 L 108.66 723.50 C 114.15 727.30 118.04 723.04 124.00 725.00 L 123.00 722.00 L 127.00 721.00 L 129.00 723.00 L 136.00 719.00 L 133.00 718.00 L 138.36 719.64 L 138.36 716.12 L 142.00 720.00 L 144.00 718.00 C 147.91 719.14 148.72 715.53 152.00 715.00 L 151.00 712.00 L 156.00 715.00 L 155.00 712.00 C 158.67 713.12 162.10 710.87 164.00 708.00 L 174.00 706.00 L 174.00 704.00 L 179.00 704.00 C 179.11 701.65 179.27 702.32 181.34 703.24 L 181.00 700.00 L 183.00 702.00 L 187.00 696.00 C 188.56 697.91 195.31 695.19 195.00 693.00 L 197.00 695.00 C 198.62 692.99 201.35 694.54 202.00 691.00 L 205.00 692.00 L 208.51 687.77 L 216.25 687.49 L 218.00 683.00 L 226.45 679.59 C 228.65 680.94 231.31 680.52 233.58 679.81 C 235.85 679.11 237.12 676.98 238.00 675.00 L 240.00 677.00 L 240.00 675.00 C 242.56 674.85 247.45 673.96 248.00 671.00 L 250.00 670.00 L 252.00 672.00 L 258.00 668.00 L 260.00 670.00 L 265.00 671.00 L 267.00 669.00 C 271.58 671.14 277.11 672.41 282.00 670.00 L 265.55 700.94 L 273.00 699.00 L 276.00 702.00 C 280.10 698.58 285.40 696.47 290.84 697.33 L 295.00 695.00 L 297.00 697.00 C 298.02 694.26 300.46 693.84 303.00 693.00 L 305.00 695.00 C 306.71 691.40 311.68 693.74 312.00 689.00 L 315.00 691.00 C 316.11 688.66 318.79 688.32 321.00 689.00 C 322.01 686.29 326.23 684.20 329.00 685.00 L 334.00 680.00 L 339.00 679.00 L 342.00 669.00 C 346.81 666.38 349.63 661.35 350.00 656.00 L 352.00 654.00 Z"/><path fill="#FB4653" d="M 402.00 121.00 L 349.00 44.00 C 347.34 44.15 345.16 43.78 346.00 46.00 C 344.04 44.53 341.27 44.63 339.51 46.40 C 337.75 48.17 337.47 50.98 339.00 53.00 C 336.89 50.98 335.74 54.11 334.00 55.00 L 335.00 58.00 C 332.46 57.33 334.05 63.08 334.22 64.60 L 332.00 63.00 L 333.00 66.00 L 330.73 68.64 L 334.00 69.00 L 329.29 70.22 C 329.87 72.20 329.59 73.68 332.00 74.00 C 329.20 76.96 327.89 81.07 328.61 85.10 L 325.00 89.00 L 327.00 91.00 C 325.54 92.40 321.84 98.06 320.00 96.00 C 321.12 98.31 318.79 99.87 322.00 101.00 C 321.29 102.21 319.13 102.81 321.00 104.00 L 317.00 105.00 C 315.49 109.14 314.20 107.03 315.00 113.00 L 312.45 113.53 L 309.74 122.74 C 307.43 128.34 296.56 151.35 293.00 154.00 C 294.59 159.94 283.91 166.69 285.85 175.74 L 281.17 178.31 L 279.25 185.25 C 276.06 191.66 262.98 205.40 265.00 212.00 L 263.04 213.30 L 259.68 224.58 C 253.56 231.00 249.09 238.91 247.39 247.68 C 247.98 249.10 245.49 250.81 248.00 251.00 C 246.94 252.52 245.22 252.83 247.00 255.00 C 244.07 253.56 243.84 263.55 238.74 266.62 L 240.53 269.29 L 238.16 270.62 L 238.00 278.00 C 235.00 276.92 233.51 283.92 230.00 285.00 L 232.00 288.00 C 230.84 289.50 230.30 288.65 231.00 291.00 C 228.51 291.28 222.31 306.85 224.00 308.00 C 219.19 313.51 217.30 320.84 218.00 328.00 C 214.56 328.24 217.22 329.84 218.00 332.00 C 213.35 334.83 210.10 340.37 212.00 346.00 L 209.00 345.00 C 207.16 347.73 208.04 349.22 209.00 352.00 L 205.00 357.00 L 207.00 359.00 L 204.00 360.00 C 205.22 364.03 200.94 365.45 203.00 370.00 C 198.37 376.67 195.75 384.79 197.00 393.00 C 191.46 390.49 196.59 399.27 193.00 401.00 L 195.00 403.00 L 192.00 405.00 L 194.00 407.00 L 192.01 407.14 L 190.00 426.00 L 192.00 428.00 L 188.00 431.00 L 188.00 443.00 L 185.00 442.00 C 183.93 444.04 184.61 444.62 186.00 446.00 C 182.75 446.34 184.01 452.77 186.00 454.00 C 184.69 456.17 184.69 455.01 185.00 458.00 L 183.00 458.00 L 185.00 460.00 L 182.00 463.00 L 185.00 464.00 C 182.12 466.51 179.92 470.01 180.00 474.00 L 182.00 476.00 C 183.68 479.71 181.72 483.61 179.00 486.00 L 181.00 488.00 L 182.00 523.00 L 185.00 524.00 L 183.00 527.00 L 185.00 529.00 L 184.26 535.68 L 188.00 536.00 L 186.00 538.00 L 189.00 539.00 L 186.00 539.00 C 185.17 540.80 191.85 546.11 190.60 551.53 L 195.00 553.00 L 193.00 555.00 C 192.99 557.16 194.50 556.44 196.00 556.00 L 195.00 559.00 L 211.52 574.54 L 216.00 576.00 L 214.00 578.00 C 216.29 578.96 216.85 576.16 217.70 574.53 L 219.00 580.00 C 222.54 578.97 223.15 583.80 223.80 586.30 L 228.00 585.00 L 230.41 587.65 L 232.45 584.14 C 236.01 587.79 241.59 588.51 246.00 586.00 L 248.00 588.00 L 251.00 588.00 L 253.00 586.00 L 258.70 586.42 L 263.00 589.00 L 263.00 587.00 L 267.00 589.00 C 266.34 586.72 268.04 587.04 270.00 587.00 L 268.00 589.00 L 282.00 586.00 L 284.00 588.00 C 288.41 585.43 296.51 587.00 302.00 587.00 L 302.00 585.00 L 303.68 587.26 L 308.00 584.00 C 309.10 585.41 310.71 586.73 312.68 586.55 C 314.65 586.37 316.81 585.63 317.81 583.71 L 324.09 586.92 L 328.00 587.00 L 330.08 584.69 L 336.38 584.69 L 308.00 635.00 L 312.15 632.09 L 317.00 636.00 L 318.00 633.00 L 320.00 636.00 L 318.00 638.00 C 320.86 640.77 324.86 642.27 328.86 641.47 L 335.04 646.83 C 338.67 646.18 341.94 648.28 344.00 651.00 L 347.00 650.00 L 347.00 652.00 L 350.00 652.00 L 352.00 654.00 L 355.00 649.00 C 359.10 650.19 370.12 629.87 374.00 631.00 L 375.00 629.00 L 369.00 625.00 L 370.00 622.00 L 365.00 620.00 L 364.00 615.00 C 358.79 614.65 361.40 607.81 357.00 607.00 C 357.71 604.58 357.93 603.14 355.00 603.00 L 356.00 600.00 L 354.58 598.89 C 349.34 592.67 346.44 584.90 345.71 576.86 L 343.00 579.00 L 382.00 514.00 L 385.00 509.00 L 384.00 507.00 L 382.00 509.00 L 382.00 506.00 L 380.70 510.66 L 378.00 508.00 L 376.00 510.00 L 369.10 505.06 C 367.34 505.30 364.29 504.91 364.00 507.00 L 345.46 503.21 L 342.00 505.00 L 340.00 503.00 L 337.00 503.00 L 335.00 505.00 L 332.40 501.80 L 329.36 503.76 L 313.00 495.00 L 311.00 497.00 L 306.12 492.85 L 306.00 489.00 L 303.00 490.00 L 304.84 487.61 C 301.79 485.16 300.50 481.10 301.65 477.35 L 297.94 472.08 L 299.51 467.41 C 297.40 466.00 296.47 463.44 297.00 461.00 C 295.12 460.65 293.09 457.46 295.00 456.00 L 293.00 454.00 C 294.60 453.24 295.07 451.35 293.00 451.00 L 293.00 442.00 L 290.00 443.00 L 292.00 436.00 L 289.00 435.00 L 291.82 422.12 L 292.93 381.87 L 297.00 379.00 L 297.37 372.98 L 301.24 369.24 L 310.29 330.19 L 313.00 327.00 L 311.00 325.00 L 312.82 321.61 L 317.29 320.61 L 316.24 313.65 L 325.00 302.00 L 324.00 299.00 C 331.49 295.81 335.44 274.74 340.00 274.00 L 339.00 271.00 L 344.00 264.00 L 345.00 251.00 C 347.14 249.97 347.60 247.07 347.00 245.00 L 349.60 243.70 L 350.00 237.00 L 353.00 238.00 L 357.84 227.83 C 364.70 218.07 366.02 207.49 371.56 197.56 L 377.80 187.84 C 381.10 185.71 382.71 181.57 381.26 177.80 C 383.19 177.28 385.55 177.46 386.00 175.00 L 384.00 173.00 C 387.46 170.50 388.79 165.95 387.12 162.00 L 391.87 162.00 C 390.60 153.95 392.38 145.78 396.44 138.77 L 397.00 128.00 L 402.00 121.00 Z"/><path fill="#D0D73E" d="M 491.00 475.00 L 495.81 465.83 L 502.58 457.58 C 503.55 455.29 506.70 454.40 506.00 452.00 L 528.39 417.02 C 529.37 411.16 544.08 384.26 544.00 384.00 L 562.52 354.82 L 571.37 365.37 L 577.28 360.05 L 589.12 342.91 L 595.59 328.61 L 597.93 327.93 L 610.00 312.00 L 609.00 309.00 C 610.38 308.89 616.16 303.48 617.00 302.00 L 616.00 299.00 L 619.00 300.00 C 620.57 298.41 625.09 289.05 626.00 290.00 C 625.44 286.35 634.30 279.72 632.00 277.00 C 633.77 276.86 634.83 275.65 634.00 274.00 C 635.34 275.96 637.90 271.96 637.00 271.00 C 638.33 271.28 641.98 269.33 640.00 268.00 L 644.00 267.00 C 643.44 265.04 662.92 250.35 664.00 240.00 L 667.00 241.00 L 670.30 236.07 L 670.18 231.87 L 683.04 217.05 C 685.28 215.26 685.55 214.90 685.87 212.19 C 690.74 209.99 691.37 202.61 696.00 202.00 L 695.00 199.00 C 697.11 198.83 707.65 183.71 708.00 181.00 L 710.00 183.00 L 713.00 175.00 L 717.35 174.48 L 717.35 170.87 L 730.57 157.57 C 731.99 154.27 733.89 154.33 736.40 152.40 C 738.58 146.00 743.81 141.32 750.00 139.00 L 764.80 120.23 C 768.20 119.21 771.07 116.85 772.61 113.62 C 780.59 110.58 786.34 103.96 790.11 96.59 L 795.00 95.00 L 793.00 93.00 L 799.64 89.68 L 800.00 87.00 L 803.00 88.00 C 802.46 86.14 808.05 80.93 810.00 80.00 L 812.00 82.00 L 811.00 79.00 L 818.00 78.00 C 819.60 74.25 822.38 74.18 826.00 73.77 L 826.00 69.00 L 828.00 71.00 L 824.04 57.98 L 814.59 40.34 L 803.33 26.62 L 786.92 14.15 L 772.81 7.27 L 756.01 3.58 C 728.49 1.24 701.40 12.43 684.04 34.06 L 519.00 291.00 C 521.77 294.73 523.40 299.29 523.00 304.00 L 521.00 304.00 L 518.00 309.00 L 515.00 308.00 C 516.82 313.54 513.87 318.28 514.00 324.00 L 512.00 322.00 C 509.86 325.25 509.72 329.78 512.71 332.68 L 507.00 337.00 L 509.00 339.00 C 506.31 340.28 506.63 343.27 506.75 345.73 L 502.80 346.98 L 506.00 351.00 L 504.00 349.00 L 503.72 353.36 L 501.64 353.36 L 497.00 360.00 C 498.25 360.87 499.44 362.28 499.13 363.98 C 498.82 365.68 497.88 367.52 496.00 368.00 L 496.61 376.74 L 492.68 376.15 L 495.00 381.00 L 486.82 396.92 L 490.37 398.11 L 486.96 401.52 L 488.00 405.00 L 486.00 405.00 L 488.00 407.00 L 487.00 414.00 L 485.00 414.00 C 484.96 417.97 483.72 421.96 480.92 424.90 L 480.73 439.26 C 478.62 443.72 479.11 448.77 480.61 453.26 C 478.54 455.91 478.38 456.96 478.52 460.36 L 476.00 460.00 L 481.00 465.00 L 478.00 469.00 L 479.00 472.00 C 476.37 472.13 476.76 472.73 477.00 475.00 L 475.00 475.00 L 477.00 484.00 L 479.00 480.00 L 482.00 481.00 L 488.00 474.00 L 491.00 475.00 Z"/><path fill="#7CDE83" d="M 859.00 203.00 L 828.00 71.00 L 826.00 69.00 L 826.00 73.77 C 822.38 74.18 819.60 74.25 818.00 78.00 L 811.00 79.00 L 812.00 82.00 L 810.00 80.00 C 808.05 80.93 802.46 86.14 803.00 88.00 L 800.00 87.00 L 799.64 89.68 L 793.00 93.00 L 795.00 95.00 L 790.11 96.59 C 786.34 103.96 780.59 110.58 772.61 113.62 C 771.07 116.85 768.20 119.21 764.80 120.23 L 750.00 139.00 C 743.81 141.32 738.58 146.00 736.40 152.40 C 733.89 154.33 731.99 154.27 730.57 157.57 L 717.35 170.87 L 717.35 174.48 L 713.00 175.00 L 710.00 183.00 L 708.00 181.00 C 707.65 183.71 697.11 198.83 695.00 199.00 L 696.00 202.00 C 691.37 202.61 690.74 209.99 685.87 212.19 C 685.55 214.90 685.28 215.26 683.04 217.05 L 670.18 231.87 L 670.30 236.07 L 667.00 241.00 L 664.00 240.00 C 662.92 250.35 643.44 265.04 644.00 267.00 L 640.00 268.00 C 641.98 269.33 638.33 271.28 637.00 271.00 C 637.90 271.96 635.34 275.96 634.00 274.00 C 634.83 275.65 633.77 276.86 632.00 277.00 C 634.30 279.72 625.44 286.35 626.00 290.00 C 625.09 289.05 620.57 298.41 619.00 300.00 L 616.00 299.00 L 617.00 302.00 C 616.16 303.48 610.38 308.89 609.00 309.00 L 610.00 312.00 L 597.93 327.93 L 595.59 328.61 L 589.12 342.91 L 577.28 360.05 L 571.37 365.37 L 562.52 354.82 L 544.00 384.00 C 544.08 384.26 529.37 411.16 528.39 417.02 L 506.00 452.00 C 506.70 454.40 503.55 455.29 502.58 457.58 L 495.81 465.83 L 491.00 475.00 L 491.00 479.00 L 494.74 478.16 L 497.00 481.00 L 499.00 479.00 L 501.68 481.78 L 501.19 485.07 C 503.82 485.43 505.84 486.32 506.00 483.00 L 510.00 488.00 L 508.00 490.00 C 510.34 490.25 514.72 490.13 515.00 493.00 L 517.00 488.00 L 519.00 490.00 L 520.00 487.00 L 522.00 489.00 L 524.45 488.67 C 526.99 486.30 528.77 485.96 532.00 485.00 C 533.02 487.22 536.05 486.04 538.00 486.00 L 543.00 481.00 L 543.00 479.00 L 545.00 479.00 C 545.48 471.89 578.76 445.51 579.00 436.00 L 582.00 437.00 C 582.51 433.10 589.01 430.49 588.00 427.00 L 589.00 425.00 C 590.83 424.14 594.55 420.91 594.00 419.00 C 596.85 417.95 597.48 416.07 598.51 413.46 C 601.03 412.73 601.13 412.23 603.00 411.00 L 619.00 432.00 L 621.00 430.00 L 622.22 432.46 L 626.00 427.00 L 628.00 429.00 C 631.24 423.22 636.19 418.27 642.72 416.29 C 644.55 411.16 649.01 407.67 654.00 406.00 C 655.87 395.76 672.53 390.91 673.00 384.00 L 675.00 386.00 L 679.95 383.16 L 681.00 377.00 L 684.00 378.00 C 684.10 376.15 684.12 375.46 686.00 376.00 L 685.60 372.89 C 690.88 371.36 692.50 364.83 698.00 364.00 L 697.00 361.00 C 702.84 360.63 703.11 353.33 708.00 353.00 L 707.00 349.00 L 710.00 350.00 C 710.35 347.34 717.20 339.51 720.00 339.00 L 719.00 336.00 L 722.00 337.00 C 721.71 335.16 722.66 333.47 723.67 332.08 C 724.69 330.69 726.43 330.24 728.00 330.00 C 728.85 328.05 730.81 325.36 733.00 326.00 C 733.21 322.47 734.66 321.73 737.54 320.33 L 740.47 312.67 C 743.96 311.55 745.56 307.39 747.00 304.00 L 749.00 306.00 L 752.00 301.00 L 750.00 299.00 L 756.00 298.00 C 755.09 294.87 761.26 293.32 760.00 289.00 L 767.00 284.00 L 770.24 284.18 L 772.00 281.00 L 772.00 275.00 L 775.00 276.00 C 775.63 271.16 784.31 270.51 783.00 266.00 L 791.00 262.00 C 791.91 256.33 806.27 250.30 806.27 240.62 L 812.00 238.00 L 823.77 225.67 L 825.00 226.00 L 826.00 220.00 L 829.00 221.00 L 835.89 214.33 L 839.00 215.00 C 840.45 211.99 850.20 211.12 853.59 205.50 L 859.00 206.00 L 859.00 203.00 Z"/><path fill="#0FB8F0" d="M 916.00 445.00 C 908.69 407.70 900.16 370.64 890.00 334.00 L 887.37 324.26 L 876.96 327.96 L 876.00 330.00 L 872.00 330.00 C 873.03 333.56 867.69 334.85 865.00 335.00 L 865.00 337.00 C 861.74 337.22 860.01 340.57 858.02 342.84 L 856.00 343.00 L 858.00 345.00 L 855.00 347.00 C 852.16 347.23 849.28 348.29 847.47 350.64 C 845.65 352.99 844.47 355.96 845.00 359.00 L 843.00 356.00 L 838.00 367.00 L 836.00 365.00 L 834.00 368.00 L 834.00 365.00 L 831.00 373.00 L 829.00 371.00 L 824.93 373.44 L 826.00 377.00 L 822.00 377.00 L 818.00 386.00 L 814.00 387.00 L 812.26 392.00 L 808.46 392.00 C 808.07 396.66 805.08 400.50 801.28 402.93 L 801.00 407.00 L 799.00 407.00 L 797.58 412.62 C 792.91 414.57 785.32 425.26 781.00 424.00 C 780.83 426.64 779.64 427.83 777.00 428.00 L 775.00 432.00 L 778.00 431.00 L 777.00 434.00 C 768.96 437.78 761.84 443.46 757.00 451.00 L 754.00 450.00 C 753.66 452.21 738.54 464.80 736.00 466.00 L 737.00 469.00 C 732.86 468.97 728.48 470.36 726.00 474.00 C 724.31 477.09 720.69 479.42 717.00 478.00 L 718.00 481.00 L 711.00 482.00 L 712.00 485.00 L 703.00 490.00 L 696.00 488.00 L 694.00 494.00 L 691.00 493.00 L 686.23 495.26 C 681.94 499.92 675.54 502.19 669.27 500.85 L 634.43 455.96 L 630.00 458.00 C 631.71 461.79 617.85 462.62 620.00 470.00 L 617.00 469.00 C 614.06 477.75 602.39 478.22 602.00 484.00 C 597.14 482.59 585.08 504.18 581.00 503.00 L 580.00 507.00 C 576.63 507.61 573.94 510.45 574.00 514.00 L 569.00 515.00 C 569.93 518.21 565.55 517.10 565.00 520.00 C 560.68 521.26 557.13 524.56 556.00 529.00 C 554.68 529.09 541.30 543.10 541.00 545.00 C 539.18 544.47 538.30 545.05 538.00 547.00 C 535.10 546.16 534.34 548.96 533.09 551.09 L 528.64 551.55 L 528.64 554.45 L 524.37 554.05 L 524.96 556.56 L 520.08 562.56 L 516.00 563.00 L 500.70 583.13 C 494.70 587.75 489.64 593.58 486.55 600.55 C 479.50 611.37 453.42 631.98 452.00 643.00 L 467.99 639.60 L 471.30 641.10 L 473.00 637.00 L 475.00 639.00 C 476.97 634.86 485.64 638.15 485.00 634.00 C 488.07 633.27 493.23 631.74 494.00 629.00 C 501.62 629.84 509.20 627.12 514.56 621.64 L 524.00 620.00 L 524.63 617.56 L 540.00 609.06 C 541.40 605.28 545.03 602.87 549.01 602.83 L 549.00 600.00 C 551.96 599.80 555.79 597.06 556.00 594.00 C 560.76 595.53 562.48 591.71 567.44 590.75 C 572.84 584.41 579.48 578.96 587.52 576.31 C 588.91 572.56 592.56 570.36 596.39 570.10 L 598.79 563.93 L 601.00 566.00 C 604.86 566.30 603.63 560.62 603.28 558.35 C 607.22 558.14 610.90 555.56 611.69 551.50 L 619.00 548.00 L 620.15 544.22 L 623.70 544.76 C 628.17 534.36 635.96 525.78 645.71 520.08 C 651.43 521.98 651.88 517.63 654.68 513.42 L 669.00 503.00 L 698.18 543.81 C 702.28 547.17 704.54 552.07 706.00 557.00 L 724.00 579.00 C 728.37 578.95 731.67 575.14 736.45 573.59 L 755.00 572.00 L 754.00 569.00 C 755.93 569.53 758.05 569.50 759.83 568.46 C 761.61 567.43 763.11 565.83 763.63 563.77 L 768.00 567.00 L 767.00 564.00 L 781.14 563.31 L 781.00 560.00 L 784.00 561.00 L 785.00 558.00 C 787.81 558.29 789.77 558.46 790.00 555.00 L 792.00 557.00 L 796.60 548.21 L 801.28 550.16 L 799.77 545.99 L 807.99 545.09 L 804.00 542.00 L 811.14 542.62 L 815.34 536.48 L 817.00 540.00 L 817.00 538.00 C 820.46 537.76 819.94 533.11 823.00 534.00 C 823.10 530.19 825.01 529.05 827.83 526.90 L 831.00 528.00 C 831.94 525.52 832.35 524.92 832.15 521.97 L 835.00 522.00 L 835.00 520.00 C 838.35 519.77 838.10 516.72 839.00 514.00 L 842.00 515.00 C 843.76 513.96 845.60 512.05 845.00 510.00 C 847.52 509.09 849.81 507.85 850.00 505.00 C 852.98 504.80 853.13 503.15 853.91 500.70 L 857.47 498.47 C 859.23 495.90 859.37 492.25 863.00 492.00 L 861.88 487.93 C 866.08 485.93 867.01 483.91 869.20 479.84 L 873.00 481.00 C 872.54 479.43 883.29 468.50 885.00 469.00 L 887.00 463.00 C 888.85 462.90 889.54 462.88 889.00 461.00 L 892.15 461.92 C 894.24 458.48 894.95 457.58 899.01 457.41 L 903.00 454.00 L 906.00 455.00 L 904.76 450.20 L 912.84 450.61 L 915.00 448.00 L 916.00 452.00 L 916.00 445.00 Z"/><path fill="#30D6CD" d="M 890.00 334.00 L 859.00 203.00 L 859.00 206.00 L 853.59 205.50 C 850.20 211.12 840.45 211.99 839.00 215.00 L 835.89 214.33 L 829.00 221.00 L 826.00 220.00 L 825.00 226.00 L 823.77 225.67 L 812.00 238.00 L 806.27 240.62 C 806.27 250.30 791.91 256.33 791.00 262.00 L 783.00 266.00 C 784.31 270.51 775.63 271.16 775.00 276.00 L 772.00 275.00 L 772.00 281.00 L 770.24 284.18 L 767.00 284.00 L 760.00 289.00 C 761.26 293.32 755.09 294.87 756.00 298.00 L 750.00 299.00 L 752.00 301.00 L 749.00 306.00 L 747.00 304.00 C 745.56 307.39 743.96 311.55 740.47 312.67 L 737.54 320.33 C 734.66 321.73 733.21 322.47 733.00 326.00 C 730.81 325.36 728.85 328.05 728.00 330.00 C 726.43 330.24 724.69 330.69 723.67 332.08 C 722.66 333.47 721.71 335.16 722.00 337.00 L 719.00 336.00 L 720.00 339.00 C 717.20 339.51 710.35 347.34 710.00 350.00 L 707.00 349.00 L 708.00 353.00 C 703.11 353.33 702.84 360.63 697.00 361.00 L 698.00 364.00 C 692.50 364.83 690.88 371.36 685.60 372.89 L 686.00 376.00 C 684.12 375.46 684.10 376.15 684.00 378.00 L 681.00 377.00 L 679.95 383.16 L 675.00 386.00 L 673.00 384.00 C 672.53 390.91 655.87 395.76 654.00 406.00 C 649.01 407.67 644.55 411.16 642.72 416.29 C 636.19 418.27 631.24 423.22 628.00 429.00 L 626.00 427.00 L 622.22 432.46 L 621.00 430.00 L 619.00 432.00 L 603.00 411.00 C 601.13 412.23 601.03 412.73 598.51 413.46 C 597.48 416.07 596.85 417.95 594.00 419.00 C 594.55 420.91 590.83 424.14 589.00 425.00 L 588.00 427.00 C 589.01 430.49 582.51 433.10 582.00 437.00 L 579.00 436.00 C 578.76 445.51 545.48 471.89 545.00 479.00 L 543.00 479.00 L 543.00 481.00 L 538.00 486.00 L 538.64 489.24 C 532.96 494.63 536.01 511.16 532.00 510.00 L 533.00 513.00 L 530.00 515.00 L 532.00 517.00 L 530.00 523.00 C 527.19 523.54 528.41 526.77 525.00 527.00 C 527.19 530.73 526.51 531.78 523.33 534.78 L 525.00 540.00 L 522.00 539.00 L 523.00 542.00 C 520.21 542.51 520.77 544.85 521.00 547.00 C 517.94 548.36 518.54 551.17 518.83 553.89 L 516.00 556.00 L 518.00 558.00 L 516.00 563.00 L 520.08 562.56 L 524.96 556.56 L 524.37 554.05 L 528.64 554.45 L 528.64 551.55 L 533.09 551.09 C 534.34 548.96 535.10 546.16 538.00 547.00 C 538.30 545.05 539.18 544.47 541.00 545.00 C 541.30 543.10 554.68 529.09 556.00 529.00 C 557.13 524.56 560.68 521.26 565.00 520.00 C 565.55 517.10 569.93 518.21 569.00 515.00 L 574.00 514.00 C 573.94 510.45 576.63 507.61 580.00 507.00 L 581.00 503.00 C 585.08 504.18 597.14 482.59 602.00 484.00 C 602.39 478.22 614.06 477.75 617.00 469.00 L 620.00 470.00 C 617.85 462.62 631.71 461.79 630.00 458.00 L 634.43 455.96 L 669.27 500.85 C 675.54 502.19 681.94 499.92 686.23 495.26 L 691.00 493.00 L 694.00 494.00 L 696.00 488.00 L 703.00 490.00 L 712.00 485.00 L 711.00 482.00 L 718.00 481.00 L 717.00 478.00 C 720.69 479.42 724.31 477.09 726.00 474.00 C 728.48 470.36 732.86 468.97 737.00 469.00 L 736.00 466.00 C 738.54 464.80 753.66 452.21 754.00 450.00 L 757.00 451.00 C 761.84 443.46 768.96 437.78 777.00 434.00 L 778.00 431.00 L 775.00 432.00 L 777.00 428.00 C 779.64 427.83 780.83 426.64 781.00 424.00 C 785.32 425.26 792.91 414.57 797.58 412.62 L 799.00 407.00 L 801.00 407.00 L 801.28 402.93 C 805.08 400.50 808.07 396.66 808.46 392.00 L 812.26 392.00 L 814.00 387.00 L 818.00 386.00 L 822.00 377.00 L 826.00 377.00 L 824.93 373.44 L 829.00 371.00 L 831.00 373.00 L 834.00 365.00 L 834.00 368.00 L 836.00 365.00 L 838.00 367.00 L 843.00 356.00 L 845.00 359.00 C 844.47 355.96 845.65 352.99 847.47 350.64 C 849.28 348.29 852.16 347.23 855.00 347.00 L 858.00 345.00 L 856.00 343.00 L 858.02 342.84 C 860.01 340.57 861.74 337.22 865.00 337.00 L 865.00 335.00 C 867.69 334.85 873.03 333.56 872.00 330.00 L 876.00 330.00 L 876.96 327.96 L 887.37 324.26 L 890.00 334.00 Z"/><path fill="#FA7030" d="M 459.00 205.00 L 402.00 121.00 L 397.00 128.00 L 396.44 138.77 C 392.38 145.78 390.60 153.95 391.87 162.00 L 387.12 162.00 C 388.79 165.95 387.46 170.50 384.00 173.00 L 386.00 175.00 C 385.55 177.46 383.19 177.28 381.26 177.80 C 382.71 181.57 381.10 185.71 377.80 187.84 L 371.56 197.56 C 366.02 207.49 364.70 218.07 357.84 227.83 L 353.00 238.00 L 350.00 237.00 L 349.60 243.70 L 347.00 245.00 C 347.60 247.07 347.14 249.97 345.00 251.00 L 344.00 264.00 L 339.00 271.00 L 340.00 274.00 C 335.44 274.74 331.49 295.81 324.00 299.00 L 325.00 302.00 L 316.24 313.65 L 317.29 320.61 L 312.82 321.61 L 311.00 325.00 L 313.00 327.00 L 310.29 330.19 L 301.24 369.24 L 297.37 372.98 L 297.00 379.00 L 292.93 381.87 L 291.82 422.12 L 289.00 435.00 L 292.00 436.00 L 290.00 443.00 L 293.00 442.00 L 293.00 451.00 C 295.07 451.35 294.60 453.24 293.00 454.00 L 295.00 456.00 C 293.09 457.46 295.12 460.65 297.00 461.00 C 296.47 463.44 297.40 466.00 299.51 467.41 L 297.94 472.08 L 301.65 477.35 C 300.50 481.10 301.79 485.16 304.84 487.61 L 303.00 490.00 L 306.00 489.00 L 306.12 492.85 L 311.00 497.00 L 313.00 495.00 L 329.36 503.76 L 332.40 501.80 L 335.00 505.00 L 337.00 503.00 L 340.00 503.00 L 342.00 505.00 L 345.46 503.21 L 364.00 507.00 C 364.29 504.91 367.34 505.30 369.10 505.06 L 376.00 510.00 L 378.00 508.00 L 380.70 510.66 L 382.00 506.00 L 382.00 509.00 L 384.00 507.00 L 385.00 509.00 L 446.00 408.00 L 443.00 409.00 L 443.00 406.00 L 439.39 407.74 L 438.00 404.00 L 425.52 403.39 L 423.00 398.00 L 425.00 396.00 L 419.00 396.00 L 420.00 399.00 L 416.00 397.00 L 416.00 393.00 L 414.00 395.00 L 410.40 391.16 L 410.00 385.00 L 412.00 383.00 L 409.00 384.00 L 408.00 381.00 C 412.44 380.18 408.90 371.43 410.00 368.00 C 407.41 365.59 405.37 362.17 406.01 358.41 L 409.85 354.12 L 407.00 352.00 C 409.16 350.96 409.77 346.53 407.00 346.00 L 409.00 344.00 L 407.00 340.00 L 409.00 342.00 L 408.00 335.00 L 410.00 335.00 L 408.20 329.10 L 412.25 310.75 L 418.00 299.00 L 416.64 294.63 L 421.00 292.00 L 419.00 290.00 L 421.00 288.00 L 420.00 285.00 C 425.08 280.50 429.67 274.93 431.00 268.00 L 430.00 265.00 L 434.65 260.71 L 442.57 237.92 L 449.00 231.00 L 447.00 229.00 L 451.00 227.00 C 448.75 225.62 450.27 220.40 450.00 218.00 L 453.00 219.00 C 451.26 216.37 450.80 213.12 451.53 210.08 C 452.26 207.04 454.30 204.52 457.00 203.00 L 459.00 205.00 Z"/><path fill="#9618EA" d="M 411.00 752.00 C 408.58 749.28 407.74 745.45 409.00 742.00 L 407.00 740.00 L 410.00 739.00 L 408.00 735.00 L 398.00 734.00 L 396.00 736.00 L 393.04 732.90 C 390.54 735.40 388.86 735.86 385.38 736.51 L 383.11 734.24 C 380.08 736.16 378.55 736.41 375.00 736.00 C 374.81 738.79 370.36 740.61 368.00 742.00 L 366.00 740.00 L 365.00 743.00 L 363.00 740.00 L 353.00 743.00 C 352.83 749.82 342.72 755.62 344.00 760.00 L 337.44 769.44 L 328.00 777.00 L 329.00 780.00 L 320.15 787.95 C 316.58 796.87 306.36 802.67 302.00 813.00 L 299.00 812.00 L 294.16 819.16 L 282.00 830.00 L 280.98 834.51 C 274.93 835.11 264.22 846.41 263.00 852.00 C 257.79 853.06 253.50 856.85 252.00 862.00 L 250.00 860.00 L 248.00 863.00 L 245.00 862.00 L 243.22 865.61 C 240.42 869.64 235.77 871.74 231.00 872.00 L 232.00 875.00 C 229.59 877.18 228.25 877.01 225.19 876.36 L 223.00 880.04 C 219.07 880.56 218.82 883.24 218.56 886.54 L 215.34 886.64 L 206.10 894.67 L 202.86 894.18 L 201.86 897.33 C 199.18 898.42 197.21 898.72 197.00 902.00 L 191.00 903.00 C 191.69 905.37 187.98 909.58 186.00 907.00 C 183.92 909.16 180.83 910.06 177.92 909.26 C 171.45 912.57 168.00 922.46 160.00 923.00 L 160.00 925.00 L 158.00 925.00 C 155.09 928.67 150.72 930.94 146.00 931.00 L 142.77 936.07 L 139.00 934.00 L 139.00 938.00 L 136.00 937.00 C 134.56 937.85 132.61 940.09 131.00 938.00 L 129.00 944.00 C 126.36 944.17 125.17 945.36 125.00 948.00 L 121.47 948.70 C 119.60 951.79 118.11 952.88 114.75 954.23 C 113.54 957.96 111.93 957.99 108.00 958.00 L 107.00 961.00 C 101.38 959.51 95.80 962.03 92.00 966.00 L 88.00 965.00 L 86.00 967.00 C 82.06 966.94 78.30 968.77 76.00 972.00 L 74.00 972.00 L 74.00 974.00 L 71.00 972.00 L 65.14 974.66 L 64.00 978.00 L 62.00 976.00 L 59.72 979.13 L 55.60 977.62 L 56.85 983.30 L 43.60 978.80 L 40.67 981.92 C 35.71 979.32 29.80 981.38 27.00 986.00 L 25.00 984.00 L 22.00 987.00 C 40.11 1010.39 68.25 1024.17 98.00 1023.00 L 171.00 1023.00 C 201.08 1020.83 229.59 1007.53 249.38 984.45 L 404.00 794.00 C 403.76 792.23 402.90 792.88 401.50 793.17 L 398.00 793.00 L 396.00 791.00 L 398.00 778.00 L 402.00 773.00 L 401.00 770.00 C 402.83 770.53 403.37 769.74 404.00 768.00 L 402.00 768.00 C 406.25 764.28 408.57 758.79 408.14 753.14 L 411.00 752.00 Z"/><path fill="#E519B1" d="M 334.00 730.00 C 333.76 727.67 332.89 722.60 336.00 722.00 L 339.00 679.00 L 334.00 680.00 L 329.00 685.00 C 326.23 684.20 322.01 686.29 321.00 689.00 C 318.79 688.32 316.11 688.66 315.00 691.00 L 312.00 689.00 C 311.68 693.74 306.71 691.40 305.00 695.00 L 303.00 693.00 C 300.46 693.84 298.02 694.26 297.00 697.00 L 295.00 695.00 L 290.84 697.33 C 285.40 696.47 280.10 698.58 276.00 702.00 L 273.00 699.00 L 265.55 700.94 L 282.00 670.00 C 277.11 672.41 271.58 671.14 267.00 669.00 L 265.00 671.00 L 260.00 670.00 L 258.00 668.00 L 252.00 672.00 L 250.00 670.00 L 248.00 671.00 C 247.45 673.96 242.56 674.85 240.00 675.00 L 240.00 677.00 L 238.00 675.00 C 237.12 676.98 235.85 679.11 233.58 679.81 C 231.31 680.52 228.65 680.94 226.45 679.59 L 218.00 683.00 L 216.25 687.49 L 208.51 687.77 L 205.00 692.00 L 202.00 691.00 C 201.35 694.54 198.62 692.99 197.00 695.00 L 195.00 693.00 C 195.31 695.19 188.56 697.91 187.00 696.00 L 183.00 702.00 L 181.00 700.00 L 181.34 703.24 C 179.27 702.32 179.11 701.65 179.00 704.00 L 174.00 704.00 L 174.00 706.00 L 164.00 708.00 C 162.10 710.87 158.67 713.12 155.00 712.00 L 156.00 715.00 L 151.00 712.00 L 152.00 715.00 C 148.72 715.53 147.91 719.14 144.00 718.00 L 142.00 720.00 L 138.36 716.12 L 138.36 719.64 L 133.00 718.00 L 136.00 719.00 L 129.00 723.00 L 127.00 721.00 L 123.00 722.00 L 124.00 725.00 C 118.04 723.04 114.15 727.30 108.66 723.50 L 106.00 724.00 L 107.00 727.00 L 104.00 726.00 L 102.00 728.00 L 98.10 727.66 C 95.21 724.82 90.71 725.30 88.00 728.00 L 85.00 726.00 L 86.00 723.00 C 84.75 721.26 81.62 724.24 81.00 721.00 L 64.00 722.00 L 67.00 720.00 C 60.42 718.44 53.53 719.43 47.56 722.54 L 47.00 709.00 L 12.00 861.00 L 13.35 864.55 L 17.00 865.00 C 24.02 861.62 32.20 859.39 40.00 862.00 L 40.00 860.00 L 48.00 862.00 L 46.00 860.00 L 50.00 859.00 L 55.00 863.00 L 58.00 860.00 L 58.00 862.00 C 62.83 862.00 65.36 861.89 67.00 857.00 L 68.00 860.00 L 77.00 857.00 L 80.00 859.00 L 81.00 856.00 L 113.04 851.58 L 115.00 849.00 L 116.55 852.15 C 118.65 847.08 124.19 844.47 129.45 845.80 L 132.00 842.00 L 134.00 844.00 C 134.13 841.91 138.48 836.92 140.00 837.00 L 143.00 838.00 L 148.30 832.21 L 152.13 834.66 L 151.28 831.55 L 156.00 831.00 L 155.00 828.00 C 157.52 823.21 162.99 821.38 168.00 822.00 C 167.67 818.55 172.63 820.85 171.00 817.00 L 176.00 819.00 C 176.11 816.64 176.54 816.21 179.00 816.00 L 178.00 813.00 C 181.43 813.90 185.83 813.38 187.77 809.77 L 198.29 806.20 L 202.00 808.00 L 205.00 804.00 L 207.00 806.00 L 208.00 803.00 L 223.00 803.00 C 223.27 799.07 226.00 799.66 229.00 800.00 L 235.00 794.00 C 236.76 796.30 238.66 792.80 240.00 792.00 L 243.00 793.00 C 245.43 787.44 274.22 775.21 273.00 771.00 L 276.00 772.00 L 282.00 765.00 L 285.00 766.00 L 288.00 762.00 L 291.00 763.00 L 296.00 758.00 L 298.00 760.00 L 301.00 755.00 C 302.42 758.08 304.86 755.10 305.00 753.00 C 307.19 753.63 307.74 752.03 308.00 750.00 L 311.00 751.00 L 315.00 744.00 L 318.00 745.00 L 319.00 740.00 L 322.00 741.00 L 334.00 730.00 Z"/><path fill="#C311DC" d="M 353.00 743.00 L 351.00 741.00 L 354.85 740.24 L 348.00 736.00 L 341.20 736.64 L 339.34 731.80 L 334.00 730.00 L 322.00 741.00 L 319.00 740.00 L 318.00 745.00 L 315.00 744.00 L 311.00 751.00 L 308.00 750.00 C 307.74 752.03 307.19 753.63 305.00 753.00 C 304.86 755.10 302.42 758.08 301.00 755.00 L 298.00 760.00 L 296.00 758.00 L 291.00 763.00 L 288.00 762.00 L 285.00 766.00 L 282.00 765.00 L 276.00 772.00 L 273.00 771.00 C 274.22 775.21 245.43 787.44 243.00 793.00 L 240.00 792.00 C 238.66 792.80 236.76 796.30 235.00 794.00 L 229.00 800.00 C 226.00 799.66 223.27 799.07 223.00 803.00 L 208.00 803.00 L 207.00 806.00 L 205.00 804.00 L 202.00 808.00 L 198.29 806.20 L 187.77 809.77 C 185.83 813.38 181.43 813.90 178.00 813.00 L 179.00 816.00 C 176.54 816.21 176.11 816.64 176.00 819.00 L 171.00 817.00 C 172.63 820.85 167.67 818.55 168.00 822.00 C 162.99 821.38 157.52 823.21 155.00 828.00 L 156.00 831.00 L 151.28 831.55 L 152.13 834.66 L 148.30 832.21 L 143.00 838.00 L 140.00 837.00 C 138.48 836.92 134.13 841.91 134.00 844.00 L 132.00 842.00 L 129.45 845.80 C 124.19 844.47 118.65 847.08 116.55 852.15 L 115.00 849.00 L 113.04 851.58 L 81.00 856.00 L 80.00 859.00 L 77.00 857.00 L 68.00 860.00 L 67.00 857.00 C 65.36 861.89 62.83 862.00 58.00 862.00 L 58.00 860.00 L 55.00 863.00 L 50.00 859.00 L 46.00 860.00 L 48.00 862.00 L 40.00 860.00 L 40.00 862.00 C 32.20 859.39 24.02 861.62 17.00 865.00 L 13.35 864.55 L 12.00 861.00 C 5.66 880.81 1.76 901.29 0.00 922.00 L 1.69 943.07 L 6.25 960.55 C 9.47 970.45 15.27 979.19 22.00 987.00 L 25.00 984.00 L 27.00 986.00 C 29.80 981.38 35.71 979.32 40.67 981.92 L 43.60 978.80 L 56.85 983.30 L 55.60 977.62 L 59.72 979.13 L 62.00 976.00 L 64.00 978.00 L 65.14 974.66 L 71.00 972.00 L 74.00 974.00 L 74.00 972.00 L 76.00 972.00 C 78.30 968.77 82.06 966.94 86.00 967.00 L 88.00 965.00 L 92.00 966.00 C 95.80 962.03 101.38 959.51 107.00 961.00 L 108.00 958.00 C 111.93 957.99 113.54 957.96 114.75 954.23 C 118.11 952.88 119.60 951.79 121.47 948.70 L 125.00 948.00 C 125.17 945.36 126.36 944.17 129.00 944.00 L 131.00 938.00 C 132.61 940.09 134.56 937.85 136.00 937.00 L 139.00 938.00 L 139.00 934.00 L 142.77 936.07 L 146.00 931.00 C 150.72 930.94 155.09 928.67 158.00 925.00 L 160.00 925.00 L 160.00 923.00 C 168.00 922.46 171.45 912.57 177.92 909.26 C 180.83 910.06 183.92 909.16 186.00 907.00 C 187.98 909.58 191.69 905.37 191.00 903.00 L 197.00 902.00 C 197.21 898.72 199.18 898.42 201.86 897.33 L 202.86 894.18 L 206.10 894.67 L 215.34 886.64 L 218.56 886.54 C 218.82 883.24 219.07 880.56 223.00 880.04 L 225.19 876.36 C 228.25 877.01 229.59 877.18 232.00 875.00 L 231.00 872.00 C 235.77 871.74 240.42 869.64 243.22 865.61 L 245.00 862.00 L 248.00 863.00 L 250.00 860.00 L 252.00 862.00 C 253.50 856.85 257.79 853.06 263.00 852.00 C 264.22 846.41 274.93 835.11 280.98 834.51 L 282.00 830.00 L 294.16 819.16 L 299.00 812.00 L 302.00 813.00 C 306.36 802.67 316.58 796.87 320.15 787.95 L 329.00 780.00 L 328.00 777.00 L 337.44 769.44 L 344.00 760.00 C 342.72 755.62 352.83 749.82 353.00 743.00 Z"/><path fill="#F09F22" d="M 519.00 291.00 C 500.74 261.15 480.13 232.85 459.00 205.00 L 457.00 203.00 C 454.30 204.52 452.26 207.04 451.53 210.08 C 450.80 213.12 451.26 216.37 453.00 219.00 L 450.00 218.00 C 450.27 220.40 448.75 225.62 451.00 227.00 L 447.00 229.00 L 449.00 231.00 L 442.57 237.92 L 434.65 260.71 L 430.00 265.00 L 431.00 268.00 C 429.67 274.93 425.08 280.50 420.00 285.00 L 421.00 288.00 L 419.00 290.00 L 421.00 292.00 L 416.64 294.63 L 418.00 299.00 L 412.25 310.75 L 408.20 329.10 L 410.00 335.00 L 408.00 335.00 L 409.00 342.00 L 407.00 340.00 L 409.00 344.00 L 407.00 346.00 C 409.77 346.53 409.16 350.96 407.00 352.00 L 409.85 354.12 L 406.01 358.41 C 405.37 362.17 407.41 365.59 410.00 368.00 C 408.90 371.43 412.44 380.18 408.00 381.00 L 409.00 384.00 L 412.00 383.00 L 410.00 385.00 L 410.40 391.16 L 414.00 395.00 L 416.00 393.00 L 416.00 397.00 L 420.00 399.00 L 419.00 396.00 L 425.00 396.00 L 423.00 398.00 L 425.52 403.39 L 438.00 404.00 L 439.39 407.74 L 443.00 406.00 L 443.00 409.00 L 446.00 408.00 L 385.00 509.00 L 382.00 514.00 L 381.00 518.00 C 383.84 517.18 385.03 520.05 386.48 522.08 C 386.56 524.20 385.72 527.92 388.00 529.00 L 386.00 531.00 C 384.15 536.45 386.68 541.93 390.00 546.00 L 391.00 554.00 L 389.94 554.76 L 393.81 568.28 L 392.00 572.00 L 393.81 575.38 C 396.63 576.91 398.47 580.05 397.76 583.34 L 397.00 586.00 L 445.11 526.11 L 453.00 510.00 C 455.42 509.56 457.69 506.36 457.00 504.00 L 475.00 483.00 L 477.00 484.00 L 475.00 475.00 L 477.00 475.00 C 476.76 472.73 476.37 472.13 479.00 472.00 L 478.00 469.00 L 481.00 465.00 L 476.00 460.00 L 478.52 460.36 C 478.38 456.96 478.54 455.91 480.61 453.26 C 479.11 448.77 478.62 443.72 480.73 439.26 L 480.92 424.90 C 483.72 421.96 484.96 417.97 485.00 414.00 L 487.00 414.00 L 488.00 407.00 L 486.00 405.00 L 488.00 405.00 L 486.96 401.52 L 490.37 398.11 L 486.82 396.92 L 495.00 381.00 L 492.68 376.15 L 496.61 376.74 L 496.00 368.00 C 497.88 367.52 498.82 365.68 499.13 363.98 C 499.44 362.28 498.25 360.87 497.00 360.00 L 501.64 353.36 L 503.72 353.36 L 504.00 349.00 L 506.00 351.00 L 502.80 346.98 L 506.75 345.73 C 506.63 343.27 506.31 340.28 509.00 339.00 L 507.00 337.00 L 512.71 332.68 C 509.72 329.78 509.86 325.25 512.00 322.00 L 514.00 324.00 C 513.87 318.28 516.82 313.54 515.00 308.00 L 518.00 309.00 L 521.00 304.00 L 523.00 304.00 C 523.40 299.29 521.77 294.73 519.00 291.00 Z"/><path fill="#1D60FB" d="M 974.00 697.00 C 965.64 652.31 955.75 607.92 944.00 564.00 L 943.00 570.00 L 941.64 564.81 L 939.44 568.61 L 938.84 564.39 C 933.63 564.05 931.97 560.93 927.21 564.66 C 923.50 564.88 922.86 566.05 921.54 569.42 L 915.50 571.50 L 906.00 585.00 L 903.00 584.00 L 895.00 591.00 L 897.00 593.00 L 895.00 593.00 L 889.00 603.00 L 886.00 602.00 L 884.89 605.31 L 876.00 608.00 L 877.00 611.00 C 874.45 611.16 869.51 613.23 869.00 616.00 L 866.00 615.00 L 866.00 620.38 L 858.00 621.00 C 857.74 625.07 853.35 625.32 852.00 629.00 L 849.00 628.00 C 844.54 628.26 841.16 631.46 839.00 635.00 L 836.00 634.00 L 837.00 637.00 C 831.32 636.46 826.17 639.53 823.00 644.00 L 822.00 641.00 L 821.00 644.00 L 818.00 643.00 L 816.08 645.51 L 812.00 646.00 L 810.00 644.00 C 808.36 646.67 801.84 646.02 803.00 650.00 C 799.06 650.00 793.67 648.89 793.00 654.00 L 786.00 654.00 L 786.00 652.00 C 784.57 653.54 782.55 654.57 780.38 654.32 C 778.21 654.06 776.11 652.98 775.00 651.00 C 776.25 654.41 778.84 656.39 780.00 660.00 L 780.39 663.33 L 843.44 755.33 L 845.00 752.00 L 847.00 754.00 L 854.00 752.00 C 856.88 753.90 860.74 754.93 864.00 753.00 L 864.00 751.00 L 868.57 753.61 C 872.85 755.86 877.51 753.42 880.00 750.00 C 886.20 752.02 889.17 744.68 896.24 745.80 L 900.00 739.00 C 903.14 738.81 906.76 737.49 907.00 734.00 L 911.67 736.83 L 912.12 733.68 L 915.00 732.00 L 917.00 734.00 L 922.87 734.49 L 925.73 732.60 L 924.00 729.00 L 927.00 728.00 L 926.00 731.00 L 931.44 729.89 L 934.16 723.98 L 944.91 721.14 L 943.68 716.95 C 956.47 719.49 952.08 711.40 958.00 711.00 L 958.00 709.00 L 959.00 712.00 L 962.00 711.00 L 961.00 706.00 L 964.00 709.00 L 970.00 703.00 L 974.00 702.08 L 974.00 697.00 Z"/><path fill="#1D60FB" d="M 724.00 579.00 L 706.00 557.00 L 693.79 570.79 C 685.37 576.68 678.61 591.77 669.00 595.00 L 670.00 598.00 C 663.68 601.56 658.71 607.07 655.60 613.60 L 650.00 618.00 C 648.24 618.03 646.34 618.42 645.09 619.82 C 643.84 621.22 642.80 623.01 643.00 625.00 L 641.00 623.00 L 639.80 628.42 C 635.83 628.58 635.29 630.56 632.00 632.00 L 633.00 635.00 C 628.78 635.10 628.11 637.14 625.00 639.00 L 625.00 636.00 C 621.99 636.57 621.76 641.16 621.66 643.62 C 616.90 644.19 613.01 648.06 613.00 653.00 L 610.00 652.00 L 608.67 657.11 L 605.00 656.00 L 606.00 659.00 L 601.12 657.87 L 599.00 663.00 L 596.00 662.00 L 580.42 676.42 C 578.18 677.58 574.58 676.86 574.00 680.00 C 572.18 679.47 571.30 680.05 571.00 682.00 L 566.00 680.00 L 566.00 684.00 L 561.00 686.00 L 558.00 685.00 L 553.32 689.98 L 549.85 688.72 L 548.62 694.26 L 541.00 694.00 L 539.00 696.00 L 537.00 695.00 C 538.96 700.32 546.39 702.43 547.46 707.46 L 609.00 782.00 C 609.53 778.04 613.30 775.73 617.00 776.00 L 617.47 772.18 C 620.25 771.86 622.77 772.36 623.00 769.00 L 627.55 769.04 C 628.22 764.48 630.68 760.11 635.00 758.00 L 637.00 760.00 C 637.31 758.40 644.35 755.52 646.00 756.00 C 649.72 748.72 655.44 742.44 663.00 739.00 L 658.60 737.51 C 660.51 737.09 663.56 737.27 664.00 735.00 L 667.00 736.00 L 664.57 732.85 L 671.03 730.36 L 669.56 725.70 L 675.38 727.41 L 673.78 723.02 L 681.17 719.84 L 680.00 716.00 L 682.00 718.00 L 686.45 708.80 C 688.82 709.69 690.77 710.37 691.00 707.00 L 694.31 707.70 L 697.00 701.00 L 700.00 702.00 L 705.00 694.00 L 708.00 695.00 L 709.85 689.34 C 713.71 687.53 716.65 684.15 717.75 680.00 L 722.00 680.00 L 721.00 677.00 L 734.00 668.00 L 733.00 665.00 C 737.43 664.88 737.40 662.53 738.00 658.80 L 750.64 649.40 L 750.64 646.64 L 755.00 648.00 C 755.33 643.10 759.26 646.59 762.00 647.00 L 762.00 645.00 L 765.00 646.00 L 766.00 644.00 C 765.45 631.85 724.54 590.90 724.00 579.00 Z"/><path fill="#0F8FF7" d="M 944.00 564.00 L 923.23 471.18 C 922.28 467.59 917.94 445.14 916.00 445.00 L 916.00 452.00 L 915.00 448.00 L 912.84 450.61 L 904.76 450.20 L 906.00 455.00 L 903.00 454.00 L 899.01 457.41 C 894.95 457.58 894.24 458.48 892.15 461.92 L 889.00 461.00 C 889.54 462.88 888.85 462.90 887.00 463.00 L 885.00 469.00 C 883.29 468.50 872.54 479.43 873.00 481.00 L 869.20 479.84 C 867.01 483.91 866.08 485.93 861.88 487.93 L 863.00 492.00 C 859.37 492.25 859.23 495.90 857.47 498.47 L 853.91 500.70 C 853.13 503.15 852.98 504.80 850.00 505.00 C 849.81 507.85 847.52 509.09 845.00 510.00 C 845.60 512.05 843.76 513.96 842.00 515.00 L 839.00 514.00 C 838.10 516.72 838.35 519.77 835.00 520.00 L 835.00 522.00 L 832.15 521.97 C 832.35 524.92 831.94 525.52 831.00 528.00 L 827.83 526.90 C 825.01 529.05 823.10 530.19 823.00 534.00 C 819.94 533.11 820.46 537.76 817.00 538.00 L 817.00 540.00 L 815.34 536.48 L 811.14 542.62 L 804.00 542.00 L 807.99 545.09 L 799.77 545.99 L 801.28 550.16 L 796.60 548.21 L 792.00 557.00 L 790.00 555.00 C 789.77 558.46 787.81 558.29 785.00 558.00 L 784.00 561.00 L 781.00 560.00 L 781.14 563.31 L 767.00 564.00 L 768.00 567.00 L 763.63 563.77 C 763.11 565.83 761.61 567.43 759.83 568.46 C 758.05 569.50 755.93 569.53 754.00 569.00 L 755.00 572.00 L 736.45 573.59 C 731.67 575.14 728.37 578.95 724.00 579.00 C 724.54 590.90 765.45 631.85 766.00 644.00 L 780.00 660.00 C 778.84 656.39 776.25 654.41 775.00 651.00 C 776.11 652.98 778.21 654.06 780.38 654.32 C 782.55 654.57 784.57 653.54 786.00 652.00 L 786.00 654.00 L 793.00 654.00 C 793.67 648.89 799.06 650.00 803.00 650.00 C 801.84 646.02 808.36 646.67 810.00 644.00 L 812.00 646.00 L 816.08 645.51 L 818.00 643.00 L 821.00 644.00 L 822.00 641.00 L 823.00 644.00 C 826.17 639.53 831.32 636.46 837.00 637.00 L 836.00 634.00 L 839.00 635.00 C 841.16 631.46 844.54 628.26 849.00 628.00 L 852.00 629.00 C 853.35 625.32 857.74 625.07 858.00 621.00 L 866.00 620.38 L 866.00 615.00 L 869.00 616.00 C 869.51 613.23 874.45 611.16 877.00 611.00 L 876.00 608.00 L 884.89 605.31 L 886.00 602.00 L 889.00 603.00 L 895.00 593.00 L 897.00 593.00 L 895.00 591.00 L 903.00 584.00 L 906.00 585.00 L 915.50 571.50 L 921.54 569.42 C 922.86 566.05 923.50 564.88 927.21 564.66 C 931.97 560.93 933.63 564.05 938.84 564.39 L 939.44 568.61 L 941.64 564.81 L 943.00 570.00 L 944.00 564.00 Z"/><path fill="#0F8FF7" d="M 537.00 695.00 L 539.00 696.00 L 541.00 694.00 L 548.62 694.26 L 549.85 688.72 L 553.32 689.98 L 558.00 685.00 L 561.00 686.00 L 566.00 684.00 L 566.00 680.00 L 571.00 682.00 C 571.30 680.05 572.18 679.47 574.00 680.00 C 574.58 676.86 578.18 677.58 580.42 676.42 L 596.00 662.00 L 599.00 663.00 L 601.12 657.87 L 606.00 659.00 L 605.00 656.00 L 608.67 657.11 L 610.00 652.00 L 613.00 653.00 C 613.01 648.06 616.90 644.19 621.66 643.62 C 621.76 641.16 621.99 636.57 625.00 636.00 L 625.00 639.00 C 628.11 637.14 628.78 635.10 633.00 635.00 L 632.00 632.00 C 635.29 630.56 635.83 628.58 639.80 628.42 L 641.00 623.00 L 643.00 625.00 C 642.80 623.01 643.84 621.22 645.09 619.82 C 646.34 618.42 648.24 618.03 650.00 618.00 L 655.60 613.60 C 658.71 607.07 663.68 601.56 670.00 598.00 L 669.00 595.00 C 678.61 591.77 685.37 576.68 693.79 570.79 L 706.00 557.00 C 704.54 552.07 702.28 547.17 698.18 543.81 L 669.00 503.00 L 654.68 513.42 C 651.88 517.63 651.43 521.98 645.71 520.08 C 635.96 525.78 628.17 534.36 623.70 544.76 L 620.15 544.22 L 619.00 548.00 L 611.69 551.50 C 610.90 555.56 607.22 558.14 603.28 558.35 C 603.63 560.62 604.86 566.30 601.00 566.00 L 598.79 563.93 L 596.39 570.10 C 592.56 570.36 588.91 572.56 587.52 576.31 C 579.48 578.96 572.84 584.41 567.44 590.75 C 562.48 591.71 560.76 595.53 556.00 594.00 C 555.79 597.06 551.96 599.80 549.00 600.00 L 549.01 602.83 C 545.03 602.87 541.40 605.28 540.00 609.06 L 524.63 617.56 L 524.00 620.00 L 514.56 621.64 C 509.20 627.12 501.62 629.84 494.00 629.00 C 493.23 631.74 488.07 633.27 485.00 634.00 C 485.64 638.15 476.97 634.86 475.00 639.00 L 473.00 637.00 L 471.30 641.10 L 467.99 639.60 L 452.00 643.00 L 451.00 643.00 L 450.00 654.00 L 445.00 663.00 C 445.64 665.18 445.29 668.89 443.00 670.00 L 443.70 675.87 L 441.22 678.20 L 438.00 699.00 L 436.00 700.00 L 444.00 704.00 C 446.42 701.77 450.43 701.03 453.02 703.69 L 454.00 707.00 L 459.04 708.48 L 462.00 706.00 L 460.00 704.00 L 464.76 703.54 L 467.39 707.33 L 470.69 705.21 L 476.00 708.00 C 483.66 698.03 494.88 691.69 507.00 689.00 L 505.00 687.00 L 519.00 687.00 L 517.00 689.00 L 537.00 695.00 Z"/><path fill="#8EAC86" d="M 538.00 486.00 C 536.05 486.04 533.02 487.22 532.00 485.00 C 528.77 485.96 526.99 486.30 524.45 488.67 L 522.00 489.00 L 520.00 487.00 L 519.00 490.00 L 517.00 488.00 L 515.00 493.00 C 514.72 490.13 510.34 490.25 508.00 490.00 L 510.00 488.00 L 506.00 483.00 C 505.84 486.32 503.82 485.43 501.19 485.07 L 501.68 481.78 L 499.00 479.00 L 497.00 481.00 L 494.74 478.16 L 491.00 479.00 L 491.00 475.00 L 488.00 474.00 L 482.00 481.00 L 479.00 480.00 L 477.00 484.00 L 475.00 483.00 L 457.00 504.00 C 457.69 506.36 455.42 509.56 453.00 510.00 L 445.11 526.11 L 397.00 586.00 L 391.00 620.00 C 392.21 621.54 393.65 620.75 393.00 623.00 L 397.00 627.00 L 400.00 626.00 L 399.00 629.00 C 402.44 630.63 403.84 629.32 406.47 632.69 L 409.52 630.73 C 411.30 633.00 412.73 635.95 416.00 635.00 L 418.00 638.00 L 420.00 636.00 C 425.64 636.27 430.71 639.02 434.90 642.58 L 451.00 643.00 L 452.00 643.00 C 453.42 631.98 479.50 611.37 486.55 600.55 C 489.64 593.58 494.70 587.75 500.70 583.13 L 516.00 563.00 L 518.00 558.00 L 516.00 556.00 L 518.83 553.89 C 518.54 551.17 517.94 548.36 521.00 547.00 C 520.77 544.85 520.21 542.51 523.00 542.00 L 522.00 539.00 L 525.00 540.00 L 523.33 534.78 C 526.51 531.78 527.19 530.73 525.00 527.00 C 528.41 526.77 527.19 523.54 530.00 523.00 L 532.00 517.00 L 530.00 515.00 L 533.00 513.00 L 532.00 510.00 C 536.01 511.16 532.96 494.63 538.64 489.24 L 538.00 486.00 Z"/><path fill="#9969A8" d="M 451.00 643.00 L 434.90 642.58 C 430.71 639.02 425.64 636.27 420.00 636.00 L 418.00 638.00 L 416.00 635.00 C 412.73 635.95 411.30 633.00 409.52 630.73 L 406.47 632.69 C 403.84 629.32 402.44 630.63 399.00 629.00 L 400.00 626.00 L 397.00 627.00 L 393.00 623.00 C 393.65 620.75 392.21 621.54 391.00 620.00 L 375.00 629.00 L 374.00 631.00 C 370.12 629.87 359.10 650.19 355.00 649.00 L 352.00 654.00 L 350.00 656.00 C 349.63 661.35 346.81 666.38 342.00 669.00 L 339.00 679.00 L 336.00 722.00 C 332.89 722.60 333.76 727.67 334.00 730.00 L 339.34 731.80 L 341.20 736.64 L 348.00 736.00 L 354.85 740.24 L 351.00 741.00 L 353.00 743.00 L 363.00 740.00 L 365.00 743.00 L 366.00 740.00 L 368.00 742.00 C 370.36 740.61 374.81 738.79 375.00 736.00 C 378.55 736.41 380.08 736.16 383.11 734.24 L 385.38 736.51 C 388.86 735.86 390.54 735.40 393.04 732.90 L 396.00 736.00 L 398.00 734.00 L 408.00 735.00 L 410.00 735.00 L 416.00 722.00 L 419.00 723.00 L 436.00 700.00 L 438.00 699.00 L 441.22 678.20 L 443.70 675.87 L 443.00 670.00 C 445.29 668.89 445.64 665.18 445.00 663.00 L 450.00 654.00 L 451.00 643.00 Z"/><path fill="#FA7030" d="M 397.00 586.00 L 397.76 583.34 C 398.47 580.05 396.63 576.91 393.81 575.38 L 392.00 572.00 L 393.81 568.28 L 389.94 554.76 L 391.00 554.00 L 390.00 546.00 C 386.68 541.93 384.15 536.45 386.00 531.00 L 388.00 529.00 C 385.72 527.92 386.56 524.20 386.48 522.08 C 385.03 520.05 383.84 517.18 381.00 518.00 L 382.00 514.00 L 343.00 579.00 L 345.71 576.86 C 346.44 584.90 349.34 592.67 354.58 598.89 L 356.00 600.00 L 355.00 603.00 C 357.93 603.14 357.71 604.58 357.00 607.00 C 361.40 607.81 358.79 614.65 364.00 615.00 L 365.00 620.00 L 370.00 622.00 L 369.00 625.00 L 375.00 629.00 L 391.00 620.00 L 397.00 586.00 Z"/><path fill="#1D60FB" d="M 476.00 708.00 L 470.69 705.21 L 467.39 707.33 L 464.76 703.54 L 460.00 704.00 L 462.00 706.00 L 459.04 708.48 L 454.00 707.00 L 453.02 703.69 C 450.43 701.03 446.42 701.77 444.00 704.00 L 436.00 700.00 L 419.00 723.00 L 416.00 722.00 L 410.00 735.00 L 408.00 735.00 L 410.00 739.00 L 407.00 740.00 L 409.00 742.00 C 407.74 745.45 408.58 749.28 411.00 752.00 C 411.86 758.99 417.14 764.58 424.00 766.00 L 423.00 763.00 C 425.47 762.67 426.83 761.52 427.00 759.00 L 432.00 761.00 L 476.00 708.00 Z"/><path fill="#4B27F9" d="M 432.00 761.00 L 427.00 759.00 C 426.83 761.52 425.47 762.67 423.00 763.00 L 424.00 766.00 C 417.14 764.58 411.86 758.99 411.00 752.00 L 408.14 753.14 C 408.57 758.79 406.25 764.28 402.00 768.00 L 404.00 768.00 C 403.37 769.74 402.83 770.53 401.00 770.00 L 402.00 773.00 L 398.00 778.00 L 396.00 791.00 L 398.00 793.00 L 401.50 793.17 C 402.90 792.88 403.76 792.23 404.00 794.00 L 406.65 792.68 L 432.00 761.00 Z"/><path fill="#0FB8F0" d="M 171.00 1023.00 L 98.00 1023.00 L 171.00 1023.00 Z"/><path fill="#9969A8" d="M 909.00 1023.00 L 848.00 1022.00 C 868.26 1023.81 888.68 1024.79 909.00 1023.00 Z"/><path fill="#1D60FB" d="M 507.00 689.00 L 517.00 689.00 L 519.00 687.00 L 505.00 687.00 L 507.00 689.00 Z"/><path fill="#9969A8" d="M 912.00 1023.00 L 929.00 1023.00 L 912.00 1023.00 Z"/></g></svg>