<svg height="1em" style="flex:none;line-height:1" viewBox="0 0 24 24" width="1em" xmlns="http://www.w3.org/2000/svg"><title>Pingtouge</title><g transform="scale(0.046875)"><path fill="#020202" d="M 168.00 232.00 C 170.01 231.49 172.94 232.55 172.00 235.00 C 170.52 237.78 167.23 234.49 168.00 232.00 Z M 156.00 244.00 C 158.68 243.49 159.45 244.69 160.00 247.00 C 159.27 248.89 157.57 248.96 156.00 248.00 L 156.00 244.00 Z M 397.00 255.00 C 399.24 256.29 399.27 259.81 397.00 261.00 C 395.11 259.81 394.38 255.78 397.00 255.00 Z M 137.00 256.00 L 142.21 260.04 C 145.24 260.65 149.97 257.79 152.00 261.00 C 149.71 263.37 146.26 264.47 143.06 263.35 C 139.85 262.24 137.34 259.48 137.00 256.00 Z M 149.00 284.00 L 156.00 285.00 C 154.86 289.19 148.24 288.84 149.00 284.00 Z M 131.53 292.86 C 132.96 290.56 135.93 290.31 138.08 291.51 C 140.22 292.71 140.53 295.39 139.55 297.38 C 138.15 298.66 136.00 299.43 134.18 298.33 C 132.36 297.22 130.92 295.14 131.53 292.86 Z M 412.00 323.00 C 414.40 323.93 415.34 328.51 413.00 330.00 C 410.71 329.39 410.38 324.39 412.00 323.00 Z M 236.00 433.00 L 257.00 433.00 L 236.00 433.00 Z M 170.00 215.00 L 166.00 219.00 L 164.00 217.00 C 167.14 212.64 169.61 207.64 169.98 202.17 L 184.65 185.54 L 183.00 183.00 L 186.00 184.00 L 192.00 178.00 L 182.00 182.00 L 182.00 186.00 L 178.00 186.00 L 178.60 190.39 C 174.31 191.86 168.96 202.56 166.00 202.00 L 165.00 211.00 L 162.00 210.00 L 163.38 214.28 L 158.72 216.58 L 158.08 222.07 L 154.00 223.00 L 156.00 226.00 C 155.56 228.72 152.66 225.75 151.00 226.00 C 146.46 227.08 154.78 232.42 156.00 233.00 C 155.80 234.46 154.86 235.86 153.32 236.21 C 151.78 236.56 150.04 236.14 149.11 234.74 C 148.18 233.34 147.96 231.45 149.00 230.00 C 146.45 230.15 145.55 231.45 146.00 234.00 L 142.00 234.00 C 140.26 238.88 135.60 242.90 130.00 242.00 L 130.01 243.84 L 119.00 251.00 L 120.00 254.00 L 116.33 250.94 L 114.00 253.00 C 117.57 258.51 117.26 265.49 114.00 271.00 C 113.36 273.62 116.51 273.41 117.55 275.63 L 118.10 283.75 C 119.93 284.59 121.50 286.03 122.19 287.98 C 122.88 289.92 122.94 292.10 122.00 294.00 C 124.85 295.40 125.49 294.51 125.21 298.28 C 128.04 299.38 128.61 299.27 129.59 302.21 C 133.84 303.83 141.13 310.90 142.84 314.36 L 150.00 315.00 L 151.00 318.00 C 153.78 317.17 151.78 315.02 150.90 313.28 C 158.75 312.85 157.35 317.35 162.95 317.56 L 180.00 315.00 L 179.00 318.00 C 185.26 317.27 190.81 320.97 194.00 326.00 L 199.89 327.03 C 199.69 328.26 200.51 329.29 201.47 329.88 C 202.42 330.47 203.56 330.10 204.36 329.51 C 205.17 328.92 205.21 327.85 205.00 327.00 C 208.01 325.84 209.73 331.88 206.00 332.00 C 209.58 335.58 211.70 341.03 209.48 346.05 L 211.83 355.00 L 209.61 361.05 C 211.36 370.00 209.48 379.07 206.36 387.42 L 205.00 403.00 C 197.88 406.77 201.14 424.12 194.00 427.00 L 195.00 430.00 L 190.00 429.00 L 189.00 430.00 L 190.00 432.00 L 185.00 433.00 L 182.00 434.00 C 186.39 435.67 191.19 436.63 195.88 435.56 L 220.00 436.75 L 256.72 434.77 L 284.91 430.22 L 290.42 427.37 C 297.89 426.26 303.68 423.87 310.98 422.30 L 315.40 419.35 L 323.87 417.98 L 327.33 415.27 L 333.89 414.16 C 336.50 410.72 340.86 409.36 345.00 410.00 L 344.65 408.10 L 352.43 405.54 C 355.54 402.91 358.23 401.69 361.37 399.33 L 366.81 398.02 C 371.92 395.29 375.15 388.89 382.00 390.00 C 383.48 385.41 387.54 381.64 392.69 381.83 L 397.11 377.81 C 398.26 375.86 411.44 365.98 414.00 366.00 C 413.54 363.25 415.20 362.74 417.08 361.68 L 421.60 357.56 C 423.14 354.52 423.12 355.42 426.00 354.00 L 427.00 350.00 L 433.00 338.00 C 430.60 337.18 429.52 339.46 428.08 341.03 C 426.43 338.32 427.14 336.54 426.00 334.00 C 419.37 330.60 424.10 331.43 422.00 325.00 L 419.00 325.00 L 417.00 326.00 C 416.27 324.29 413.80 315.47 418.00 317.00 C 419.25 314.09 417.57 312.19 415.94 309.97 L 414.00 290.00 L 411.17 289.96 L 410.20 282.07 C 406.00 274.84 404.05 266.30 406.00 258.00 L 403.65 258.11 L 402.00 240.00 L 399.81 239.93 L 397.76 223.31 L 395.00 223.00 L 394.00 212.00 L 394.00 216.00 C 390.35 215.90 389.71 210.70 389.00 208.00 L 394.00 209.00 L 394.00 206.00 C 390.86 208.57 391.94 201.65 390.00 201.00 C 389.03 202.83 389.01 206.29 386.00 205.00 L 382.00 199.00 L 388.77 217.25 C 386.30 222.62 387.42 228.79 390.86 233.40 L 392.75 263.37 C 394.83 262.99 397.16 264.05 397.66 266.32 C 398.16 268.58 397.06 271.14 394.62 271.77 L 388.31 273.60 C 390.65 275.07 392.38 277.39 392.86 280.14 C 393.34 282.90 392.75 285.77 391.00 288.00 C 386.91 288.12 387.34 279.77 386.53 276.54 L 383.00 280.00 C 378.43 281.76 381.62 271.82 375.94 271.96 L 353.01 272.72 C 348.57 271.81 344.22 269.47 342.08 265.21 L 336.58 263.45 L 335.00 260.00 C 332.05 264.12 326.97 266.39 321.91 265.23 C 316.07 267.92 310.25 274.12 303.09 272.51 C 298.21 271.41 300.89 264.90 296.00 264.90 C 290.80 264.90 294.03 272.56 288.00 272.56 L 284.57 271.43 C 284.77 268.39 283.01 265.63 280.33 264.28 C 277.66 262.94 274.49 263.47 272.26 265.37 L 272.00 272.00 C 273.96 270.09 277.05 270.01 279.12 271.79 C 281.19 273.58 281.55 276.64 279.96 278.86 C 278.36 281.07 275.35 281.69 273.00 280.30 L 268.00 279.00 L 272.00 272.00 C 266.53 274.93 269.10 265.69 266.55 264.41 L 260.00 263.00 C 259.68 259.47 267.94 255.32 262.00 252.00 C 262.25 254.21 259.68 254.20 258.00 254.00 L 254.00 254.00 L 254.00 258.00 C 252.81 263.54 249.62 261.18 245.00 262.00 L 245.00 264.00 C 235.32 266.08 225.50 263.56 217.00 259.00 L 219.00 258.00 L 219.00 257.00 C 215.47 256.05 200.88 262.09 202.00 254.00 C 199.56 253.53 195.06 242.63 197.00 241.00 C 201.47 243.43 204.48 248.90 202.00 254.00 L 203.00 251.00 C 197.50 242.55 207.20 242.42 207.00 238.00 L 204.00 237.00 C 204.41 236.40 223.88 233.73 225.00 234.00 L 225.00 232.00 L 252.00 231.00 C 249.66 227.97 235.48 232.35 235.00 229.00 C 238.17 227.96 257.21 224.11 255.00 231.00 L 252.00 231.00 L 253.00 233.00 L 249.00 234.00 L 249.00 235.00 C 252.87 235.25 256.60 234.15 258.00 238.00 L 267.44 235.14 C 267.84 239.34 270.71 243.11 275.00 244.00 L 275.24 234.54 L 278.99 232.41 C 278.11 234.57 278.98 236.92 280.62 238.40 C 282.26 239.87 284.62 239.83 286.45 238.84 L 300.00 239.00 C 296.98 236.24 294.19 237.57 291.00 236.00 C 288.74 228.07 334.60 237.90 336.00 229.00 C 315.62 230.22 295.17 229.14 275.00 226.03 L 197.00 226.00 L 197.00 228.00 L 172.19 229.24 L 165.00 222.00 C 167.14 222.55 170.72 216.83 170.00 215.00 Z"/><path fill="#000000" d="M 348.00 229.00 C 347.38 233.47 346.09 231.43 343.00 232.00 C 344.93 229.46 344.93 229.98 348.00 229.00 Z M 356.00 237.00 L 354.54 239.59 L 321.00 239.67 L 304.00 238.00 C 321.20 235.51 338.71 234.56 356.00 237.00 Z M 367.67 237.58 C 364.55 240.15 363.70 240.21 360.00 239.00 C 359.93 234.82 365.35 236.89 367.67 237.58 Z M 262.00 238.00 C 265.81 239.28 265.50 241.32 266.27 245.01 L 271.18 245.24 L 271.18 251.02 L 265.71 251.13 C 261.53 248.09 260.47 242.64 262.00 238.00 Z M 277.00 252.00 C 283.23 258.82 273.61 260.84 268.00 259.00 C 268.71 254.61 278.59 257.52 277.00 252.00 Z M 382.00 199.00 L 381.00 197.00 L 379.00 196.00 L 378.00 198.00 C 377.26 199.66 377.44 201.52 378.10 203.15 C 378.76 204.79 380.18 205.91 381.76 206.55 L 382.36 222.52 L 173.50 222.52 L 174.00 215.00 L 177.00 215.00 L 178.00 214.00 L 178.00 207.00 C 174.42 206.38 175.44 210.73 173.59 212.56 L 170.00 215.00 C 170.72 216.83 167.14 222.55 165.00 222.00 L 172.19 229.24 L 197.00 228.00 L 197.00 226.00 L 275.00 226.03 C 295.17 229.14 315.62 230.22 336.00 229.00 C 334.60 237.90 288.74 228.07 291.00 236.00 C 294.19 237.57 296.98 236.24 300.00 239.00 L 286.45 238.84 C 284.62 239.83 282.26 239.87 280.62 238.40 C 278.98 236.92 278.11 234.57 278.99 232.41 L 275.24 234.54 L 275.00 244.00 C 270.71 243.11 267.84 239.34 267.44 235.14 L 258.00 238.00 L 258.00 254.00 C 259.68 254.20 262.25 254.21 262.00 252.00 C 267.94 255.32 259.68 259.47 260.00 263.00 L 266.55 264.41 C 269.10 265.69 266.53 274.93 272.00 272.00 L 272.26 265.37 C 274.49 263.47 277.66 262.94 280.33 264.28 C 283.01 265.63 284.77 268.39 284.57 271.43 L 288.00 272.56 C 294.03 272.56 290.80 264.90 296.00 264.90 C 300.89 264.90 298.21 271.41 303.09 272.51 C 310.25 274.12 316.07 267.92 321.91 265.23 C 326.97 266.39 332.05 264.12 335.00 260.00 L 336.58 263.45 L 342.08 265.21 C 344.22 269.47 348.57 271.81 353.01 272.72 L 375.94 271.96 C 381.62 271.82 378.43 281.76 383.00 280.00 L 386.53 276.54 C 387.34 279.77 386.91 288.12 391.00 288.00 C 392.75 285.77 393.34 282.90 392.86 280.14 C 392.38 277.39 390.65 275.07 388.31 273.60 L 394.62 271.77 C 397.06 271.14 398.16 268.58 397.66 266.32 C 397.16 264.05 394.83 262.99 392.75 263.37 L 390.86 233.40 C 387.42 228.79 386.30 222.62 388.77 217.25 L 382.00 199.00 Z"/><path fill="#D7D9D8" d="M 251.00 85.00 L 257.00 85.00 L 319.00 85.00 L 325.00 85.00 L 346.00 89.00 L 347.00 89.00 L 362.00 93.00 C 403.39 104.01 438.19 131.86 458.33 169.59 L 471.00 199.00 L 475.00 217.00 L 475.00 239.00 L 471.00 258.00 L 471.00 259.00 L 467.00 273.00 C 460.43 290.67 451.80 307.53 441.00 323.00 C 437.11 324.54 433.82 331.99 430.00 328.00 L 429.00 325.00 L 425.00 310.00 L 425.00 306.00 L 421.00 291.00 L 421.00 289.00 L 417.00 275.00 L 417.00 273.00 L 413.00 258.00 L 413.00 253.00 L 409.00 237.00 L 408.96 232.01 L 405.00 220.00 C 405.46 215.00 404.01 210.01 401.00 206.00 C 398.71 195.00 393.59 184.53 385.00 177.00 L 376.00 167.00 C 367.33 158.90 356.51 153.61 345.00 151.00 L 330.00 147.00 L 323.00 147.00 C 299.23 142.16 274.77 142.49 251.00 147.00 L 244.00 147.00 L 229.00 151.00 C 196.86 158.41 169.81 179.64 154.25 208.57 L 146.83 218.03 L 131.04 233.07 L 108.00 246.00 C 103.05 249.25 101.11 255.46 103.00 261.00 C 101.97 265.76 103.64 270.60 107.00 274.00 L 107.00 278.00 L 111.00 290.00 C 119.88 305.06 132.38 317.86 148.00 326.00 C 160.12 330.53 172.77 324.88 185.00 329.00 L 199.00 339.00 L 201.38 351.77 L 199.00 378.00 L 199.00 381.00 L 195.00 393.00 L 195.00 395.00 L 191.00 410.00 L 187.00 420.00 C 186.16 424.27 182.29 427.18 178.00 427.00 C 171.40 428.31 164.48 426.99 159.00 423.00 L 158.00 423.00 L 146.00 419.00 L 145.00 419.00 L 133.00 415.00 C 113.70 407.92 96.00 397.07 81.00 383.00 L 65.00 367.00 L 53.24 351.63 C 46.28 344.17 42.03 334.71 40.17 324.77 L 37.00 322.00 L 33.00 307.00 L 33.00 303.00 C 31.46 289.71 31.35 276.29 33.00 263.00 L 33.00 261.00 L 37.00 250.00 C 44.87 223.07 58.17 197.92 77.00 177.00 L 84.00 169.00 C 105.33 144.64 131.76 125.31 161.36 112.22 L 175.00 105.00 L 186.00 101.00 L 188.00 101.00 L 198.00 97.00 L 213.00 93.00 L 214.00 93.00 L 229.00 89.00 L 231.00 89.00 L 251.00 85.00 Z M 399.00 106.00 L 373.00 94.00 C 320.18 77.07 263.41 75.43 210.01 91.07 L 166.00 106.00 L 141.00 118.00 L 122.00 130.00 L 107.00 141.00 L 98.00 150.00 C 95.53 150.33 94.17 151.48 94.00 154.00 L 82.00 166.00 L 78.00 168.00 L 77.00 171.00 L 62.00 190.00 L 47.80 212.81 L 35.82 239.78 C 36.49 245.71 34.74 251.58 31.41 256.44 C 24.31 280.62 27.04 306.46 38.00 329.00 L 42.00 338.00 C 43.98 341.22 40.36 345.26 46.00 346.00 L 54.00 358.00 L 67.00 375.00 L 67.00 377.00 C 69.57 376.79 70.41 376.73 72.09 378.92 L 90.00 394.00 L 91.00 396.00 L 102.00 402.00 L 115.00 410.00 L 137.58 420.33 L 147.13 421.81 C 158.14 425.02 177.67 436.65 187.53 425.53 L 194.00 410.00 L 197.78 391.86 L 200.42 386.49 L 204.64 352.00 C 204.77 345.36 202.26 339.01 198.00 334.00 L 186.20 326.83 L 177.63 323.57 C 167.71 322.87 160.63 327.85 151.05 323.86 L 147.00 322.00 C 146.70 317.24 143.76 319.48 141.00 318.00 C 136.41 316.89 132.52 313.95 130.00 310.00 C 128.57 307.51 130.02 305.53 126.00 305.00 L 113.48 289.49 L 105.34 256.09 L 109.23 249.24 L 114.00 246.00 C 130.51 240.00 144.31 228.52 154.00 214.00 L 158.00 214.00 L 158.00 208.00 L 166.00 194.00 L 173.00 190.00 C 173.27 184.52 181.40 179.36 185.42 176.38 L 186.00 174.00 L 191.40 173.40 C 197.05 169.86 198.30 166.01 206.00 166.00 L 206.00 162.00 L 230.07 153.06 C 262.54 146.94 295.84 144.84 328.72 149.33 L 343.83 153.18 L 355.00 158.00 C 361.87 160.02 368.03 163.88 373.00 169.00 L 383.00 180.00 C 387.88 183.49 392.21 188.08 394.00 194.00 L 398.82 205.16 L 410.39 252.64 L 415.68 282.34 C 417.97 291.67 422.14 301.37 422.99 311.00 L 426.16 322.87 C 424.57 326.04 425.95 329.64 428.56 331.65 C 431.17 333.67 434.70 333.02 437.00 331.00 C 438.54 330.05 440.85 328.18 441.00 326.00 L 446.00 326.00 L 446.00 321.00 L 464.18 289.22 L 473.01 262.00 C 481.27 237.58 479.45 211.10 469.41 187.56 L 462.00 170.00 C 448.96 145.36 429.26 125.10 406.00 110.00 C 405.32 104.86 401.98 107.56 399.00 106.00 Z"/><path fill="#D7D9D8" d="M 314.00 67.00 L 264.00 67.00 C 254.50 66.60 245.00 67.92 236.00 71.00 L 235.00 71.00 C 228.43 70.55 221.79 71.76 216.00 75.00 L 213.00 75.00 L 200.00 79.00 C 194.94 77.83 156.90 94.54 150.52 98.30 C 99.40 122.69 57.38 162.82 31.00 213.00 L 27.00 224.00 L 27.00 225.00 L 23.00 235.00 L 19.00 249.00 L 19.00 251.00 C 15.69 256.39 14.30 262.72 15.00 269.00 L 15.00 294.00 C 14.10 302.22 15.52 310.51 19.00 318.00 C 19.01 326.35 21.50 334.56 26.40 341.36 C 39.01 368.16 58.28 391.57 83.51 407.46 L 104.23 420.04 L 123.00 429.00 L 134.00 433.00 L 135.00 433.00 L 147.00 437.00 L 149.00 437.00 L 162.00 441.00 L 163.00 441.00 L 182.00 445.00 L 191.00 445.00 L 233.00 445.00 L 251.00 445.00 C 258.56 445.58 266.10 444.07 273.00 441.00 C 279.88 442.42 287.30 441.44 293.00 437.00 L 305.00 433.00 L 306.00 433.00 L 317.00 429.00 L 318.00 429.00 L 329.00 425.00 C 359.51 413.45 388.06 397.11 413.00 376.00 L 421.00 369.00 C 451.74 343.90 473.50 309.79 485.00 272.00 L 489.00 259.00 L 489.00 254.00 L 493.00 241.00 L 493.00 218.00 C 494.18 211.05 492.60 203.99 489.00 198.00 C 480.62 167.22 463.72 139.39 440.00 118.00 L 432.00 111.00 C 418.11 98.96 402.21 89.46 385.00 83.00 L 374.00 79.00 C 369.19 75.13 362.90 74.24 357.00 75.00 L 343.00 71.00 L 338.00 71.00 C 330.53 67.50 322.23 65.89 314.00 67.00 Z M 157.00 98.00 L 166.00 94.00 L 178.00 89.02 C 233.07 67.97 293.00 64.26 350.50 76.32 C 370.96 79.47 390.63 86.67 408.00 98.00 L 426.00 110.00 L 426.00 112.00 C 438.56 119.73 449.74 129.68 458.00 142.00 C 468.56 154.75 476.74 169.30 482.00 185.00 L 486.87 199.14 L 490.58 220.29 L 490.15 241.96 C 487.16 246.85 485.55 252.61 486.45 258.38 L 478.00 283.00 L 474.00 295.00 C 470.36 305.21 464.95 314.69 458.00 323.00 L 450.00 334.00 L 449.00 334.00 C 442.69 343.48 435.03 352.02 426.00 359.00 L 419.00 366.00 L 411.00 373.00 L 406.00 378.00 L 383.00 394.00 C 379.96 397.69 375.71 400.17 371.00 401.00 L 370.00 402.00 L 355.00 410.00 L 335.43 419.38 C 307.88 431.63 278.58 439.49 248.59 442.60 L 182.57 442.55 L 169.96 439.25 C 158.81 438.44 145.48 433.46 134.47 430.55 L 113.63 421.39 L 88.71 407.37 L 70.00 394.00 L 70.00 390.00 L 66.00 390.00 L 66.00 387.00 L 60.00 383.00 L 62.00 382.00 L 61.00 378.00 L 58.00 378.00 L 57.00 380.00 L 54.00 374.00 L 50.00 374.00 C 44.45 370.60 41.80 364.27 42.00 358.00 L 40.00 357.00 L 39.00 357.00 C 33.62 351.51 29.29 344.83 27.83 337.13 C 16.77 309.09 14.58 278.27 22.00 249.00 L 34.00 214.00 L 38.00 214.00 L 38.00 206.00 L 46.00 194.00 L 50.45 192.96 L 50.00 187.00 L 62.00 170.00 L 66.00 170.00 C 66.23 161.56 93.64 143.34 94.00 138.00 L 98.00 138.00 L 99.00 134.00 C 106.99 126.35 115.97 119.75 126.00 115.00 L 134.00 114.00 L 134.00 110.00 L 138.66 109.66 C 142.20 108.70 140.02 106.33 147.69 105.90 L 149.00 102.00 L 157.00 98.00 Z"/><path fill="#000000" d="M 373.00 169.00 C 372.16 168.96 364.61 166.28 363.63 165.44 L 361.53 162.49 L 355.88 162.38 L 355.00 158.00 L 346.00 158.00 C 344.82 152.44 337.84 155.27 333.33 154.01 L 328.26 151.02 L 251.05 150.53 C 245.61 150.69 245.40 153.50 241.88 154.22 C 238.73 154.86 225.54 152.45 227.00 158.00 C 222.90 157.81 215.69 157.36 215.00 162.00 L 206.00 162.00 L 206.00 166.00 C 198.30 166.01 197.05 169.86 191.40 173.40 L 186.00 174.00 L 185.42 176.38 C 181.40 179.36 173.27 184.52 173.00 190.00 L 166.00 194.00 L 166.00 200.00 C 161.85 200.01 162.56 203.91 162.31 207.06 L 158.00 208.00 L 158.00 214.00 L 154.00 214.00 C 155.45 217.71 150.51 220.17 150.21 224.23 L 135.35 235.41 L 135.00 238.00 C 131.87 238.66 128.08 237.88 128.00 242.00 C 123.65 242.24 122.66 242.78 120.49 246.42 L 114.00 246.00 L 109.74 251.80 L 111.16 276.04 L 114.00 278.00 C 114.45 282.94 113.05 288.37 118.00 290.00 L 118.61 294.46 C 123.03 296.21 125.20 300.70 126.00 305.00 C 130.02 305.53 128.57 307.51 130.00 310.00 L 134.00 310.00 C 135.68 313.48 136.44 314.01 141.00 314.00 L 141.00 318.00 C 143.76 319.48 146.70 317.24 147.00 322.00 L 185.00 322.00 C 184.02 326.68 189.18 324.68 191.68 326.18 C 195.13 328.25 191.88 328.40 198.00 330.00 L 198.00 334.00 L 202.00 334.00 C 201.42 337.07 203.01 340.25 206.04 341.32 L 206.00 378.00 L 203.46 378.29 L 202.00 393.00 C 194.69 390.56 202.38 413.47 194.00 410.00 C 198.14 417.02 189.48 422.33 190.00 429.00 L 195.00 430.00 L 194.00 427.00 C 201.14 424.12 197.88 406.77 205.00 403.00 L 206.36 387.42 C 209.48 379.07 211.36 370.00 209.61 361.05 L 211.83 355.00 L 209.48 346.05 C 211.70 341.03 209.58 335.58 206.00 332.00 C 209.73 331.88 208.01 325.84 205.00 327.00 C 205.21 327.85 205.17 328.92 204.36 329.51 C 203.56 330.10 202.42 330.47 201.47 329.88 C 200.51 329.29 199.69 328.26 199.89 327.03 L 194.00 326.00 C 190.81 320.97 185.26 317.27 179.00 318.00 L 180.00 315.00 L 162.95 317.56 C 157.35 317.35 158.75 312.85 150.90 313.28 C 151.78 315.02 153.78 317.17 151.00 318.00 L 150.00 315.00 L 142.84 314.36 C 141.13 310.90 133.84 303.83 129.59 302.21 C 128.61 299.27 128.04 299.38 125.21 298.28 C 125.49 294.51 124.85 295.40 122.00 294.00 C 122.94 292.10 122.88 289.92 122.19 287.98 C 121.50 286.03 119.93 284.59 118.10 283.75 L 117.55 275.63 C 116.51 273.41 113.36 273.62 114.00 271.00 L 114.00 253.00 L 116.33 250.94 L 120.00 254.00 L 119.00 251.00 L 130.01 243.84 L 130.00 242.00 C 135.60 242.90 140.26 238.88 142.00 234.00 L 146.00 234.00 C 145.55 231.45 146.45 230.15 149.00 230.00 C 147.96 231.45 148.18 233.34 149.11 234.74 C 150.04 236.14 151.78 236.56 153.32 236.21 C 154.86 235.86 155.80 234.46 156.00 233.00 C 154.78 232.42 146.46 227.08 151.00 226.00 C 152.66 225.75 155.56 228.72 156.00 226.00 L 154.00 223.00 L 158.08 222.07 L 158.72 216.58 L 163.38 214.28 L 162.00 210.00 L 165.00 211.00 L 166.00 202.00 C 168.96 202.56 174.31 191.86 178.60 190.39 L 178.00 186.00 L 182.00 186.00 L 182.00 182.00 L 192.00 178.00 L 205.00 170.00 C 207.63 166.07 212.35 164.08 217.00 165.00 L 217.00 162.00 L 224.56 161.43 C 230.61 158.65 237.33 157.75 243.92 158.54 L 264.04 154.28 L 323.83 153.91 C 328.41 157.21 334.11 159.15 339.83 157.98 L 345.96 160.92 L 354.00 162.00 C 357.32 168.69 356.59 163.51 362.00 166.00 L 362.57 169.44 C 363.70 170.57 367.23 170.77 369.00 173.00 L 374.00 174.00 C 372.72 176.50 375.63 178.60 378.00 178.00 L 379.00 183.00 L 382.00 186.00 L 389.40 195.60 L 390.00 201.00 C 391.94 201.65 390.86 208.57 394.00 206.00 L 394.00 209.00 L 394.00 212.00 L 395.00 223.00 L 397.76 223.31 L 399.81 239.93 L 402.00 240.00 L 403.65 258.11 L 406.00 258.00 C 404.05 266.30 406.00 274.84 410.20 282.07 L 411.17 289.96 L 414.00 290.00 L 415.94 309.97 C 417.57 312.19 419.25 314.09 418.00 317.00 L 419.00 325.00 L 422.00 325.00 C 424.10 331.43 419.37 330.60 426.00 334.00 C 425.71 330.87 426.65 323.27 422.00 324.00 L 420.63 307.24 L 418.00 306.00 L 416.53 289.35 L 414.00 289.00 L 412.47 273.45 L 410.00 273.00 L 408.78 254.06 L 406.00 253.00 L 404.52 234.40 L 402.00 234.00 C 401.64 229.74 403.30 219.96 398.00 219.00 L 396.93 204.01 C 394.51 201.26 391.74 198.22 394.00 194.00 C 391.34 195.21 383.19 182.44 383.00 180.00 L 373.00 169.00 Z"/><path fill="#000000" d="M 348.00 82.00 L 361.00 81.00 L 359.66 79.45 L 343.00 78.00 L 342.61 75.49 L 318.74 73.60 C 301.19 70.39 283.19 68.71 265.40 71.41 C 262.64 71.86 261.10 74.08 257.00 74.34 C 248.30 72.62 239.49 74.51 231.46 77.77 L 213.00 79.00 C 214.24 86.58 197.72 78.31 198.00 86.00 C 194.08 86.26 186.28 85.01 186.00 90.00 C 181.68 90.79 176.51 88.97 175.00 94.00 L 166.00 94.00 C 166.95 98.60 160.10 99.39 157.00 98.00 L 157.00 102.00 L 149.00 102.00 L 147.69 105.90 C 140.02 106.33 142.20 108.70 138.66 109.66 L 134.00 110.00 L 134.00 114.00 L 126.00 115.00 L 126.00 118.00 C 122.66 119.44 122.04 118.05 121.00 122.00 C 116.44 122.88 115.55 122.36 113.13 126.23 C 108.71 126.97 103.53 135.98 99.00 134.00 L 98.00 138.00 L 94.00 138.00 C 93.64 143.34 66.23 161.56 66.00 170.00 L 62.00 170.00 C 64.18 174.09 52.09 187.47 50.00 187.00 L 50.45 192.96 L 46.00 194.00 C 47.31 197.18 41.28 206.35 38.00 206.00 L 38.00 214.00 L 34.00 214.00 L 34.00 225.00 C 36.43 225.55 35.78 232.12 35.00 234.00 L 37.00 235.00 L 38.00 227.00 C 36.35 223.09 36.63 218.58 39.00 215.00 C 38.98 217.57 37.37 224.54 40.00 226.00 L 46.00 211.00 L 44.00 209.00 L 42.00 212.00 L 41.78 209.07 L 51.00 196.00 L 51.00 203.00 C 55.04 200.57 57.04 194.84 58.00 190.00 L 53.63 190.49 L 63.01 178.02 C 64.13 177.27 74.35 163.05 74.00 162.00 C 75.98 162.63 90.62 148.05 90.00 146.00 C 94.27 147.29 95.27 139.95 100.00 141.00 C 99.69 145.51 75.37 161.21 78.00 168.00 L 82.00 166.00 L 82.00 162.00 C 84.43 160.52 84.79 161.05 86.36 158.47 C 89.12 156.86 88.59 156.69 90.00 154.00 L 94.00 154.00 C 94.17 151.48 95.53 150.33 98.00 150.00 C 97.08 147.41 101.00 144.36 102.00 142.00 L 107.00 141.00 L 108.00 138.00 L 101.00 139.00 C 100.81 137.13 103.52 136.45 105.00 137.00 L 105.00 133.00 L 111.00 134.00 C 114.96 135.10 116.52 132.61 118.00 130.00 L 122.00 130.00 L 122.00 126.00 C 127.13 124.55 132.82 122.45 135.45 117.64 L 141.00 118.00 C 139.06 113.31 155.49 110.87 157.00 106.00 L 166.00 106.00 C 165.11 101.07 174.52 102.19 176.00 98.00 L 185.50 97.42 L 189.37 94.14 C 194.39 94.91 199.51 93.31 203.10 89.68 L 211.50 89.39 L 217.34 85.99 L 231.68 84.55 L 232.00 82.00 C 242.65 83.78 253.40 81.70 263.34 77.97 L 308.99 77.56 L 321.93 80.76 L 348.00 82.00 Z"/><path fill="#000000" d="M 426.00 359.00 C 425.19 357.12 436.98 346.03 439.00 343.00 C 435.42 340.94 430.33 348.90 427.00 350.00 L 426.00 354.00 C 423.12 355.42 423.14 354.52 421.60 357.56 L 417.08 361.68 C 415.20 362.74 413.54 363.25 414.00 366.00 C 411.44 365.98 398.26 375.86 397.11 377.81 L 392.69 381.83 C 387.54 381.64 383.48 385.41 382.00 390.00 C 375.15 388.89 371.92 395.29 366.81 398.02 L 361.37 399.33 C 358.23 401.69 355.54 402.91 352.43 405.54 L 344.65 408.10 L 345.00 410.00 C 340.86 409.36 336.50 410.72 333.89 414.16 L 327.33 415.27 L 323.87 417.98 L 315.40 419.35 L 310.98 422.30 C 303.68 423.87 297.89 426.26 290.42 427.37 L 284.91 430.22 L 256.72 434.77 L 220.00 436.75 L 195.88 435.56 C 191.19 436.63 186.39 435.67 182.00 434.00 C 178.88 435.32 170.87 435.47 170.00 432.00 L 159.00 430.00 C 160.10 425.22 151.98 426.90 149.22 426.13 C 144.82 422.32 138.81 420.29 133.00 422.00 C 131.51 417.21 127.08 419.04 123.00 418.00 C 120.90 413.11 113.73 414.08 115.00 410.00 L 109.00 410.00 L 100.00 411.00 C 101.57 414.05 104.60 413.70 108.00 414.00 C 107.56 418.37 112.00 417.21 115.00 418.00 C 116.23 422.85 118.79 420.57 122.79 421.91 C 123.70 423.88 125.22 425.66 127.37 426.36 C 129.52 427.06 131.95 427.14 134.00 426.00 C 134.51 430.33 144.26 431.04 148.00 430.00 C 145.36 435.08 158.35 433.12 160.78 433.92 L 163.26 436.81 L 179.84 437.92 L 184.19 440.80 L 228.00 441.50 C 235.89 443.50 243.88 441.06 251.00 438.00 L 275.89 436.70 L 277.00 434.00 L 292.63 432.51 L 293.00 430.00 C 297.22 429.99 304.67 430.62 306.00 426.00 C 309.29 425.41 318.52 426.99 318.00 422.00 C 322.63 423.68 327.40 421.57 330.55 418.27 C 334.36 415.52 337.36 419.44 339.00 414.00 L 345.43 413.33 C 348.86 411.99 350.53 407.82 355.00 410.00 L 356.25 405.67 L 361.45 405.36 C 364.61 404.12 365.67 400.23 370.00 402.00 L 371.00 401.00 C 369.98 398.24 376.17 397.88 378.00 394.00 L 383.00 394.00 L 383.69 390.68 L 388.40 389.30 C 392.10 382.83 398.91 379.18 406.00 378.00 L 411.00 373.00 L 411.00 370.00 L 419.00 366.00 C 418.14 363.88 423.85 358.17 426.00 359.00 Z"/><path fill="#D7D9D8" d="M 254.00 169.00 L 256.00 169.00 C 276.55 165.80 297.45 165.96 318.00 169.00 L 320.00 169.00 L 334.00 173.00 C 348.77 176.81 362.35 185.12 371.00 198.00 C 373.92 205.34 382.70 220.83 366.00 219.00 L 341.00 219.00 C 288.72 215.60 236.28 215.65 184.00 219.00 L 180.00 218.00 L 188.41 203.45 C 200.61 188.55 217.02 177.29 236.00 173.00 L 254.00 169.00 Z M 177.00 215.00 C 175.67 217.03 174.22 219.42 177.32 220.75 L 375.80 220.54 L 379.38 219.37 C 381.11 214.52 380.82 208.83 377.26 204.74 C 367.81 186.44 350.99 172.57 330.49 168.53 L 308.39 164.61 L 284.18 163.50 L 251.84 166.80 L 232.92 170.92 L 215.00 178.00 L 202.00 186.00 L 186.00 202.00 C 181.17 205.14 184.82 202.82 182.00 207.00 L 178.00 214.00 L 177.00 215.00 Z"/><path fill="#000000" d="M 365.00 179.00 L 361.00 179.00 L 361.00 175.00 C 356.00 176.29 350.75 169.74 347.10 167.96 L 327.07 161.05 L 310.30 158.59 L 244.00 159.00 L 245.00 162.00 L 231.12 164.16 C 227.67 165.71 217.11 172.08 214.00 171.00 C 212.63 174.71 209.90 173.36 207.19 175.00 L 190.02 188.10 C 188.35 191.15 186.70 191.15 187.00 195.00 L 183.00 195.00 C 182.23 197.41 176.66 205.42 179.00 207.00 L 182.00 207.00 C 184.82 202.82 181.17 205.14 186.00 202.00 C 188.32 194.33 194.30 188.29 202.00 186.00 C 201.01 182.66 211.91 176.19 215.00 178.00 C 212.13 171.53 225.80 175.82 225.00 170.00 C 228.48 169.70 235.88 170.39 236.00 166.00 L 254.64 164.32 C 275.50 160.58 296.89 158.87 318.00 162.00 C 315.79 166.33 329.38 165.30 331.83 165.81 C 334.96 170.29 340.84 172.37 346.00 170.00 C 346.14 174.37 349.72 173.22 353.00 174.00 C 354.24 178.61 355.57 175.76 358.63 178.22 L 368.90 187.15 C 369.49 191.40 372.09 195.15 376.00 197.00 L 377.00 191.00 L 374.00 190.00 C 373.73 187.31 372.49 186.49 370.00 186.00 C 369.97 183.57 367.13 179.95 365.00 179.00 Z"/><path fill="#020202" d="M 217.00 165.00 L 223.00 164.00 C 222.64 168.51 214.69 166.90 214.00 171.00 C 217.11 172.08 227.67 165.71 231.12 164.16 L 245.00 162.00 L 244.00 159.00 L 310.30 158.59 L 327.07 161.05 L 347.10 167.96 C 350.75 169.74 356.00 176.29 361.00 175.00 L 361.00 179.00 L 365.00 179.00 L 362.00 177.00 C 363.62 171.99 369.22 179.72 371.00 180.00 C 371.33 176.72 369.13 177.36 368.00 175.00 L 369.00 173.00 C 367.23 170.77 363.70 170.57 362.57 169.44 L 362.00 166.00 C 356.59 163.51 357.32 168.69 354.00 162.00 L 345.96 160.92 L 339.83 157.98 C 334.11 159.15 328.41 157.21 323.83 153.91 L 264.04 154.28 L 243.92 158.54 C 237.33 157.75 230.61 158.65 224.56 161.43 L 217.00 162.00 L 217.00 165.00 Z"/><path fill="#000000" d="M 478.00 283.00 C 475.20 277.85 480.03 275.93 481.14 272.32 L 481.79 262.19 C 482.52 258.31 485.32 256.45 485.47 251.95 C 485.55 249.44 484.32 242.30 487.22 241.22 L 489.00 241.00 L 488.54 218.38 L 486.00 218.00 L 484.83 197.96 L 483.00 196.00 L 483.00 211.00 L 482.00 218.00 L 482.00 244.00 L 481.00 236.00 L 479.00 237.00 L 478.00 255.00 C 479.65 260.26 479.44 266.00 477.00 271.00 L 477.00 259.00 C 473.86 258.37 474.33 270.59 474.00 273.00 C 467.56 272.03 472.56 281.17 469.95 283.82 C 466.14 287.70 466.27 287.84 466.00 294.00 L 468.00 303.00 C 469.91 301.11 469.77 293.59 474.00 295.00 L 473.52 284.49 L 478.00 283.00 Z"/><path fill="#141214" d="M 215.00 178.00 L 232.92 170.92 L 251.84 166.80 L 284.18 163.50 L 308.39 164.61 L 330.49 168.53 C 350.99 172.57 367.81 186.44 377.26 204.74 C 380.82 208.83 381.11 214.52 379.38 219.37 L 375.80 220.54 L 177.32 220.75 C 174.22 219.42 175.67 217.03 177.00 215.00 L 174.00 215.00 L 173.50 222.52 L 382.36 222.52 L 381.76 206.55 C 380.18 205.91 378.76 204.79 378.10 203.15 C 377.44 201.52 377.26 199.66 378.00 198.00 L 376.00 197.00 C 372.09 195.15 369.49 191.40 368.90 187.15 L 358.63 178.22 C 355.57 175.76 354.24 178.61 353.00 174.00 C 349.72 173.22 346.14 174.37 346.00 170.00 C 340.84 172.37 334.96 170.29 331.83 165.81 C 329.38 165.30 315.79 166.33 318.00 162.00 C 296.89 158.87 275.50 160.58 254.64 164.32 L 236.00 166.00 C 235.88 170.39 228.48 169.70 225.00 170.00 C 225.80 175.82 212.13 171.53 215.00 178.00 Z"/><path fill="#141214" d="M 76.00 394.00 L 70.00 394.00 L 88.71 407.37 L 113.63 421.39 L 134.47 430.55 C 145.48 433.46 158.81 438.44 169.96 439.25 L 182.57 442.55 L 248.59 442.60 C 278.58 439.49 307.88 431.63 335.43 419.38 L 355.00 410.00 C 350.53 407.82 348.86 411.99 345.43 413.33 L 339.00 414.00 C 337.36 419.44 334.36 415.52 330.55 418.27 C 327.40 421.57 322.63 423.68 318.00 422.00 C 318.52 426.99 309.29 425.41 306.00 426.00 C 304.67 430.62 297.22 429.99 293.00 430.00 L 292.63 432.51 L 277.00 434.00 L 275.89 436.70 L 251.00 438.00 C 243.88 441.06 235.89 443.50 228.00 441.50 L 184.19 440.80 L 179.84 437.92 L 163.26 436.81 L 160.78 433.92 C 158.35 433.12 145.36 435.08 148.00 430.00 C 144.26 431.04 134.51 430.33 134.00 426.00 C 131.95 427.14 129.52 427.06 127.37 426.36 C 125.22 425.66 123.70 423.88 122.79 421.91 C 118.79 420.57 116.23 422.85 115.00 418.00 C 112.00 417.21 107.56 418.37 108.00 414.00 C 104.60 413.70 101.57 414.05 100.00 411.00 L 100.00 410.00 C 96.29 409.22 93.84 410.17 93.00 406.00 C 88.02 405.62 82.89 402.29 81.00 398.00 C 78.59 398.85 75.27 396.72 76.00 394.00 Z"/><path fill="#141214" d="M 444.00 129.00 L 451.00 137.00 C 447.81 137.10 447.25 135.96 447.00 133.00 L 443.00 132.00 L 444.00 129.00 Z M 429.00 123.00 C 426.67 121.21 422.52 122.00 423.00 118.00 C 418.93 117.09 419.78 117.13 418.00 114.00 C 414.45 112.61 414.30 113.78 413.00 110.00 L 406.00 110.00 C 429.26 125.10 448.96 145.36 462.00 170.00 L 462.00 165.00 L 460.00 164.00 L 461.00 156.00 L 457.00 154.00 L 457.00 158.00 C 454.31 156.37 455.29 155.79 454.00 153.00 L 452.00 152.00 L 455.00 147.00 L 455.00 142.00 L 458.00 142.00 C 449.74 129.68 438.56 119.73 426.00 112.00 L 426.00 113.00 C 426.19 116.78 427.26 116.91 431.00 117.00 L 431.00 121.00 L 439.00 123.00 C 439.91 127.66 434.21 122.78 433.35 121.87 L 429.00 123.00 Z"/><path fill="#0E0C0D" d="M 214.00 171.00 C 214.69 166.90 222.64 168.51 223.00 164.00 L 217.00 165.00 L 205.00 170.00 L 192.00 178.00 L 186.00 184.00 L 183.00 183.00 L 184.65 185.54 L 169.98 202.17 C 169.61 207.64 167.14 212.64 164.00 217.00 L 166.00 219.00 L 170.00 215.00 L 173.59 212.56 C 175.44 210.73 174.42 206.38 178.00 207.00 L 179.00 207.00 C 176.66 205.42 182.23 197.41 183.00 195.00 L 187.00 195.00 C 186.70 191.15 188.35 191.15 190.02 188.10 L 207.19 175.00 C 209.90 173.36 212.63 174.71 214.00 171.00 Z"/><path fill="#141214" d="M 361.00 81.00 L 361.00 82.00 C 364.09 82.47 373.25 81.19 374.00 85.00 L 374.00 86.00 C 377.81 86.65 382.72 85.43 385.00 89.00 L 386.00 90.00 L 391.89 91.20 L 394.36 93.86 L 399.44 94.64 C 402.72 95.82 403.30 100.47 408.00 98.00 C 390.63 86.67 370.96 79.47 350.50 76.32 C 293.00 64.26 233.07 67.97 178.00 89.02 L 166.00 94.00 L 175.00 94.00 C 176.51 88.97 181.68 90.79 186.00 90.00 C 186.28 85.01 194.08 86.26 198.00 86.00 C 197.72 78.31 214.24 86.58 213.00 79.00 L 231.46 77.77 C 239.49 74.51 248.30 72.62 257.00 74.34 C 261.10 74.08 262.64 71.86 265.40 71.41 C 283.19 68.71 301.19 70.39 318.74 73.60 L 342.61 75.49 L 343.00 78.00 L 359.66 79.45 L 361.00 81.00 Z"/><path fill="#141214" d="M 348.00 83.00 L 348.00 82.00 L 321.93 80.76 L 308.99 77.56 L 263.34 77.97 C 253.40 81.70 242.65 83.78 232.00 82.00 L 231.68 84.55 L 217.34 85.99 L 211.50 89.39 L 203.10 89.68 C 199.51 93.31 194.39 94.91 189.37 94.14 L 185.50 97.42 L 176.00 98.00 C 174.52 102.19 165.11 101.07 166.00 106.00 L 210.01 91.07 C 263.41 75.43 320.18 77.07 373.00 94.00 L 373.00 91.00 L 373.00 90.00 C 370.49 89.67 361.91 90.49 362.00 87.00 L 362.00 86.00 L 346.00 84.00 L 348.00 83.00 Z"/><path fill="#000000" d="M 408.00 98.00 C 403.30 100.47 402.72 95.82 399.44 94.64 L 394.36 93.86 L 391.89 91.20 L 386.00 90.00 L 373.00 91.00 L 373.00 94.00 C 377.10 91.85 382.28 93.25 384.50 97.42 L 391.00 98.00 C 391.72 102.95 400.40 100.65 399.00 106.00 C 401.98 107.56 405.32 104.86 406.00 110.00 L 413.00 110.00 C 414.30 113.78 414.45 112.61 418.00 114.00 C 419.78 117.13 418.93 117.09 423.00 118.00 C 422.52 122.00 426.67 121.21 429.00 123.00 C 427.09 120.01 429.04 120.21 425.00 119.00 C 424.99 117.71 424.62 116.39 423.64 115.48 C 422.66 114.56 421.39 113.91 420.00 114.00 C 420.39 111.33 424.22 113.79 426.00 113.00 L 426.00 112.00 L 426.00 110.00 L 421.00 110.00 C 419.74 106.57 417.93 106.26 414.00 106.00 L 415.00 103.00 C 412.59 103.24 407.31 101.00 408.00 98.00 Z"/><path fill="#000000" d="M 26.00 270.00 L 25.00 248.00 L 22.00 249.00 L 22.00 269.00 C 24.57 269.77 23.24 275.88 22.81 277.91 L 22.00 297.00 L 23.08 319.93 L 26.04 323.32 C 27.34 328.06 24.58 332.39 30.00 334.00 L 31.00 343.00 L 33.00 342.00 C 35.60 334.00 24.48 326.24 30.00 318.00 L 28.49 303.42 L 26.00 303.00 L 26.00 270.00 Z"/><path fill="#D7D9D8" d="M 204.13 246.15 L 208.82 252.17 L 218.57 253.38 C 227.65 255.53 256.24 263.52 256.07 246.04 C 256.05 243.39 255.06 240.62 252.57 239.39 C 236.08 236.98 219.39 239.79 204.13 246.15 Z M 240.00 241.00 L 251.00 242.00 C 252.43 244.34 252.79 247.33 251.37 249.81 C 249.95 252.28 247.40 254.09 244.44 254.04 L 219.00 251.00 L 216.00 250.00 L 210.08 249.16 L 208.00 246.00 L 210.00 245.00 L 240.00 241.00 Z"/><path fill="#141214" d="M 464.00 170.00 L 462.00 170.00 L 469.41 187.56 C 479.45 211.10 481.27 237.58 473.01 262.00 L 464.18 289.22 L 446.00 321.00 L 450.00 321.00 C 450.89 316.77 449.93 315.49 454.00 314.00 C 454.81 311.13 453.97 307.75 458.00 308.00 C 458.06 307.33 459.56 295.45 461.00 301.00 L 462.00 301.00 L 463.00 293.00 L 465.00 294.00 L 466.00 294.00 C 466.27 287.84 466.14 287.70 469.95 283.82 C 472.56 281.17 467.56 272.03 474.00 273.00 C 474.33 270.59 473.86 258.37 477.00 259.00 L 478.00 255.00 L 479.00 237.00 L 480.00 220.00 L 478.31 202.10 L 474.69 197.43 L 473.00 188.00 C 469.51 187.87 471.07 182.55 469.84 180.31 L 466.62 177.46 L 466.00 171.00 L 464.00 170.00 Z"/><path fill="#E6E9E9" d="M 184.00 219.00 C 236.28 215.65 288.72 215.60 341.00 219.00 L 318.19 216.48 L 189.62 215.81 L 184.00 219.00 Z"/><path fill="#141214" d="M 59.00 190.00 L 58.00 190.00 C 57.04 194.84 55.04 200.57 51.00 203.00 L 50.00 204.00 C 48.67 207.05 49.95 208.20 47.00 210.00 L 46.00 211.00 L 40.00 226.00 L 38.00 227.00 L 37.00 235.00 L 35.00 234.00 L 34.00 235.00 C 33.24 239.17 35.25 248.14 31.00 250.00 L 30.00 251.00 L 28.00 263.00 L 26.00 270.00 L 26.00 303.00 L 28.49 303.42 L 30.00 318.00 L 32.00 319.00 L 35.00 329.00 L 38.00 329.00 C 27.04 306.46 24.31 280.62 31.41 256.44 C 34.74 251.58 36.49 245.71 35.82 239.78 L 47.80 212.81 L 62.00 190.00 L 59.00 190.00 Z"/><path fill="#141214" d="M 204.13 246.15 C 219.39 239.79 236.08 236.98 252.57 239.39 C 255.06 240.62 256.05 243.39 256.07 246.04 C 256.24 263.52 227.65 255.53 218.57 253.38 L 208.82 252.17 L 204.13 246.15 Z M 249.00 236.00 C 244.58 233.96 239.42 233.78 235.00 236.00 L 207.00 238.00 C 207.20 242.42 197.50 242.55 203.00 251.00 L 209.04 254.42 C 211.40 254.59 219.25 253.35 219.00 257.00 L 219.00 258.00 L 254.00 258.00 L 254.00 254.00 L 258.00 254.00 L 258.00 238.00 L 249.00 236.00 Z"/><path fill="#141214" d="M 437.00 331.00 C 434.70 333.02 431.17 333.67 428.56 331.65 C 425.95 329.64 424.57 326.04 426.16 322.87 L 422.99 311.00 C 422.14 301.37 417.97 291.67 415.68 282.34 L 410.39 252.64 L 398.82 205.16 L 394.00 194.00 C 391.74 198.22 394.51 201.26 396.93 204.01 L 398.00 219.00 C 403.30 219.96 401.64 229.74 402.00 234.00 L 404.52 234.40 L 406.00 253.00 L 408.78 254.06 L 410.00 273.00 L 412.47 273.45 L 414.00 289.00 L 416.53 289.35 L 418.00 306.00 L 420.63 307.24 L 422.00 324.00 C 426.65 323.27 425.71 330.87 426.00 334.00 L 437.00 334.00 L 437.00 331.00 Z"/><path fill="#141214" d="M 206.00 162.00 L 215.00 162.00 C 215.69 157.36 222.90 157.81 227.00 158.00 C 225.54 152.45 238.73 154.86 241.88 154.22 C 245.40 153.50 245.61 150.69 251.05 150.53 L 328.26 151.02 L 333.33 154.01 C 337.84 155.27 344.82 152.44 346.00 158.00 L 355.00 158.00 L 343.83 153.18 L 328.72 149.33 C 295.84 144.84 262.54 146.94 230.07 153.06 L 206.00 162.00 Z"/><path fill="#141214" d="M 22.00 269.00 L 22.00 249.00 C 14.58 278.27 16.77 309.09 27.83 337.13 C 29.29 344.83 33.62 351.51 39.00 357.00 L 38.00 351.00 L 37.00 350.00 L 35.00 351.00 L 34.00 343.00 L 33.00 342.00 L 31.00 343.00 L 30.00 334.00 C 24.58 332.39 27.34 328.06 26.04 323.32 L 23.08 319.93 L 22.00 297.00 L 20.64 295.38 L 19.00 282.00 L 20.00 270.00 L 21.00 274.00 L 22.00 269.00 Z"/><path fill="#0E0C0D" d="M 379.00 183.00 L 378.00 178.00 C 375.63 178.60 372.72 176.50 374.00 174.00 L 369.00 173.00 L 368.00 175.00 C 369.13 177.36 371.33 176.72 371.00 180.00 C 369.22 179.72 363.62 171.99 362.00 177.00 L 365.00 179.00 C 367.13 179.95 369.97 183.57 370.00 186.00 C 372.49 186.49 373.73 187.31 374.00 190.00 L 377.00 191.00 L 378.00 194.00 C 379.60 194.66 381.57 194.79 381.00 197.00 L 382.00 199.00 L 386.00 205.00 C 389.01 206.29 389.03 202.83 390.00 201.00 L 389.40 195.60 L 382.00 186.00 L 379.00 189.00 C 377.29 188.69 371.02 181.80 373.00 180.00 L 377.00 184.00 L 379.00 183.00 Z"/><path fill="#0E0C0D" d="M 77.00 171.00 L 78.00 168.00 C 75.37 161.21 99.69 145.51 100.00 141.00 C 95.27 139.95 94.27 147.29 90.00 146.00 C 90.62 148.05 75.98 162.63 74.00 162.00 C 74.35 163.05 64.13 177.27 63.01 178.02 L 53.63 190.49 L 58.00 190.00 L 59.00 190.00 C 57.68 186.47 59.58 184.06 63.00 184.00 C 63.18 181.30 62.66 179.07 66.00 179.00 C 72.00 179.26 70.06 166.80 77.00 171.00 Z"/><path fill="#000000" d="M 466.00 304.00 L 462.00 302.00 L 461.00 305.00 L 461.00 301.00 C 459.56 295.45 458.06 307.33 458.00 308.00 C 453.97 307.75 454.81 311.13 454.00 314.00 C 449.93 315.49 450.89 316.77 450.00 321.00 L 446.00 321.00 L 446.00 326.00 L 452.00 322.00 L 451.00 329.00 C 455.01 329.05 452.83 320.83 458.00 323.00 L 458.00 316.00 L 461.00 317.00 L 462.00 310.00 L 465.00 311.00 L 466.00 304.00 Z"/><path fill="#020202" d="M 356.00 237.00 C 338.71 234.56 321.20 235.51 304.00 238.00 L 321.00 239.67 L 354.54 239.59 L 356.00 237.00 Z"/><path fill="#141214" d="M 478.00 283.00 L 486.45 258.38 C 485.55 252.61 487.16 246.85 490.15 241.96 L 490.58 220.29 L 486.87 199.14 L 482.00 185.00 L 482.00 195.00 L 483.00 196.00 L 484.83 197.96 L 486.00 218.00 L 488.54 218.38 L 489.00 241.00 L 487.22 241.22 C 484.32 242.30 485.55 249.44 485.47 251.95 C 485.32 256.45 482.52 258.31 481.79 262.19 L 481.14 272.32 C 480.03 275.93 475.20 277.85 478.00 283.00 Z"/><path fill="#141214" d="M 194.00 410.00 L 187.53 425.53 C 177.67 436.65 158.14 425.02 147.13 421.81 L 137.58 420.33 L 115.00 410.00 C 113.73 414.08 120.90 413.11 123.00 418.00 C 127.08 419.04 131.51 417.21 133.00 422.00 C 138.81 420.29 144.82 422.32 149.22 426.13 C 151.98 426.90 160.10 425.22 159.00 430.00 L 170.00 432.00 L 184.00 432.00 L 189.00 430.00 L 190.00 429.00 C 189.48 422.33 198.14 417.02 194.00 410.00 Z"/><path fill="#000000" d="M 90.00 394.00 L 85.00 394.00 L 84.00 396.00 L 89.00 399.00 L 81.00 398.00 C 82.89 402.29 88.02 405.62 93.00 406.00 C 93.84 410.17 96.29 409.22 100.00 410.00 L 109.00 409.00 C 107.46 406.39 99.92 406.03 102.00 402.00 L 95.00 402.00 L 91.00 396.00 L 90.00 394.00 Z"/><path fill="#000000" d="M 254.00 258.00 L 219.00 258.00 L 217.00 259.00 C 225.50 263.56 235.32 266.08 245.00 264.00 L 245.00 262.00 C 249.62 261.18 252.81 263.54 254.00 258.00 Z"/><path fill="#000000" d="M 249.00 234.00 L 253.00 233.00 L 252.00 231.00 L 225.00 232.00 L 225.00 234.00 C 223.88 233.73 204.41 236.40 204.00 237.00 L 207.00 238.00 L 235.00 236.00 C 238.96 233.22 244.29 231.57 249.00 234.00 Z"/><path fill="#141214" d="M 194.00 410.00 C 202.38 413.47 194.69 390.56 202.00 393.00 L 203.46 378.29 L 206.00 378.00 L 206.04 341.32 C 203.01 340.25 201.42 337.07 202.00 334.00 L 198.00 334.00 C 202.26 339.01 204.77 345.36 204.64 352.00 L 200.42 386.49 L 197.78 391.86 L 194.00 410.00 Z"/><path fill="#141214" d="M 126.00 305.00 C 125.20 300.70 123.03 296.21 118.61 294.46 L 118.00 290.00 C 113.05 288.37 114.45 282.94 114.00 278.00 L 111.16 276.04 L 109.74 251.80 L 114.00 246.00 L 109.23 249.24 L 105.34 256.09 L 113.48 289.49 L 126.00 305.00 Z"/><path fill="#0E0C0D" d="M 32.00 319.00 L 30.00 318.00 C 24.48 326.24 35.60 334.00 33.00 342.00 L 34.00 343.00 C 37.44 342.36 37.52 347.72 37.00 350.00 L 38.00 351.00 L 41.00 351.00 L 40.00 357.00 L 42.00 358.00 L 44.00 357.00 L 45.00 353.00 L 47.00 355.00 L 46.00 351.00 C 40.87 348.90 37.88 343.46 39.00 338.00 L 38.00 338.00 C 34.74 338.22 34.90 331.27 35.00 329.00 C 33.06 328.49 31.17 327.22 30.63 325.12 C 30.09 323.03 30.32 320.60 32.00 319.00 Z"/><path fill="#000000" d="M 482.00 185.00 L 479.00 185.00 C 479.60 187.25 480.44 193.70 478.00 195.00 L 476.00 187.00 L 473.00 188.00 L 474.69 197.43 L 478.31 202.10 L 480.00 220.00 L 481.00 218.00 L 481.00 208.00 L 482.00 195.00 L 482.00 185.00 Z"/><path fill="#0E0C0D" d="M 451.00 329.00 L 452.00 322.00 L 446.00 326.00 C 446.26 328.34 435.69 338.31 433.00 338.00 L 427.00 350.00 C 430.33 348.90 435.42 340.94 439.00 343.00 C 439.10 339.25 439.45 338.70 442.78 338.17 C 443.20 336.18 443.15 333.27 446.00 334.00 C 446.37 331.61 446.97 329.08 450.00 330.00 L 451.00 329.00 Z"/><path fill="#0E0C0D" d="M 67.00 377.00 L 67.00 375.00 C 65.75 375.18 63.65 377.68 61.00 378.00 L 62.00 382.00 C 64.78 381.94 67.41 384.09 66.00 387.00 C 70.24 385.04 72.55 392.51 77.00 391.00 L 76.00 394.00 C 75.27 396.72 78.59 398.85 81.00 398.00 L 89.00 399.00 L 84.00 396.00 L 85.00 394.00 L 85.00 393.00 C 83.51 393.74 79.22 393.12 79.00 391.00 L 81.00 390.00 C 80.51 387.96 76.02 389.06 74.29 389.15 L 74.00 382.00 L 67.00 381.00 L 67.00 377.00 Z"/><path fill="#141214" d="M 198.00 334.00 L 198.00 330.00 C 191.88 328.40 195.13 328.25 191.68 326.18 C 189.18 324.68 184.02 326.68 185.00 322.00 L 147.00 322.00 L 151.05 323.86 C 160.63 327.85 167.71 322.87 177.63 323.57 L 186.20 326.83 L 198.00 334.00 Z"/><path fill="#141214" d="M 54.00 358.00 L 46.00 346.00 L 46.00 351.00 L 47.00 355.00 L 45.00 353.00 L 44.00 357.00 L 42.00 358.00 C 41.80 364.27 44.45 370.60 50.00 374.00 L 50.00 369.00 L 49.00 369.00 C 46.29 368.33 44.73 363.28 46.00 361.00 L 54.00 358.00 Z"/><path fill="#0E0C0D" d="M 58.00 378.00 L 54.04 369.08 L 57.76 368.09 C 57.26 363.85 52.75 361.21 54.00 358.00 L 46.00 361.00 L 48.52 363.82 L 49.00 369.00 L 50.00 369.00 C 51.96 368.03 54.73 372.21 54.00 374.00 L 57.00 380.00 L 58.00 378.00 Z"/><path fill="#141214" d="M 67.00 375.00 L 54.00 358.00 C 52.75 361.21 57.26 363.85 57.76 368.09 L 54.04 369.08 L 58.00 378.00 L 61.00 378.00 C 63.65 377.68 65.75 375.18 67.00 375.00 Z"/><path fill="#141214" d="M 482.00 185.00 C 476.74 169.30 468.56 154.75 458.00 142.00 L 458.00 147.00 L 459.00 147.00 C 461.41 148.41 461.40 150.36 462.00 153.00 L 459.00 153.00 L 461.00 156.00 L 463.00 156.00 L 463.00 153.00 C 465.94 154.64 464.64 155.05 466.00 158.00 L 468.00 160.00 L 470.00 166.00 L 471.00 166.00 C 474.41 168.00 472.64 170.58 474.00 174.00 L 475.00 175.00 C 478.11 177.03 476.53 180.18 478.00 183.00 L 479.00 185.00 L 482.00 185.00 Z"/><path fill="#141214" d="M 114.00 246.00 L 120.49 246.42 C 122.66 242.78 123.65 242.24 128.00 242.00 C 128.08 237.88 131.87 238.66 135.00 238.00 L 135.35 235.41 L 150.21 224.23 C 150.51 220.17 155.45 217.71 154.00 214.00 C 144.31 228.52 130.51 240.00 114.00 246.00 Z"/><path fill="#E6E9E9" d="M 251.00 147.00 C 274.77 142.49 299.23 142.16 323.00 147.00 C 304.70 142.87 285.78 140.46 267.00 142.97 C 261.38 142.78 255.93 144.44 251.00 147.00 Z"/><path fill="#020202" d="M 262.00 238.00 C 260.47 242.64 261.53 248.09 265.71 251.13 L 271.18 251.02 L 271.18 245.24 L 266.27 245.01 C 265.50 241.32 265.81 239.28 262.00 238.00 Z"/><path fill="#000000" d="M 433.00 338.00 C 435.69 338.31 446.26 328.34 446.00 326.00 L 441.00 326.00 C 440.85 328.18 438.54 330.05 437.00 331.00 L 437.00 334.00 L 426.00 334.00 C 427.14 336.54 426.43 338.32 428.08 341.03 C 429.52 339.46 430.60 337.18 433.00 338.00 Z"/><path fill="#E6E9E9" d="M 256.00 169.00 L 318.00 169.00 C 297.45 165.96 276.55 165.80 256.00 169.00 Z"/><path fill="#0E0C0D" d="M 463.00 156.00 L 461.00 156.00 L 460.00 164.00 L 462.00 165.00 L 464.00 164.00 L 464.00 170.00 L 466.00 171.00 L 469.00 170.00 L 469.00 175.00 C 470.39 175.71 471.27 176.11 471.00 174.00 L 471.00 166.00 L 470.00 166.00 C 466.92 167.22 466.19 160.62 468.00 160.00 L 466.00 158.00 L 464.00 159.00 L 463.00 156.00 Z"/><path fill="#000000" d="M 374.00 85.00 C 373.25 81.19 364.09 82.47 361.00 82.00 L 348.00 83.00 L 346.00 84.00 L 362.00 86.00 L 374.00 85.00 Z"/><path fill="#141214" d="M 449.00 334.00 L 446.00 334.00 C 443.15 333.27 443.20 336.18 442.78 338.17 C 439.45 338.70 439.10 339.25 439.00 343.00 C 436.98 346.03 425.19 357.12 426.00 359.00 C 435.03 352.02 442.69 343.48 449.00 334.00 Z"/><path fill="#000000" d="M 272.00 272.00 L 268.00 279.00 L 273.00 280.30 C 275.35 281.69 278.36 281.07 279.96 278.86 C 281.55 276.64 281.19 273.58 279.12 271.79 C 277.05 270.01 273.96 270.09 272.00 272.00 Z"/><path fill="#0E0C0D" d="M 31.00 250.00 L 30.00 234.00 L 28.00 236.00 L 29.00 248.00 L 26.00 248.00 L 25.00 248.00 L 26.00 270.00 L 28.00 263.00 C 25.54 258.98 26.93 254.09 30.00 251.00 L 31.00 250.00 Z"/><path fill="#141214" d="M 90.00 394.00 L 72.09 378.92 C 70.41 376.73 69.57 376.79 67.00 377.00 L 67.00 381.00 L 74.00 382.00 L 74.29 389.15 C 76.02 389.06 80.51 387.96 81.00 390.00 L 85.00 393.00 L 85.00 394.00 L 90.00 394.00 Z"/><path fill="#000000" d="M 34.00 235.00 C 31.78 234.24 32.36 226.82 33.00 225.00 L 31.68 224.73 L 30.00 234.00 L 31.00 250.00 C 35.25 248.14 33.24 239.17 34.00 235.00 Z"/><path fill="#E6E9E9" d="M 219.00 251.00 L 244.44 254.04 C 247.40 254.09 249.95 252.28 251.37 249.81 C 252.79 247.33 252.43 244.34 251.00 242.00 C 252.53 245.21 251.82 249.10 249.05 251.42 C 246.27 253.74 242.26 254.01 239.28 251.87 L 219.00 251.00 Z"/><path fill="#141214" d="M 34.00 225.00 L 34.00 214.00 L 22.00 249.00 L 25.00 248.00 L 26.00 248.00 L 28.00 236.00 L 30.00 234.00 L 31.68 224.73 L 33.00 225.00 L 34.00 225.00 Z"/><path fill="#000000" d="M 385.00 89.00 C 382.72 85.43 377.81 86.65 374.00 86.00 C 371.91 88.21 364.61 88.03 362.00 87.00 C 361.91 90.49 370.49 89.67 373.00 90.00 L 385.00 89.00 Z"/><path fill="#000000" d="M 219.00 257.00 C 219.25 253.35 211.40 254.59 209.04 254.42 L 203.00 251.00 L 202.00 254.00 C 200.88 262.09 215.47 256.05 219.00 257.00 Z"/><path fill="#E6E9E9" d="M 257.00 85.00 L 319.00 85.00 L 257.00 85.00 Z"/><path fill="#020202" d="M 277.00 252.00 C 278.59 257.52 268.71 254.61 268.00 259.00 C 273.61 260.84 283.23 258.82 277.00 252.00 Z"/><path fill="#141214" d="M 62.00 190.00 L 77.00 171.00 C 70.06 166.80 72.00 179.26 66.00 179.00 C 67.19 182.08 64.73 184.69 62.00 185.00 L 62.00 190.00 Z"/><path fill="#0E0C0D" d="M 475.00 175.00 L 474.00 174.00 L 474.00 175.00 L 473.00 181.00 L 473.00 188.00 L 476.00 187.00 L 478.00 195.00 C 480.44 193.70 479.60 187.25 479.00 185.00 L 478.00 183.00 C 474.13 182.63 475.26 177.95 475.00 175.00 Z"/><path fill="#000000" d="M 137.00 256.00 C 137.34 259.48 139.85 262.24 143.06 263.35 C 146.26 264.47 149.71 263.37 152.00 261.00 C 149.97 257.79 145.24 260.65 142.21 260.04 L 137.00 256.00 Z"/><path fill="#141214" d="M 458.00 323.00 C 464.95 314.69 470.36 305.21 474.00 295.00 C 469.77 293.59 469.91 301.11 468.00 303.00 L 466.00 304.00 L 465.00 311.00 L 462.00 310.00 L 461.00 317.00 L 458.00 316.00 L 458.00 323.00 Z"/><path fill="#0E0C0D" d="M 429.00 123.00 L 433.35 121.87 C 434.21 122.78 439.91 127.66 439.00 123.00 L 431.00 121.00 L 431.00 117.00 C 427.26 116.91 426.19 116.78 426.00 113.00 C 424.22 113.79 420.39 111.33 420.00 114.00 C 421.39 113.91 422.66 114.56 423.64 115.48 C 424.62 116.39 424.99 117.71 425.00 119.00 C 429.04 120.21 427.09 120.01 429.00 123.00 Z"/><path fill="#0E0C0D" d="M 22.00 297.00 L 22.81 277.91 C 23.24 275.88 24.57 269.77 22.00 269.00 L 21.00 274.00 C 20.23 275.87 21.92 283.07 19.00 282.00 L 20.64 295.38 L 22.00 297.00 Z"/><path fill="#141214" d="M 99.00 134.00 C 103.53 135.98 108.71 126.97 113.13 126.23 C 115.55 122.36 116.44 122.88 121.00 122.00 C 122.04 118.05 122.66 119.44 126.00 118.00 L 126.00 115.00 C 115.97 119.75 106.99 126.35 99.00 134.00 Z"/><path fill="#0E0C0D" d="M 114.00 271.00 C 117.26 265.49 117.57 258.51 114.00 253.00 L 114.00 271.00 Z"/><path fill="#000000" d="M 469.00 175.00 L 469.00 170.00 L 466.00 171.00 L 466.62 177.46 L 469.84 180.31 C 471.07 182.55 469.51 187.87 473.00 188.00 L 473.00 181.00 L 469.00 175.00 Z"/><path fill="#141214" d="M 399.00 106.00 C 400.40 100.65 391.72 102.95 391.00 98.00 L 384.50 97.42 C 382.28 93.25 377.10 91.85 373.00 94.00 L 399.00 106.00 Z"/><path fill="#E6E9E9" d="M 233.00 445.00 L 191.00 445.00 C 191.82 446.20 230.13 447.86 233.00 445.00 Z"/><path fill="#E6E9E9" d="M 185.00 329.00 C 172.77 324.88 160.12 330.53 148.00 326.00 L 151.25 328.96 L 185.00 329.00 Z"/><path fill="#141214" d="M 141.00 118.00 L 166.00 106.00 L 157.00 106.00 C 155.49 110.87 139.06 113.31 141.00 118.00 Z"/><path fill="#0E0C0D" d="M 482.00 218.00 L 481.00 218.00 L 480.00 220.00 L 479.00 237.00 L 481.00 236.00 L 482.00 244.00 L 482.00 218.00 Z"/><path fill="#E6E9E9" d="M 199.00 378.00 L 201.38 351.77 L 199.00 339.00 L 199.00 378.00 Z"/><path fill="#0E0C0D" d="M 50.00 204.00 L 51.00 203.00 L 51.00 196.00 L 41.78 209.07 L 42.00 212.00 L 44.00 209.00 L 46.00 211.00 L 47.00 210.00 L 48.00 203.00 L 50.00 204.00 Z"/><path fill="#0E0C0D" d="M 252.00 231.00 L 255.00 231.00 C 257.21 224.11 238.17 227.96 235.00 229.00 C 235.48 232.35 249.66 227.97 252.00 231.00 Z"/><path fill="#000000" d="M 131.53 292.86 C 130.92 295.14 132.36 297.22 134.18 298.33 C 136.00 299.43 138.15 298.66 139.55 297.38 C 140.53 295.39 140.22 292.71 138.08 291.51 C 135.93 290.31 132.96 290.56 131.53 292.86 Z"/><path fill="#E6E9E9" d="M 33.00 303.00 L 33.00 263.00 C 31.35 276.29 31.46 289.71 33.00 303.00 Z"/><path fill="#141214" d="M 383.00 394.00 L 406.00 378.00 C 398.91 379.18 392.10 382.83 388.40 389.30 L 383.69 390.68 L 383.00 394.00 Z"/><path fill="#000000" d="M 76.00 394.00 L 77.00 391.00 C 72.55 392.51 70.24 385.04 66.00 387.00 L 66.00 390.00 L 70.00 390.00 L 70.00 394.00 L 76.00 394.00 Z"/><path fill="#E6E9E9" d="M 366.00 219.00 C 382.70 220.83 373.92 205.34 371.00 198.00 C 369.37 202.72 377.00 207.93 374.49 213.46 L 366.00 219.00 Z"/><path fill="#E6E9E9" d="M 210.00 245.00 C 220.17 245.66 230.35 244.23 240.00 241.00 L 210.00 245.00 Z"/><path fill="#020202" d="M 382.00 186.00 L 379.00 183.00 L 377.00 184.00 L 373.00 180.00 C 371.02 181.80 377.29 188.69 379.00 189.00 L 382.00 186.00 Z"/><path fill="#000000" d="M 42.00 338.00 L 39.00 338.00 C 37.88 343.46 40.87 348.90 46.00 351.00 L 46.00 346.00 C 40.36 345.26 43.98 341.22 42.00 338.00 Z"/><path fill="#141214" d="M 122.00 130.00 L 141.00 118.00 L 135.45 117.64 C 132.82 122.45 127.13 124.55 122.00 126.00 L 122.00 130.00 Z"/><path fill="#E6E9E9" d="M 236.00 71.00 C 245.00 67.92 254.50 66.60 264.00 67.00 C 254.46 65.37 244.73 66.97 236.00 71.00 Z"/><path fill="#141214" d="M 186.00 202.00 L 202.00 186.00 C 194.30 188.29 188.32 194.33 186.00 202.00 Z"/><path fill="#141214" d="M 426.00 110.00 L 408.00 98.00 C 407.31 101.00 412.59 103.24 415.00 103.00 L 414.00 106.00 C 417.93 106.26 419.74 106.57 421.00 110.00 L 426.00 110.00 Z"/><path fill="#141214" d="M 50.00 187.00 C 52.09 187.47 64.18 174.09 62.00 170.00 L 50.00 187.00 Z"/><path fill="#020202" d="M 108.00 138.00 L 111.00 138.00 L 111.00 134.00 L 105.00 133.00 L 105.00 137.00 C 103.52 136.45 100.81 137.13 101.00 139.00 L 108.00 138.00 Z"/><path fill="#0E0C0D" d="M 458.00 147.00 L 455.00 147.00 L 452.00 152.00 L 454.00 153.00 L 455.00 151.00 L 457.00 154.00 L 461.00 156.00 L 459.00 153.00 L 459.00 147.00 L 458.00 147.00 Z"/><path fill="#141214" d="M 373.00 169.00 C 368.03 163.88 361.87 160.02 355.00 158.00 L 355.88 162.38 L 361.53 162.49 L 363.63 165.44 C 364.61 166.28 372.16 168.96 373.00 169.00 Z"/><path fill="#000000" d="M 62.00 190.00 L 62.00 185.00 C 64.73 184.69 67.19 182.08 66.00 179.00 C 62.66 179.07 63.18 181.30 63.00 184.00 C 59.58 184.06 57.68 186.47 59.00 190.00 L 62.00 190.00 Z"/><path fill="#000000" d="M 26.00 248.00 L 29.00 248.00 L 28.00 236.00 L 26.00 248.00 Z"/><path fill="#000000" d="M 202.00 254.00 C 204.48 248.90 201.47 243.43 197.00 241.00 C 195.06 242.63 199.56 253.53 202.00 254.00 Z"/><path fill="#000000" d="M 28.00 263.00 L 30.00 251.00 C 26.93 254.09 25.54 258.98 28.00 263.00 Z"/><path fill="#141214" d="M 107.00 141.00 L 122.00 130.00 L 118.00 130.00 C 116.52 132.61 114.96 135.10 111.00 134.00 L 111.00 138.00 L 108.00 138.00 L 107.00 141.00 Z"/><path fill="#E6E9E9" d="M 19.00 318.00 C 15.52 310.51 14.10 302.22 15.00 294.00 C 13.16 302.23 14.75 310.78 19.00 318.00 Z"/><path fill="#E6E9E9" d="M 81.00 383.00 L 65.00 367.00 L 81.00 383.00 Z"/><path fill="#E6E9E9" d="M 338.00 71.00 C 330.79 66.80 322.24 65.01 314.00 67.00 C 322.23 65.89 330.53 67.50 338.00 71.00 Z"/><path fill="#E6E9E9" d="M 346.00 89.00 L 325.00 85.00 C 331.50 88.30 338.80 89.39 346.00 89.00 Z"/><path fill="#020202" d="M 367.67 237.58 C 365.35 236.89 359.93 234.82 360.00 239.00 C 363.70 240.21 364.55 240.15 367.67 237.58 Z"/><path fill="#E6E9E9" d="M 251.00 445.00 C 258.60 446.75 266.44 444.98 273.00 441.00 C 266.10 444.07 258.56 445.58 251.00 445.00 Z"/><path fill="#E6E9E9" d="M 471.00 258.00 L 475.00 239.00 C 471.93 244.83 470.48 251.41 471.00 258.00 Z"/><path fill="#0E0C0D" d="M 466.00 294.00 L 465.00 294.00 L 465.00 301.00 L 462.00 301.00 L 461.00 301.00 L 461.00 305.00 L 462.00 302.00 L 466.00 304.00 L 468.00 303.00 L 466.00 294.00 Z"/><path fill="#000000" d="M 444.00 129.00 L 443.00 132.00 L 447.00 133.00 C 447.25 135.96 447.81 137.10 451.00 137.00 L 444.00 129.00 Z"/><path fill="#141214" d="M 158.00 208.00 L 162.31 207.06 C 162.56 203.91 161.85 200.01 166.00 200.00 L 166.00 194.00 L 158.00 208.00 Z"/><path fill="#141214" d="M 355.00 410.00 L 370.00 402.00 C 365.67 400.23 364.61 404.12 361.45 405.36 L 356.25 405.67 L 355.00 410.00 Z"/><path fill="#0E0C0D" d="M 184.00 432.00 L 170.00 432.00 C 170.87 435.47 178.88 435.32 182.00 434.00 L 185.00 433.00 L 184.00 432.00 Z"/><path fill="#141214" d="M 394.00 194.00 C 392.21 188.08 387.88 183.49 383.00 180.00 C 383.19 182.44 391.34 195.21 394.00 194.00 Z"/><path fill="#E6E9E9" d="M 475.00 217.00 L 471.00 199.00 C 470.62 205.24 471.86 211.54 475.00 217.00 Z"/><path fill="#0E0C0D" d="M 394.00 212.00 L 394.00 209.00 L 389.00 208.00 C 389.71 210.70 390.35 215.90 394.00 216.00 L 394.00 212.00 Z"/><path fill="#000000" d="M 35.00 329.00 L 32.00 319.00 C 30.32 320.60 30.09 323.03 30.63 325.12 C 31.17 327.22 33.06 328.49 35.00 329.00 Z"/><path fill="#E6E9E9" d="M 231.00 89.00 C 237.92 90.14 245.07 88.82 251.00 85.00 L 231.00 89.00 Z"/><path fill="#141214" d="M 82.00 166.00 L 94.00 154.00 L 90.00 154.00 C 88.59 156.69 89.12 156.86 86.36 158.47 C 84.79 161.05 84.43 160.52 82.00 162.00 L 82.00 166.00 Z"/><path fill="#000000" d="M 474.00 174.00 C 472.64 170.58 474.41 168.00 471.00 166.00 L 471.00 174.00 L 472.00 176.00 L 474.00 175.00 L 474.00 174.00 Z"/><path fill="#141214" d="M 38.00 206.00 C 41.28 206.35 47.31 197.18 46.00 194.00 L 38.00 206.00 Z"/><path fill="#0E0C0D" d="M 483.00 196.00 L 482.00 195.00 L 481.00 208.00 L 483.00 211.00 L 483.00 196.00 Z"/><path fill="#0E0C0D" d="M 477.00 259.00 L 477.00 271.00 C 479.44 266.00 479.65 260.26 478.00 255.00 L 477.00 259.00 Z"/><path fill="#0E0C0D" d="M 419.00 325.00 L 418.00 317.00 C 413.80 315.47 416.27 324.29 417.00 326.00 L 419.00 325.00 Z"/><path fill="#E6E9E9" d="M 178.00 427.00 C 174.91 423.65 172.52 426.54 169.12 425.78 C 165.58 424.98 163.10 420.98 159.00 423.00 C 164.48 426.99 171.40 428.31 178.00 427.00 Z"/><path fill="#E6E9E9" d="M 182.00 445.00 L 163.00 441.00 C 168.77 444.32 175.44 445.45 182.00 445.00 Z"/><path fill="#141214" d="M 202.00 186.00 L 215.00 178.00 C 211.91 176.19 201.01 182.66 202.00 186.00 Z"/><path fill="#E6E9E9" d="M 493.00 218.00 C 495.00 211.05 493.26 203.70 489.00 198.00 C 492.60 203.99 494.18 211.05 493.00 218.00 Z"/><path fill="#000000" d="M 149.00 284.00 C 148.24 288.84 154.86 289.19 156.00 285.00 L 149.00 284.00 Z"/><path fill="#000000" d="M 38.00 329.00 L 35.00 329.00 C 34.90 331.27 34.74 338.22 38.00 338.00 L 38.00 329.00 Z"/><path fill="#141214" d="M 115.00 410.00 L 102.00 402.00 C 99.92 406.03 107.46 406.39 109.00 409.00 L 109.00 410.00 L 115.00 410.00 Z"/><path fill="#E6E9E9" d="M 216.00 75.00 C 221.79 71.76 228.43 70.55 235.00 71.00 C 228.40 69.74 221.52 71.10 216.00 75.00 Z"/><path fill="#0E0C0D" d="M 386.00 90.00 L 385.00 89.00 L 373.00 90.00 L 373.00 91.00 L 386.00 90.00 Z"/><path fill="#E6E9E9" d="M 236.00 173.00 C 242.26 173.90 248.77 172.73 254.00 169.00 L 236.00 173.00 Z"/><path fill="#000000" d="M 19.00 282.00 C 21.92 283.07 20.23 275.87 21.00 274.00 L 20.00 270.00 L 19.00 282.00 Z"/><path fill="#141214" d="M 450.00 334.00 L 458.00 323.00 C 452.83 320.83 455.01 329.05 451.00 329.00 L 450.00 330.00 L 450.00 334.00 Z"/><path fill="#020202" d="M 361.00 82.00 L 361.00 81.00 L 348.00 82.00 L 348.00 83.00 L 361.00 82.00 Z"/><path fill="#141214" d="M 141.00 318.00 L 141.00 314.00 C 136.44 314.01 135.68 313.48 134.00 310.00 L 130.00 310.00 C 132.52 313.95 136.41 316.89 141.00 318.00 Z"/><path fill="#000000" d="M 258.00 238.00 C 256.60 234.15 252.87 235.25 249.00 235.00 L 249.00 236.00 L 258.00 238.00 Z"/><path fill="#E6E9E9" d="M 413.00 253.00 C 413.93 247.36 412.61 241.51 409.00 237.00 L 413.00 253.00 Z"/><path fill="#E6E9E9" d="M 15.00 269.00 C 14.30 262.72 15.69 256.39 19.00 251.00 C 14.93 256.04 13.42 262.70 15.00 269.00 Z"/><path fill="#000000" d="M 462.00 301.00 L 465.00 301.00 L 465.00 294.00 L 463.00 293.00 L 462.00 301.00 Z"/><path fill="#000000" d="M 37.00 350.00 C 37.52 347.72 37.44 342.36 34.00 343.00 L 35.00 351.00 L 37.00 350.00 Z"/><path fill="#020202" d="M 374.00 86.00 L 374.00 85.00 L 362.00 86.00 L 362.00 87.00 C 364.61 88.03 371.91 88.21 374.00 86.00 Z"/><path fill="#000000" d="M 478.00 183.00 C 476.53 180.18 478.11 177.03 475.00 175.00 C 475.26 177.95 474.13 182.63 478.00 183.00 Z"/><path fill="#0E0C0D" d="M 249.00 235.00 L 249.00 234.00 C 244.29 231.57 238.96 233.22 235.00 236.00 C 239.42 233.78 244.58 233.96 249.00 236.00 L 249.00 235.00 Z"/><path fill="#E6E9E9" d="M 425.00 306.00 C 425.73 300.67 424.33 295.25 421.00 291.00 L 425.00 306.00 Z"/><path fill="#0E0C0D" d="M 236.00 433.00 L 257.00 433.00 L 236.00 433.00 Z"/><path fill="#E6E9E9" d="M 214.00 93.00 C 219.34 93.95 224.85 92.53 229.00 89.00 L 214.00 93.00 Z"/><path fill="#E6E9E9" d="M 229.00 151.00 L 244.00 147.00 C 238.64 145.63 232.96 147.14 229.00 151.00 Z"/><path fill="#E6E9E9" d="M 345.00 151.00 C 340.82 147.47 335.28 146.41 330.00 147.00 L 345.00 151.00 Z"/><path fill="#020202" d="M 205.00 170.00 L 217.00 165.00 C 212.35 164.08 207.63 166.07 205.00 170.00 Z"/><path fill="#0E0C0D" d="M 38.00 227.00 L 40.00 226.00 C 37.37 224.54 38.98 217.57 39.00 215.00 C 36.63 218.58 36.35 223.09 38.00 227.00 Z"/><path fill="#E6E9E9" d="M 103.00 261.00 C 101.11 255.46 103.05 249.25 108.00 246.00 C 105.34 247.31 103.30 249.62 102.36 252.44 C 101.43 255.26 101.64 258.35 103.00 261.00 Z"/><path fill="#E6E9E9" d="M 417.00 273.00 C 417.74 267.71 416.66 262.11 413.00 258.00 L 417.00 273.00 Z"/><path fill="#141214" d="M 474.00 295.00 L 478.00 283.00 L 473.52 284.49 L 474.00 295.00 Z"/><path fill="#E6E9E9" d="M 429.00 325.00 C 430.43 319.64 428.84 313.96 425.00 310.00 L 429.00 325.00 Z"/><path fill="#000000" d="M 66.00 387.00 C 67.41 384.09 64.78 381.94 62.00 382.00 L 60.00 383.00 L 66.00 387.00 Z"/><path fill="#141214" d="M 371.00 401.00 C 375.71 400.17 379.96 397.69 383.00 394.00 L 378.00 394.00 C 376.17 397.88 369.98 398.24 371.00 401.00 Z"/><path fill="#E6E9E9" d="M 191.00 410.00 L 195.00 395.00 C 191.58 399.23 190.54 404.73 191.00 410.00 Z"/><path fill="#E6E9E9" d="M 357.00 75.00 C 353.29 71.44 348.05 69.89 343.00 71.00 L 357.00 75.00 Z"/><path fill="#E6E9E9" d="M 362.00 93.00 L 347.00 89.00 C 351.13 92.59 356.68 93.88 362.00 93.00 Z"/><path fill="#E6E9E9" d="M 198.00 97.00 C 203.35 98.12 208.93 96.66 213.00 93.00 L 198.00 97.00 Z"/><path fill="#000000" d="M 454.00 153.00 C 455.29 155.79 454.31 156.37 457.00 158.00 L 457.00 154.00 L 455.00 151.00 L 454.00 153.00 Z"/><path fill="#E6E9E9" d="M 334.00 173.00 L 320.00 169.00 C 323.88 172.35 329.04 173.42 334.00 173.00 Z"/><path fill="#000000" d="M 47.00 210.00 C 49.95 208.20 48.67 207.05 50.00 204.00 L 48.00 203.00 L 47.00 210.00 Z"/><path fill="#020202" d="M 34.00 225.00 L 33.00 225.00 C 32.36 226.82 31.78 234.24 34.00 235.00 L 35.00 234.00 C 35.78 232.12 36.43 225.55 34.00 225.00 Z"/><path fill="#E6E9E9" d="M 467.00 273.00 L 471.00 259.00 C 467.47 262.74 465.97 267.96 467.00 273.00 Z"/><path fill="#E6E9E9" d="M 37.00 322.00 C 38.11 316.69 36.90 310.98 33.00 307.00 L 37.00 322.00 Z"/><path fill="#000000" d="M 54.00 374.00 C 54.73 372.21 51.96 368.03 50.00 369.00 L 50.00 374.00 L 54.00 374.00 Z"/><path fill="#141214" d="M 102.00 402.00 L 91.00 396.00 L 95.00 402.00 L 102.00 402.00 Z"/><path fill="#141214" d="M 98.00 150.00 L 107.00 141.00 L 102.00 142.00 C 101.00 144.36 97.08 147.41 98.00 150.00 Z"/><path fill="#E6E9E9" d="M 385.00 177.00 C 383.85 172.37 380.45 168.66 376.00 167.00 L 385.00 177.00 Z"/><path fill="#E6E9E9" d="M 405.00 220.00 C 406.88 214.95 405.19 209.32 401.00 206.00 C 404.01 210.01 405.46 215.00 405.00 220.00 Z"/><path fill="#E6E9E9" d="M 421.00 289.00 C 421.73 284.01 420.55 278.76 417.00 275.00 L 421.00 289.00 Z"/><path fill="#E6E9E9" d="M 430.00 328.00 C 433.82 331.99 437.11 324.54 441.00 323.00 C 437.11 321.39 435.10 325.97 433.63 328.67 L 430.00 328.00 Z"/><path fill="#000000" d="M 49.00 369.00 L 48.52 363.82 L 46.00 361.00 C 44.73 363.28 46.29 368.33 49.00 369.00 Z"/><path fill="#E6E9E9" d="M 162.00 441.00 L 149.00 437.00 C 152.45 440.37 157.33 441.58 162.00 441.00 Z"/><path fill="#E6E9E9" d="M 200.00 79.00 L 213.00 75.00 C 208.33 74.29 203.37 75.48 200.00 79.00 Z"/><path fill="#141214" d="M 149.00 102.00 L 157.00 102.00 L 157.00 98.00 L 149.00 102.00 Z"/><path fill="#000000" d="M 458.00 147.00 L 458.00 142.00 L 455.00 142.00 L 455.00 147.00 L 458.00 147.00 Z"/><path fill="#000000" d="M 459.00 153.00 L 462.00 153.00 C 461.40 150.36 461.41 148.41 459.00 147.00 L 459.00 153.00 Z"/><path fill="#020202" d="M 348.00 229.00 C 344.93 229.98 344.93 229.46 343.00 232.00 C 346.09 231.43 347.38 233.47 348.00 229.00 Z"/><path fill="#E6E9E9" d="M 19.00 249.00 L 23.00 235.00 C 19.52 238.81 18.46 244.04 19.00 249.00 Z"/><path fill="#E6E9E9" d="M 489.00 254.00 C 492.40 250.56 493.54 245.66 493.00 241.00 L 489.00 254.00 Z"/><path fill="#E6E9E9" d="M 485.00 272.00 C 488.37 268.54 489.51 263.66 489.00 259.00 L 485.00 272.00 Z"/><path fill="#141214" d="M 42.00 338.00 L 38.00 329.00 L 38.00 338.00 L 39.00 338.00 L 42.00 338.00 Z"/><path fill="#000000" d="M 40.00 357.00 L 41.00 351.00 L 38.00 351.00 L 39.00 357.00 L 40.00 357.00 Z"/><path fill="#141214" d="M 157.00 98.00 C 160.10 99.39 166.95 98.60 166.00 94.00 L 157.00 98.00 Z"/><path fill="#000000" d="M 463.00 156.00 L 464.00 159.00 L 466.00 158.00 C 464.64 155.05 465.94 154.64 463.00 153.00 L 463.00 156.00 Z"/><path fill="#000000" d="M 470.00 166.00 L 468.00 160.00 C 466.19 160.62 466.92 167.22 470.00 166.00 Z"/><path fill="#000000" d="M 462.00 165.00 L 462.00 170.00 L 464.00 170.00 L 464.00 164.00 L 462.00 165.00 Z"/><path fill="#141214" d="M 179.00 207.00 L 178.00 207.00 L 178.00 214.00 L 182.00 207.00 L 179.00 207.00 Z"/><path fill="#E6E9E9" d="M 107.00 274.00 C 103.64 270.60 101.97 265.76 103.00 261.00 C 100.85 265.75 102.73 271.22 107.00 274.00 Z"/><path fill="#E6E9E9" d="M 111.00 290.00 L 107.00 278.00 C 105.96 282.41 107.34 287.16 111.00 290.00 Z"/><path fill="#000000" d="M 412.00 323.00 C 410.38 324.39 410.71 329.39 413.00 330.00 C 415.34 328.51 414.40 323.93 412.00 323.00 Z"/><path fill="#141214" d="M 411.00 373.00 L 419.00 366.00 L 411.00 370.00 L 411.00 373.00 Z"/><path fill="#E6E9E9" d="M 195.00 393.00 L 199.00 381.00 C 195.45 383.93 194.19 388.62 195.00 393.00 Z"/><path fill="#000000" d="M 85.00 393.00 L 81.00 390.00 L 79.00 391.00 C 79.22 393.12 83.51 393.74 85.00 393.00 Z"/><path fill="#E6E9E9" d="M 145.00 419.00 C 141.70 416.07 137.33 414.85 133.00 415.00 L 145.00 419.00 Z"/><path fill="#E6E9E9" d="M 158.00 423.00 C 155.12 419.45 150.45 417.84 146.00 419.00 L 158.00 423.00 Z"/><path fill="#E6E9E9" d="M 147.00 437.00 L 135.00 433.00 C 137.93 436.57 142.65 437.68 147.00 437.00 Z"/><path fill="#E6E9E9" d="M 293.00 437.00 C 297.40 437.90 302.07 436.52 305.00 433.00 L 293.00 437.00 Z"/><path fill="#E6E9E9" d="M 77.00 177.00 L 84.00 169.00 L 77.00 177.00 Z"/><path fill="#020202" d="M 474.00 175.00 L 472.00 176.00 L 471.00 174.00 C 471.27 176.11 470.39 175.71 469.00 175.00 L 473.00 181.00 L 474.00 175.00 Z"/><path fill="#020202" d="M 381.00 197.00 C 381.57 194.79 379.60 194.66 378.00 194.00 L 377.00 191.00 L 376.00 197.00 L 378.00 198.00 L 379.00 196.00 L 381.00 197.00 Z"/><path fill="#020202" d="M 483.00 211.00 L 481.00 208.00 L 481.00 218.00 L 482.00 218.00 L 483.00 211.00 Z"/><path fill="#E6E9E9" d="M 27.00 224.00 L 31.00 213.00 C 27.79 215.73 26.66 219.98 27.00 224.00 Z"/><path fill="#000000" d="M 156.00 244.00 L 156.00 248.00 C 157.57 248.96 159.27 248.89 160.00 247.00 C 159.45 244.69 158.68 243.49 156.00 244.00 Z"/><path fill="#E6E9E9" d="M 216.00 250.00 C 216.15 247.06 210.85 248.18 209.00 247.00 L 210.00 245.00 L 208.00 246.00 L 210.08 249.16 L 216.00 250.00 Z"/><path fill="#E6E9E9" d="M 33.00 261.00 C 36.38 258.40 37.70 254.08 37.00 250.00 L 33.00 261.00 Z"/><path fill="#141214" d="M 419.00 366.00 L 426.00 359.00 C 423.85 358.17 418.14 363.88 419.00 366.00 Z"/><path fill="#E6E9E9" d="M 318.00 429.00 C 322.08 429.73 326.42 428.40 329.00 425.00 L 318.00 429.00 Z"/><path fill="#E6E9E9" d="M 134.00 433.00 L 123.00 429.00 C 125.69 432.28 129.97 433.41 134.00 433.00 Z"/><path fill="#E6E9E9" d="M 385.00 83.00 C 382.39 79.62 378.07 78.37 374.00 79.00 L 385.00 83.00 Z"/><path fill="#E6E9E9" d="M 188.00 101.00 C 191.61 102.49 195.56 99.44 198.00 97.00 L 188.00 101.00 Z"/><path fill="#E6E9E9" d="M 175.00 105.00 C 179.15 106.28 183.63 104.62 186.00 101.00 L 175.00 105.00 Z"/><path fill="#E6E9E9" d="M 440.00 118.00 C 438.79 114.39 435.71 111.75 432.00 111.00 L 440.00 118.00 Z"/><path fill="#E6E9E9" d="M 23.00 235.00 L 27.00 225.00 C 24.50 226.93 21.72 231.88 23.00 235.00 Z"/><path fill="#000000" d="M 168.00 232.00 C 167.23 234.49 170.52 237.78 172.00 235.00 C 172.94 232.55 170.01 231.49 168.00 232.00 Z"/><path fill="#000000" d="M 397.00 255.00 C 394.38 255.78 395.11 259.81 397.00 261.00 C 399.27 259.81 399.24 256.29 397.00 255.00 Z"/><path fill="#000000" d="M 450.00 334.00 L 450.00 330.00 C 446.97 329.08 446.37 331.61 446.00 334.00 L 449.00 334.00 L 450.00 334.00 Z"/><path fill="#E6E9E9" d="M 413.00 376.00 C 416.77 375.28 419.55 372.38 421.00 369.00 L 413.00 376.00 Z"/><path fill="#020202" d="M 109.00 410.00 L 109.00 409.00 L 100.00 410.00 L 100.00 411.00 L 109.00 410.00 Z"/><path fill="#E6E9E9" d="M 187.00 420.00 L 191.00 410.00 C 188.51 412.45 185.53 416.30 187.00 420.00 Z"/><path fill="#E6E9E9" d="M 306.00 433.00 C 310.05 433.58 314.40 432.40 317.00 429.00 L 306.00 433.00 Z"/><path fill="#000000" d="M 185.00 433.00 L 190.00 432.00 L 189.00 430.00 L 184.00 432.00 L 185.00 433.00 Z"/></g></svg>