<svg height="1em" style="flex:none;line-height:1" viewBox="0 0 24 24" width="1em" xmlns="http://www.w3.org/2000/svg"><title>WukongAI</title><g transform="scale(0.0416666666666667)"><path fill="#221D19" d="M 408.00 447.00 L 407.00 445.00 C 409.19 444.82 411.44 442.73 412.52 440.51 L 436.47 426.49 C 438.40 424.29 442.09 417.74 445.00 419.00 C 443.65 416.06 448.60 411.94 451.00 412.00 C 450.90 409.55 452.51 405.29 454.87 403.82 L 469.37 380.44 L 473.30 367.55 C 473.67 365.19 469.49 361.39 473.00 360.00 C 470.39 354.00 469.93 347.24 472.00 341.00 L 469.95 339.74 C 470.13 326.95 467.57 314.25 462.33 302.57 C 462.49 302.32 462.78 302.19 463.00 302.00 C 460.78 302.27 458.93 299.02 459.00 297.00 L 461.00 295.00 L 458.00 296.00 L 458.00 292.00 L 453.54 290.59 L 457.29 287.45 L 451.65 282.42 L 453.00 277.00 C 449.65 276.24 447.35 273.27 450.00 270.00 C 443.72 272.39 446.34 260.26 442.00 262.00 L 443.00 259.00 L 439.00 256.00 L 441.00 254.00 L 437.79 252.25 C 436.45 250.77 431.40 242.40 432.00 242.00 L 426.00 239.00 C 424.26 233.97 421.01 229.30 416.00 227.00 L 417.00 224.00 C 414.87 224.19 412.76 223.18 411.75 221.24 C 410.74 219.31 410.87 216.91 412.31 215.20 C 413.75 213.49 416.07 212.69 418.24 213.38 L 415.54 206.46 C 406.86 203.02 400.32 196.05 396.00 188.00 L 394.00 192.00 L 396.00 193.00 C 395.19 195.24 396.42 202.52 393.00 202.00 C 394.81 206.15 393.03 210.97 389.00 213.00 C 389.85 215.87 383.55 223.00 380.81 224.80 L 368.81 243.64 C 368.50 247.46 365.79 250.39 362.69 252.20 L 362.00 252.00 C 361.79 255.91 360.37 254.94 358.62 257.58 L 349.67 266.80 C 338.74 272.82 326.74 276.89 314.22 277.77 L 290.01 275.32 C 281.19 274.85 272.81 271.87 265.00 268.00 L 270.00 268.00 L 252.00 261.00 C 255.09 266.32 260.20 271.00 266.82 271.18 L 313.68 285.21 L 334.57 283.44 L 335.51 281.82 L 346.00 282.00 C 345.63 279.81 353.39 279.01 355.00 280.00 L 354.00 284.00 L 352.00 282.00 L 351.97 286.79 L 348.00 290.00 L 351.00 291.00 C 346.56 291.46 343.12 294.81 342.00 299.00 L 339.00 298.00 C 339.98 300.47 334.10 302.50 332.00 303.00 C 333.99 305.57 330.41 305.37 329.00 305.00 L 329.00 309.00 L 326.00 308.00 L 323.00 317.00 C 320.21 316.06 320.05 319.56 321.00 322.00 C 317.15 322.01 320.72 338.11 314.00 335.00 L 315.00 338.00 L 304.00 335.00 C 302.47 340.40 287.49 332.45 284.00 337.00 L 297.00 340.00 C 304.98 341.96 311.54 347.27 316.00 354.00 C 319.62 359.94 322.13 366.88 321.00 374.00 L 323.00 372.00 C 323.23 378.34 321.09 384.62 316.62 389.22 C 312.15 393.81 306.07 396.65 299.58 396.59 L 284.44 397.42 L 268.00 394.00 C 270.20 399.50 290.42 397.70 291.00 404.00 C 292.15 403.30 298.00 399.04 297.00 405.00 L 294.20 404.76 C 290.52 408.75 284.83 409.07 280.00 408.00 C 274.22 411.38 269.41 408.28 263.27 405.45 L 255.92 405.35 L 243.52 400.67 C 235.36 399.97 227.56 398.17 220.47 393.57 L 204.46 389.59 C 199.72 389.50 195.65 386.72 193.00 383.00 C 190.78 384.04 190.45 384.12 188.00 383.00 C 188.91 379.88 179.57 379.72 178.00 376.00 L 176.00 378.00 L 175.00 374.00 C 169.99 378.24 159.36 377.86 164.28 386.98 L 164.00 392.00 C 165.64 391.45 171.99 399.94 173.15 401.78 L 194.00 421.01 C 199.43 422.10 203.18 426.71 204.00 432.00 L 202.00 434.00 L 220.00 441.00 L 220.00 438.00 C 223.47 437.22 226.77 438.48 229.61 440.34 L 243.61 443.84 L 242.98 439.97 L 228.63 433.41 C 221.75 432.22 216.06 427.82 212.08 422.30 C 208.68 420.35 207.29 419.66 209.00 416.00 L 217.00 416.00 C 221.50 413.36 224.03 415.96 229.00 416.00 L 227.00 418.00 L 239.54 419.71 C 242.69 422.16 247.04 423.18 250.79 421.25 L 254.91 424.48 L 260.17 422.92 L 265.22 426.62 L 269.80 425.93 L 283.00 430.00 L 284.14 428.01 L 292.52 429.09 C 295.96 429.98 306.50 427.64 310.00 427.00 L 310.00 429.00 L 317.00 427.00 L 319.00 429.00 C 319.75 424.89 322.24 426.68 325.00 427.00 L 335.21 421.37 C 342.48 421.88 349.33 415.42 354.24 414.98 L 365.83 410.06 L 368.00 413.00 C 368.10 411.15 368.12 410.46 370.00 411.00 L 370.00 407.00 L 372.00 409.00 C 373.26 405.14 377.57 403.98 381.00 405.00 L 382.00 402.00 L 398.53 401.47 L 402.00 399.00 L 404.00 401.00 L 406.04 399.04 L 410.00 401.00 L 408.00 398.00 L 411.00 399.00 L 416.00 396.00 L 418.00 398.00 C 421.35 396.88 422.91 395.69 423.00 392.00 L 425.00 394.00 L 429.00 393.00 C 428.61 395.97 426.79 397.12 424.53 398.70 L 435.00 404.00 C 436.00 407.02 434.37 407.72 432.00 407.00 C 432.14 410.65 427.64 416.43 426.00 420.00 L 420.00 423.00 L 421.00 426.00 L 418.00 429.00 L 415.00 428.00 C 414.81 430.54 405.48 436.11 403.00 439.00 L 400.00 438.00 L 400.00 443.00 C 397.29 443.18 397.07 444.50 397.00 447.00 L 384.00 447.00 L 406.00 448.00 L 408.00 447.00 Z M 400.00 285.00 C 404.63 283.27 409.63 284.16 414.00 286.00 C 428.72 290.63 440.43 303.12 441.61 319.05 L 442.18 333.51 L 438.35 349.58 L 431.18 362.28 L 421.74 371.70 L 408.34 379.21 L 392.45 383.28 C 382.08 384.72 371.62 382.88 362.00 379.00 C 342.45 371.79 329.22 353.05 330.00 332.00 C 330.23 321.90 335.80 312.50 345.00 308.00 L 346.26 304.35 L 364.35 292.25 L 383.50 285.32 L 402.00 282.00 L 400.00 285.00 Z"/><path fill="#0F0C0A" d="M 220.00 441.00 L 233.00 448.00 L 249.00 452.00 L 255.00 453.00 L 278.00 455.00 L 280.00 455.00 L 312.00 451.00 C 335.84 447.85 359.91 445.66 384.00 447.00 L 397.00 447.00 C 397.07 444.50 397.29 443.18 400.00 443.00 L 400.00 438.00 L 403.00 439.00 C 405.48 436.11 414.81 430.54 415.00 428.00 L 418.00 429.00 L 421.00 426.00 L 420.00 423.00 L 426.00 420.00 C 427.64 416.43 432.14 410.65 432.00 407.00 C 434.37 407.72 436.00 407.02 435.00 404.00 L 424.53 398.70 C 426.79 397.12 428.61 395.97 429.00 393.00 L 425.00 394.00 L 423.00 392.00 C 422.91 395.69 421.35 396.88 418.00 398.00 L 416.00 396.00 L 411.00 399.00 L 408.00 398.00 L 410.00 401.00 L 406.04 399.04 L 404.00 401.00 L 402.00 399.00 L 398.53 401.47 L 382.00 402.00 L 381.00 405.00 C 377.57 403.98 373.26 405.14 372.00 409.00 L 370.00 407.00 L 370.00 411.00 C 368.12 410.46 368.10 411.15 368.00 413.00 L 365.83 410.06 L 354.24 414.98 C 349.33 415.42 342.48 421.88 335.21 421.37 L 325.00 427.00 C 322.24 426.68 319.75 424.89 319.00 429.00 L 317.00 427.00 L 310.00 429.00 L 310.00 427.00 C 306.50 427.64 295.96 429.98 292.52 429.09 L 284.14 428.01 L 283.00 430.00 L 269.80 425.93 L 265.22 426.62 L 260.17 422.92 L 254.91 424.48 L 250.79 421.25 C 247.04 423.18 242.69 422.16 239.54 419.71 L 227.00 418.00 L 229.00 416.00 C 224.03 415.96 221.50 413.36 217.00 416.00 L 209.00 416.00 C 207.29 419.66 208.68 420.35 212.08 422.30 C 216.06 427.82 221.75 432.22 228.63 433.41 L 242.98 439.97 L 243.61 443.84 L 229.61 440.34 C 226.77 438.48 223.47 437.22 220.00 438.00 L 220.00 441.00 Z"/><path fill="#FC3218" d="M 252.00 159.00 C 254.54 164.44 262.68 196.47 257.00 200.00 C 251.57 187.39 248.49 173.79 249.00 160.00 L 252.00 159.00 Z M 251.00 131.00 L 251.00 129.00 L 248.86 128.11 L 235.23 99.63 L 220.76 79.16 L 205.95 65.18 L 189.02 55.13 L 171.77 49.21 C 162.14 45.48 151.64 47.97 143.47 53.63 C 149.04 59.00 155.44 63.75 162.96 66.05 L 177.06 76.94 L 188.32 91.68 C 202.15 118.80 212.60 147.49 220.00 177.00 L 222.00 181.00 L 225.00 189.00 L 230.00 198.00 C 232.04 198.33 236.97 195.57 240.93 195.96 L 262.78 204.17 L 267.00 197.00 L 265.00 194.00 L 263.00 185.00 L 263.00 183.00 L 260.00 172.00 L 251.00 139.00 C 250.29 135.90 249.73 133.69 251.00 131.00 Z"/><path fill="#4C423A" d="M 226.00 222.00 C 227.59 222.44 230.98 228.74 229.00 230.00 L 234.01 230.74 C 237.78 231.65 236.99 236.87 234.00 238.00 L 238.73 248.73 L 238.00 251.00 C 240.51 250.53 244.57 261.84 245.97 264.19 L 256.00 275.00 C 261.09 272.86 262.57 281.07 268.00 280.00 C 266.58 283.24 271.04 281.87 272.00 285.00 C 276.15 283.24 274.44 288.20 274.00 290.00 L 277.00 289.00 L 277.00 300.00 C 274.81 299.03 273.47 300.90 274.00 303.00 C 271.74 301.11 269.13 303.39 270.00 306.00 L 267.00 305.00 L 261.00 310.00 L 259.00 308.00 L 256.00 310.00 C 256.04 308.00 253.86 306.92 252.00 308.00 L 251.00 304.00 C 245.96 301.00 242.73 295.77 242.00 290.00 L 237.00 286.00 C 233.92 280.47 229.05 276.06 223.00 274.00 C 220.86 271.31 217.25 268.97 213.55 270.46 L 199.00 263.00 L 199.00 265.00 C 196.20 260.53 191.24 257.93 186.00 258.00 L 187.00 255.00 C 185.24 254.83 183.59 253.89 184.00 252.00 L 182.00 254.00 L 180.13 250.17 C 182.61 248.02 186.11 245.94 186.00 243.00 L 188.00 245.00 L 191.00 244.00 L 190.00 241.00 L 196.00 241.00 C 196.40 239.48 197.95 238.50 199.00 240.00 C 197.63 236.43 207.59 236.55 209.66 234.68 L 223.49 222.30 L 226.00 222.00 Z M 225.00 189.00 L 222.00 181.00 C 217.73 189.39 210.84 196.00 203.00 201.00 L 202.86 204.02 C 194.57 210.85 187.62 219.25 183.00 229.00 L 184.00 232.00 C 181.08 233.99 179.81 242.50 176.00 242.00 L 177.00 250.00 L 174.00 249.00 L 173.00 252.00 C 175.16 253.08 174.79 252.18 176.00 254.00 L 173.00 253.00 C 174.60 256.28 172.10 257.42 170.00 259.00 L 171.00 262.00 C 163.15 262.25 163.35 276.65 158.00 277.00 C 159.28 276.96 160.46 277.58 161.26 278.55 C 162.06 279.52 162.27 280.80 162.00 282.00 C 165.79 275.39 172.09 270.83 179.00 268.00 C 186.16 265.29 194.12 265.64 201.00 269.00 L 205.00 269.00 L 205.00 273.00 L 207.00 274.00 C 223.47 275.64 237.82 287.30 241.00 304.00 L 245.00 316.00 L 246.00 326.00 L 249.04 317.86 C 249.25 320.44 250.39 325.17 248.00 327.00 L 250.00 330.00 L 247.00 329.00 C 246.94 331.08 246.76 333.15 249.00 334.00 L 247.00 336.00 L 249.00 338.00 L 249.00 341.00 L 245.00 340.00 L 246.79 344.10 L 244.00 359.00 C 241.31 357.78 240.08 360.01 237.70 361.99 L 241.00 364.00 L 236.70 362.49 L 234.00 365.00 L 234.00 363.00 L 231.63 361.31 L 231.00 358.00 L 229.00 360.00 L 227.00 357.00 L 226.00 360.00 L 228.00 360.00 C 228.91 362.35 226.22 364.25 224.00 364.00 C 222.65 362.66 220.17 362.05 221.00 360.00 L 219.00 360.00 L 220.00 363.00 L 215.00 366.00 L 212.00 364.00 L 210.00 366.00 C 207.51 363.02 201.42 366.38 199.00 363.00 L 193.00 361.00 L 189.00 361.00 C 185.21 369.39 207.76 380.87 214.00 378.00 C 214.78 380.48 220.61 383.09 220.00 379.00 C 222.85 381.88 227.27 382.94 231.00 381.00 C 230.40 384.22 237.57 382.23 238.00 380.00 L 240.06 382.74 C 242.13 382.54 243.96 382.89 245.00 381.00 L 247.00 383.00 C 250.15 376.28 241.16 367.64 246.00 360.00 L 248.00 362.00 C 248.74 354.41 252.51 347.26 259.00 343.00 C 259.22 339.83 263.14 338.73 262.00 336.00 C 263.99 336.84 265.77 334.58 264.00 333.00 L 268.00 333.00 L 269.00 330.00 C 274.15 330.51 278.70 327.37 281.00 323.00 C 283.70 322.98 285.71 323.84 286.00 321.00 L 289.00 322.00 C 289.56 319.56 288.10 320.37 287.00 319.00 L 289.02 319.21 L 297.14 309.23 C 300.98 306.77 302.88 302.40 303.00 298.00 L 296.00 289.06 L 262.00 273.00 L 246.00 259.00 L 248.00 258.00 L 248.00 257.00 C 239.94 238.64 232.90 219.74 229.00 200.00 L 226.00 201.00 L 223.63 198.46 L 225.00 189.00 Z"/><path fill="#221D19" d="M 116.00 401.00 L 115.00 401.00 L 116.45 408.03 C 117.87 412.57 116.92 417.42 114.40 421.35 C 111.87 425.28 107.62 427.62 103.07 428.20 C 98.35 425.59 92.78 426.11 88.00 428.00 L 85.00 427.00 L 74.84 447.63 L 78.61 447.16 L 94.86 437.93 L 98.00 439.00 L 101.00 437.00 C 97.90 439.37 97.15 443.44 98.00 447.00 L 81.90 451.16 L 73.06 457.86 L 59.85 459.76 C 57.41 458.39 47.57 457.02 48.00 454.00 L 40.00 458.00 L 87.74 501.27 L 99.25 508.82 L 123.93 517.28 L 147.92 522.12 C 152.99 522.38 157.84 524.13 162.00 527.00 L 165.00 528.00 L 166.00 528.00 L 172.00 527.00 L 149.90 518.46 C 142.01 520.10 134.38 516.46 129.18 510.81 L 103.99 499.81 L 105.00 495.00 L 102.00 494.00 L 103.00 497.00 C 103.06 498.19 100.28 499.75 100.00 498.00 L 102.00 496.00 L 100.00 492.00 C 102.34 491.89 104.48 492.17 105.00 495.00 C 106.98 493.45 109.57 493.24 111.93 493.68 C 114.29 494.12 116.07 495.85 117.24 497.82 L 128.29 496.68 L 147.77 499.40 C 151.05 499.59 157.48 495.34 158.00 500.00 C 165.10 497.24 172.88 496.41 180.35 498.14 L 187.00 496.00 C 187.72 507.33 184.04 518.49 176.80 527.22 L 172.00 527.00 L 176.00 530.00 L 179.69 526.79 L 189.00 527.00 C 188.85 525.25 192.34 522.69 194.00 523.00 L 193.00 520.00 C 196.73 512.46 199.04 503.74 196.55 495.31 L 192.96 492.05 L 196.00 483.00 L 219.00 474.00 L 218.00 466.00 L 217.77 471.38 L 205.04 469.60 C 201.88 469.66 189.35 475.81 193.00 466.00 L 199.00 466.00 L 192.00 461.00 L 190.00 461.00 C 189.57 465.51 185.88 468.56 182.00 470.00 L 178.55 475.66 C 181.43 478.00 182.92 481.88 181.59 485.52 C 169.87 490.63 156.67 490.75 144.73 486.38 L 131.63 484.00 L 114.69 475.80 L 109.55 467.98 C 112.55 466.65 112.33 467.00 113.00 465.00 L 116.00 466.00 L 118.88 460.58 L 108.85 451.21 C 103.90 449.93 100.96 444.94 102.00 440.00 L 106.00 438.00 L 112.00 433.00 C 106.38 431.98 114.31 423.63 116.00 424.00 L 117.00 421.00 L 119.00 412.00 C 120.10 408.20 119.62 403.52 116.00 401.00 Z"/><path fill="#372E28" d="M 402.00 505.00 L 403.25 508.88 C 402.18 511.35 399.66 512.60 397.17 512.94 C 394.67 513.27 392.46 511.83 391.00 510.00 C 378.87 509.17 366.72 504.74 358.59 495.18 C 361.47 490.48 366.74 487.84 372.22 488.21 L 392.49 496.29 L 402.00 505.00 Z M 467.00 555.00 C 465.08 545.98 459.48 538.32 452.09 533.00 L 427.30 506.69 L 411.50 485.76 C 416.33 485.12 421.57 486.19 425.00 490.00 C 419.22 483.84 411.04 480.70 402.69 480.74 L 401.11 488.10 L 396.00 490.00 C 395.36 487.48 392.78 487.71 391.00 489.00 C 372.95 479.31 350.92 480.29 334.00 492.00 L 336.00 494.00 L 327.69 495.55 L 325.00 492.00 L 323.00 494.00 C 319.43 492.34 315.21 492.66 312.00 495.00 L 314.00 497.00 L 294.85 512.87 L 293.00 520.00 L 307.00 509.13 C 307.22 512.30 308.21 515.72 304.00 516.00 L 306.00 518.00 C 305.62 520.48 301.24 529.64 299.00 530.00 L 301.50 535.50 L 297.27 536.83 C 297.27 538.39 297.83 539.75 296.00 540.00 C 297.45 541.58 298.29 543.73 297.84 545.90 C 297.39 548.07 296.09 550.07 294.00 551.00 L 296.00 553.00 L 294.86 555.78 C 293.09 559.75 294.06 562.30 293.78 566.36 L 291.20 571.13 L 293.00 576.00 L 310.00 576.00 L 310.00 568.00 L 313.00 567.00 C 311.92 562.10 313.18 557.06 316.00 553.00 L 315.00 549.00 C 317.35 549.36 320.83 532.83 321.91 529.38 L 327.73 518.73 L 328.63 512.56 C 329.91 510.01 333.29 508.78 334.00 504.00 L 337.00 505.00 C 346.20 495.05 362.10 512.40 370.00 509.00 C 369.24 511.84 401.85 529.40 405.00 528.00 C 406.58 531.36 410.39 533.20 414.00 532.00 L 413.00 535.00 C 416.39 532.27 420.79 531.44 425.00 532.00 L 426.00 529.00 L 430.00 534.00 L 428.00 536.00 L 429.00 539.00 C 426.02 552.02 419.31 563.72 411.00 574.00 L 413.00 576.00 L 421.00 576.00 C 425.39 563.47 431.70 551.57 440.70 541.69 L 447.76 536.58 L 457.35 543.65 C 467.41 554.79 457.41 568.36 460.00 573.00 L 462.00 573.00 C 462.01 566.75 462.99 560.14 467.00 555.00 Z"/><path fill="#FC3218" d="M 418.00 126.00 L 418.00 102.00 L 413.06 75.77 L 405.98 55.68 L 395.71 38.19 L 385.34 27.82 L 376.15 25.13 C 367.24 26.28 371.79 37.59 373.03 42.99 L 377.52 71.43 L 378.12 94.00 L 375.11 116.08 L 370.00 133.00 L 368.00 135.00 L 368.00 137.00 L 368.00 142.00 L 333.00 211.00 C 340.13 207.41 348.17 206.52 356.00 207.00 L 350.47 205.26 L 365.05 186.08 C 376.97 169.68 386.54 151.73 393.82 132.82 L 396.39 116.76 L 396.55 95.00 L 392.91 52.81 L 394.00 52.00 C 405.15 72.85 411.82 96.14 410.80 120.00 L 408.55 139.71 L 403.59 163.32 L 398.00 179.00 L 402.00 179.00 C 410.61 162.48 415.64 144.41 418.00 126.00 Z"/><path fill="#900301" d="M 406.00 448.00 L 384.00 447.00 C 359.91 445.66 335.84 447.85 312.00 451.00 L 355.29 449.62 L 355.00 452.00 L 322.57 457.46 L 305.61 462.58 L 305.00 465.00 L 281.00 477.00 L 351.28 468.38 L 378.00 467.76 L 394.00 470.00 C 406.56 473.00 418.35 479.20 427.00 489.00 L 425.00 490.00 L 426.00 492.00 L 430.00 493.00 L 437.00 499.00 C 437.27 502.49 469.39 525.96 466.00 537.00 C 467.81 541.05 468.82 545.55 468.00 550.00 L 467.00 555.00 C 462.99 560.14 462.01 566.75 462.00 573.00 C 480.52 572.70 498.39 566.78 514.00 557.00 C 511.46 557.26 509.03 554.42 509.00 552.00 L 508.00 551.00 L 500.00 544.00 C 495.74 543.22 492.30 540.11 491.00 536.00 L 456.00 502.00 L 428.13 479.92 L 412.53 471.49 L 385.99 465.97 L 351.54 464.47 L 349.36 461.95 C 369.19 455.90 390.39 456.40 410.00 463.00 L 408.00 461.00 C 410.30 460.35 408.32 457.76 409.00 456.00 C 407.91 455.40 400.47 450.17 406.00 449.00 L 406.00 448.00 Z M 324.00 460.00 L 357.00 454.00 L 358.00 457.00 L 347.00 459.00 L 334.00 460.00 L 322.00 464.00 L 316.00 466.00 L 313.00 467.00 L 306.00 469.00 C 306.61 465.19 310.63 465.88 313.00 464.00 L 324.00 460.00 Z"/><path fill="#372E28" d="M 189.00 361.00 C 174.90 356.08 164.25 344.76 159.00 331.00 C 156.06 331.10 155.99 330.60 154.65 328.06 C 155.06 330.88 158.28 345.38 155.00 345.00 C 156.91 347.18 154.99 349.65 154.00 352.00 C 151.25 350.69 150.50 354.08 153.00 355.00 C 150.21 358.60 148.37 377.37 147.00 378.00 L 149.00 380.00 C 147.89 381.54 146.20 379.08 146.00 378.00 C 142.33 377.30 138.93 374.84 138.00 371.00 L 136.00 370.00 L 142.00 383.00 L 143.00 381.00 L 152.00 394.00 C 149.87 400.66 143.70 385.43 143.00 385.00 C 147.37 391.90 137.80 394.75 137.00 400.00 C 138.82 402.36 157.71 389.80 154.00 400.00 L 155.00 400.00 L 160.00 399.00 L 160.30 401.65 C 172.09 406.30 181.61 414.95 189.00 425.00 L 192.00 426.00 L 191.00 428.00 C 192.67 431.34 195.88 434.35 200.00 434.00 L 201.00 434.00 L 202.00 434.00 L 204.00 432.00 C 203.18 426.71 199.43 422.10 194.00 421.01 L 173.15 401.78 C 171.99 399.94 165.64 391.45 164.00 392.00 L 164.28 386.98 C 159.36 377.86 169.99 378.24 175.00 374.00 L 176.00 378.00 L 178.00 376.00 C 179.57 379.72 188.91 379.88 188.00 383.00 C 190.45 384.12 190.78 384.04 193.00 383.00 C 195.65 386.72 199.72 389.50 204.46 389.59 L 220.47 393.57 C 227.56 398.17 235.36 399.97 243.52 400.67 L 255.92 405.35 L 263.27 405.45 C 269.41 408.28 274.22 411.38 280.00 408.00 C 284.83 409.07 290.52 408.75 294.20 404.76 L 297.00 405.00 C 298.00 399.04 292.15 403.30 291.00 404.00 C 290.42 397.70 270.20 399.50 268.00 394.00 L 266.00 392.00 C 261.41 392.47 257.09 389.54 256.00 385.00 L 252.00 378.00 C 249.00 373.23 247.62 367.62 248.00 362.00 L 246.00 360.00 C 241.16 367.64 250.15 376.28 247.00 383.00 L 245.00 381.00 C 243.96 382.89 242.13 382.54 240.06 382.74 L 238.00 380.00 C 237.57 382.23 230.40 384.22 231.00 381.00 C 227.27 382.94 222.85 381.88 220.00 379.00 C 220.61 383.09 214.78 380.48 214.00 378.00 C 207.76 380.87 185.21 369.39 189.00 361.00 Z"/><path fill="#221D19" d="M 298.00 130.00 L 304.00 142.00 L 306.00 142.00 C 306.04 144.96 306.84 148.14 304.00 150.00 C 301.83 150.33 302.11 147.67 302.00 146.00 L 300.00 148.00 C 298.53 146.43 293.78 138.67 296.00 137.00 L 293.00 135.00 L 295.00 133.00 C 293.79 130.81 296.07 129.96 298.00 130.00 Z M 333.00 211.00 L 368.00 142.00 L 367.00 140.00 C 364.78 141.94 361.58 140.67 359.00 140.00 L 353.51 128.14 C 353.62 123.59 350.23 119.98 346.00 119.00 L 347.00 116.00 C 343.91 115.70 346.08 114.48 344.00 113.00 L 343.00 115.00 L 340.00 109.00 C 339.34 111.02 338.79 110.70 336.70 110.94 L 336.00 108.00 L 335.00 112.00 L 333.00 112.00 C 333.59 119.02 331.33 125.88 327.31 131.56 C 327.62 132.95 328.77 134.90 327.00 135.00 L 327.00 133.00 C 322.44 134.95 317.87 131.98 316.00 128.00 C 312.09 129.21 312.44 124.88 308.67 123.49 C 303.17 125.12 297.33 123.62 293.00 120.00 C 290.65 122.94 286.38 124.24 283.00 122.00 L 282.63 138.68 C 282.98 141.74 287.23 151.43 286.00 153.00 C 288.10 151.99 294.81 158.80 296.80 160.53 L 303.00 162.00 L 303.00 166.00 L 307.00 166.00 L 306.00 169.00 L 311.00 175.00 L 313.00 174.00 C 311.53 174.09 309.74 168.41 310.00 167.00 C 312.20 166.19 313.43 168.91 314.70 170.46 L 318.49 171.37 L 318.00 169.00 L 321.00 170.00 L 325.00 163.00 C 322.33 162.83 320.25 160.73 319.93 158.11 C 319.62 155.50 321.28 153.12 323.75 152.35 C 326.21 151.57 328.81 152.76 330.00 155.00 L 331.00 152.00 C 333.27 151.11 335.67 155.50 337.05 157.17 C 338.94 156.54 340.97 156.99 342.56 158.11 C 344.15 159.24 344.97 161.10 345.00 163.00 L 348.00 162.00 C 355.46 170.11 338.41 190.88 331.00 195.00 L 329.00 193.00 L 324.00 195.00 C 322.32 191.85 322.99 188.88 320.00 186.00 L 321.00 183.00 L 317.00 182.00 L 320.00 192.00 L 328.71 212.91 L 333.00 211.00 Z"/><path fill="#C2BBAE" d="M 414.00 286.00 L 399.00 286.00 L 389.27 288.59 C 403.63 294.01 413.76 306.88 416.00 322.00 L 416.00 336.00 C 413.87 351.04 403.17 363.39 388.70 367.85 C 380.58 370.58 371.95 368.47 365.00 364.00 C 359.64 363.00 354.57 360.03 352.00 355.00 L 351.00 362.00 C 352.41 359.80 354.15 363.67 354.00 365.00 L 351.00 364.00 C 351.72 370.03 361.01 372.32 362.00 379.00 C 371.62 382.88 382.08 384.72 392.45 383.28 L 408.34 379.21 L 421.74 371.70 L 431.18 362.28 L 438.35 349.58 L 442.18 333.51 L 441.61 319.05 C 440.43 303.12 428.72 290.63 414.00 286.00 Z"/><path fill="#D69514" d="M 306.00 169.00 L 302.00 168.00 C 294.05 178.48 292.59 192.73 299.03 204.39 L 288.13 207.02 L 288.00 209.00 C 305.68 205.19 311.39 226.42 315.00 227.00 L 316.00 225.00 C 327.05 229.85 311.88 249.73 304.42 252.04 L 289.01 252.75 C 284.54 254.09 280.39 251.02 279.00 247.00 C 271.87 242.08 269.10 233.20 271.00 225.00 L 269.02 225.13 L 270.15 240.70 L 263.00 240.00 L 262.00 243.00 C 257.47 244.94 252.39 244.08 248.34 241.52 L 250.49 253.86 L 248.00 257.00 L 248.00 258.00 L 252.00 261.00 L 270.00 268.00 L 281.00 270.00 L 296.00 269.00 L 295.00 266.00 L 313.16 256.16 L 329.04 242.04 L 352.82 216.07 L 360.01 213.06 C 361.51 213.88 362.93 215.31 362.83 217.21 C 362.73 219.11 361.94 221.19 360.00 222.00 L 355.00 230.00 L 343.00 248.00 L 337.00 260.00 C 339.24 259.02 343.86 255.56 344.00 254.00 L 346.00 255.00 L 367.00 222.00 L 367.00 214.00 C 367.10 211.87 364.13 208.90 362.00 209.00 L 341.80 213.56 L 326.00 223.00 C 327.30 216.97 326.56 210.45 322.82 205.33 L 320.00 192.00 L 317.00 182.00 C 314.36 181.12 311.72 177.75 311.00 175.00 L 306.00 169.00 Z"/><path fill="#635344" d="M 226.00 222.00 L 223.49 222.30 L 209.66 234.68 C 207.59 236.55 197.63 236.43 199.00 240.00 C 197.95 238.50 196.40 239.48 196.00 241.00 L 190.00 241.00 L 191.00 244.00 L 188.00 245.00 L 186.00 243.00 C 186.11 245.94 182.61 248.02 180.13 250.17 L 182.00 254.00 L 184.00 252.00 C 183.59 253.89 185.24 254.83 187.00 255.00 L 186.00 258.00 C 191.24 257.93 196.20 260.53 199.00 265.00 L 199.00 263.00 L 213.55 270.46 C 217.25 268.97 220.86 271.31 223.00 274.00 C 229.05 276.06 233.92 280.47 237.00 286.00 L 242.00 290.00 C 242.73 295.77 245.96 301.00 251.00 304.00 L 252.00 308.00 C 253.86 306.92 256.04 308.00 256.00 310.00 L 259.00 308.00 L 261.00 310.00 L 267.00 305.00 L 270.00 306.00 C 269.13 303.39 271.74 301.11 274.00 303.00 C 273.47 300.90 274.81 299.03 277.00 300.00 L 277.00 289.00 L 274.00 290.00 C 274.44 288.20 276.15 283.24 272.00 285.00 C 271.04 281.87 266.58 283.24 268.00 280.00 C 262.57 281.07 261.09 272.86 256.00 275.00 L 245.97 264.19 C 244.57 261.84 240.51 250.53 238.00 251.00 L 238.73 248.73 L 234.00 238.00 C 236.99 236.87 237.78 231.65 234.01 230.74 L 229.00 230.00 C 230.98 228.74 227.59 222.44 226.00 222.00 Z"/><path fill="#FC3218" d="M 509.00 149.00 L 491.00 145.00 L 485.76 150.78 L 415.00 185.00 L 415.00 188.00 L 440.00 204.00 L 447.92 201.92 C 459.59 195.34 507.46 177.73 512.00 171.00 L 514.00 173.00 C 514.54 169.35 521.03 167.73 520.74 164.13 L 519.00 160.00 L 511.00 151.00 L 509.00 149.00 Z"/><path fill="#221D19" d="M 406.00 538.00 L 413.00 535.00 L 414.00 532.00 C 410.39 533.20 406.58 531.36 405.00 528.00 C 401.85 529.40 369.24 511.84 370.00 509.00 C 362.10 512.40 346.20 495.05 337.00 505.00 L 334.00 504.00 C 333.29 508.78 329.91 510.01 328.63 512.56 L 327.73 518.73 L 321.91 529.38 C 320.83 532.83 317.35 549.36 315.00 549.00 L 316.00 553.00 C 313.18 557.06 311.92 562.10 313.00 567.00 L 310.00 568.00 L 310.00 576.00 L 335.00 576.00 L 336.09 564.04 L 338.00 563.00 C 337.44 557.67 339.40 552.12 344.00 549.00 L 343.00 542.00 C 347.38 541.70 344.43 539.27 345.00 537.00 L 349.00 531.00 L 348.00 527.00 C 349.55 526.71 352.16 514.61 353.76 511.59 C 356.07 512.70 361.72 514.14 362.00 517.00 L 365.00 516.00 C 365.53 522.17 393.24 532.16 393.00 539.00 L 399.00 539.00 C 397.50 544.13 394.70 548.79 390.90 552.54 L 388.00 548.00 C 388.77 556.62 384.06 564.48 377.00 569.00 L 376.00 572.00 L 359.00 573.00 L 378.00 574.00 L 374.00 576.00 L 382.00 576.00 C 383.17 574.93 384.74 573.14 383.00 572.00 C 383.66 572.03 399.68 536.96 406.00 538.00 Z"/><path fill="#372E28" d="M 397.00 187.00 L 396.00 187.00 L 396.00 188.00 C 400.32 196.05 406.86 203.02 415.54 206.46 L 418.24 213.38 C 416.07 212.69 413.75 213.49 412.31 215.20 C 410.87 216.91 410.74 219.31 411.75 221.24 C 412.76 223.18 414.87 224.19 417.00 224.00 L 416.00 227.00 C 421.01 229.30 424.26 233.97 426.00 239.00 L 432.00 242.00 C 431.40 242.40 436.45 250.77 437.79 252.25 L 441.00 254.00 L 439.00 256.00 L 443.00 259.00 L 442.00 262.00 C 446.34 260.26 443.72 272.39 450.00 270.00 C 447.35 273.27 449.65 276.24 453.00 277.00 L 451.65 282.42 L 457.29 287.45 L 453.54 290.59 L 458.00 292.00 L 458.00 296.00 L 461.00 295.00 L 459.00 297.00 C 458.93 299.02 460.78 302.27 463.00 302.00 C 462.78 302.19 462.49 302.32 462.33 302.57 C 467.57 314.25 470.13 326.95 469.95 339.74 L 472.00 341.00 C 469.93 347.24 470.39 354.00 473.00 360.00 C 469.49 361.39 473.67 365.19 473.30 367.55 L 469.37 380.44 L 454.87 403.82 C 452.51 405.29 450.90 409.55 451.00 412.00 C 448.60 411.94 443.65 416.06 445.00 419.00 C 442.09 417.74 438.40 424.29 436.47 426.49 L 412.52 440.51 C 411.44 442.73 409.19 444.82 407.00 445.00 L 408.00 447.00 L 418.00 444.00 C 417.51 440.24 459.21 417.82 458.00 412.00 L 466.00 403.00 L 473.57 387.65 C 479.20 378.07 480.77 366.88 480.00 356.00 C 481.36 348.10 480.32 340.89 478.50 333.31 L 476.40 318.51 L 466.48 283.36 C 459.55 267.18 451.30 251.47 440.38 237.56 C 434.56 232.03 430.40 225.08 427.38 217.72 L 420.75 205.27 L 407.46 193.58 C 403.12 193.14 399.38 190.57 397.00 187.00 Z"/><path fill="#FCD551" d="M 237.00 197.00 L 246.00 200.00 C 243.97 203.20 236.44 200.64 237.00 197.00 Z M 302.00 168.00 L 296.00 166.00 L 291.00 169.00 L 278.00 182.00 L 267.00 197.00 L 262.78 204.17 L 240.93 195.96 C 236.97 195.57 232.04 198.33 230.00 198.00 L 229.00 200.00 C 232.90 219.74 239.94 238.64 248.00 257.00 L 250.49 253.86 L 248.34 241.52 C 252.39 244.08 257.47 244.94 262.00 243.00 L 263.00 240.00 L 270.15 240.70 L 269.02 225.13 L 271.00 225.00 L 273.00 219.00 C 275.63 213.49 280.88 209.63 287.00 209.00 L 288.00 209.00 L 288.13 207.02 L 299.03 204.39 C 292.59 192.73 294.05 178.48 302.00 168.00 Z"/><path fill="#635344" d="M 222.00 181.00 L 220.00 177.00 C 216.55 183.02 211.68 188.24 205.43 191.43 L 179.98 211.98 L 167.83 226.84 L 153.32 253.36 L 144.03 277.43 L 136.59 312.69 L 136.24 334.91 L 139.55 362.37 C 139.35 364.55 138.83 367.76 136.00 367.00 L 136.00 370.00 L 138.00 371.00 L 143.00 372.00 L 144.38 357.64 L 143.33 329.57 C 143.36 325.22 146.25 324.88 148.00 322.00 L 146.00 320.00 L 151.00 309.00 L 152.00 314.00 C 152.21 310.40 151.81 300.94 155.00 300.00 L 162.00 282.00 C 162.27 280.80 162.06 279.52 161.26 278.55 C 160.46 277.58 159.28 276.96 158.00 277.00 C 163.35 276.65 163.15 262.25 171.00 262.00 L 170.00 259.00 C 172.10 257.42 174.60 256.28 173.00 253.00 L 176.00 254.00 C 174.79 252.18 175.16 253.08 173.00 252.00 L 174.00 249.00 L 177.00 250.00 L 176.00 242.00 C 179.81 242.50 181.08 233.99 184.00 232.00 L 183.00 229.00 C 187.62 219.25 194.57 210.85 202.86 204.02 L 203.00 201.00 C 210.84 196.00 217.73 189.39 222.00 181.00 Z"/><path fill="#CF0401" d="M 402.00 181.00 L 402.00 179.00 L 398.00 179.00 L 403.59 163.32 L 408.55 139.71 L 410.80 120.00 C 411.82 96.14 405.15 72.85 394.00 52.00 L 392.91 52.81 L 396.55 95.00 L 396.39 116.76 L 393.82 132.82 C 386.54 151.73 376.97 169.68 365.05 186.08 L 350.47 205.26 L 356.00 207.00 L 360.00 207.00 L 370.43 199.46 C 383.24 184.54 393.75 167.83 402.00 150.00 C 402.28 155.96 401.60 162.16 398.46 167.43 C 390.70 184.65 379.75 200.16 367.00 214.00 L 367.00 222.00 C 376.96 213.86 385.39 204.02 392.00 193.00 L 387.00 195.00 C 388.52 190.31 392.00 186.67 396.00 184.00 L 396.00 187.00 L 397.00 187.00 L 399.00 184.00 L 402.00 181.00 Z"/><path fill="#372E28" d="M 252.00 261.00 L 248.00 258.00 L 246.00 259.00 L 262.00 273.00 L 296.00 289.06 L 303.00 298.00 C 302.88 302.40 300.98 306.77 297.14 309.23 L 289.02 319.21 L 287.00 319.00 C 288.10 320.37 289.56 319.56 289.00 322.00 L 286.00 321.00 C 285.71 323.84 283.70 322.98 281.00 323.00 C 278.70 327.37 274.15 330.51 269.00 330.00 L 268.00 333.00 L 264.00 333.00 C 265.77 334.58 263.99 336.84 262.00 336.00 C 263.14 338.73 259.22 339.83 259.00 343.00 L 272.00 338.00 C 273.08 335.39 281.86 335.90 284.00 337.00 C 287.49 332.45 302.47 340.40 304.00 335.00 L 315.00 338.00 L 314.00 335.00 C 320.72 338.11 317.15 322.01 321.00 322.00 C 320.05 319.56 320.21 316.06 323.00 317.00 L 326.00 308.00 L 329.00 309.00 L 329.00 305.00 C 330.41 305.37 333.99 305.57 332.00 303.00 C 334.10 302.50 339.98 300.47 339.00 298.00 L 342.00 299.00 C 343.12 294.81 346.56 291.46 351.00 291.00 L 348.00 290.00 L 351.97 286.79 L 352.00 282.00 L 354.00 284.00 L 355.00 280.00 C 353.39 279.01 345.63 279.81 346.00 282.00 L 335.51 281.82 L 334.57 283.44 L 313.68 285.21 L 266.82 271.18 C 260.20 271.00 255.09 266.32 252.00 261.00 Z"/><path fill="#0F0C0A" d="M 399.00 286.00 L 400.00 285.00 L 402.00 282.00 L 383.50 285.32 L 364.35 292.25 L 346.26 304.35 L 345.00 308.00 L 350.18 305.62 C 345.88 314.11 344.11 323.56 344.00 333.00 C 343.72 340.06 346.79 346.60 351.00 352.00 C 352.81 352.04 355.63 354.93 357.00 353.00 C 352.24 350.56 349.82 345.18 351.00 340.00 L 351.00 337.00 C 347.97 323.36 354.24 309.64 365.72 302.13 C 363.26 307.07 363.03 312.69 364.00 318.00 L 366.00 316.00 C 366.67 318.38 368.59 317.63 370.00 317.00 C 369.95 322.22 380.68 324.61 375.00 331.00 L 375.00 332.00 L 375.00 334.00 L 378.00 337.00 C 379.13 340.50 382.22 342.80 385.64 343.70 C 389.05 344.60 392.51 343.28 395.00 341.00 C 397.88 343.04 399.87 337.31 403.00 337.00 L 406.00 326.00 C 408.01 322.63 408.48 318.60 407.49 314.83 C 406.50 311.06 403.97 307.92 400.62 306.00 L 397.00 308.00 L 395.00 309.00 L 393.00 314.00 L 390.00 313.00 L 390.00 316.00 C 387.91 315.72 379.05 311.93 380.00 315.00 L 377.00 314.00 L 377.00 310.00 L 375.00 312.00 C 375.42 306.86 371.69 302.45 376.49 297.49 C 377.88 295.41 380.24 294.38 382.60 294.00 C 384.95 293.61 387.20 294.61 389.00 296.00 L 398.00 302.00 C 399.27 301.55 408.93 311.43 410.11 313.96 L 413.00 319.00 C 410.11 320.89 414.57 328.48 411.00 329.00 L 410.00 341.00 L 407.00 348.00 L 400.00 356.00 C 391.95 363.37 380.57 366.43 370.00 363.00 L 365.00 364.00 C 371.95 368.47 380.58 370.58 388.70 367.85 C 403.17 363.39 413.87 351.04 416.00 336.00 L 416.00 322.00 C 413.76 306.88 403.63 294.01 389.27 288.59 L 399.00 286.00 Z"/><path fill="#0F0C0A" d="M 388.00 548.00 L 390.90 552.54 C 394.70 548.79 397.50 544.13 399.00 539.00 L 393.00 539.00 C 393.24 532.16 365.53 522.17 365.00 516.00 L 362.00 517.00 C 361.72 514.14 356.07 512.70 353.76 511.59 C 352.16 514.61 349.55 526.71 348.00 527.00 L 349.00 531.00 L 345.00 537.00 C 344.43 539.27 347.38 541.70 343.00 542.00 L 344.00 549.00 C 339.40 552.12 337.44 557.67 338.00 563.00 L 336.09 564.04 L 335.00 576.00 L 358.00 575.00 L 359.00 573.00 L 376.00 572.00 L 377.00 569.00 L 376.57 566.02 L 382.01 548.01 C 383.74 546.36 386.34 547.10 388.00 548.00 Z"/><path fill="#221D19" d="M 425.00 490.00 L 427.00 489.00 C 418.35 479.20 406.56 473.00 394.00 470.00 L 402.55 474.83 L 315.76 478.78 C 310.19 477.38 299.48 484.28 297.00 482.00 L 296.00 485.00 L 291.00 487.00 L 289.00 485.00 L 278.00 488.00 L 278.00 490.00 L 256.00 494.61 L 243.00 491.00 L 248.00 489.00 C 245.98 488.48 237.09 489.86 237.00 487.00 L 234.00 487.00 C 234.24 491.04 236.82 491.87 240.20 493.20 C 237.33 496.30 236.12 497.71 232.02 498.61 C 234.71 503.90 238.45 501.04 240.00 504.00 L 244.26 501.17 L 255.00 498.00 C 255.94 495.77 290.45 490.06 292.00 493.00 L 302.00 492.00 L 291.00 502.00 L 277.13 518.16 L 276.00 522.00 L 280.00 522.00 L 289.00 521.00 L 292.00 521.00 L 293.00 520.00 L 294.85 512.87 L 314.00 497.00 L 312.00 495.00 C 315.21 492.66 319.43 492.34 323.00 494.00 L 325.00 492.00 L 327.69 495.55 L 336.00 494.00 L 334.00 492.00 C 350.92 480.29 372.95 479.31 391.00 489.00 C 392.78 487.71 395.36 487.48 396.00 490.00 L 401.11 488.10 L 402.69 480.74 C 411.04 480.70 419.22 483.84 425.00 490.00 Z"/><path fill="#900301" d="M 529.00 175.00 L 525.00 168.00 C 527.66 173.03 526.10 178.83 523.07 183.14 L 457.77 209.84 C 453.30 212.44 447.62 211.71 444.00 208.00 L 446.00 211.00 L 459.00 225.00 L 469.00 236.00 C 469.78 234.75 469.91 232.78 468.00 233.00 C 473.42 225.15 503.30 217.22 513.00 216.00 L 513.00 220.00 C 517.31 221.42 521.94 220.85 526.00 219.00 L 531.74 208.60 C 534.69 202.83 535.15 196.11 533.00 190.00 L 529.00 175.00 Z"/><path fill="#FCD551" d="M 561.00 139.00 C 563.18 146.48 539.71 141.97 543.68 131.63 C 546.89 123.27 571.35 119.86 571.14 130.96 C 569.54 135.28 565.77 138.69 561.00 139.00 Z M 545.00 144.00 L 543.51 149.60 L 528.00 139.00 C 530.30 135.28 534.35 132.70 538.88 133.03 C 538.79 137.57 541.51 141.45 545.00 144.00 Z M 573.00 118.00 L 572.00 109.00 L 491.00 145.00 L 509.00 149.00 C 512.42 144.96 517.66 143.04 522.88 143.61 C 528.09 144.18 532.57 147.41 535.00 152.00 C 532.69 156.91 529.96 153.41 526.98 153.32 L 522.14 154.26 L 511.00 151.00 L 519.00 160.00 L 525.00 168.00 L 529.00 175.00 C 529.12 161.66 541.15 170.72 544.00 167.00 L 542.00 156.00 L 560.00 160.00 L 562.00 158.00 L 564.00 160.00 L 571.00 156.00 L 569.00 154.00 L 572.30 149.97 L 576.00 152.00 L 576.00 141.00 L 573.40 138.75 C 570.25 145.80 562.32 149.25 555.00 147.00 C 557.12 143.47 564.78 144.13 568.30 141.31 L 574.00 134.00 L 576.00 137.00 L 575.00 123.00 C 573.56 125.46 568.38 120.53 568.00 119.00 C 568.55 117.23 571.69 116.82 573.00 118.00 Z"/><path fill="#900301" d="M 74.00 405.00 L 73.00 400.00 C 70.12 400.93 75.30 411.55 72.00 416.00 C 64.48 416.69 56.91 418.94 51.13 424.10 L 12.85 445.52 L 4.00 443.00 L 4.00 447.00 C 10.24 452.01 4.29 464.07 8.00 470.00 L 8.00 473.00 C 9.94 466.63 27.31 457.91 33.00 462.00 L 35.00 462.00 L 36.00 462.00 L 40.00 458.00 L 48.00 454.00 L 71.60 436.65 C 76.12 434.35 79.42 430.14 80.46 425.15 C 81.49 420.16 80.26 414.94 77.00 411.00 L 74.00 405.00 Z"/><path fill="#FC3218" d="M 505.00 532.00 L 506.00 535.00 L 513.00 535.00 C 513.27 535.14 524.72 545.23 525.00 546.00 L 523.00 548.00 C 517.03 548.57 511.63 544.70 510.00 539.00 L 507.00 540.00 C 506.74 538.61 493.73 530.89 491.00 529.00 C 494.04 525.08 501.56 531.78 505.00 532.00 Z M 541.00 534.00 L 504.06 519.07 L 468.73 500.44 C 451.46 491.85 437.31 478.53 425.00 464.00 L 421.00 464.00 C 423.28 465.77 418.28 467.12 416.90 467.82 C 425.45 473.17 452.33 492.24 456.00 502.00 L 491.00 536.00 L 500.00 544.00 L 508.00 551.00 L 509.00 552.00 L 515.00 556.00 C 525.08 550.51 533.78 542.87 541.00 534.00 Z"/><path fill="#45AFF6" d="M 297.00 340.00 L 272.00 338.00 L 259.00 343.00 C 252.51 347.26 248.74 354.41 248.00 362.00 C 247.62 367.62 249.00 373.23 252.00 378.00 L 261.42 385.43 C 265.89 387.91 266.95 384.37 271.08 384.06 L 292.59 382.64 C 302.20 381.32 310.28 374.90 314.00 366.00 L 301.00 375.00 L 290.00 379.00 C 285.28 380.22 280.16 379.70 276.00 377.00 L 274.00 373.00 C 277.38 376.07 282.13 374.56 285.00 372.00 C 281.77 370.83 282.21 364.31 280.00 365.00 L 279.60 361.74 C 283.50 352.00 294.19 347.47 304.00 350.00 C 309.37 349.97 315.00 352.56 317.00 358.00 L 316.00 354.00 C 311.54 347.27 304.98 341.96 297.00 340.00 Z M 267.00 370.00 L 262.00 364.00 C 260.49 362.38 259.63 360.19 259.98 357.95 C 260.33 355.72 261.55 353.63 263.57 352.50 L 265.76 364.20 C 267.13 366.81 274.93 371.97 271.00 375.00 L 267.00 370.00 Z"/><path fill="#372E28" d="M 220.00 474.00 L 219.00 474.00 L 196.00 483.00 L 192.96 492.05 L 196.55 495.31 C 199.04 503.74 196.73 512.46 193.00 520.00 L 194.00 523.00 C 192.34 522.69 188.85 525.25 189.00 527.00 L 179.69 526.79 L 176.00 530.00 L 177.00 533.00 L 181.00 530.00 C 183.06 535.71 188.99 539.71 195.23 538.02 L 197.52 540.36 C 197.68 537.11 197.88 534.75 202.00 536.00 C 203.07 530.81 205.81 525.90 210.46 523.06 C 209.75 518.06 212.79 513.14 217.83 511.95 L 221.00 514.00 L 222.00 511.00 L 225.00 512.00 C 224.90 509.32 225.44 509.32 227.47 507.70 C 230.40 510.33 231.21 510.25 235.10 509.63 L 233.00 516.00 L 240.00 504.00 C 238.45 501.04 234.71 503.90 232.02 498.61 C 236.12 497.71 237.33 496.30 240.20 493.20 C 236.82 491.87 234.24 491.04 234.00 487.00 L 224.00 481.00 C 223.03 482.90 228.24 488.55 229.44 490.71 L 224.00 494.00 L 221.44 491.73 L 220.24 496.13 C 214.47 493.92 212.41 487.46 214.00 482.00 L 217.00 483.00 C 215.10 477.85 222.53 481.79 224.00 481.00 L 220.00 474.00 Z"/><path fill="#4C423A" d="M 293.00 576.00 L 291.20 571.13 L 293.78 566.36 C 294.06 562.30 293.09 559.75 294.86 555.78 L 296.00 553.00 L 294.00 551.00 C 296.09 550.07 297.39 548.07 297.84 545.90 C 298.29 543.73 297.45 541.58 296.00 540.00 C 297.83 539.75 297.27 538.39 297.27 536.83 L 301.50 535.50 L 299.00 530.00 C 301.24 529.64 305.62 520.48 306.00 518.00 L 304.00 516.00 C 308.21 515.72 307.22 512.30 307.00 509.13 L 293.00 520.00 L 292.00 521.00 L 291.00 524.00 L 292.00 526.00 L 280.00 534.00 C 268.68 538.07 238.52 568.54 234.00 569.00 L 233.00 571.00 L 235.00 572.00 L 237.00 570.00 L 239.00 572.00 C 240.61 570.49 240.65 564.86 245.00 567.00 L 244.00 564.00 L 251.00 559.00 L 254.00 560.00 L 254.00 557.00 C 258.13 555.96 271.32 564.81 263.00 566.00 L 265.00 572.00 L 262.00 571.00 L 263.00 574.00 L 261.00 576.00 L 293.00 576.00 Z"/><path fill="#4C423A" d="M 225.00 540.00 C 221.92 540.00 221.05 539.86 220.00 537.00 L 233.00 516.00 L 235.10 509.63 C 231.21 510.25 230.40 510.33 227.47 507.70 C 225.44 509.32 224.90 509.32 225.00 512.00 L 222.00 511.00 L 221.00 514.00 L 217.83 511.95 C 212.79 513.14 209.75 518.06 210.46 523.06 C 205.81 525.90 203.07 530.81 202.00 536.00 C 197.88 534.75 197.68 537.11 197.52 540.36 L 195.23 538.02 C 188.99 539.71 183.06 535.71 181.00 530.00 L 177.00 533.00 L 177.00 534.00 L 179.00 533.00 C 178.89 534.33 192.87 554.83 194.00 555.00 L 193.00 558.00 C 194.63 558.81 197.36 562.71 195.00 564.00 L 197.00 566.00 C 194.49 565.78 195.03 570.26 197.00 571.00 L 195.00 576.00 L 222.00 576.00 L 222.00 567.00 L 220.00 565.00 C 221.81 564.12 218.14 558.46 222.00 559.00 L 217.42 558.41 L 219.00 554.00 L 221.00 556.00 C 220.04 550.58 215.22 553.32 215.00 552.00 C 214.48 548.39 217.40 548.05 219.00 546.00 C 218.25 544.22 217.37 541.89 220.00 541.00 L 224.00 542.00 L 225.00 540.00 Z"/><path fill="#FC3218" d="M 220.00 464.00 L 220.00 474.00 L 224.00 481.00 L 234.00 487.00 L 237.00 487.00 L 256.37 484.85 C 257.72 480.37 261.39 476.93 266.00 476.00 L 265.00 473.00 L 268.00 472.00 C 266.34 466.29 289.35 459.04 294.00 459.00 L 292.00 457.00 L 294.00 455.00 L 273.00 457.45 L 254.16 456.84 L 228.76 449.30 C 214.52 448.04 218.04 455.38 220.00 464.00 Z"/><path fill="#CF0401" d="M 201.00 434.00 L 200.00 434.00 L 196.00 438.00 L 199.00 439.00 L 197.00 441.00 C 195.70 444.77 197.08 448.71 199.57 451.56 C 204.31 455.42 210.26 457.52 216.39 457.36 C 209.94 473.41 195.63 458.43 192.00 460.00 L 192.00 461.00 L 199.00 466.00 L 216.00 466.00 C 216.42 463.54 218.06 463.84 220.00 464.00 C 218.04 455.38 214.52 448.04 228.76 449.30 L 254.16 456.84 L 273.00 457.45 L 294.00 455.00 L 292.00 457.00 L 294.00 459.00 C 289.35 459.04 266.34 466.29 268.00 472.00 L 265.00 473.00 L 266.00 476.00 C 261.39 476.93 257.72 480.37 256.37 484.85 L 237.00 487.00 C 237.09 489.86 245.98 488.48 248.00 489.00 L 281.00 477.00 L 305.00 465.00 L 305.61 462.58 L 322.57 457.46 L 355.00 452.00 L 355.29 449.62 L 312.00 451.00 L 280.00 455.00 L 262.00 456.39 C 257.17 457.10 252.60 454.96 249.00 452.00 L 233.00 448.00 C 221.36 446.09 210.13 441.64 201.00 434.00 Z"/><path fill="#1E7AC2" d="M 321.00 374.00 C 322.13 366.88 319.62 359.94 316.00 354.00 L 317.00 358.00 C 315.00 352.56 309.37 349.97 304.00 350.00 C 294.19 347.47 283.50 352.00 279.60 361.74 L 280.00 365.00 C 282.21 364.31 281.77 370.83 285.00 372.00 C 282.13 374.56 277.38 376.07 274.00 373.00 L 276.00 377.00 C 280.16 379.70 285.28 380.22 290.00 379.00 L 284.00 377.00 C 290.77 376.99 297.56 375.20 303.00 371.00 L 301.00 375.00 L 314.00 366.00 C 310.28 374.90 302.20 381.32 292.59 382.64 L 271.08 384.06 C 266.95 384.37 265.89 387.91 261.42 385.43 L 252.00 378.00 L 256.00 385.00 L 266.00 391.00 L 280.00 395.00 L 294.00 395.00 L 302.00 393.00 L 315.00 384.00 L 321.00 374.00 Z"/><path fill="#635344" d="M 415.00 188.00 C 409.30 189.86 404.05 185.92 402.00 181.00 L 399.00 184.00 C 399.81 189.82 412.65 193.91 417.65 197.35 L 431.03 211.23 L 442.77 230.24 C 461.55 254.69 474.69 282.98 481.19 313.12 C 487.56 334.92 488.13 358.24 481.00 380.00 C 477.75 382.05 472.95 393.14 473.00 397.00 L 476.00 400.00 C 481.50 392.83 485.27 384.56 488.00 376.00 L 486.00 376.00 L 489.65 351.05 L 489.53 326.01 L 486.30 309.15 L 478.97 286.63 L 471.06 268.34 C 467.06 252.39 443.82 231.60 446.10 214.60 L 440.00 209.00 L 446.00 211.00 L 444.00 208.00 L 440.00 204.00 L 415.00 188.00 Z"/><path fill="#0F0C0A" d="M 172.00 527.00 L 176.80 527.22 C 184.04 518.49 187.72 507.33 187.00 496.00 L 180.35 498.14 C 172.88 496.41 165.10 497.24 158.00 500.00 C 157.48 495.34 151.05 499.59 147.77 499.40 L 128.29 496.68 L 117.24 497.82 C 116.07 495.85 114.29 494.12 111.93 493.68 C 109.57 493.24 106.98 493.45 105.00 495.00 L 103.99 499.81 L 129.18 510.81 C 134.38 516.46 142.01 520.10 149.90 518.46 L 172.00 527.00 Z"/><path fill="#372E28" d="M 108.00 442.00 L 106.00 438.00 L 102.00 440.00 C 100.96 444.94 103.90 449.93 108.85 451.21 L 118.88 460.58 L 116.00 466.00 L 113.00 465.00 C 112.33 467.00 112.55 466.65 109.55 467.98 L 114.69 475.80 L 131.63 484.00 L 144.73 486.38 C 156.67 490.75 169.87 490.63 181.59 485.52 C 182.92 481.88 181.43 478.00 178.55 475.66 L 182.00 470.00 C 185.88 468.56 189.57 465.51 190.00 461.00 L 186.00 458.00 L 186.00 463.00 C 166.74 474.26 142.63 472.57 125.00 459.00 C 118.48 456.34 112.44 452.50 107.66 447.26 C 110.53 448.55 109.60 448.76 111.00 447.00 L 107.00 444.00 L 108.00 442.00 Z"/><path fill="#FC3218" d="M 128.00 347.00 C 127.31 345.04 126.59 341.21 124.00 342.00 L 82.00 364.00 L 82.00 365.00 L 82.00 369.00 C 84.08 368.98 84.82 373.54 84.00 375.00 L 83.00 385.00 L 83.00 388.00 L 86.00 388.00 L 89.00 388.00 L 90.00 387.00 L 95.00 385.00 L 106.35 383.88 C 116.51 375.80 131.48 375.95 130.00 360.00 L 130.00 359.00 C 127.21 356.42 126.75 352.39 128.00 349.00 L 128.00 347.00 Z"/><path fill="#0F0C0A" d="M 270.00 268.00 L 265.00 268.00 C 272.81 271.87 281.19 274.85 290.01 275.32 L 314.22 277.77 C 326.74 276.89 338.74 272.82 349.67 266.80 L 358.62 257.58 C 360.37 254.94 361.79 255.91 362.00 252.00 L 362.69 252.20 C 365.79 250.39 368.50 247.46 368.81 243.64 L 380.81 224.80 C 383.55 223.00 389.85 215.87 389.00 213.00 C 393.03 210.97 394.81 206.15 393.00 202.00 C 396.42 202.52 395.19 195.24 396.00 193.00 L 394.00 192.00 L 392.00 193.00 C 385.39 204.02 376.96 213.86 367.00 222.00 L 346.00 255.00 L 339.04 264.02 C 331.12 268.59 322.31 271.97 313.00 272.00 L 294.00 272.00 L 281.00 270.00 L 270.00 268.00 Z"/><path fill="#956F3F" d="M 136.00 367.00 C 138.83 367.76 139.35 364.55 139.55 362.37 L 136.24 334.91 L 136.59 312.69 L 144.03 277.43 L 153.32 253.36 L 167.83 226.84 L 179.98 211.98 L 205.43 191.43 C 211.68 188.24 216.55 183.02 220.00 177.00 L 215.00 179.00 L 206.56 186.56 L 186.30 200.30 L 170.42 215.42 L 155.81 234.81 L 142.71 260.71 L 134.80 285.80 L 131.01 306.01 L 131.27 328.73 C 133.83 339.31 133.83 350.24 133.00 361.00 L 136.00 367.00 Z"/><path fill="#956F3F" d="M 576.00 179.00 L 576.00 175.00 L 574.00 173.00 C 566.94 176.78 558.73 177.76 550.97 175.80 L 548.00 169.00 L 549.25 176.16 C 549.17 182.60 548.93 201.41 540.13 185.91 L 533.00 190.00 C 535.15 196.11 534.69 202.83 531.74 208.60 L 526.00 219.00 C 528.67 220.66 569.40 205.81 576.00 204.00 L 576.00 182.00 L 560.02 187.30 C 558.29 189.13 555.40 189.30 553.53 187.56 C 551.66 185.82 551.46 182.88 553.20 180.97 C 560.46 178.09 568.38 177.70 576.00 179.00 Z"/><path fill="#4C423A" d="M 297.00 116.00 L 292.00 115.00 C 288.86 113.70 285.29 113.52 282.13 114.91 C 278.96 116.29 276.32 118.79 275.12 122.09 L 271.28 133.47 C 266.87 133.59 262.58 131.65 260.00 128.00 L 252.00 129.00 L 251.00 129.00 L 251.00 131.00 L 254.00 131.00 L 255.00 134.00 L 258.00 133.00 L 267.21 141.71 C 268.89 144.00 273.20 154.55 276.00 154.00 C 275.51 156.12 275.78 164.62 278.00 166.00 L 276.00 169.00 C 274.37 166.92 273.00 170.63 273.00 172.00 L 270.00 171.00 L 263.00 183.00 L 263.00 185.00 C 265.22 185.01 267.11 186.56 267.59 188.72 C 268.08 190.87 266.99 193.06 265.00 194.00 L 267.00 197.00 L 278.00 182.00 L 276.00 177.00 C 283.05 170.51 279.23 165.04 291.00 166.00 L 291.00 169.00 L 296.00 166.00 L 286.45 159.56 C 280.25 154.40 276.47 146.72 276.88 138.55 L 279.67 121.49 C 282.25 118.52 285.82 116.36 289.85 116.18 C 293.89 116.00 298.01 117.13 301.00 120.00 L 307.15 116.34 C 311.18 119.11 316.24 119.12 320.72 117.90 C 321.71 110.30 325.89 103.69 331.26 98.47 C 334.11 101.30 338.15 102.22 342.00 102.00 C 341.00 104.16 346.82 109.56 348.38 111.57 L 354.36 121.68 C 355.23 129.27 361.28 134.62 368.00 137.00 L 368.00 135.00 C 358.35 125.38 350.47 113.97 346.00 101.00 C 343.97 101.98 334.38 91.67 324.44 95.60 C 320.46 99.13 317.65 104.01 317.50 109.46 C 315.88 112.06 309.07 109.40 306.36 109.76 L 300.00 115.00 L 297.00 116.00 Z"/><path fill="#372E28" d="M 368.00 142.00 L 368.00 137.00 C 361.28 134.62 355.23 129.27 354.36 121.68 L 348.38 111.57 C 346.82 109.56 341.00 104.16 342.00 102.00 C 338.15 102.22 334.11 101.30 331.26 98.47 C 325.89 103.69 321.71 110.30 320.72 117.90 C 316.24 119.12 311.18 119.11 307.15 116.34 L 301.00 120.00 C 298.01 117.13 293.89 116.00 289.85 116.18 C 285.82 116.36 282.25 118.52 279.67 121.49 L 276.88 138.55 C 276.47 146.72 280.25 154.40 286.45 159.56 L 296.00 166.00 L 302.00 168.00 L 306.00 169.00 L 307.00 166.00 L 303.00 166.00 L 303.00 162.00 L 296.80 160.53 C 294.81 158.80 288.10 151.99 286.00 153.00 C 287.23 151.43 282.98 141.74 282.63 138.68 L 283.00 122.00 C 286.38 124.24 290.65 122.94 293.00 120.00 C 297.33 123.62 303.17 125.12 308.67 123.49 C 312.44 124.88 312.09 129.21 316.00 128.00 C 317.87 131.98 322.44 134.95 327.00 133.00 L 327.00 135.00 C 328.77 134.90 327.62 132.95 327.31 131.56 C 331.33 125.88 333.59 119.02 333.00 112.00 L 335.00 112.00 L 336.00 108.00 L 336.70 110.94 C 338.79 110.70 339.34 111.02 340.00 109.00 L 343.00 115.00 L 344.00 113.00 C 346.08 114.48 343.91 115.70 347.00 116.00 L 346.00 119.00 C 350.23 119.98 353.62 123.59 353.51 128.14 L 359.00 140.00 C 361.58 140.67 364.78 141.94 367.00 140.00 L 368.00 142.00 Z"/><path fill="#0F0C0A" d="M 248.00 489.00 L 243.00 491.00 L 256.00 494.61 L 278.00 490.00 L 278.00 488.00 L 289.00 485.00 L 291.00 487.00 L 296.00 485.00 L 297.00 482.00 C 299.48 484.28 310.19 477.38 315.76 478.78 L 402.55 474.83 L 394.00 470.00 L 378.00 467.76 L 351.28 468.38 L 281.00 477.00 L 248.00 489.00 Z"/><path fill="#4C423A" d="M 473.00 397.00 C 472.95 393.14 477.75 382.05 481.00 380.00 C 488.13 358.24 487.56 334.92 481.19 313.12 C 474.69 282.98 461.55 254.69 442.77 230.24 L 431.03 211.23 L 417.65 197.35 C 412.65 193.91 399.81 189.82 399.00 184.00 L 397.00 187.00 C 399.38 190.57 403.12 193.14 407.46 193.58 L 420.75 205.27 L 427.38 217.72 C 430.40 225.08 434.56 232.03 440.38 237.56 C 451.30 251.47 459.55 267.18 466.48 283.36 L 476.40 318.51 L 478.50 333.31 C 480.32 340.89 481.36 348.10 480.00 356.00 C 480.77 366.88 479.20 378.07 473.57 387.65 L 466.00 403.00 C 468.51 402.62 471.87 399.39 473.00 397.00 Z"/><path fill="#CF0401" d="M 525.00 168.00 L 519.00 160.00 L 520.74 164.13 C 521.03 167.73 514.54 169.35 514.00 173.00 L 512.00 171.00 C 507.46 177.73 459.59 195.34 447.92 201.92 L 440.00 204.00 L 444.00 208.00 C 447.62 211.71 453.30 212.44 457.77 209.84 L 523.07 183.14 C 526.10 178.83 527.66 173.03 525.00 168.00 Z"/><path fill="#956F3F" d="M 459.00 225.00 L 446.00 211.00 L 440.00 209.00 L 446.10 214.60 C 443.82 231.60 467.06 252.39 471.06 268.34 L 478.97 286.63 L 486.30 309.15 L 489.53 326.01 L 489.65 351.05 L 486.00 376.00 L 488.00 376.00 L 494.00 355.00 L 494.92 340.00 L 489.74 306.77 L 476.52 267.46 L 469.74 254.95 C 467.99 247.74 460.87 238.84 463.00 232.00 L 459.00 225.00 Z"/><path fill="#0F0C0A" d="M 48.00 454.00 C 47.57 457.02 57.41 458.39 59.85 459.76 L 73.06 457.86 L 81.90 451.16 L 98.00 447.00 C 97.15 443.44 97.90 439.37 101.00 437.00 L 98.00 439.00 L 94.86 437.93 L 78.61 447.16 L 74.84 447.63 L 85.00 427.00 L 88.00 428.00 C 92.78 426.11 98.35 425.59 103.07 428.20 C 107.62 427.62 111.87 425.28 114.40 421.35 C 116.92 417.42 117.87 412.57 116.45 408.03 L 115.00 401.00 L 112.00 400.00 C 111.69 408.05 118.65 409.97 108.00 414.95 L 92.11 415.38 L 77.00 411.00 C 80.26 414.94 81.49 420.16 80.46 425.15 C 79.42 430.14 76.12 434.35 71.60 436.65 L 48.00 454.00 Z"/><path fill="#956F3F" d="M 360.00 222.00 C 361.94 221.19 362.73 219.11 362.83 217.21 C 362.93 215.31 361.51 213.88 360.01 213.06 L 352.82 216.07 L 329.04 242.04 L 313.16 256.16 L 295.00 266.00 L 296.00 269.00 L 281.00 270.00 L 294.00 272.00 L 313.00 272.00 C 322.31 271.97 331.12 268.59 339.04 264.02 L 346.00 255.00 L 344.00 254.00 C 343.86 255.56 339.24 259.02 337.00 260.00 C 336.36 263.97 332.96 266.83 329.00 267.00 C 329.67 263.01 333.16 260.36 337.00 260.00 L 343.00 248.00 C 339.26 247.27 331.67 266.68 323.00 264.00 L 336.31 247.31 C 342.62 242.47 348.03 236.33 351.00 228.84 L 358.00 217.00 L 361.00 218.00 L 360.00 222.00 Z"/><path fill="#CF0401" d="M 288.00 209.00 L 287.00 209.00 L 285.00 211.00 C 288.00 209.08 291.69 209.10 294.95 210.13 C 298.21 211.15 300.44 213.89 301.69 216.91 L 296.00 223.00 C 291.50 224.85 287.44 228.46 286.65 233.59 L 278.11 238.37 C 274.91 236.23 272.48 232.95 271.96 229.04 C 271.45 225.12 272.34 221.04 275.00 218.00 L 273.00 219.00 L 271.00 225.00 C 269.10 233.20 271.87 242.08 279.00 247.00 L 292.16 250.75 C 298.78 252.05 305.45 249.64 310.11 244.90 C 314.76 240.17 316.37 233.38 315.00 227.00 C 311.39 226.42 305.68 205.19 288.00 209.00 Z"/><path fill="#372E28" d="M 317.00 182.00 L 321.00 183.00 L 320.00 186.00 C 322.99 188.88 322.32 191.85 324.00 195.00 L 329.00 193.00 L 331.00 195.00 C 338.41 190.88 355.46 170.11 348.00 162.00 L 345.00 163.00 C 344.97 161.10 344.15 159.24 342.56 158.11 C 340.97 156.99 338.94 156.54 337.05 157.17 C 335.67 155.50 333.27 151.11 331.00 152.00 L 330.00 155.00 C 328.81 152.76 326.21 151.57 323.75 152.35 C 321.28 153.12 319.62 155.50 319.93 158.11 C 320.25 160.73 322.33 162.83 325.00 163.00 L 321.00 170.00 L 318.00 169.00 L 318.49 171.37 L 314.70 170.46 C 313.43 168.91 312.20 166.19 310.00 167.00 C 309.74 168.41 311.53 174.09 313.00 174.00 L 311.00 175.00 C 311.72 177.75 314.36 181.12 317.00 182.00 Z"/><path fill="#221D19" d="M 450.00 576.00 L 460.00 573.00 C 457.41 568.36 467.41 554.79 457.35 543.65 L 447.76 536.58 L 440.70 541.69 C 431.70 551.57 425.39 563.47 421.00 576.00 L 440.00 576.00 L 439.00 574.00 L 442.32 573.64 C 441.61 568.17 444.99 566.30 443.90 561.05 L 449.00 560.00 L 448.00 557.00 C 450.90 558.99 453.41 561.94 453.63 565.66 C 453.85 569.39 452.97 573.40 450.00 576.00 Z"/><path fill="#D69514" d="M 576.00 175.00 L 576.00 152.00 L 572.30 149.97 L 569.00 154.00 L 571.00 156.00 L 564.00 160.00 L 562.00 158.00 L 560.00 160.00 L 542.00 156.00 L 544.00 167.00 C 541.15 170.72 529.12 161.66 529.00 175.00 L 533.00 190.00 L 540.13 185.91 C 548.93 201.41 549.17 182.60 549.25 176.16 L 548.00 169.00 L 550.97 175.80 C 558.73 177.76 566.94 176.78 574.00 173.00 L 576.00 175.00 Z"/><path fill="#4C423A" d="M 413.00 576.00 L 411.00 574.00 C 419.31 563.72 426.02 552.02 429.00 539.00 L 428.00 536.00 L 430.00 534.00 L 426.00 529.00 L 425.00 532.00 C 420.79 531.44 416.39 532.27 413.00 535.00 L 406.00 538.00 C 402.23 539.88 401.20 544.29 402.00 548.00 C 399.38 548.36 400.22 549.32 401.00 551.00 C 397.82 550.54 396.97 556.92 396.45 559.17 C 389.49 561.53 385.78 569.03 388.00 576.00 L 392.00 576.00 L 392.18 568.50 C 395.77 565.28 400.85 565.51 405.00 567.00 C 402.18 569.04 400.92 572.66 402.00 576.00 L 413.00 576.00 Z"/><path fill="#0F0C0A" d="M 237.00 304.00 L 232.00 298.00 C 232.15 296.17 231.71 294.21 230.30 292.90 C 228.88 291.59 226.99 290.69 225.00 291.00 L 223.00 292.00 C 221.09 296.60 215.32 296.13 214.00 300.00 C 211.53 299.40 209.17 297.22 207.00 300.00 L 208.40 303.76 L 206.00 305.00 C 208.63 306.85 206.84 311.40 207.00 314.00 L 207.00 316.00 L 207.00 322.00 C 209.20 322.47 209.53 326.12 209.00 328.00 L 213.86 334.47 L 216.00 332.00 C 226.83 337.17 235.42 309.11 238.00 309.00 L 238.00 306.00 L 237.00 304.00 Z"/><path fill="#CF0401" d="M 86.00 388.00 L 83.00 388.00 L 83.00 385.00 L 73.78 391.00 C 69.52 392.16 67.69 387.91 64.00 387.00 L 62.00 393.00 L 63.00 394.00 L 65.76 390.72 L 73.33 395.06 C 73.74 399.72 72.00 404.30 68.66 407.56 C 65.32 410.82 60.68 412.37 56.05 411.85 L 52.00 410.00 L 50.00 412.00 L 54.00 412.00 L 38.80 418.31 L 16.68 432.60 L 16.00 435.00 C 12.45 433.44 4.77 437.30 0.00 437.00 L 2.00 443.00 L 4.00 443.00 L 12.85 445.52 L 51.13 424.10 C 56.91 418.94 64.48 416.69 72.00 416.00 C 75.30 411.55 70.12 400.93 73.00 400.00 L 79.00 395.00 L 86.00 388.00 Z"/><path fill="#FC3218" d="M 6.00 407.00 L 0.00 407.00 L 0.00 437.00 C 4.77 437.30 12.45 433.44 16.00 435.00 L 16.68 432.60 L 38.80 418.31 L 54.00 412.00 L 50.00 412.00 L 52.00 410.00 L 46.00 409.00 C 41.69 406.91 35.66 415.27 29.00 414.00 L 25.00 412.00 L 6.00 407.00 Z"/><path fill="#900301" d="M 133.00 361.00 L 131.00 358.00 L 130.00 359.00 L 130.00 360.00 C 133.63 366.16 134.07 373.97 130.05 380.14 C 126.03 386.31 119.01 390.29 111.47 389.41 L 95.00 385.00 L 90.00 387.00 L 98.00 388.00 L 102.00 389.00 L 111.00 394.00 C 112.63 395.70 116.14 398.50 115.00 401.00 L 116.00 401.00 C 117.86 404.42 122.77 404.87 126.18 405.23 L 119.00 412.00 L 117.00 421.00 L 120.00 419.00 L 121.32 413.33 L 147.30 399.32 L 154.00 400.00 C 157.71 389.80 138.82 402.36 137.00 400.00 C 137.80 394.75 147.37 391.90 143.00 385.00 L 142.00 383.00 L 136.00 370.00 L 136.00 367.00 L 133.00 361.00 Z"/><path fill="#C2BBAE" d="M 469.00 236.00 L 459.00 225.00 L 463.00 232.00 C 460.87 238.84 467.99 247.74 469.74 254.95 L 476.52 267.46 L 489.74 306.77 L 494.92 340.00 L 494.00 355.00 L 497.11 338.00 L 497.52 314.56 L 493.70 289.37 L 485.40 265.63 L 470.70 238.20 L 471.00 236.00 L 469.00 236.00 Z"/><path fill="#CF0401" d="M 425.00 464.00 C 422.76 459.09 418.73 455.24 413.82 453.05 C 411.97 452.19 405.35 451.35 406.00 449.00 C 400.47 450.17 407.91 455.40 409.00 456.00 C 408.32 457.76 410.30 460.35 408.00 461.00 L 410.00 463.00 C 390.39 456.40 369.19 455.90 349.36 461.95 L 351.54 464.47 L 385.99 465.97 L 412.53 471.49 L 428.13 479.92 L 456.00 502.00 C 452.33 492.24 425.45 473.17 416.90 467.82 C 418.28 467.12 423.28 465.77 421.00 464.00 L 425.00 464.00 Z"/><path fill="#956F3F" d="M 76.00 361.00 C 71.46 357.66 65.72 355.64 60.00 357.00 L 53.00 361.00 C 52.57 363.82 48.82 367.57 46.00 368.00 L 39.00 369.00 L 27.00 372.00 C 24.80 375.86 21.13 378.55 17.00 380.00 C 14.68 381.81 4.14 389.83 4.00 392.00 L 0.00 391.00 L 0.00 398.00 C 5.59 397.09 13.17 395.37 18.00 396.00 L 17.00 393.00 L 23.77 391.54 L 24.00 387.00 C 20.79 387.25 20.44 386.39 18.37 384.04 L 29.21 382.94 L 42.80 371.85 C 53.73 371.17 64.07 367.10 73.07 361.02 L 76.00 361.00 Z"/><path fill="#4C423A" d="M 159.00 331.00 C 154.92 321.22 153.43 310.51 155.00 300.00 C 151.81 300.94 152.21 310.40 152.00 314.00 L 151.00 309.00 L 146.00 320.00 L 148.00 322.00 C 146.25 324.88 143.36 325.22 143.33 329.57 L 144.38 357.64 L 143.00 372.00 L 138.00 371.00 C 138.93 374.84 142.33 377.30 146.00 378.00 C 146.20 379.08 147.89 381.54 149.00 380.00 L 147.00 378.00 C 148.37 377.37 150.21 358.60 153.00 355.00 C 150.50 354.08 151.25 350.69 154.00 352.00 C 154.99 349.65 156.91 347.18 155.00 345.00 C 158.28 345.38 155.06 330.88 154.65 328.06 C 155.99 330.60 156.06 331.10 159.00 331.00 Z"/><path fill="#FCD551" d="M 125.00 340.00 L 126.54 338.36 L 128.74 290.74 L 134.63 268.63 C 144.64 238.49 163.50 212.00 189.00 193.00 C 139.23 223.89 113.33 282.36 125.00 340.00 Z"/><path fill="#635344" d="M 79.00 364.00 L 76.00 361.00 L 73.07 361.02 C 64.07 367.10 53.73 371.17 42.80 371.85 L 29.21 382.94 L 18.37 384.04 C 20.44 386.39 20.79 387.25 24.00 387.00 L 23.77 391.54 L 17.00 393.00 L 18.00 396.00 C 13.17 395.37 5.59 397.09 0.00 398.00 L 0.00 403.00 C 1.88 403.29 7.77 401.85 8.00 405.00 C 12.99 399.40 25.87 407.38 30.06 391.51 L 26.00 387.00 C 29.17 386.70 42.66 390.95 44.69 387.78 L 45.93 382.83 L 49.00 380.00 L 47.40 373.42 C 49.75 373.08 53.67 372.27 55.00 375.00 L 58.00 373.00 C 64.70 372.60 71.43 369.92 75.45 364.20 L 79.00 364.00 Z"/><path fill="#900301" d="M 176.00 530.00 L 172.00 527.00 L 166.00 528.00 L 170.13 532.01 C 161.43 545.22 155.68 560.22 154.00 576.00 L 170.00 576.00 L 172.00 556.00 C 171.99 550.09 173.44 544.30 176.00 539.00 L 177.00 534.00 L 177.00 533.00 L 176.00 530.00 Z"/><path fill="#4C423A" d="M 402.00 505.00 L 392.49 496.29 L 372.22 488.21 C 366.74 487.84 361.47 490.48 358.59 495.18 C 366.72 504.74 378.87 509.17 391.00 510.00 C 392.46 511.83 394.67 513.27 397.17 512.94 C 399.66 512.60 402.18 511.35 403.25 508.88 L 402.00 505.00 Z"/><path fill="#FC3218" d="M 192.00 460.00 C 195.63 458.43 209.94 473.41 216.39 457.36 C 210.26 457.52 204.31 455.42 199.57 451.56 C 197.08 448.71 195.70 444.77 197.00 441.00 L 199.00 439.00 L 196.00 438.00 C 185.62 441.25 176.06 446.69 168.00 454.00 C 171.11 455.08 173.58 454.44 177.00 455.00 C 178.51 453.38 180.72 452.77 182.85 452.91 C 184.99 453.04 186.79 454.32 188.00 456.00 L 192.00 460.00 Z"/><path fill="#D69514" d="M 133.00 361.00 C 133.83 350.24 133.83 339.31 131.27 328.73 L 131.01 306.01 L 134.80 285.80 L 142.71 260.71 L 155.81 234.81 L 170.42 215.42 L 186.30 200.30 L 206.56 186.56 L 215.00 179.00 L 210.00 181.00 L 179.75 202.75 L 162.84 220.84 L 150.00 240.00 L 138.15 266.15 L 131.27 289.27 L 128.68 310.54 L 129.15 326.85 C 131.13 330.84 130.16 335.40 128.00 339.00 L 130.00 346.00 L 128.00 347.00 L 128.00 349.00 L 131.00 358.00 L 133.00 361.00 Z"/><path fill="#221D19" d="M 207.00 274.00 L 205.00 273.00 C 197.35 275.03 190.70 279.98 186.99 287.06 L 180.75 299.24 L 179.49 315.00 C 177.88 326.08 184.16 336.14 193.00 342.00 L 191.00 336.00 C 188.56 335.07 186.17 329.35 187.00 327.00 L 185.00 323.00 C 181.55 318.33 183.03 295.84 189.00 293.00 L 193.00 286.00 L 203.00 277.00 L 211.00 280.00 C 217.24 281.01 222.57 285.14 225.00 291.00 C 226.99 290.69 228.88 291.59 230.30 292.90 C 231.71 294.21 232.15 296.17 232.00 298.00 L 237.00 304.00 C 233.76 289.10 222.40 276.74 207.00 274.00 Z"/><path fill="#900301" d="M 360.00 207.00 L 362.00 209.00 C 364.13 208.90 367.10 211.87 367.00 214.00 C 379.75 200.16 390.70 184.65 398.46 167.43 C 401.60 162.16 402.28 155.96 402.00 150.00 C 393.75 167.83 383.24 184.54 370.43 199.46 L 360.00 207.00 Z"/><path fill="#FCD551" d="M 371.00 358.00 C 367.47 358.31 364.24 356.48 362.20 353.73 C 360.16 350.98 360.05 347.38 361.29 344.32 C 366.45 340.47 372.06 355.76 371.00 358.00 Z M 378.00 337.00 L 375.00 334.00 C 369.96 331.94 364.44 333.66 360.68 337.25 C 356.93 340.85 356.32 346.34 358.00 351.00 C 360.57 356.12 364.40 360.91 370.00 363.00 C 380.57 366.43 391.95 363.37 400.00 356.00 L 396.00 354.00 C 390.91 357.52 384.43 357.25 379.00 355.00 L 376.00 354.00 C 373.09 353.33 371.02 350.67 371.28 347.65 C 371.54 344.63 373.93 342.17 377.00 342.00 L 378.00 337.00 Z"/><path fill="#221D19" d="M 198.00 291.00 C 199.57 291.30 200.84 292.60 200.89 294.25 C 200.93 295.91 199.90 297.47 198.24 297.88 C 196.58 298.29 194.78 297.58 194.00 296.00 L 192.00 299.00 C 189.75 294.51 197.21 294.48 198.00 291.00 Z M 223.00 292.00 L 215.00 295.00 C 210.80 293.77 207.92 290.15 207.00 286.00 L 205.00 285.00 C 205.56 286.63 196.75 287.30 194.00 290.00 L 190.00 293.00 L 185.87 302.12 L 186.76 312.55 L 193.74 307.71 C 195.81 306.21 198.47 306.41 200.73 307.12 C 202.99 307.83 204.28 309.94 205.00 312.00 L 205.00 314.00 L 207.00 314.00 C 206.84 311.40 208.63 306.85 206.00 305.00 L 208.40 303.76 L 207.00 300.00 C 209.17 297.22 211.53 299.40 214.00 300.00 C 215.32 296.13 221.09 296.60 223.00 292.00 Z"/><path fill="#C2BBAE" d="M 280.00 534.00 C 282.19 529.80 285.29 525.68 290.00 524.00 C 288.30 523.13 284.21 524.86 284.00 527.00 L 282.00 525.00 C 264.76 533.85 248.72 545.20 236.00 560.00 L 237.00 563.00 L 234.00 564.00 L 234.00 569.00 C 238.52 568.54 268.68 538.07 280.00 534.00 Z"/><path fill="#372E28" d="M 263.00 183.00 L 270.00 171.00 L 273.00 172.00 C 273.00 170.63 274.37 166.92 276.00 169.00 L 278.00 166.00 C 275.78 164.62 275.51 156.12 276.00 154.00 C 273.20 154.55 268.89 144.00 267.21 141.71 L 258.00 133.00 L 255.00 134.00 L 254.00 131.00 L 251.00 131.00 C 249.73 133.69 250.29 135.90 251.00 139.00 L 252.00 136.00 L 253.08 139.05 C 259.94 140.93 263.42 154.81 267.00 154.00 L 267.00 160.00 L 270.00 161.00 C 267.18 162.56 266.88 164.25 265.47 166.49 L 261.00 169.00 L 262.00 172.00 L 260.00 172.00 L 263.00 183.00 Z"/><path fill="#221D19" d="M 115.00 401.00 C 116.14 398.50 112.63 395.70 111.00 394.00 L 108.00 393.00 C 100.75 396.86 95.15 403.03 91.00 410.00 C 84.80 411.53 78.51 409.24 74.00 405.00 L 77.00 411.00 L 92.11 415.38 L 108.00 414.95 C 118.65 409.97 111.69 408.05 112.00 400.00 L 115.00 401.00 Z"/><path fill="#221D19" d="M 84.00 375.00 C 84.82 373.54 84.08 368.98 82.00 369.00 L 80.00 368.00 C 80.11 374.71 69.95 376.05 66.00 380.00 L 54.00 377.00 C 58.51 381.96 58.31 389.65 53.40 394.28 C 48.49 398.91 40.75 398.85 36.00 394.00 L 34.13 402.03 C 29.54 403.60 26.59 407.68 25.00 412.00 L 29.00 414.00 C 29.75 408.90 40.02 405.87 39.00 401.00 C 47.50 403.15 56.82 400.39 62.00 393.00 L 64.00 387.00 C 65.05 384.29 60.96 385.00 60.00 383.00 L 71.62 382.65 L 84.00 375.00 Z"/><path fill="#FCD551" d="M 197.00 320.00 L 194.51 330.45 C 192.12 330.59 189.90 329.21 188.99 326.99 C 188.09 324.77 188.68 322.22 190.49 320.64 C 192.30 319.06 194.92 318.79 197.00 320.00 Z M 207.00 322.00 L 207.00 316.00 C 197.85 316.07 186.16 315.10 187.00 327.00 C 186.17 329.35 188.56 335.07 191.00 336.00 C 195.01 336.28 197.83 339.48 199.00 343.00 C 205.42 348.21 214.89 349.03 221.49 343.37 L 224.00 343.00 L 225.00 339.00 C 219.21 342.28 212.34 342.93 206.00 341.00 L 204.00 336.00 C 200.77 335.11 200.79 331.57 201.00 329.00 C 193.22 328.08 202.64 322.87 207.00 323.00 L 207.00 322.00 Z"/><path fill="#C2BBAE" d="M 128.00 347.00 L 130.00 346.00 L 128.00 339.00 C 130.16 335.40 131.13 330.84 129.15 326.85 L 128.68 310.54 L 131.27 289.27 L 138.15 266.15 L 150.00 240.00 L 162.84 220.84 L 179.75 202.75 L 210.00 181.00 C 202.19 183.35 194.87 187.27 189.00 193.00 C 163.50 212.00 144.64 238.49 134.63 268.63 L 128.74 290.74 L 126.54 338.36 L 125.00 340.00 L 124.00 342.00 C 126.59 341.21 127.31 345.04 128.00 347.00 Z"/><path fill="#635344" d="M 261.00 576.00 L 263.00 574.00 L 262.00 571.00 L 265.00 572.00 L 263.00 566.00 C 271.32 564.81 258.13 555.96 254.00 557.00 L 254.00 560.00 L 251.00 559.00 L 244.00 564.00 L 245.00 567.00 C 240.65 564.86 240.61 570.49 239.00 572.00 L 237.00 570.00 L 235.00 572.00 L 233.00 571.00 L 227.56 573.34 L 230.00 576.00 L 261.00 576.00 Z"/><path fill="#372E28" d="M 82.00 369.00 L 82.00 365.00 L 78.65 365.51 C 76.18 370.61 71.46 374.05 66.22 375.81 C 60.97 377.57 55.35 376.62 50.55 374.17 C 53.30 377.64 53.71 382.31 52.13 386.35 C 50.55 390.38 46.81 393.02 42.63 393.68 L 31.09 389.38 C 38.00 412.27 7.98 404.19 6.00 407.00 L 25.00 412.00 C 26.59 407.68 29.54 403.60 34.13 402.03 L 36.00 394.00 C 40.75 398.85 48.49 398.91 53.40 394.28 C 58.31 389.65 58.51 381.96 54.00 377.00 L 66.00 380.00 C 69.95 376.05 80.11 374.71 80.00 368.00 L 82.00 369.00 Z"/><path fill="#FC3218" d="M 296.00 213.00 C 295.72 217.65 283.61 230.58 280.00 219.80 C 280.98 216.78 282.87 213.81 286.04 212.64 C 289.22 211.47 292.94 211.12 296.00 213.00 Z M 273.00 219.00 L 275.00 218.00 C 272.34 221.04 271.45 225.12 271.96 229.04 C 272.48 232.95 274.91 236.23 278.11 238.37 L 286.65 233.59 C 287.44 228.46 291.50 224.85 296.00 223.00 L 301.69 216.91 C 300.44 213.89 298.21 211.15 294.95 210.13 C 291.69 209.10 288.00 209.08 285.00 211.00 L 287.00 209.00 C 280.88 209.63 275.63 213.49 273.00 219.00 Z"/><path fill="#635344" d="M 300.00 115.00 L 306.36 109.76 C 309.07 109.40 315.88 112.06 317.50 109.46 C 317.65 104.01 320.46 99.13 324.44 95.60 C 334.38 91.67 343.97 101.98 346.00 101.00 C 350.47 113.97 358.35 125.38 368.00 135.00 L 370.00 133.00 L 362.00 122.00 L 357.51 114.58 C 353.92 102.89 344.19 94.57 332.87 90.95 C 316.27 88.56 319.82 104.86 306.00 103.00 L 300.00 115.00 Z"/><path fill="#4C423A" d="M 82.00 364.00 L 79.00 364.00 L 75.45 364.20 C 71.43 369.92 64.70 372.60 58.00 373.00 L 55.00 375.00 C 53.67 372.27 49.75 373.08 47.40 373.42 L 49.00 380.00 L 45.93 382.83 L 44.69 387.78 C 42.66 390.95 29.17 386.70 26.00 387.00 L 30.06 391.51 C 25.87 407.38 12.99 399.40 8.00 405.00 C 7.77 401.85 1.88 403.29 0.00 403.00 L 0.00 407.00 L 6.00 407.00 C 7.98 404.19 38.00 412.27 31.09 389.38 L 42.63 393.68 C 46.81 393.02 50.55 390.38 52.13 386.35 C 53.71 382.31 53.30 377.64 50.55 374.17 C 55.35 376.62 60.97 377.57 66.22 375.81 C 71.46 374.05 76.18 370.61 78.65 365.51 L 82.00 365.00 L 82.00 364.00 Z"/><path fill="#900301" d="M 476.00 400.00 L 473.00 397.00 C 471.87 399.39 468.51 402.62 466.00 403.00 C 465.30 407.31 462.15 410.77 458.00 412.00 C 459.21 417.82 417.51 440.24 418.00 444.00 C 441.59 436.01 461.93 420.55 476.00 400.00 Z"/><path fill="#372E28" d="M 162.00 527.00 C 157.84 524.13 152.99 522.38 147.92 522.12 L 123.93 517.28 L 99.25 508.82 L 87.74 501.27 L 40.00 458.00 L 36.00 462.00 C 39.75 462.36 43.47 464.31 45.00 468.00 L 77.40 496.65 C 84.74 503.27 92.91 509.00 102.00 513.00 L 111.72 515.29 L 116.05 518.14 L 152.00 526.00 L 158.00 527.00 L 162.00 527.00 Z"/><path fill="#956F3F" d="M 131.00 453.00 L 126.00 452.00 L 125.00 454.00 C 129.79 458.77 135.73 462.36 142.41 463.74 L 159.94 464.89 C 167.66 465.15 174.40 460.77 179.00 455.00 L 177.00 455.00 C 173.58 454.44 171.11 455.08 168.00 454.00 L 164.00 456.00 C 157.48 457.90 150.52 458.02 144.00 456.00 L 143.00 456.00 L 131.00 453.00 Z"/><path fill="#221D19" d="M 351.00 337.00 L 351.00 333.00 L 356.00 326.00 C 354.47 324.75 353.88 322.67 354.54 320.80 C 355.20 318.93 356.96 317.67 358.95 317.66 C 360.94 317.65 362.72 318.88 363.41 320.75 C 364.09 322.62 363.53 324.72 362.00 326.00 C 365.30 326.69 370.20 325.46 372.00 329.00 L 373.00 331.00 L 375.00 331.00 C 380.68 324.61 369.95 322.22 370.00 317.00 C 368.59 317.63 366.67 318.38 366.00 316.00 L 364.00 318.00 C 363.03 312.69 363.26 307.07 365.72 302.13 C 354.24 309.64 347.97 323.36 351.00 337.00 Z"/><path fill="#C2BBAE" d="M 344.00 333.00 C 344.11 323.56 345.88 314.11 350.18 305.62 L 345.00 308.00 C 335.80 312.50 330.23 321.90 330.00 332.00 L 333.71 334.97 L 337.04 335.42 L 344.00 333.00 Z"/><path fill="#CF0401" d="M 95.00 385.00 L 111.47 389.41 C 119.01 390.29 126.03 386.31 130.05 380.14 C 134.07 373.97 133.63 366.16 130.00 360.00 C 131.48 375.95 116.51 375.80 106.35 383.88 L 95.00 385.00 Z"/><path fill="#956F3F" d="M 362.00 122.00 C 357.98 110.21 350.96 99.62 341.44 91.54 C 336.75 88.77 331.46 87.14 326.00 87.00 L 324.00 88.00 L 313.66 95.36 L 308.00 95.00 L 302.79 99.90 L 297.00 116.00 L 300.00 115.00 L 306.00 103.00 C 319.82 104.86 316.27 88.56 332.87 90.95 C 344.19 94.57 353.92 102.89 357.51 114.58 L 362.00 122.00 Z"/><path fill="#956F3F" d="M 437.00 499.00 L 433.00 498.00 L 430.00 499.00 L 451.35 522.67 C 458.07 527.09 462.81 533.75 466.00 541.00 L 466.00 537.00 C 469.39 525.96 437.27 502.49 437.00 499.00 Z"/><path fill="#635344" d="M 195.00 576.00 L 197.00 571.00 C 195.03 570.26 194.49 565.78 197.00 566.00 L 195.00 564.00 C 197.36 562.71 194.63 558.81 193.00 558.00 L 194.00 555.00 C 192.87 554.83 178.89 534.33 179.00 533.00 L 177.00 534.00 L 176.00 539.00 C 185.01 548.82 190.20 562.61 186.00 576.00 L 195.00 576.00 Z"/><path fill="#635344" d="M 227.00 357.00 L 229.00 360.00 L 231.00 358.00 L 231.63 361.31 L 234.00 363.00 L 234.00 365.00 L 236.70 362.49 L 241.00 364.00 L 237.70 361.99 C 240.08 360.01 241.31 357.78 244.00 359.00 L 246.79 344.10 L 245.00 340.00 L 249.00 341.00 L 249.00 338.00 L 247.00 336.00 L 249.00 334.00 C 246.76 333.15 246.94 331.08 247.00 329.00 L 250.00 330.00 L 248.00 327.00 C 250.39 325.17 249.25 320.44 249.04 317.86 L 246.00 326.00 L 245.00 316.00 C 246.41 326.06 244.35 336.34 239.00 345.00 L 241.00 346.00 C 239.48 346.41 238.79 348.93 240.00 350.00 C 235.32 350.10 235.73 356.02 231.00 357.00 L 230.00 355.00 C 228.46 354.22 226.39 355.10 227.00 357.00 Z"/><path fill="#956F3F" d="M 186.00 576.00 C 190.20 562.61 185.01 548.82 176.00 539.00 C 173.44 544.30 171.99 550.09 172.00 556.00 L 174.00 552.00 C 179.40 557.55 181.13 565.82 178.00 573.00 L 179.00 576.00 L 186.00 576.00 Z"/><path fill="#635344" d="M 232.00 543.00 L 224.00 542.00 L 220.00 541.00 C 217.37 541.89 218.25 544.22 219.00 546.00 C 217.40 548.05 214.48 548.39 215.00 552.00 C 215.22 553.32 220.04 550.58 221.00 556.00 L 219.00 554.00 L 217.42 558.41 L 222.00 559.00 C 218.14 558.46 221.81 564.12 220.00 565.00 L 222.00 567.00 L 222.00 576.00 L 224.00 576.00 L 232.00 543.00 Z"/><path fill="#221D19" d="M 260.00 172.00 L 262.00 172.00 L 261.00 169.00 L 265.47 166.49 C 266.88 164.25 267.18 162.56 270.00 161.00 L 267.00 160.00 L 267.00 154.00 C 263.42 154.81 259.94 140.93 253.08 139.05 L 252.00 136.00 L 251.00 139.00 L 260.00 172.00 Z"/><path fill="#635344" d="M 126.00 452.00 L 108.00 442.00 L 107.00 444.00 L 111.00 447.00 L 125.00 459.00 C 143.02 471.02 165.98 469.65 184.00 459.00 L 183.00 456.00 L 180.00 455.00 L 179.00 455.00 C 174.40 460.77 167.66 465.15 159.94 464.89 L 142.41 463.74 C 135.73 462.36 129.79 458.77 125.00 454.00 L 126.00 452.00 Z"/><path fill="#635344" d="M 430.00 493.00 L 426.00 492.00 L 419.45 489.41 C 430.81 506.05 443.43 522.00 458.79 535.21 L 468.00 550.00 C 468.82 545.55 467.81 541.05 466.00 537.00 L 466.00 541.00 C 462.81 533.75 458.07 527.09 451.35 522.67 L 430.00 499.00 L 433.00 498.00 L 430.00 493.00 Z"/><path fill="#CF0401" d="M 504.00 223.00 L 513.00 220.00 L 513.00 216.00 C 503.30 217.22 473.42 225.15 468.00 233.00 C 469.91 232.78 469.78 234.75 469.00 236.00 L 471.00 236.00 L 491.00 229.00 C 494.47 225.57 498.99 223.11 504.00 223.00 Z"/><path fill="#635344" d="M 355.00 230.00 L 360.00 222.00 L 361.00 218.00 L 358.00 217.00 L 351.00 228.84 C 348.03 236.33 342.62 242.47 336.31 247.31 L 323.00 264.00 C 331.67 266.68 339.26 247.27 343.00 248.00 C 345.00 240.88 349.24 234.61 355.00 230.00 Z"/><path fill="#4C423A" d="M 426.00 492.00 L 425.00 490.00 C 421.57 486.19 416.33 485.12 411.50 485.76 L 427.30 506.69 L 452.09 533.00 C 459.48 538.32 465.08 545.98 467.00 555.00 L 468.00 550.00 L 458.79 535.21 C 443.43 522.00 430.81 506.05 419.45 489.41 L 426.00 492.00 Z"/><path fill="#4C423A" d="M 191.00 428.00 L 192.00 426.00 L 189.00 425.00 C 181.61 414.95 172.09 406.30 160.30 401.65 L 160.00 399.00 L 155.00 400.00 L 155.00 402.00 L 169.46 415.65 L 179.20 422.06 C 183.74 422.36 185.21 428.27 191.00 428.00 Z"/><path fill="#FCD551" d="M 333.00 211.00 L 328.71 212.91 L 320.00 192.00 L 322.82 205.33 C 326.56 210.45 327.30 216.97 326.00 223.00 L 341.80 213.56 L 362.00 209.00 L 360.00 207.00 L 356.00 207.00 C 348.17 206.52 340.13 207.41 333.00 211.00 Z"/><path fill="#372E28" d="M 111.00 394.00 L 102.00 389.00 L 96.79 395.70 L 85.96 404.61 L 79.72 404.61 C 78.37 403.45 77.41 401.83 77.31 400.02 C 77.21 398.20 77.73 396.35 79.00 395.00 L 73.00 400.00 L 74.00 405.00 C 78.51 409.24 84.80 411.53 91.00 410.00 C 95.15 403.03 100.75 396.86 108.00 393.00 L 111.00 394.00 Z"/><path fill="#0F0C0A" d="M 63.00 394.00 L 62.00 393.00 C 56.82 400.39 47.50 403.15 39.00 401.00 C 40.02 405.87 29.75 408.90 29.00 414.00 C 35.66 415.27 41.69 406.91 46.00 409.00 L 57.00 406.00 C 60.69 403.06 62.60 398.58 63.00 394.00 Z"/><path fill="#221D19" d="M 403.00 337.00 C 399.87 337.31 397.88 343.04 395.00 341.00 C 392.51 343.28 389.05 344.60 385.64 343.70 C 382.22 342.80 379.13 340.50 378.00 337.00 L 377.00 342.00 L 376.00 354.00 L 379.00 355.00 L 380.00 355.00 C 380.64 351.54 385.29 352.68 387.83 352.15 L 398.00 346.00 L 403.00 340.00 L 403.00 337.00 Z"/><path fill="#956F3F" d="M 35.00 462.00 L 33.00 462.00 L 33.00 464.00 C 45.02 478.59 58.37 492.21 74.00 503.00 L 75.00 499.00 L 48.77 476.12 L 35.00 462.00 Z"/><path fill="#635344" d="M 36.00 462.00 L 35.00 462.00 L 48.77 476.12 L 75.00 499.00 L 74.00 503.00 C 78.83 507.40 84.85 510.09 91.00 512.00 L 85.00 507.00 L 87.00 506.00 C 71.92 494.58 58.05 481.67 45.00 468.00 C 43.47 464.31 39.75 462.36 36.00 462.00 Z"/><path fill="#FC3218" d="M 152.00 576.00 C 151.39 574.70 163.71 531.84 166.00 531.00 L 165.00 529.00 C 156.56 543.61 150.24 559.40 147.00 576.00 L 152.00 576.00 Z"/><path fill="#635344" d="M 292.00 115.00 L 291.00 113.00 C 281.48 110.34 270.98 114.59 267.00 124.00 L 260.00 123.00 L 252.00 129.00 L 260.00 128.00 C 262.58 131.65 266.87 133.59 271.28 133.47 L 275.12 122.09 C 276.32 118.79 278.96 116.29 282.13 114.91 C 285.29 113.52 288.86 113.70 292.00 115.00 Z"/><path fill="#956F3F" d="M 291.00 113.00 L 282.00 109.00 L 272.00 110.00 C 270.14 113.31 266.85 115.68 263.00 116.00 L 253.00 123.00 L 251.00 129.00 L 252.00 129.00 L 260.00 123.00 L 267.00 124.00 C 270.98 114.59 281.48 110.34 291.00 113.00 Z"/><path fill="#221D19" d="M 239.00 318.00 L 238.00 309.00 C 235.42 309.11 226.83 337.17 216.00 332.00 L 213.86 334.47 L 209.00 328.00 C 209.53 326.12 209.20 322.47 207.00 322.00 L 207.00 323.00 L 207.00 325.00 L 207.00 337.00 C 211.43 338.71 216.45 338.87 220.79 336.68 C 225.12 334.50 228.68 330.79 230.00 326.00 L 236.82 316.46 L 239.00 318.00 Z"/><path fill="#FCD551" d="M 315.00 227.00 C 316.37 233.38 314.76 240.17 310.11 244.90 C 305.45 249.64 298.78 252.05 292.16 250.75 L 279.00 247.00 C 280.39 251.02 284.54 254.09 289.01 252.75 L 304.42 252.04 C 311.88 249.73 327.05 229.85 316.00 225.00 L 315.00 227.00 Z"/><path fill="#D69514" d="M 179.00 576.00 L 178.00 573.00 C 181.13 565.82 179.40 557.55 174.00 552.00 L 172.00 556.00 L 170.00 576.00 L 179.00 576.00 Z"/><path fill="#FC3218" d="M 52.00 410.00 L 56.05 411.85 C 60.68 412.37 65.32 410.82 68.66 407.56 C 72.00 404.30 73.74 399.72 73.33 395.06 L 65.76 390.72 L 63.00 394.00 C 62.60 398.58 60.69 403.06 57.00 406.00 L 52.00 410.00 Z"/><path fill="#4C423A" d="M 89.00 388.00 L 86.00 388.00 L 79.00 395.00 C 77.73 396.35 77.21 398.20 77.31 400.02 C 77.41 401.83 78.37 403.45 79.72 404.61 L 85.96 404.61 L 96.79 395.70 L 102.00 389.00 L 98.00 388.00 C 97.65 389.72 96.69 391.31 95.15 392.23 C 93.61 393.15 91.75 393.52 90.00 393.00 L 88.40 396.44 L 84.55 397.30 C 85.90 393.46 89.38 392.30 89.00 388.00 Z"/><path fill="#0F0C0A" d="M 268.00 394.00 L 284.44 397.42 L 299.58 396.59 C 306.07 396.65 312.15 393.81 316.62 389.22 C 321.09 384.62 323.23 378.34 323.00 372.00 L 321.00 374.00 L 315.00 384.00 C 312.00 388.52 307.46 392.03 302.00 393.00 L 294.00 395.00 C 289.54 397.03 284.46 396.86 280.00 395.00 L 266.00 391.00 L 266.00 392.00 L 268.00 394.00 Z"/><path fill="#CF0401" d="M 252.00 159.00 L 249.00 160.00 C 248.49 173.79 251.57 187.39 257.00 200.00 C 262.68 196.47 254.54 164.44 252.00 159.00 Z"/><path fill="#4C423A" d="M 186.00 458.00 L 183.00 456.00 L 184.00 459.00 C 165.98 469.65 143.02 471.02 125.00 459.00 C 142.63 472.57 166.74 474.26 186.00 463.00 L 186.00 458.00 Z"/><path fill="#CF0401" d="M 155.00 400.00 L 154.00 400.00 L 147.30 399.32 L 121.32 413.33 L 120.00 419.00 L 130.00 414.00 L 141.00 408.00 L 155.00 402.00 L 155.00 400.00 Z"/><path fill="#221D19" d="M 395.00 309.00 C 392.17 311.58 388.15 311.87 384.69 310.73 C 381.24 309.60 379.14 306.40 378.46 303.02 C 380.03 298.75 384.11 295.28 389.00 296.00 C 387.20 294.61 384.95 293.61 382.60 294.00 C 380.24 294.38 377.88 295.41 376.49 297.49 C 371.69 302.45 375.42 306.86 375.00 312.00 L 377.00 310.00 L 377.00 314.00 L 380.00 315.00 C 379.05 311.93 387.91 315.72 390.00 316.00 L 390.00 313.00 L 393.00 314.00 L 395.00 309.00 Z"/><path fill="#CF0401" d="M 505.00 532.00 C 501.56 531.78 494.04 525.08 491.00 529.00 C 493.73 530.89 506.74 538.61 507.00 540.00 L 510.00 539.00 C 511.63 544.70 517.03 548.57 523.00 548.00 L 525.00 546.00 C 524.72 545.23 513.27 535.14 513.00 535.00 L 506.00 535.00 L 505.00 532.00 Z"/><path fill="#0F0C0A" d="M 83.00 385.00 L 84.00 375.00 L 71.62 382.65 L 60.00 383.00 C 60.96 385.00 65.05 384.29 64.00 387.00 C 67.69 387.91 69.52 392.16 73.78 391.00 L 83.00 385.00 Z"/><path fill="#4C423A" d="M 152.00 526.00 L 116.05 518.14 L 111.72 515.29 L 102.00 513.00 C 107.08 517.16 113.32 519.96 120.00 520.00 L 119.00 522.00 C 125.18 525.04 132.06 526.76 139.00 526.00 L 137.00 524.00 L 152.00 526.00 Z"/><path fill="#372E28" d="M 388.00 576.00 C 385.78 569.03 389.49 561.53 396.45 559.17 C 396.97 556.92 397.82 550.54 401.00 551.00 C 400.22 549.32 399.38 548.36 402.00 548.00 C 401.20 544.29 402.23 539.88 406.00 538.00 C 399.68 536.96 383.66 572.03 383.00 572.00 C 384.74 573.14 383.17 574.93 382.00 576.00 L 388.00 576.00 Z"/><path fill="#4C423A" d="M 224.00 481.00 C 222.53 481.79 215.10 477.85 217.00 483.00 L 214.00 482.00 C 212.41 487.46 214.47 493.92 220.24 496.13 L 221.44 491.73 L 224.00 494.00 L 229.44 490.71 C 228.24 488.55 223.03 482.90 224.00 481.00 Z"/><path fill="#C2BBAE" d="M 276.00 522.00 L 277.13 518.16 L 291.00 502.00 C 281.14 506.92 271.50 512.73 264.00 521.00 L 276.00 522.00 Z"/><path fill="#0F0C0A" d="M 440.00 576.00 L 450.00 576.00 C 452.97 573.40 453.85 569.39 453.63 565.66 C 453.41 561.94 450.90 558.99 448.00 557.00 L 449.00 560.00 L 443.90 561.05 C 444.99 566.30 441.61 568.17 442.32 573.64 L 439.00 574.00 L 440.00 576.00 Z"/><path fill="#900301" d="M 377.00 569.00 C 384.06 564.48 388.77 556.62 388.00 548.00 C 386.34 547.10 383.74 546.36 382.01 548.01 L 376.57 566.02 L 377.00 569.00 Z"/><path fill="#CF0401" d="M 33.00 464.00 L 33.00 462.00 C 27.31 457.91 9.94 466.63 8.00 473.00 L 8.00 470.00 C 5.87 472.06 7.26 474.87 8.00 477.00 L 31.02 463.45 L 33.00 464.00 Z"/><path fill="#372E28" d="M 223.00 347.00 C 232.24 340.12 238.38 329.64 239.00 318.00 L 236.82 316.46 L 230.00 326.00 L 233.00 327.00 C 232.24 332.04 228.85 336.03 225.00 339.00 L 224.00 343.00 L 222.00 345.00 L 223.00 347.00 Z"/><path fill="#221D19" d="M 199.00 343.00 L 194.00 343.00 C 194.12 354.27 221.53 354.80 223.00 347.00 L 222.00 345.00 L 224.00 343.00 L 221.49 343.37 C 214.89 349.03 205.42 348.21 199.00 343.00 Z"/><path fill="#D69514" d="M 576.00 182.00 L 576.00 179.00 C 568.38 177.70 560.46 178.09 553.20 180.97 C 551.46 182.88 551.66 185.82 553.53 187.56 C 555.40 189.30 558.29 189.13 560.02 187.30 L 576.00 182.00 Z"/><path fill="#0F0C0A" d="M 298.00 130.00 C 296.07 129.96 293.79 130.81 295.00 133.00 L 293.00 135.00 L 296.00 137.00 C 293.78 138.67 298.53 146.43 300.00 148.00 L 302.00 146.00 C 302.11 147.67 301.83 150.33 304.00 150.00 C 306.84 148.14 306.04 144.96 306.00 142.00 L 304.00 142.00 L 298.00 130.00 Z"/><path fill="#221D19" d="M 353.00 342.00 L 351.00 340.00 C 349.82 345.18 352.24 350.56 357.00 353.00 C 355.63 354.93 352.81 352.04 351.00 352.00 L 352.00 355.00 C 354.57 360.03 359.64 363.00 365.00 364.00 L 370.00 363.00 C 364.40 360.91 360.57 356.12 358.00 351.00 C 355.30 351.99 354.26 345.84 355.00 344.00 L 353.00 342.00 Z"/><path fill="#4C423A" d="M 102.00 513.00 C 92.91 509.00 84.74 503.27 77.40 496.65 L 45.00 468.00 C 58.05 481.67 71.92 494.58 87.00 506.00 L 99.14 513.29 L 102.00 513.00 Z"/><path fill="#372E28" d="M 190.00 293.00 L 189.00 293.00 C 183.03 295.84 181.55 318.33 185.00 323.00 L 187.00 317.00 C 188.32 313.56 191.19 310.95 194.74 309.97 C 198.29 308.98 202.10 309.73 205.00 312.00 C 204.28 309.94 202.99 307.83 200.73 307.12 C 198.47 306.41 195.81 306.21 193.74 307.71 L 186.76 312.55 L 185.87 302.12 L 190.00 293.00 Z"/><path fill="#D69514" d="M 225.00 339.00 C 228.85 336.03 232.24 332.04 233.00 327.00 L 230.00 326.00 C 228.68 330.79 225.12 334.50 220.79 336.68 C 216.45 338.87 211.43 338.71 207.00 337.00 L 205.00 336.00 L 204.00 336.00 L 206.00 341.00 C 212.34 342.93 219.21 342.28 225.00 339.00 Z"/><path fill="#0F0C0A" d="M 216.00 466.00 L 199.00 466.00 L 193.00 466.00 C 189.35 475.81 201.88 469.66 205.04 469.60 L 217.77 471.38 L 218.00 466.00 L 216.00 466.00 Z"/><path fill="#CF0401" d="M 166.00 528.00 L 165.00 528.00 L 165.00 529.00 L 166.00 531.00 C 163.71 531.84 151.39 574.70 152.00 576.00 L 154.00 576.00 C 155.68 560.22 161.43 545.22 170.13 532.01 L 166.00 528.00 Z"/><path fill="#635344" d="M 278.00 182.00 L 291.00 169.00 L 291.00 166.00 C 279.23 165.04 283.05 170.51 276.00 177.00 L 278.00 182.00 Z"/><path fill="#372E28" d="M 207.00 286.00 L 211.00 280.00 L 203.00 277.00 L 193.00 286.00 L 195.00 287.00 L 194.00 290.00 C 196.75 287.30 205.56 286.63 205.00 285.00 L 207.00 286.00 Z"/><path fill="#372E28" d="M 241.00 304.00 C 237.82 287.30 223.47 275.64 207.00 274.00 C 222.40 276.74 233.76 289.10 237.00 304.00 L 238.00 306.00 L 241.00 304.00 Z"/><path fill="#900301" d="M 102.00 513.00 L 99.14 513.29 L 87.00 506.00 L 85.00 507.00 L 91.00 512.00 C 99.59 517.13 109.12 520.48 119.00 522.00 L 120.00 520.00 C 113.32 519.96 107.08 517.16 102.00 513.00 Z"/><path fill="#D69514" d="M 400.00 356.00 L 407.00 348.00 L 405.00 346.00 L 394.00 352.00 C 390.08 355.28 384.82 355.93 380.00 355.00 L 379.00 355.00 C 384.43 357.25 390.91 357.52 396.00 354.00 L 400.00 356.00 Z"/><path fill="#635344" d="M 392.00 576.00 L 402.00 576.00 C 400.92 572.66 402.18 569.04 405.00 567.00 C 400.85 565.51 395.77 565.28 392.18 568.50 L 392.00 576.00 Z"/><path fill="#635344" d="M 411.00 329.00 L 410.17 325.03 L 406.00 326.00 L 403.00 337.00 L 403.00 340.00 L 407.88 337.81 L 410.00 341.00 L 411.00 329.00 Z"/><path fill="#221D19" d="M 411.00 329.00 C 414.57 328.48 410.11 320.89 413.00 319.00 L 410.11 313.96 C 408.93 311.43 399.27 301.55 398.00 302.00 L 397.00 308.00 L 400.62 306.00 C 403.97 307.92 406.50 311.06 407.49 314.83 C 408.48 318.60 408.01 322.63 406.00 326.00 L 410.17 325.03 L 411.00 329.00 Z"/><path fill="#956F3F" d="M 8.00 470.00 C 4.29 464.07 10.24 452.01 4.00 447.00 L 0.00 449.00 L 0.00 451.00 L 3.00 450.00 C 4.86 455.45 5.44 461.35 4.00 467.00 C 2.91 470.87 4.37 474.87 6.00 478.00 L 8.00 477.00 C 7.26 474.87 5.87 472.06 8.00 470.00 Z"/><path fill="#372E28" d="M 362.00 326.00 L 356.00 326.00 L 351.00 333.00 L 351.00 337.00 L 351.00 340.00 L 353.00 342.00 C 352.43 337.62 355.20 333.76 359.00 332.00 C 361.88 327.83 367.53 326.26 372.00 329.00 C 370.20 325.46 365.30 326.69 362.00 326.00 Z"/><path fill="#372E28" d="M 255.00 498.00 C 267.43 497.33 279.90 496.11 292.00 493.00 C 290.45 490.06 255.94 495.77 255.00 498.00 Z"/><path fill="#956F3F" d="M 410.00 341.00 L 407.88 337.81 L 403.00 340.00 L 398.00 346.00 L 394.00 352.00 L 405.00 346.00 L 407.00 348.00 L 410.00 341.00 Z"/><path fill="#D69514" d="M 375.00 334.00 L 375.00 332.00 C 371.79 332.84 364.37 329.35 362.00 333.00 C 359.58 333.49 357.50 334.99 356.17 337.05 C 354.83 339.11 354.46 341.63 355.00 344.00 C 354.26 345.84 355.30 351.99 358.00 351.00 C 356.32 346.34 356.93 340.85 360.68 337.25 C 364.44 333.66 369.96 331.94 375.00 334.00 Z"/><path fill="#C2BBAE" d="M 17.00 380.00 L 23.00 372.00 C 15.46 376.55 8.64 382.22 3.00 389.00 L 2.00 386.00 L 0.00 387.00 L 0.00 391.00 L 4.00 392.00 C 4.14 389.83 14.68 381.81 17.00 380.00 Z"/><path fill="#900301" d="M 202.00 434.00 L 201.00 434.00 C 210.13 441.64 221.36 446.09 233.00 448.00 L 220.00 441.00 L 202.00 434.00 Z"/><path fill="#C2BBAE" d="M 272.00 110.00 L 282.00 109.00 C 270.33 106.79 258.47 112.36 253.00 123.00 L 263.00 116.00 C 264.99 112.83 268.19 110.45 272.00 110.00 Z"/><path fill="#635344" d="M 98.00 388.00 L 90.00 387.00 L 89.00 388.00 C 89.38 392.30 85.90 393.46 84.55 397.30 L 88.40 396.44 L 90.00 393.00 C 91.75 393.52 93.61 393.15 95.15 392.23 C 96.69 391.31 97.65 389.72 98.00 388.00 Z"/><path fill="#372E28" d="M 347.00 459.00 L 358.00 457.00 L 357.00 454.00 L 324.00 460.00 C 328.27 459.06 329.91 459.50 334.00 460.00 C 338.39 455.99 344.59 455.55 350.00 457.00 L 347.00 459.00 Z"/><path fill="#1E7AC2" d="M 267.00 370.00 L 271.00 375.00 C 274.93 371.97 267.13 366.81 265.76 364.20 L 263.57 352.50 C 261.55 353.63 260.33 355.72 259.98 357.95 C 259.63 360.19 260.49 362.38 262.00 364.00 L 262.00 358.00 L 267.00 370.00 Z"/><path fill="#D69514" d="M 576.00 141.00 L 576.00 137.00 L 574.00 134.00 L 568.30 141.31 C 564.78 144.13 557.12 143.47 555.00 147.00 C 562.32 149.25 570.25 145.80 573.40 138.75 L 576.00 141.00 Z"/><path fill="#D69514" d="M 205.00 314.00 L 203.00 314.00 L 192.00 315.00 L 187.00 317.00 L 185.00 323.00 L 187.00 327.00 C 186.16 315.10 197.85 316.07 207.00 316.00 L 207.00 314.00 L 205.00 314.00 Z"/><path fill="#4C423A" d="M 290.00 379.00 L 301.00 375.00 L 303.00 371.00 C 297.56 375.20 290.77 376.99 284.00 377.00 L 290.00 379.00 Z"/><path fill="#D69514" d="M 308.00 95.00 L 313.66 95.36 L 324.00 88.00 L 314.00 90.00 L 308.00 95.00 Z"/><path fill="#4C423A" d="M 230.00 355.00 L 231.00 357.00 C 235.73 356.02 235.32 350.10 240.00 350.00 C 238.79 348.93 239.48 346.41 241.00 346.00 L 239.00 345.00 L 230.00 355.00 Z"/><path fill="#372E28" d="M 394.00 352.00 L 398.00 346.00 L 387.83 352.15 C 385.29 352.68 380.64 351.54 380.00 355.00 C 384.82 355.93 390.08 355.28 394.00 352.00 Z"/><path fill="#956F3F" d="M 415.00 185.00 L 402.00 181.00 C 404.05 185.92 409.30 189.86 415.00 188.00 L 415.00 185.00 Z"/><path fill="#372E28" d="M 230.00 198.00 L 225.00 189.00 L 223.63 198.46 L 226.00 201.00 L 229.00 200.00 L 230.00 198.00 Z"/><path fill="#635344" d="M 199.00 363.00 C 201.42 366.38 207.51 363.02 210.00 366.00 L 212.00 364.00 L 215.00 366.00 L 220.00 363.00 L 219.00 360.00 L 207.00 362.00 L 199.00 363.00 Z"/><path fill="#372E28" d="M 376.00 354.00 L 377.00 342.00 C 373.93 342.17 371.54 344.63 371.28 347.65 C 371.02 350.67 373.09 353.33 376.00 354.00 Z"/><path fill="#4C423A" d="M 374.00 576.00 L 378.00 574.00 L 359.00 573.00 L 358.00 575.00 L 374.00 576.00 Z"/><path fill="#900301" d="M 139.00 526.00 C 145.09 528.31 151.71 528.48 158.00 527.00 L 152.00 526.00 L 137.00 524.00 L 139.00 526.00 Z"/><path fill="#C2BBAE" d="M 179.00 268.00 L 201.00 269.00 C 194.12 265.64 186.16 265.29 179.00 268.00 Z"/><path fill="#221D19" d="M 142.00 383.00 L 143.00 385.00 C 143.70 385.43 149.87 400.66 152.00 394.00 L 143.00 381.00 L 142.00 383.00 Z"/><path fill="#900301" d="M 255.00 453.00 L 249.00 452.00 C 252.60 454.96 257.17 457.10 262.00 456.39 L 280.00 455.00 L 278.00 455.00 C 270.27 456.51 262.42 455.09 255.00 453.00 Z"/><path fill="#FC3218" d="M 396.00 188.00 L 396.00 187.00 L 396.00 184.00 C 392.00 186.67 388.52 190.31 387.00 195.00 L 392.00 193.00 L 394.00 192.00 L 396.00 188.00 Z"/><path fill="#900301" d="M 205.00 314.00 L 205.00 312.00 C 202.10 309.73 198.29 308.98 194.74 309.97 C 191.19 310.95 188.32 313.56 187.00 317.00 L 192.00 315.00 C 193.17 313.23 195.05 311.98 197.20 311.81 C 199.35 311.65 201.52 312.38 203.00 314.00 L 205.00 314.00 Z"/><path fill="#C2BBAE" d="M 53.00 361.00 L 60.00 357.00 C 53.54 357.86 47.27 361.09 43.94 366.99 L 39.00 369.00 L 46.00 368.00 L 53.00 361.00 Z"/><path fill="#4C423A" d="M 125.00 459.00 L 111.00 447.00 C 109.60 448.76 110.53 448.55 107.66 447.26 C 112.44 452.50 118.48 456.34 125.00 459.00 Z"/><path fill="#372E28" d="M 119.00 412.00 L 126.18 405.23 C 122.77 404.87 117.86 404.42 116.00 401.00 C 119.62 403.52 120.10 408.20 119.00 412.00 Z"/><path fill="#221D19" d="M 334.00 460.00 C 329.91 459.50 328.27 459.06 324.00 460.00 L 320.00 463.00 L 322.00 464.00 L 334.00 460.00 Z"/><path fill="#D69514" d="M 199.00 343.00 C 197.83 339.48 195.01 336.28 191.00 336.00 L 193.00 342.00 L 194.00 343.00 L 199.00 343.00 Z"/><path fill="#1E7AC2" d="M 297.00 340.00 L 284.00 337.00 C 281.86 335.90 273.08 335.39 272.00 338.00 L 297.00 340.00 Z"/><path fill="#372E28" d="M 112.00 433.00 C 114.80 432.01 116.62 426.65 116.00 424.00 C 114.31 423.63 106.38 431.98 112.00 433.00 Z"/><path fill="#372E28" d="M 291.00 524.00 L 290.00 524.00 C 285.29 525.68 282.19 529.80 280.00 534.00 L 292.00 526.00 L 291.00 524.00 Z"/><path fill="#956F3F" d="M 343.00 248.00 L 355.00 230.00 C 349.24 234.61 345.00 240.88 343.00 248.00 Z"/><path fill="#CF0401" d="M 192.00 315.00 L 203.00 314.00 C 201.52 312.38 199.35 311.65 197.20 311.81 C 195.05 311.98 193.17 313.23 192.00 315.00 Z"/><path fill="#635344" d="M 221.00 360.00 C 220.17 362.05 222.65 362.66 224.00 364.00 C 226.22 364.25 228.91 362.35 228.00 360.00 L 226.00 360.00 L 227.00 357.00 C 225.38 356.17 220.85 357.97 221.00 360.00 Z"/><path fill="#4C423A" d="M 302.00 393.00 C 307.46 392.03 312.00 388.52 315.00 384.00 L 302.00 393.00 Z"/><path fill="#221D19" d="M 334.00 460.00 L 347.00 459.00 L 350.00 457.00 C 344.59 455.55 338.39 455.99 334.00 460.00 Z"/><path fill="#900301" d="M 373.00 331.00 L 372.00 329.00 C 367.53 326.26 361.88 327.83 359.00 332.00 L 360.00 333.00 C 363.66 330.16 368.61 329.07 373.00 331.00 Z"/><path fill="#0F0C0A" d="M 198.00 291.00 C 197.21 294.48 189.75 294.51 192.00 299.00 L 194.00 296.00 C 194.78 297.58 196.58 298.29 198.24 297.88 C 199.90 297.47 200.93 295.91 200.89 294.25 C 200.84 292.60 199.57 291.30 198.00 291.00 Z"/><path fill="#372E28" d="M 207.00 337.00 L 207.00 325.00 L 204.00 327.00 C 203.53 328.91 203.67 333.37 206.00 334.00 L 205.00 336.00 L 207.00 337.00 Z"/><path fill="#635344" d="M 4.00 467.00 C 5.44 461.35 4.86 455.45 3.00 450.00 L 0.00 451.00 L 4.00 467.00 Z"/><path fill="#372E28" d="M 265.00 194.00 C 266.99 193.06 268.08 190.87 267.59 188.72 C 267.11 186.56 265.22 185.01 263.00 185.00 L 265.00 194.00 Z"/><path fill="#221D19" d="M 266.00 391.00 L 256.00 385.00 C 257.09 389.54 261.41 392.47 266.00 392.00 L 266.00 391.00 Z"/><path fill="#956F3F" d="M 207.00 325.00 L 207.00 323.00 C 202.64 322.87 193.22 328.08 201.00 329.00 L 204.00 327.00 L 207.00 325.00 Z"/><path fill="#956F3F" d="M 360.00 333.00 L 359.00 332.00 C 355.20 333.76 352.43 337.62 353.00 342.00 L 355.00 344.00 C 354.46 341.63 354.83 339.11 356.17 337.05 C 357.50 334.99 359.58 333.49 362.00 333.00 L 360.00 333.00 Z"/><path fill="#C2BBAE" d="M 27.00 372.00 L 39.00 369.00 C 33.45 368.08 27.91 369.52 23.00 372.00 L 27.00 372.00 Z"/><path fill="#D69514" d="M 27.00 372.00 L 23.00 372.00 L 17.00 380.00 C 21.13 378.55 24.80 375.86 27.00 372.00 Z"/><path fill="#900301" d="M 180.00 455.00 L 183.00 456.00 L 186.00 458.00 L 190.00 461.00 L 192.00 461.00 L 192.00 460.00 L 188.00 456.00 L 180.00 455.00 Z"/><path fill="#C2BBAE" d="M 418.00 126.00 C 419.48 118.07 419.48 109.93 418.00 102.00 L 418.00 126.00 Z"/><path fill="#4C423A" d="M 205.00 336.00 L 206.00 334.00 C 203.67 333.37 203.53 328.91 204.00 327.00 L 201.00 329.00 C 200.79 331.57 200.77 335.11 204.00 336.00 L 205.00 336.00 Z"/><path fill="#221D19" d="M 278.00 455.00 L 255.00 453.00 C 262.42 455.09 270.27 456.51 278.00 455.00 Z"/><path fill="#372E28" d="M 322.00 464.00 L 320.00 463.00 L 324.00 460.00 L 313.00 464.00 L 319.00 463.00 L 316.00 466.00 L 322.00 464.00 Z"/><path fill="#372E28" d="M 232.00 543.00 L 234.76 539.47 L 225.00 540.00 L 224.00 542.00 L 232.00 543.00 Z"/><path fill="#FC3218" d="M 491.00 229.00 L 504.00 223.00 C 498.99 223.11 494.47 225.57 491.00 229.00 Z"/><path fill="#C2BBAE" d="M 207.00 362.00 L 193.00 361.00 L 199.00 363.00 L 207.00 362.00 Z"/><path fill="#D69514" d="M 337.00 260.00 C 333.16 260.36 329.67 263.01 329.00 267.00 C 332.96 266.83 336.36 263.97 337.00 260.00 Z"/><path fill="#FC3218" d="M 130.00 414.00 L 141.00 408.00 L 130.00 414.00 Z"/><path fill="#D69514" d="M 263.00 116.00 C 266.85 115.68 270.14 113.31 272.00 110.00 C 268.19 110.45 264.99 112.83 263.00 116.00 Z"/><path fill="#CF0401" d="M 131.00 358.00 L 128.00 349.00 C 126.75 352.39 127.21 356.42 130.00 359.00 L 131.00 358.00 Z"/><path fill="#4C423A" d="M 458.00 412.00 C 462.15 410.77 465.30 407.31 466.00 403.00 L 458.00 412.00 Z"/><path fill="#D69514" d="M 4.00 443.00 L 2.00 443.00 C -0.56 443.49 0.00 446.95 0.00 449.00 L 4.00 447.00 L 4.00 443.00 Z"/><path fill="#C2BBAE" d="M 164.00 456.00 L 144.00 456.00 C 150.52 458.02 157.48 457.90 164.00 456.00 Z"/><path fill="#221D19" d="M 313.00 272.00 L 294.00 272.00 L 313.00 272.00 Z"/><path fill="#4C423A" d="M 194.00 290.00 L 195.00 287.00 L 193.00 286.00 L 189.00 293.00 L 190.00 293.00 L 194.00 290.00 Z"/><path fill="#CF0401" d="M 375.00 331.00 L 373.00 331.00 C 368.61 329.07 363.66 330.16 360.00 333.00 L 362.00 333.00 C 364.37 329.35 371.79 332.84 375.00 332.00 L 375.00 331.00 Z"/><path fill="#4C423A" d="M 262.00 364.00 L 267.00 370.00 L 262.00 358.00 L 262.00 364.00 Z"/><path fill="#372E28" d="M 313.00 467.00 L 311.00 466.00 L 313.00 464.00 C 310.63 465.88 306.61 465.19 306.00 469.00 L 313.00 467.00 Z"/><path fill="#CF0401" d="M 52.00 410.00 L 57.00 406.00 L 46.00 409.00 L 52.00 410.00 Z"/><path fill="#900301" d="M 220.00 474.00 L 220.00 464.00 C 218.06 463.84 216.42 463.54 216.00 466.00 L 218.00 466.00 L 219.00 474.00 L 220.00 474.00 Z"/><path fill="#0F0C0A" d="M 105.00 495.00 C 104.48 492.17 102.34 491.89 100.00 492.00 L 102.00 496.00 L 100.00 498.00 C 100.28 499.75 103.06 498.19 103.00 497.00 L 102.00 494.00 L 105.00 495.00 Z"/><path fill="#372E28" d="M 437.00 499.00 L 430.00 493.00 L 433.00 498.00 L 437.00 499.00 Z"/><path fill="#C2BBAE" d="M 324.00 88.00 L 326.00 87.00 C 321.74 86.10 317.35 87.29 314.00 90.00 L 324.00 88.00 Z"/><path fill="#956F3F" d="M 414.00 286.00 C 409.63 284.16 404.63 283.27 400.00 285.00 L 399.00 286.00 L 414.00 286.00 Z"/><path fill="#221D19" d="M 316.00 466.00 L 319.00 463.00 L 313.00 464.00 L 311.00 466.00 L 313.00 467.00 L 316.00 466.00 Z"/><path fill="#CF0401" d="M 500.00 544.00 L 491.00 536.00 C 492.30 540.11 495.74 543.22 500.00 544.00 Z"/><path fill="#D69514" d="M 46.00 368.00 C 48.82 367.57 52.57 363.82 53.00 361.00 L 46.00 368.00 Z"/><path fill="#CF0401" d="M 177.00 455.00 L 179.00 455.00 L 180.00 455.00 L 188.00 456.00 C 186.79 454.32 184.99 453.04 182.85 452.91 C 180.72 452.77 178.51 453.38 177.00 455.00 Z"/><path fill="#C2BBAE" d="M 282.00 525.00 L 289.00 521.00 L 280.00 522.00 L 282.00 525.00 Z"/><path fill="#CF0401" d="M 508.00 551.00 L 500.00 544.00 L 508.00 551.00 Z"/><path fill="#956F3F" d="M 416.00 336.00 L 416.00 322.00 L 416.00 336.00 Z"/><path fill="#221D19" d="M 294.00 395.00 L 280.00 395.00 C 284.46 396.86 289.54 397.03 294.00 395.00 Z"/><path fill="#C2BBAE" d="M 143.00 456.00 L 131.00 453.00 L 143.00 456.00 Z"/><path fill="#CF0401" d="M 515.00 556.00 L 509.00 552.00 C 509.03 554.42 511.46 557.26 514.00 557.00 L 515.00 556.00 Z"/></g></svg>